<svg xmlns="http://www.w3.org/2000/svg" width="46.613" height="59.377" viewBox="0 0 46.613 59.377"><defs><style>.a,.b{fill:#3ea864;}.b{stroke:#3ea864;}</style></defs><g transform="translate(-53.639 -48.961)"><path class="a" d="M192.543,274.9a.773.773,0,1,0-1.238-.926,4.238,4.238,0,0,1-3.113,1.565,4.3,4.3,0,0,1-3.113-1.565.773.773,0,1,0-1.238.926,5.425,5.425,0,0,0,8.7,0Z" transform="translate(-111.248 -192.516)"/><path class="b" d="M99.043,98.243a6.992,6.992,0,0,0-4.354-6.068L82.927,87.788a12.8,12.8,0,0,0,6.8-11.29V71.7a10.65,10.65,0,0,0,3.424-1.516,1.867,1.867,0,0,0,.459-2.522,5.178,5.178,0,0,0-2.437-2.042c-.162-2.326-1.307-11.026-9.354-13.743l.113-1.215a.771.771,0,0,0-.608-.827,30.107,30.107,0,0,0-8.707-.01.772.772,0,0,0-.656.837l.113,1.215C64.027,54.593,62.88,63.3,62.718,65.621a5.171,5.171,0,0,0-2.437,2.042,1.868,1.868,0,0,0,.459,2.506,10.654,10.654,0,0,0,3.422,1.516v4.8a12.8,12.8,0,0,0,6.8,11.29l-11.76,4.4a6.994,6.994,0,0,0-4.352,6.068l-.706,8.713a.773.773,0,0,0,.706.833h.064a.773.773,0,0,0,.769-.706l.706-8.713a5.444,5.444,0,0,1,3.35-4.747l2.1-.783v14.18a.776.776,0,0,0,1.552,0V92.26l3.2-1.194,1.233,9.284a.775.775,0,0,0,.766.672H85.3a.775.775,0,0,0,.766-.672L87.3,91.067l3.2,1.194v14.757a.773.773,0,1,0,1.545,0V92.838l2.1.783A5.446,5.446,0,0,1,97.5,98.368l.706,8.713a.773.773,0,0,0,.771.706h.062a.772.772,0,0,0,.706-.833ZM61.576,68.5a3.518,3.518,0,0,1,2.07-1.561.772.772,0,0,0,.59-.749c0-.411.116-9.811,7.982-12.732l.988,10.631a.772.772,0,0,0,1.538-.141L73.566,51.259a29.072,29.072,0,0,1,6.761-.041L79.143,63.944a.772.772,0,0,0,.7.847h.073a.772.772,0,0,0,.768-.706l.988-10.631c7.868,2.921,7.982,12.321,7.983,12.732a.772.772,0,0,0,.59.749A3.539,3.539,0,0,1,92.314,68.5a.327.327,0,0,1-.082.435c-1.019.751-4.537,2.484-15.288,2.54-10.749-.051-14.269-1.784-15.288-2.54A.326.326,0,0,1,61.576,68.5Zm4.131,8V72.066a55.556,55.556,0,0,0,10.663.94.627.627,0,0,0,.089,0h.971a.626.626,0,0,0,.089,0,55.539,55.539,0,0,0,10.662-.94v4.427a11.237,11.237,0,1,1-22.475,0Zm18.91,22.985H69.264l-1.19-8.966,4.746-1.77a.781.781,0,0,0,.174-.092,12.787,12.787,0,0,0,7.9,0,.824.824,0,0,0,.175.092l4.746,1.77Z"/><path class="a" d="M175.511,223.754a.773.773,0,0,0-1.545,0v2.228a.773.773,0,1,0,1.545,0Z" transform="translate(-102.913 -149.033)"/><path class="a" d="M247.25,226.538a.772.772,0,0,0,.772-.773v-2.228a.776.776,0,0,0-1.552,0v2.228a.773.773,0,0,0,.78.773Z" transform="translate(-165.186 -148.814)"/></g></svg>