<svg id="automated" xmlns="http://www.w3.org/2000/svg" xmlns:xlink="http://www.w3.org/1999/xlink" width="107.102" height="105" viewBox="0 0 107.102 105">
  <defs>
    <clipPath id="clip-path">
      <path id="Clip_2" data-name="Clip 2" d="M49.206,0a50.3,50.3,0,0,0-6.481.417h0C21.363,3.21,10.852,20.622,8.863,23.76h0C-2.015,40.911-4.2,66.893,9.825,83.385h0c9.269,10.9,22.091,13.5,28.723,14.852h0c4.492.912,25.626,4.648,43.488-8.168h0a35.786,35.786,0,0,0,5.475-4.61h0c15.4-16.216,17.034-54.988-5.874-74.18h0C72.519,3.64,60.5,0,49.255,0h-.049Z" fill="none"/>
    </clipPath>
    <linearGradient id="linear-gradient" x1="1.13" y1="1.295" x2="0.236" y2="0.19" gradientUnits="objectBoundingBox">
      <stop offset="0" stop-color="#dae2fd"/>
      <stop offset="1" stop-color="#e8effd"/>
    </linearGradient>
    <clipPath id="clip-path-2">
      <path id="Clip_5" data-name="Clip 5" d="M91.846,0,3.08,2.3A2.925,2.925,0,0,0,0,4.887H0l.756,52.2a1.684,1.684,0,0,0,1.68,1.678H93.262a1.684,1.684,0,0,0,1.68-1.678h0L96.189,4.33a4.228,4.228,0,0,0-1.243-3.095h0A4.236,4.236,0,0,0,91.956,0h-.11" fill="none"/>
    </clipPath>
    <linearGradient id="linear-gradient-2" x1="0.48" y1="1.332" x2="0.51" y2="-0.429" gradientUnits="objectBoundingBox">
      <stop offset="0" stop-color="#08005d"/>
      <stop offset="1" stop-color="#1a0e90"/>
    </linearGradient>
    <clipPath id="clip-path-3">
      <path id="Clip_8" data-name="Clip 8" d="M89.174,0,4.1,2.283A3.911,3.911,0,0,0,0,6.1H0L.713,53.483A1.594,1.594,0,0,0,2.3,55.072H89.371a1.594,1.594,0,0,0,1.589-1.589h0L92.226,3.045A2.972,2.972,0,0,0,91.352.868h0A2.972,2.972,0,0,0,89.253,0h-.08" fill="none"/>
    </clipPath>
    <clipPath id="clip-path-4">
      <path id="Clip_13" data-name="Clip 13" d="M80.754.011C79.2.137,18.771,1.472,11.61,1.809h0C4.448,2.146-.217,2.707.008,5.7h0c.225,3,.259,37.675.167,41.592h0c-.036,1.553,1.743,1.929,6.012,1.8h0c3.362-.1,50.1.322,69.831.506h0a8.6,8.6,0,0,0,8.68-8.608h0c-.008-7.43-.027-17.959-.074-24.692h0C84.547,5.241,84.266,0,81.017,0h0q-.128,0-.263.011" fill="none"/>
    </clipPath>
    <clipPath id="clip-path-5">
      <path id="Clip_16" data-name="Clip 16" d="M.392,0A.393.393,0,0,0,0,.392H0v3.8a.393.393,0,0,0,.392.392h106.3a.393.393,0,0,0,.392-.392h0V.392A.393.393,0,0,0,106.689,0H.392Z" fill="none"/>
    </clipPath>
    <linearGradient id="linear-gradient-3" x1="0.563" y1="-14.554" x2="0.505" y2="-0.618" xlink:href="#linear-gradient-2"/>
    <clipPath id="clip-path-6">
      <path id="Clip_19" data-name="Clip 19" d="M18.425,0,2.013.746A2.186,2.186,0,0,0,0,3.046H0L.925,40.605a2.185,2.185,0,0,0,2.134,2.2h0l15.62-.148A2.177,2.177,0,0,0,20.762,40.4h0L20.63,2.249A2.191,2.191,0,0,0,18.516,0h0l-.091,0" fill="none"/>
    </clipPath>
    <linearGradient id="linear-gradient-4" x1="1.375" y1="-0.388" x2="0.248" y2="0.764" gradientUnits="objectBoundingBox">
      <stop offset="0" stop-color="#5255f0"/>
      <stop offset="1" stop-color="#166dff"/>
    </linearGradient>
    <clipPath id="clip-path-7">
      <path id="Clip_22" data-name="Clip 22" d="M55.777,0,2.006.893A2.152,2.152,0,0,0,0,3.18H0L.749,41.223a2.159,2.159,0,0,0,2.078,2.211h0l53.885-.661a2.151,2.151,0,0,0,2.013-2.294h0L57.863,2.2A2.161,2.161,0,0,0,55.808,0h-.031" transform="translate(0)" fill="none"/>
    </clipPath>
    <linearGradient id="linear-gradient-5" x1="-0.088" y1="1.216" x2="0.896" y2="0.023" gradientUnits="objectBoundingBox">
      <stop offset="0" stop-color="#989aff"/>
      <stop offset="1" stop-color="#4548ed"/>
    </linearGradient>
    <clipPath id="clip-path-8">
      <path id="Clip_25" data-name="Clip 25" d="M4.166.005,2.25.233,0,5.1,3.749,2.918c-.371,2.566,4.445,6.379,6.1,7.77h0a.379.379,0,0,1,.03.553h0l-.659.69a7.573,7.573,0,0,0,3.742,2.128h0l-.348-.641c-.013,0-6.876-12.024-7.8-13.155h0A.718.718,0,0,0,4.252,0h0a.72.72,0,0,0-.086.005" fill="none"/>
    </clipPath>
    <linearGradient id="linear-gradient-6" x1="0.558" y1="0.538" x2="0.882" y2="0.203" gradientUnits="objectBoundingBox">
      <stop offset="0" stop-color="#fdbaba"/>
      <stop offset="1" stop-color="#ff918e"/>
    </linearGradient>
    <clipPath id="clip-path-9">
      <path id="Clip_28" data-name="Clip 28" d="M.026.511a.429.429,0,0,0,.161.494h0A21.551,21.551,0,0,0,4.221,3.418h0a.119.119,0,0,0,.149-.141h0a3.8,3.8,0,0,0-.793-1.451h0l.051.1a.147.147,0,0,1-.2.193h0A11.293,11.293,0,0,1,.589,0h0A.971.971,0,0,0,.026.511" fill="none"/>
    </clipPath>
    <linearGradient id="linear-gradient-7" x1="0.876" y1="-0.594" x2="-0.238" y2="2.852" xlink:href="#linear-gradient-2"/>
    <clipPath id="clip-path-10">
      <path id="Clip_31" data-name="Clip 31" d="M0,4.312l4.113-1.38c-.883,2.438,3.062,7.146,4.4,8.843h0a.379.379,0,0,1-.082.547h0l-.786.543a7.574,7.574,0,0,0,3.234,2.841h0l-.211-.7c-.011-.007-1.041-2.488-1.053-2.5h0A43.685,43.685,0,0,0,5.688.547h0A.719.719,0,0,0,5.111.164h0L3.189,0Z" fill="none"/>
    </clipPath>
    <linearGradient id="linear-gradient-8" x1="1.281" y1="0.225" x2="4.685" y2="-1.251" xlink:href="#linear-gradient-6"/>
    <clipPath id="clip-path-11">
      <path id="Clip_34" data-name="Clip 34" d="M.062.386A.429.429,0,0,0,.12.9h0a21.551,21.551,0,0,0,3.462,3.18h0a.119.119,0,0,0,.175-.107h0a3.8,3.8,0,0,0-.483-1.581h0L3.3,2.5a.147.147,0,0,1-.238.148h0A11.293,11.293,0,0,1,.717,0h0A.971.971,0,0,0,.062.386" fill="none"/>
    </clipPath>
    <linearGradient id="linear-gradient-9" x1="1.146" y1="-0.326" x2="-0.76" y2="2.253" xlink:href="#linear-gradient-2"/>
    <clipPath id="clip-path-12">
      <path id="Clip_37" data-name="Clip 37" d="M1.9.076S.162,2.663.02,3.842h0C-.123,5.022.5,5.43,2.32,5.581h0c5.416.448,8.086-1.175,8.086-1.175h0c.371-2.362.634-2.963,3.728-4.248h0s-3.914.311-4.7.005h0A16.225,16.225,0,0,0,6.33,0h0C4.244,0,1.9.076,1.9.076" fill="none"/>
    </clipPath>
    <linearGradient id="linear-gradient-10" x1="1.1" y1="-0.8" x2="-0.456" y2="2" gradientUnits="objectBoundingBox">
      <stop offset="0" stop-color="#4f52ff"/>
      <stop offset="1" stop-color="#3f42e2"/>
    </linearGradient>
    <clipPath id="clip-path-13">
      <path id="Clip_40" data-name="Clip 40" d="M5.874.876c-.233.318-1.129.056-1.457.722h0a.846.846,0,0,1-.913.47h0A2.809,2.809,0,0,0,.27,3.352h0A1.475,1.475,0,0,0,.717,5.509h0a.948.948,0,0,1,.32,1.271h0A1.309,1.309,0,0,0,1.38,8.447h0c1.426,1.528,4.249-.97,4.249-.97h0L7.87,2.18l.5-1.63A1.646,1.646,0,0,0,7.247,0h0A1.743,1.743,0,0,0,5.874.876" fill="none"/>
    </clipPath>
    <linearGradient id="linear-gradient-11" x1="1.221" y1="-0.341" x2="0.66" y2="0.267" xlink:href="#linear-gradient-2"/>
    <clipPath id="clip-path-14">
      <path id="Clip_43" data-name="Clip 43" d="M6.223,0A17.41,17.41,0,0,0,0,7.812H0l1.971.614a23.035,23.035,0,0,1,2.319-3.2h0S2.3,7.859,2.226,8.937h0l4.238.438A39.7,39.7,0,0,0,9.485,6.17h0a2.71,2.71,0,0,0,.459-2.439h0A33.662,33.662,0,0,0,8.607.363h0C8.5.013,6.559,0,6.261,0H6.223" fill="none"/>
    </clipPath>
    <linearGradient id="linear-gradient-12" x1="1.574" y1="-1.838" x2="0.036" y2="1.771" xlink:href="#linear-gradient-10"/>
    <clipPath id="clip-path-15">
      <path id="Clip_46" data-name="Clip 46" d="M.041,1.176A.708.708,0,0,0,.3,1.99h0a4.688,4.688,0,0,0,.669.417h0c.349.153,8.038.048,8.038.048h0l1.772-.13L9.257.669,7.5,1.142a10.153,10.153,0,0,1-3.221,0h0L3.106.825.457,0Z" fill="none"/>
    </clipPath>
    <linearGradient id="linear-gradient-13" x1="0.377" y1="0.5" x2="-0.623" y2="0.5" xlink:href="#linear-gradient-6"/>
    <clipPath id="clip-path-16">
      <path id="Clip_49" data-name="Clip 49" d="M1.089,3.57C.588,3.57.058,3.411,0,3.057L1.526.22A2.089,2.089,0,0,0,1.733.143l.495.264c.158.084.674.708.635.9L1.949,3.2a.362.362,0,0,1-.048.125A1.048,1.048,0,0,1,1.089,3.57Z" fill="none"/>
    </clipPath>
    <linearGradient id="linear-gradient-14" x1="0.605" y1="1.92" x2="0.518" y2="0.833" xlink:href="#linear-gradient-6"/>
    <clipPath id="clip-path-17">
      <path id="Clip_52" data-name="Clip 52" d="M.052,1.223A2.679,2.679,0,0,0,.682,3.6h0c.381.435,1.132.49,1.885-.729h0A3.358,3.358,0,0,0,3.148.691h0C3.046.208,2.573,0,2.026,0h0C1.189,0,.178.488.052,1.223" fill="none"/>
    </clipPath>
    <linearGradient id="linear-gradient-15" x1="-0.031" y1="1.213" x2="1.45" y2="-1.1" xlink:href="#linear-gradient-6"/>
    <clipPath id="clip-path-18">
      <path id="Clip_55" data-name="Clip 55" d="M2.361.1C.982.484.176.92.021,1.878h0c-.156.957.626.8.626.8h0s.3-.66.659-.706h0c.361-.045.23.477.23.477h0l.1.059S2.859.906,3.8,2.3h0l-.016.483S5,2.729,4.866,1.606h0A1.756,1.756,0,0,0,3.056,0h0a2.592,2.592,0,0,0-.7.1" fill="none"/>
    </clipPath>
    <linearGradient id="linear-gradient-16" x1="1.32" y1="0.276" x2="-0.027" y2="0.749" xlink:href="#linear-gradient-2"/>
    <clipPath id="clip-path-19">
      <path id="Clip_58" data-name="Clip 58" d="M.016,1.186l.46-.176S1.108.19.533.02h0A.444.444,0,0,0,.407,0h0C-.039,0-.018.852.016,1.186" fill="none"/>
    </clipPath>
    <linearGradient id="linear-gradient-17" x1="-1.784" y1="3.241" x2="4.273" y2="-4.329" xlink:href="#linear-gradient-6"/>
    <clipPath id="clip-path-20">
      <path id="Clip_61" data-name="Clip 61" d="M7.311,0l-7,.008A.313.313,0,0,0,0,.321H0A.313.313,0,0,0,.3.634H.314l7-.008A.313.313,0,0,0,7.625.313h0A.312.312,0,0,0,7.317,0H7.311" fill="none"/>
    </clipPath>
    <linearGradient id="linear-gradient-18" x1="-0.117" y1="-1.933" x2="0.612" y2="0.941" xlink:href="#linear-gradient-2"/>
    <clipPath id="clip-path-21">
      <path id="Clip_64" data-name="Clip 64" d="M3.7,0a1.111,1.111,0,0,0-1,.637h0L0,6.35H7.243a.675.675,0,0,0,.628-.427h0L9.96.637A.465.465,0,0,0,9.527,0H3.7Z" fill="none"/>
    </clipPath>
    <linearGradient id="linear-gradient-19" x1="0.968" y1="0.565" x2="-4.107" y2="-0.107" xlink:href="#linear-gradient-2"/>
    <clipPath id="clip-path-22">
      <path id="Clip_67" data-name="Clip 67" d="M.056.584c-.126.392-.033.774.208.851h0C.506,1.513.8,1.257.93.865h0C1.057.473.964.092.722.014h0A.292.292,0,0,0,.632,0h0C.411,0,.167.239.056.584" fill="none"/>
    </clipPath>
    <linearGradient id="linear-gradient-20" x1="-0.284" y1="-0.304" x2="1.556" y2="1.583" xlink:href="#linear-gradient-10"/>
    <clipPath id="clip-path-23">
      <path id="Clip_70" data-name="Clip 70" d="M.766,0A.766.766,0,0,0,0,.766H0a.766.766,0,0,0,.766.766H48.089a.766.766,0,0,0,.766-.766h0A.766.766,0,0,0,48.089,0H.766Z" fill="none"/>
    </clipPath>
    <linearGradient id="linear-gradient-21" x1="0.507" y1="-3.194" x2="0.504" y2="-1.417" xlink:href="#linear-gradient-2"/>
    <clipPath id="clip-path-24">
      <path id="Clip_73" data-name="Clip 73" d="M1.851,0A1.851,1.851,0,0,0,0,1.851H0V7.788H37.62V1.851A1.851,1.851,0,0,0,35.769,0H1.851Z" fill="none"/>
    </clipPath>
    <linearGradient id="linear-gradient-22" x1="0.512" y1="-0.594" x2="0.495" y2="1.12" xlink:href="#linear-gradient-10"/>
    <clipPath id="clip-path-25">
      <path id="Clip_76" data-name="Clip 76" d="M1.851,0A1.852,1.852,0,0,0,0,1.851H0V3.308H32.6V1.851A1.851,1.851,0,0,0,30.75,0H1.851Z" fill="none"/>
    </clipPath>
    <linearGradient id="linear-gradient-23" x1="0.511" y1="-1.495" x2="0.495" y2="1.877" xlink:href="#linear-gradient-10"/>
    <clipPath id="clip-path-26">
      <path id="Clip_79" data-name="Clip 79" d="M.484,0A.484.484,0,0,0,0,.484H0V9.758H17.411V.484A.484.484,0,0,0,16.927,0H.484Z" fill="none"/>
    </clipPath>
    <linearGradient id="linear-gradient-24" x1="0.534" y1="-0.308" x2="0.489" y2="0.801" xlink:href="#linear-gradient-2"/>
    <linearGradient id="linear-gradient-25" x1="1.266" y1="-1.121" x2="0.347" y2="0.823" xlink:href="#linear-gradient-2"/>
    <linearGradient id="linear-gradient-26" x1="2.272" y1="-1.006" x2="-0.015" y2="0.938" xlink:href="#linear-gradient-2"/>
    <linearGradient id="linear-gradient-27" x1="2.199" y1="-0.945" x2="-0.088" y2="1" xlink:href="#linear-gradient-2"/>
    <linearGradient id="linear-gradient-28" x1="2.127" y1="-0.883" x2="-0.16" y2="1.061" xlink:href="#linear-gradient-2"/>
    <clipPath id="clip-path-27">
      <path id="Clip_90" data-name="Clip 90" d="M.344.974A1.066,1.066,0,0,0,.261,2.457h0L24.085,30.278a1.066,1.066,0,0,0,1.528.086h0L27.64,28.5,1.4,0Z" fill="none"/>
    </clipPath>
    <linearGradient id="linear-gradient-29" x1="0.424" y1="0.549" x2="0.525" y2="0.465" xlink:href="#linear-gradient-2"/>
    <clipPath id="clip-path-28">
      <path id="Clip_93" data-name="Clip 93" d="M2.831.569.694,2.536A2.152,2.152,0,0,0,.539,5.545h0L28.966,37.961l5.959-5.486a1.169,1.169,0,0,0,.049-1.673h0L5.842.662A2.147,2.147,0,0,0,4.289,0h0A2.145,2.145,0,0,0,2.831.569" fill="none"/>
    </clipPath>
    <linearGradient id="linear-gradient-30" x1="0.387" y1="0.562" x2="0.58" y2="0.397" xlink:href="#linear-gradient-2"/>
    <clipPath id="clip-path-29">
      <path id="Clip_96" data-name="Clip 96" d="M.773.45.55.656a1.7,1.7,0,0,0-.1,2.407h0l15,16.293a1.7,1.7,0,0,0,2.407.1h0l.224-.206a1.7,1.7,0,0,0,.1-2.407h0L3.18.55A1.7,1.7,0,0,0,1.926,0h0A1.7,1.7,0,0,0,.773.45" fill="none"/>
    </clipPath>
    <linearGradient id="linear-gradient-31" x1="0.085" y1="-0.383" x2="0.655" y2="0.831" xlink:href="#linear-gradient-10"/>
    <clipPath id="clip-path-30">
      <path id="Clip_101" data-name="Clip 101" d="M2.45,2.008a7.594,7.594,0,0,0-.443,10.731h0a7.594,7.594,0,0,0,10.731.443h0A7.594,7.594,0,0,0,13.181,2.45h0A7.574,7.574,0,0,0,7.593,0h0A7.568,7.568,0,0,0,2.45,2.008" fill="none"/>
    </clipPath>
    <linearGradient id="linear-gradient-32" x1="0.132" y1="0.839" x2="0.868" y2="0.161" xlink:href="#linear-gradient-10"/>
    <clipPath id="clip-path-31">
      <path id="Clip_106" data-name="Clip 106" d="M0,21.07,1.5,22.7a.856.856,0,0,0,1.228.032h0L23.635,2.042A.856.856,0,0,0,23.666.849h0L22.884,0Z" fill="none"/>
    </clipPath>
    <linearGradient id="linear-gradient-33" x1="0.666" y1="0.734" x2="0.489" y2="0.467" xlink:href="#linear-gradient-2"/>
    <clipPath id="clip-path-32">
      <path id="Clip_109" data-name="Clip 109" d="M25.628.433.32,22.627a.939.939,0,0,0-.072,1.342h0l4.406,4.785L29.549,4.692a1.728,1.728,0,0,0,.075-2.418h0L28.044.558A1.724,1.724,0,0,0,26.772,0h0a1.722,1.722,0,0,0-1.144.433" fill="none"/>
    </clipPath>
    <linearGradient id="linear-gradient-34" x1="0.071" y1="0.905" x2="0.959" y2="0.05" xlink:href="#linear-gradient-2"/>
    <clipPath id="clip-path-33">
      <path id="Clip_112" data-name="Clip 112" d="M14.161.394.481,12.99a1.49,1.49,0,0,0-.087,2.105h0a1.49,1.49,0,0,0,2.1.087h0l13.68-12.6A1.49,1.49,0,0,0,16.266.481h0A1.486,1.486,0,0,0,15.169,0h0a1.484,1.484,0,0,0-1.009.394" fill="none"/>
    </clipPath>
    <linearGradient id="linear-gradient-35" x1="0.264" y1="0.111" x2="0.687" y2="0.809" xlink:href="#linear-gradient-10"/>
    <clipPath id="clip-path-34">
      <path id="Clip_117" data-name="Clip 117" d="M1.968,1.612a6.1,6.1,0,0,0-.356,8.617h0a6.1,6.1,0,0,0,8.617.356h0a6.1,6.1,0,0,0,.356-8.617h0A6.083,6.083,0,0,0,6.1,0h0A6.076,6.076,0,0,0,1.968,1.612" fill="none"/>
    </clipPath>
    <clipPath id="clip-path-35">
      <path id="Clip_122" data-name="Clip 122" d="M2.653.4,0,4.766,17.861,14.86a1.235,1.235,0,0,0,1.562-.638h0l.951-1.564a1.235,1.235,0,0,0-.152-1.68h0L3.523.071A.441.441,0,0,0,3.279,0h0a.779.779,0,0,0-.626.4" fill="none"/>
    </clipPath>
    <linearGradient id="linear-gradient-37" x1="0.074" y1="0.152" x2="0.965" y2="0.899" xlink:href="#linear-gradient-2"/>
    <clipPath id="clip-path-36">
      <path id="Clip_125" data-name="Clip 125" d="M.7,2.3A4.787,4.787,0,0,0,2.3,8.878h0a4.787,4.787,0,0,0,6.578-1.6h0A4.787,4.787,0,0,0,7.276.7h0A4.765,4.765,0,0,0,4.792,0h0A4.784,4.784,0,0,0,.7,2.3" fill="none"/>
    </clipPath>
    <linearGradient id="linear-gradient-38" x1="1.503" y1="0.283" x2="-0.697" y2="0.759" xlink:href="#linear-gradient-10"/>
    <clipPath id="clip-path-37">
      <path id="Clip_130" data-name="Clip 130" d="M3.17.04.012,5.278a.083.083,0,0,0,.028.115h0L1.778,6.44a.083.083,0,0,0,.115-.028h0L5.051,1.174a.084.084,0,0,0-.028-.115h0L3.285.012A.083.083,0,0,0,3.242,0h0A.083.083,0,0,0,3.17.04" fill="none"/>
    </clipPath>
    <linearGradient id="linear-gradient-39" x1="-3.239" y1="1.009" x2="0.55" y2="0.493" xlink:href="#linear-gradient-10"/>
    <clipPath id="clip-path-38">
      <path id="Clip_133" data-name="Clip 133" d="M0,2.887.6,4.623l3.1-2.266L8.7,7.733l.84-.992L4,0Z" fill="none"/>
    </clipPath>
    <linearGradient id="linear-gradient-40" x1="1.593" y1="1.341" x2="0.444" y2="0.456" xlink:href="#linear-gradient-10"/>
    <clipPath id="clip-path-39">
      <path id="Clip_136" data-name="Clip 136" d="M.616.31,0,5.2,8.572,6.836,9.04,5.623,1.921,3.8l.5-3.8Z" fill="none"/>
    </clipPath>
    <linearGradient id="linear-gradient-41" x1="1.544" y1="1.546" x2="0.332" y2="0.545" xlink:href="#linear-gradient-10"/>
    <clipPath id="clip-path-40">
      <path id="Clip_139" data-name="Clip 139" d="M0,5.221a3.1,3.1,0,0,0,3.041.51h0A3.1,3.1,0,0,0,4.87,1.751h0A3.088,3.088,0,0,0,3.233,0h0Z" fill="none"/>
    </clipPath>
    <linearGradient id="linear-gradient-42" x1="0.315" y1="0.439" x2="0.911" y2="0.749" xlink:href="#linear-gradient-2"/>
    <clipPath id="clip-path-41">
      <path id="Clip_142" data-name="Clip 142" d="M4.078.149,3.614.918.549,6l-.506.839a.332.332,0,0,0,.128.451h0l1.556.938a.332.332,0,0,0,.459-.1h0L6.22,1.441A.332.332,0,0,0,6.092.99h0L4.536.052A.358.358,0,0,0,4.351,0h0a.315.315,0,0,0-.273.149" fill="none"/>
    </clipPath>
    <linearGradient id="linear-gradient-43" x1="1.075" y1="0.356" x2="-0.284" y2="0.696" xlink:href="#linear-gradient-10"/>
  </defs>
  <g id="Group_3" data-name="Group 3" transform="translate(1.137)">
    <path id="Clip_2-2" data-name="Clip 2" d="M49.206,0a50.3,50.3,0,0,0-6.481.417h0C21.363,3.21,10.852,20.622,8.863,23.76h0C-2.015,40.911-4.2,66.893,9.825,83.385h0c9.269,10.9,22.091,13.5,28.723,14.852h0c4.492.912,25.626,4.648,43.488-8.168h0a35.786,35.786,0,0,0,5.475-4.61h0c15.4-16.216,17.034-54.988-5.874-74.18h0C72.519,3.64,60.5,0,49.255,0h-.049Z" fill="none"/>
    <g id="Group_3-2" data-name="Group 3" clip-path="url(#clip-path)">
      <path id="Fill_1" data-name="Fill 1" d="M49.206,0a50.3,50.3,0,0,0-6.481.417h0C21.363,3.21,10.852,20.622,8.863,23.76h0C-2.015,40.911-4.2,66.893,9.825,83.385h0c9.269,10.9,22.091,13.5,28.723,14.852h0c4.492.912,25.626,4.648,43.488-8.168h0a35.786,35.786,0,0,0,5.475-4.61h0c15.4-16.216,17.034-54.988-5.874-74.18h0C72.519,3.64,60.5,0,49.255,0h-.049Z" fill="url(#linear-gradient)"/>
    </g>
  </g>
  <g id="Group_6" data-name="Group 6" transform="translate(4.792 34.935)">
    <path id="Clip_5-2" data-name="Clip 5" d="M91.846,0,3.08,2.3A2.925,2.925,0,0,0,0,4.887H0l.756,52.2a1.684,1.684,0,0,0,1.68,1.678H93.262a1.684,1.684,0,0,0,1.68-1.678h0L96.189,4.33a4.228,4.228,0,0,0-1.243-3.095h0A4.236,4.236,0,0,0,91.956,0h-.11" fill="none"/>
    <g id="Group_6-2" data-name="Group 6" clip-path="url(#clip-path-2)">
      <path id="Fill_4" data-name="Fill 4" d="M91.846,0,3.08,2.3A2.925,2.925,0,0,0,0,4.887H0l.756,52.2a1.684,1.684,0,0,0,1.68,1.678H93.262a1.684,1.684,0,0,0,1.68-1.678h0L96.189,4.33a4.228,4.228,0,0,0-1.243-3.095h0A4.236,4.236,0,0,0,91.956,0h-.11" fill="url(#linear-gradient-2)"/>
    </g>
  </g>
  <g id="Group_9" data-name="Group 9" transform="translate(7.115 36.925)">
    <path id="Clip_8-2" data-name="Clip 8" d="M89.174,0,4.1,2.283A3.911,3.911,0,0,0,0,6.1H0L.713,53.483A1.594,1.594,0,0,0,2.3,55.072H89.371a1.594,1.594,0,0,0,1.589-1.589h0L92.226,3.045A2.972,2.972,0,0,0,91.352.868h0A2.972,2.972,0,0,0,89.253,0h-.08" fill="none"/>
    <g id="Group_9-2" data-name="Group 9" clip-path="url(#clip-path-3)">
      <path id="Fill_7" data-name="Fill 7" d="M89.174,0,4.1,2.283A3.911,3.911,0,0,0,0,6.1H0L.713,53.483A1.594,1.594,0,0,0,2.3,55.072H89.371a1.594,1.594,0,0,0,1.589-1.589h0L92.226,3.045A2.972,2.972,0,0,0,91.352.868h0A2.972,2.972,0,0,0,89.253,0h-.08" fill="#797cff"/>
    </g>
  </g>
  <path id="Fill_10" data-name="Fill 10" d="M.345,18.889a.129.129,0,0,1-.129-.127L0,4.044A3.116,3.116,0,0,1,.9,1.708,4.284,4.284,0,0,1,3.738.729L30.906,0h0a.129.129,0,0,1,0,.258L3.737.987a4.015,4.015,0,0,0-2.659.907A2.867,2.867,0,0,0,.258,4.043L.474,18.758a.129.129,0,0,1-.127.131Z" transform="translate(8.286 39.488)" fill="#fff"/>
  <g id="Group_14" data-name="Group 14" transform="translate(11.489 40.486)">
    <path id="Clip_13-2" data-name="Clip 13" d="M80.754.011C79.2.137,18.771,1.472,11.61,1.809h0C4.448,2.146-.217,2.707.008,5.7h0c.225,3,.259,37.675.167,41.592h0c-.036,1.553,1.743,1.929,6.012,1.8h0c3.362-.1,50.1.322,69.831.506h0a8.6,8.6,0,0,0,8.68-8.608h0c-.008-7.43-.027-17.959-.074-24.692h0C84.547,5.241,84.266,0,81.017,0h0q-.128,0-.263.011" fill="none"/>
    <g id="Group_14-2" data-name="Group 14" clip-path="url(#clip-path-4)">
      <path id="Fill_12" data-name="Fill 12" d="M80.754.011C79.2.137,18.771,1.472,11.61,1.809h0C4.448,2.146-.217,2.707.008,5.7h0c.225,3,.259,37.675.167,41.592h0c-.036,1.553,1.743,1.929,6.012,1.8h0c3.362-.1,50.1.322,69.831.506h0a8.6,8.6,0,0,0,8.68-8.608h0c-.008-7.43-.027-17.959-.074-24.692h0C84.547,5.241,84.266,0,81.017,0h0q-.128,0-.263.011" fill="#9ebaff"/>
    </g>
  </g>
  <g id="Group_17" data-name="Group 17" transform="translate(0.02 93.443)">
    <path id="Clip_16-2" data-name="Clip 16" d="M.392,0A.393.393,0,0,0,0,.392H0v3.8a.393.393,0,0,0,.392.392h106.3a.393.393,0,0,0,.392-.392h0V.392A.393.393,0,0,0,106.689,0H.392Z" fill="none"/>
    <g id="Group_17-2" data-name="Group 17" clip-path="url(#clip-path-5)">
      <path id="Fill_15" data-name="Fill 15" d="M.392,0A.393.393,0,0,0,0,.392H0v3.8a.393.393,0,0,0,.392.392h106.3a.393.393,0,0,0,.392-.392h0V.392A.393.393,0,0,0,106.689,0H.392Z" fill="url(#linear-gradient-3)"/>
    </g>
  </g>
  <g id="Group_20" data-name="Group 20" transform="translate(12.289 44.616)">
    <path id="Clip_19-2" data-name="Clip 19" d="M18.425,0,2.013.746A2.186,2.186,0,0,0,0,3.046H0L.925,40.605a2.185,2.185,0,0,0,2.134,2.2h0l15.62-.148A2.177,2.177,0,0,0,20.762,40.4h0L20.63,2.249A2.191,2.191,0,0,0,18.516,0h0l-.091,0" fill="none"/>
    <g id="Group_20-2" data-name="Group 20" clip-path="url(#clip-path-6)">
      <path id="Fill_18" data-name="Fill 18" d="M18.425,0,2.013.746A2.186,2.186,0,0,0,0,3.046H0L.925,40.605a2.185,2.185,0,0,0,2.134,2.2h0l15.62-.148A2.177,2.177,0,0,0,20.762,40.4h0L20.63,2.249A2.191,2.191,0,0,0,18.516,0h0l-.091,0" fill="url(#linear-gradient-4)"/>
    </g>
  </g>
  <g id="Group_23" data-name="Group 23" transform="translate(35.057 43.962)">
    <path id="Clip_22-2" data-name="Clip 22" d="M55.777,0,2.006.893A2.152,2.152,0,0,0,0,3.18H0L.749,41.223a2.159,2.159,0,0,0,2.078,2.211h0l53.885-.661a2.151,2.151,0,0,0,2.013-2.294h0L57.863,2.2A2.161,2.161,0,0,0,55.808,0h-.031" transform="translate(0)" fill="none"/>
    <g id="Group_23-2" data-name="Group 23" clip-path="url(#clip-path-7)">
      <path id="Fill_21" data-name="Fill 21" d="M55.777,0,2.006.893A2.152,2.152,0,0,0,0,3.18H0L.749,41.223a2.159,2.159,0,0,0,2.078,2.211h0l53.885-.661a2.151,2.151,0,0,0,2.013-2.294h0L57.863,2.2A2.161,2.161,0,0,0,55.808,0h-.031" transform="translate(0)" fill="url(#linear-gradient-5)"/>
    </g>
  </g>
  <g id="Group_26" data-name="Group 26" transform="translate(86.41 86.966)">
    <path id="Clip_25-2" data-name="Clip 25" d="M4.166.005,2.25.233,0,5.1,3.749,2.918c-.371,2.566,4.445,6.379,6.1,7.77h0a.379.379,0,0,1,.03.553h0l-.659.69a7.573,7.573,0,0,0,3.742,2.128h0l-.348-.641c-.013,0-6.876-12.024-7.8-13.155h0A.718.718,0,0,0,4.252,0h0a.72.72,0,0,0-.086.005" fill="none"/>
    <g id="Group_26-2" data-name="Group 26" clip-path="url(#clip-path-8)">
      <path id="Fill_24" data-name="Fill 24" d="M4.166.005,2.25.233,0,5.1,3.749,2.918c-.371,2.566,4.445,6.379,6.1,7.77h0a.379.379,0,0,1,.03.553h0l-.659.69a7.573,7.573,0,0,0,3.742,2.128h0l-.348-.641c-.013,0-6.876-12.024-7.8-13.155h0A.718.718,0,0,0,4.252,0h0a.72.72,0,0,0-.086.005" fill="url(#linear-gradient-6)"/>
    </g>
  </g>
  <g id="Group_29" data-name="Group 29" transform="translate(95.419 98.525)">
    <path id="Clip_28-2" data-name="Clip 28" d="M.026.511a.429.429,0,0,0,.161.494h0A21.551,21.551,0,0,0,4.221,3.418h0a.119.119,0,0,0,.149-.141h0a3.8,3.8,0,0,0-.793-1.451h0l.051.1a.147.147,0,0,1-.2.193h0A11.293,11.293,0,0,1,.589,0h0A.971.971,0,0,0,.026.511" fill="none"/>
    <g id="Group_29-2" data-name="Group 29" clip-path="url(#clip-path-9)">
      <path id="Fill_27" data-name="Fill 27" d="M.026.511a.429.429,0,0,0,.161.494h0A21.551,21.551,0,0,0,4.221,3.418h0a.119.119,0,0,0,.149-.141h0a3.8,3.8,0,0,0-.793-1.451h0l.051.1a.147.147,0,0,1-.2.193h0A11.293,11.293,0,0,1,.589,0h0A.971.971,0,0,0,.026.511" fill="url(#linear-gradient-7)"/>
    </g>
  </g>
  <g id="Group_32" data-name="Group 32" transform="translate(85.681 88.325)">
    <path id="Clip_31-2" data-name="Clip 31" d="M0,4.312l4.113-1.38c-.883,2.438,3.062,7.146,4.4,8.843h0a.379.379,0,0,1-.082.547h0l-.786.543a7.574,7.574,0,0,0,3.234,2.841h0l-.211-.7c-.011-.007-1.041-2.488-1.053-2.5h0A43.685,43.685,0,0,0,5.688.547h0A.719.719,0,0,0,5.111.164h0L3.189,0Z" fill="none"/>
    <g id="Group_32-2" data-name="Group 32" clip-path="url(#clip-path-10)">
      <path id="Fill_30" data-name="Fill 30" d="M0,4.312l4.113-1.38c-.883,2.438,3.062,7.146,4.4,8.843h0a.379.379,0,0,1-.082.547h0l-.786.543a7.574,7.574,0,0,0,3.234,2.841h0l-.211-.7c-.011-.007-1.041-2.488-1.053-2.5h0A43.685,43.685,0,0,0,5.688.547h0A.719.719,0,0,0,5.111.164h0L3.189,0Z" fill="url(#linear-gradient-8)"/>
    </g>
  </g>
  <g id="Group_35" data-name="Group 35" transform="translate(93.057 100.903)">
    <path id="Clip_34-2" data-name="Clip 34" d="M.062.386A.429.429,0,0,0,.12.9h0a21.551,21.551,0,0,0,3.462,3.18h0a.119.119,0,0,0,.175-.107h0a3.8,3.8,0,0,0-.483-1.581h0L3.3,2.5a.147.147,0,0,1-.238.148h0A11.293,11.293,0,0,1,.717,0h0A.971.971,0,0,0,.062.386" fill="none"/>
    <g id="Group_35-2" data-name="Group 35" clip-path="url(#clip-path-11)">
      <path id="Fill_33" data-name="Fill 33" d="M.062.386A.429.429,0,0,0,.12.9h0a21.551,21.551,0,0,0,3.462,3.18h0a.119.119,0,0,0,.175-.107h0a3.8,3.8,0,0,0-.483-1.581h0L3.3,2.5a.147.147,0,0,1-.238.148h0A11.293,11.293,0,0,1,.717,0h0A.971.971,0,0,0,.062.386" fill="url(#linear-gradient-9)"/>
    </g>
  </g>
  <g id="Group_38" data-name="Group 38" transform="translate(77.971 87.341)">
    <path id="Clip_37-2" data-name="Clip 37" d="M1.9.076S.162,2.663.02,3.842h0C-.123,5.022.5,5.43,2.32,5.581h0c5.416.448,8.086-1.175,8.086-1.175h0c.371-2.362.634-2.963,3.728-4.248h0s-3.914.311-4.7.005h0A16.225,16.225,0,0,0,6.33,0h0C4.244,0,1.9.076,1.9.076" fill="none"/>
    <g id="Group_38-2" data-name="Group 38" clip-path="url(#clip-path-12)">
      <path id="Fill_36" data-name="Fill 36" d="M1.9.076S.162,2.663.02,3.842h0C-.123,5.022.5,5.43,2.32,5.581h0c5.416.448,8.086-1.175,8.086-1.175h0c.371-2.362.634-2.963,3.728-4.248h0s-3.914.311-4.7.005h0A16.225,16.225,0,0,0,6.33,0h0C4.244,0,1.9.076,1.9.076" fill="url(#linear-gradient-10)"/>
    </g>
  </g>
  <g id="Group_41" data-name="Group 41" transform="translate(78.434 72.376)">
    <path id="Clip_40-2" data-name="Clip 40" d="M5.874.876c-.233.318-1.129.056-1.457.722h0a.846.846,0,0,1-.913.47h0A2.809,2.809,0,0,0,.27,3.352h0A1.475,1.475,0,0,0,.717,5.509h0a.948.948,0,0,1,.32,1.271h0A1.309,1.309,0,0,0,1.38,8.447h0c1.426,1.528,4.249-.97,4.249-.97h0L7.87,2.18l.5-1.63A1.646,1.646,0,0,0,7.247,0h0A1.743,1.743,0,0,0,5.874.876" fill="none"/>
    <g id="Group_41-2" data-name="Group 41" clip-path="url(#clip-path-13)">
      <path id="Fill_39" data-name="Fill 39" d="M5.874.876c-.233.318-1.129.056-1.457.722h0a.846.846,0,0,1-.913.47h0A2.809,2.809,0,0,0,.27,3.352h0A1.475,1.475,0,0,0,.717,5.509h0a.948.948,0,0,1,.32,1.271h0A1.309,1.309,0,0,0,1.38,8.447h0c1.426,1.528,4.249-.97,4.249-.97h0L7.87,2.18l.5-1.63A1.646,1.646,0,0,0,7.247,0h0A1.743,1.743,0,0,0,5.874.876" fill="url(#linear-gradient-11)"/>
    </g>
  </g>
  <g id="Group_44" data-name="Group 44" transform="translate(78.111 77.699)">
    <path id="Clip_43-2" data-name="Clip 43" d="M6.223,0A17.41,17.41,0,0,0,0,7.812H0l1.971.614a23.035,23.035,0,0,1,2.319-3.2h0S2.3,7.859,2.226,8.937h0l4.238.438A39.7,39.7,0,0,0,9.485,6.17h0a2.71,2.71,0,0,0,.459-2.439h0A33.662,33.662,0,0,0,8.607.363h0C8.5.013,6.559,0,6.261,0H6.223" fill="none"/>
    <g id="Group_44-2" data-name="Group 44" clip-path="url(#clip-path-14)">
      <path id="Fill_42" data-name="Fill 42" d="M6.223,0A17.41,17.41,0,0,0,0,7.812H0l1.971.614a23.035,23.035,0,0,1,2.319-3.2h0S2.3,7.859,2.226,8.937h0l4.238.438A39.7,39.7,0,0,0,9.485,6.17h0a2.71,2.71,0,0,0,.459-2.439h0A33.662,33.662,0,0,0,8.607.363h0C8.5.013,6.559,0,6.261,0H6.223" fill="url(#linear-gradient-12)"/>
    </g>
  </g>
  <g id="Group_47" data-name="Group 47" transform="translate(77.655 85.511)">
    <path id="Clip_46-2" data-name="Clip 46" d="M.041,1.176A.708.708,0,0,0,.3,1.99h0a4.688,4.688,0,0,0,.669.417h0c.349.153,8.038.048,8.038.048h0l1.772-.13L9.257.669,7.5,1.142a10.153,10.153,0,0,1-3.221,0h0L3.106.825.457,0Z" fill="none"/>
    <g id="Group_47-2" data-name="Group 47" clip-path="url(#clip-path-15)">
      <path id="Fill_45" data-name="Fill 45" d="M.041,1.176A.708.708,0,0,0,.3,1.99h0a4.688,4.688,0,0,0,.669.417h0c.349.153,8.038.048,8.038.048h0l1.772-.13L9.257.669,7.5,1.142a10.153,10.153,0,0,1-3.221,0h0L3.106.825.457,0Z" fill="url(#linear-gradient-13)"/>
    </g>
  </g>
  <g id="Group_50" data-name="Group 50" transform="translate(84.369 74.75)">
    <path id="Clip_49-2" data-name="Clip 49" d="M1.089,3.57C.588,3.57.058,3.411,0,3.057L1.526.22A2.089,2.089,0,0,0,1.733.143l.495.264c.158.084.674.708.635.9L1.949,3.2a.362.362,0,0,1-.048.125A1.048,1.048,0,0,1,1.089,3.57Z" fill="none"/>
    <g id="Group_50-2" data-name="Group 50" clip-path="url(#clip-path-16)">
      <path id="Fill_48" data-name="Fill 48" d="M1.089,3.57C.588,3.57.058,3.411,0,3.057L1.526.22A2.089,2.089,0,0,0,1.733.143l.495.264c.158.084.674.708.635.9L1.949,3.2a.362.362,0,0,1-.048.125A1.048,1.048,0,0,1,1.089,3.57Z" fill="url(#linear-gradient-14)"/>
    </g>
  </g>
  <g id="Group_53" data-name="Group 53" transform="translate(85.835 73.612)">
    <path id="Clip_52-2" data-name="Clip 52" d="M.052,1.223A2.679,2.679,0,0,0,.682,3.6h0c.381.435,1.132.49,1.885-.729h0A3.358,3.358,0,0,0,3.148.691h0C3.046.208,2.573,0,2.026,0h0C1.189,0,.178.488.052,1.223" fill="none"/>
    <g id="Group_53-2" data-name="Group 53" clip-path="url(#clip-path-17)">
      <path id="Fill_51" data-name="Fill 51" d="M.052,1.223A2.679,2.679,0,0,0,.682,3.6h0c.381.435,1.132.49,1.885-.729h0A3.358,3.358,0,0,0,3.148.691h0C3.046.208,2.573,0,2.026,0h0C1.189,0,.178.488.052,1.223" fill="url(#linear-gradient-15)"/>
    </g>
  </g>
  <g id="Group_56" data-name="Group 56" transform="translate(85.16 72.459)">
    <path id="Clip_55-2" data-name="Clip 55" d="M2.361.1C.982.484.176.92.021,1.878h0c-.156.957.626.8.626.8h0s.3-.66.659-.706h0c.361-.045.23.477.23.477h0l.1.059S2.859.906,3.8,2.3h0l-.016.483S5,2.729,4.866,1.606h0A1.756,1.756,0,0,0,3.056,0h0a2.592,2.592,0,0,0-.7.1" fill="none"/>
    <g id="Group_56-2" data-name="Group 56" clip-path="url(#clip-path-18)">
      <path id="Fill_54" data-name="Fill 54" d="M2.361.1C.982.484.176.92.021,1.878h0c-.156.957.626.8.626.8h0s.3-.66.659-.706h0c.361-.045.23.477.23.477h0l.1.059S2.859.906,3.8,2.3h0l-.016.483S5,2.729,4.866,1.606h0A1.756,1.756,0,0,0,3.056,0h0a2.592,2.592,0,0,0-.7.1" fill="url(#linear-gradient-16)"/>
    </g>
  </g>
  <g id="Group_59" data-name="Group 59" transform="translate(86.043 73.915)">
    <path id="Clip_58-2" data-name="Clip 58" d="M.016,1.186l.46-.176S1.108.19.533.02h0A.444.444,0,0,0,.407,0h0C-.039,0-.018.852.016,1.186" fill="none"/>
    <g id="Group_59-2" data-name="Group 59" clip-path="url(#clip-path-19)">
      <path id="Fill_57" data-name="Fill 57" d="M.016,1.186l.46-.176S1.108.19.533.02h0A.444.444,0,0,0,.407,0h0C-.039,0-.018.852.016,1.186" fill="url(#linear-gradient-17)"/>
    </g>
  </g>
  <g id="Group_62" data-name="Group 62" transform="translate(83.099 87.857)">
    <path id="Clip_61-2" data-name="Clip 61" d="M7.311,0l-7,.008A.313.313,0,0,0,0,.321H0A.313.313,0,0,0,.3.634H.314l7-.008A.313.313,0,0,0,7.625.313h0A.312.312,0,0,0,7.317,0H7.311" fill="none"/>
    <g id="Group_62-2" data-name="Group 62" clip-path="url(#clip-path-20)">
      <path id="Fill_60" data-name="Fill 60" d="M7.311,0l-7,.008A.313.313,0,0,0,0,.321H0A.313.313,0,0,0,.3.634H.314l7-.008A.313.313,0,0,0,7.625.313h0A.312.312,0,0,0,7.317,0H7.311" fill="url(#linear-gradient-18)"/>
    </g>
  </g>
  <g id="Group_65" data-name="Group 65" transform="translate(87.175 82.136)">
    <path id="Clip_64-2" data-name="Clip 64" d="M3.7,0a1.111,1.111,0,0,0-1,.637h0L0,6.35H7.243a.675.675,0,0,0,.628-.427h0L9.96.637A.465.465,0,0,0,9.527,0H3.7Z" fill="none"/>
    <g id="Group_65-2" data-name="Group 65" clip-path="url(#clip-path-21)">
      <path id="Fill_63" data-name="Fill 63" d="M3.7,0a1.111,1.111,0,0,0-1,.637h0L0,6.35H7.243a.675.675,0,0,0,.628-.427h0L9.96.637A.465.465,0,0,0,9.527,0H3.7Z" fill="url(#linear-gradient-19)"/>
    </g>
  </g>
  <g id="Group_68" data-name="Group 68" transform="translate(92.54 84.482)">
    <path id="Clip_67-2" data-name="Clip 67" d="M.056.584c-.126.392-.033.774.208.851h0C.506,1.513.8,1.257.93.865h0C1.057.473.964.092.722.014h0A.292.292,0,0,0,.632,0h0C.411,0,.167.239.056.584" fill="none"/>
    <g id="Group_68-2" data-name="Group 68" clip-path="url(#clip-path-22)">
      <path id="Fill_66" data-name="Fill 66" d="M.056.584c-.126.392-.033.774.208.851h0C.506,1.513.8,1.257.93.865h0C1.057.473.964.092.722.014h0A.292.292,0,0,0,.632,0h0C.411,0,.167.239.056.584" fill="url(#linear-gradient-20)"/>
    </g>
  </g>
  <g id="Group_71" data-name="Group 71" transform="translate(11.31 96.389)">
    <path id="Clip_70-2" data-name="Clip 70" d="M.766,0A.766.766,0,0,0,0,.766H0a.766.766,0,0,0,.766.766H48.089a.766.766,0,0,0,.766-.766h0A.766.766,0,0,0,48.089,0H.766Z" fill="none"/>
    <g id="Group_71-2" data-name="Group 71" clip-path="url(#clip-path-23)">
      <path id="Fill_69" data-name="Fill 69" d="M.766,0A.766.766,0,0,0,0,.766H0a.766.766,0,0,0,.766.766H48.089a.766.766,0,0,0,.766-.766h0A.766.766,0,0,0,48.089,0H.766Z" fill="url(#linear-gradient-21)"/>
    </g>
  </g>
  <g id="Group_74" data-name="Group 74" transform="translate(16.928 88.601)">
    <path id="Clip_73-2" data-name="Clip 73" d="M1.851,0A1.851,1.851,0,0,0,0,1.851H0V7.788H37.62V1.851A1.851,1.851,0,0,0,35.769,0H1.851Z" fill="none"/>
    <g id="Group_74-2" data-name="Group 74" clip-path="url(#clip-path-24)">
      <path id="Fill_72" data-name="Fill 72" d="M1.851,0A1.851,1.851,0,0,0,0,1.851H0V7.788H37.62V1.851A1.851,1.851,0,0,0,35.769,0H1.851Z" fill="url(#linear-gradient-22)"/>
    </g>
  </g>
  <g id="Group_77" data-name="Group 77" transform="translate(19.437 85.293)">
    <path id="Clip_76-2" data-name="Clip 76" d="M1.851,0A1.852,1.852,0,0,0,0,1.851H0V3.308H32.6V1.851A1.851,1.851,0,0,0,30.75,0H1.851Z" fill="none"/>
    <g id="Group_77-2" data-name="Group 77" clip-path="url(#clip-path-25)">
      <path id="Fill_75" data-name="Fill 75" d="M1.851,0A1.852,1.852,0,0,0,0,1.851H0V3.308H32.6V1.851A1.851,1.851,0,0,0,30.75,0H1.851Z" fill="url(#linear-gradient-23)"/>
    </g>
  </g>
  <g id="Group_80" data-name="Group 80" transform="translate(27.033 75.534)">
    <path id="Clip_79-2" data-name="Clip 79" d="M.484,0A.484.484,0,0,0,0,.484H0V9.758H17.411V.484A.484.484,0,0,0,16.927,0H.484Z" fill="none"/>
    <g id="Group_80-2" data-name="Group 80" clip-path="url(#clip-path-26)">
      <path id="Fill_78" data-name="Fill 78" d="M.484,0A.484.484,0,0,0,0,.484H0V9.758H17.411V.484A.484.484,0,0,0,16.927,0H.484Z" fill="url(#linear-gradient-24)"/>
    </g>
  </g>
  <path id="Fill_81" data-name="Fill 81" d="M0,6.171H3.04V0H0Z" transform="translate(21.686 90.219)" fill="url(#linear-gradient-25)"/>
  <path id="Fill_83" data-name="Fill 83" d="M0,6.171H1.222V0H0Z" transform="translate(25.811 90.219)" fill="url(#linear-gradient-26)"/>
  <path id="Fill_85" data-name="Fill 85" d="M0,6.171H1.222V0H0Z" transform="translate(27.533 90.219)" fill="url(#linear-gradient-27)"/>
  <path id="Fill_87" data-name="Fill 87" d="M0,6.171H1.222V0H0Z" transform="translate(29.255 90.219)" fill="url(#linear-gradient-28)"/>
  <g id="Group_91" data-name="Group 91" transform="translate(7.003 46.643)">
    <path id="Clip_90-2" data-name="Clip 90" d="M.344.974A1.066,1.066,0,0,0,.261,2.457h0L24.085,30.278a1.066,1.066,0,0,0,1.528.086h0L27.64,28.5,1.4,0Z" fill="none"/>
    <g id="Group_91-2" data-name="Group 91" clip-path="url(#clip-path-27)">
      <path id="Fill_89" data-name="Fill 89" d="M.344.974A1.066,1.066,0,0,0,.261,2.457h0L24.085,30.278a1.066,1.066,0,0,0,1.528.086h0L27.64,28.5,1.4,0Z" fill="url(#linear-gradient-29)"/>
    </g>
  </g>
  <g id="Group_94" data-name="Group 94" transform="translate(4.767 38.016)">
    <path id="Clip_93-2" data-name="Clip 93" d="M2.831.569.694,2.536A2.152,2.152,0,0,0,.539,5.545h0L28.966,37.961l5.959-5.486a1.169,1.169,0,0,0,.049-1.673h0L5.842.662A2.147,2.147,0,0,0,4.289,0h0A2.145,2.145,0,0,0,2.831.569" fill="none"/>
    <g id="Group_94-2" data-name="Group 94" clip-path="url(#clip-path-28)">
      <path id="Fill_92" data-name="Fill 92" d="M2.831.569.694,2.536A2.152,2.152,0,0,0,.539,5.545h0L28.966,37.961l5.959-5.486a1.169,1.169,0,0,0,.049-1.673h0L5.842.662A2.147,2.147,0,0,0,4.289,0h0A2.145,2.145,0,0,0,2.831.569" fill="url(#linear-gradient-30)"/>
    </g>
  </g>
  <g id="Group_97" data-name="Group 97" transform="translate(11.875 45.021)">
    <path id="Clip_96-2" data-name="Clip 96" d="M.773.45.55.656a1.7,1.7,0,0,0-.1,2.407h0l15,16.293a1.7,1.7,0,0,0,2.407.1h0l.224-.206a1.7,1.7,0,0,0,.1-2.407h0L3.18.55A1.7,1.7,0,0,0,1.926,0h0A1.7,1.7,0,0,0,.773.45" fill="none"/>
    <g id="Group_97-2" data-name="Group 97" clip-path="url(#clip-path-29)">
      <path id="Fill_95" data-name="Fill 95" d="M.773.45.55.656a1.7,1.7,0,0,0-.1,2.407h0l15,16.293a1.7,1.7,0,0,0,2.407.1h0l.224-.206a1.7,1.7,0,0,0,.1-2.407h0L3.18.55A1.7,1.7,0,0,0,1.926,0h0A1.7,1.7,0,0,0,.773.45" fill="url(#linear-gradient-31)"/>
    </g>
  </g>
  <path id="Fill_98" data-name="Fill 98" d="M17.938,18.8l-.63.58L0,.58.63,0Z" transform="translate(12.221 45.284)" fill="#91b3fa"/>
  <g id="Group_102" data-name="Group 102" transform="translate(28.341 65.841)">
    <path id="Clip_101-2" data-name="Clip 101" d="M2.45,2.008a7.594,7.594,0,0,0-.443,10.731h0a7.594,7.594,0,0,0,10.731.443h0A7.594,7.594,0,0,0,13.181,2.45h0A7.574,7.574,0,0,0,7.593,0h0A7.568,7.568,0,0,0,2.45,2.008" fill="none"/>
    <g id="Group_102-2" data-name="Group 102" clip-path="url(#clip-path-30)">
      <path id="Fill_100" data-name="Fill 100" d="M2.45,2.008a7.594,7.594,0,0,0-.443,10.731h0a7.594,7.594,0,0,0,10.731.443h0A7.594,7.594,0,0,0,13.181,2.45h0A7.574,7.574,0,0,0,7.593,0h0A7.568,7.568,0,0,0,2.45,2.008" fill="url(#linear-gradient-32)"/>
    </g>
  </g>
  <path id="Fill_103" data-name="Fill 103" d="M10.069,1.872a5.8,5.8,0,1,1-8.2-.338,5.8,5.8,0,0,1,8.2.338" transform="translate(30.134 67.634)" fill="#91b3fa"/>
  <g id="Group_107" data-name="Group 107" transform="translate(7.02 19.418)">
    <path id="Clip_106-2" data-name="Clip 106" d="M0,21.07,1.5,22.7a.856.856,0,0,0,1.228.032h0L23.635,2.042A.856.856,0,0,0,23.666.849h0L22.884,0Z" fill="none"/>
    <g id="Group_107-2" data-name="Group 107" clip-path="url(#clip-path-31)">
      <path id="Fill_105" data-name="Fill 105" d="M0,21.07,1.5,22.7a.856.856,0,0,0,1.228.032h0L23.635,2.042A.856.856,0,0,0,23.666.849h0L22.884,0Z" fill="url(#linear-gradient-33)"/>
    </g>
  </g>
  <g id="Group_110" data-name="Group 110" transform="translate(3.039 12.465)">
    <path id="Clip_109-2" data-name="Clip 109" d="M25.628.433.32,22.627a.939.939,0,0,0-.072,1.342h0l4.406,4.785L29.549,4.692a1.728,1.728,0,0,0,.075-2.418h0L28.044.558A1.724,1.724,0,0,0,26.772,0h0a1.722,1.722,0,0,0-1.144.433" fill="none"/>
    <g id="Group_110-2" data-name="Group 110" clip-path="url(#clip-path-32)">
      <path id="Fill_108" data-name="Fill 108" d="M25.628.433.32,22.627a.939.939,0,0,0-.072,1.342h0l4.406,4.785L29.549,4.692a1.728,1.728,0,0,0,.075-2.418h0L28.044.558A1.724,1.724,0,0,0,26.772,0h0a1.722,1.722,0,0,0-1.144.433" fill="url(#linear-gradient-34)"/>
    </g>
  </g>
  <g id="Group_113" data-name="Group 113" transform="translate(9.712 18.444)">
    <path id="Clip_112-2" data-name="Clip 112" d="M14.161.394.481,12.99a1.49,1.49,0,0,0-.087,2.105h0a1.49,1.49,0,0,0,2.1.087h0l13.68-12.6A1.49,1.49,0,0,0,16.266.481h0A1.486,1.486,0,0,0,15.169,0h0a1.484,1.484,0,0,0-1.009.394" fill="none"/>
    <g id="Group_113-2" data-name="Group 113" clip-path="url(#clip-path-33)">
      <path id="Fill_111" data-name="Fill 111" d="M14.161.394.481,12.99a1.49,1.49,0,0,0-.087,2.105h0a1.49,1.49,0,0,0,2.1.087h0l13.68-12.6A1.49,1.49,0,0,0,16.266.481h0A1.486,1.486,0,0,0,15.169,0h0a1.484,1.484,0,0,0-1.009.394" fill="url(#linear-gradient-35)"/>
    </g>
  </g>
  <path id="Fill_114" data-name="Fill 114" d="M0,14.614l.466.506L16.338.506,15.872,0Z" transform="translate(9.873 18.672)" fill="#91b3fa"/>
  <g id="Group_118" data-name="Group 118" transform="translate(0 32.94)">
    <path id="Clip_117-2" data-name="Clip 117" d="M1.968,1.612a6.1,6.1,0,0,0-.356,8.617h0a6.1,6.1,0,0,0,8.617.356h0a6.1,6.1,0,0,0,.356-8.617h0A6.083,6.083,0,0,0,6.1,0h0A6.076,6.076,0,0,0,1.968,1.612" fill="none"/>
    <g id="Group_118-2" data-name="Group 118" clip-path="url(#clip-path-34)">
      <path id="Fill_116" data-name="Fill 116" d="M1.968,1.612a6.1,6.1,0,0,0-.356,8.617h0a6.1,6.1,0,0,0,8.617.356h0a6.1,6.1,0,0,0,.356-8.617h0A6.083,6.083,0,0,0,6.1,0h0A6.076,6.076,0,0,0,1.968,1.612" fill="url(#linear-gradient-32)"/>
    </g>
  </g>
  <path id="Fill_119" data-name="Fill 119" d="M1.5,1.231A4.659,4.659,0,1,0,8.086,1.5,4.659,4.659,0,0,0,1.5,1.231" transform="translate(1.44 34.38)" fill="#91b3fa"/>
  <g id="Group_123" data-name="Group 123" transform="translate(29.419 10.582)">
    <path id="Clip_122-2" data-name="Clip 122" d="M2.653.4,0,4.766,17.861,14.86a1.235,1.235,0,0,0,1.562-.638h0l.951-1.564a1.235,1.235,0,0,0-.152-1.68h0L3.523.071A.441.441,0,0,0,3.279,0h0a.779.779,0,0,0-.626.4" fill="none"/>
    <g id="Group_123-2" data-name="Group 123" clip-path="url(#clip-path-35)">
      <path id="Fill_121" data-name="Fill 121" d="M2.653.4,0,4.766,17.861,14.86a1.235,1.235,0,0,0,1.562-.638h0l.951-1.564a1.235,1.235,0,0,0-.152-1.68h0L3.523.071A.441.441,0,0,0,3.279,0h0a.779.779,0,0,0-.626.4" fill="url(#linear-gradient-37)"/>
    </g>
  </g>
  <g id="Group_126" data-name="Group 126" transform="translate(27.033 8.602)">
    <path id="Clip_125-2" data-name="Clip 125" d="M.7,2.3A4.787,4.787,0,0,0,2.3,8.878h0a4.787,4.787,0,0,0,6.578-1.6h0A4.787,4.787,0,0,0,7.276.7h0A4.765,4.765,0,0,0,4.792,0h0A4.784,4.784,0,0,0,.7,2.3" fill="none"/>
    <g id="Group_126-2" data-name="Group 126" clip-path="url(#clip-path-36)">
      <path id="Fill_124" data-name="Fill 124" d="M.7,2.3A4.787,4.787,0,0,0,2.3,8.878h0a4.787,4.787,0,0,0,6.578-1.6h0A4.787,4.787,0,0,0,7.276.7h0A4.765,4.765,0,0,0,4.792,0h0A4.784,4.784,0,0,0,.7,2.3" fill="url(#linear-gradient-38)"/>
    </g>
  </g>
  <path id="Fill_127" data-name="Fill 127" d="M5.558.533A3.657,3.657,0,1,0,6.781,5.558,3.657,3.657,0,0,0,5.558.533" transform="translate(28.164 9.732)" fill="#91b3fa"/>
  <g id="Group_131" data-name="Group 131" transform="translate(46.979 20.999)">
    <path id="Clip_130-2" data-name="Clip 130" d="M3.17.04.012,5.278a.083.083,0,0,0,.028.115h0L1.778,6.44a.083.083,0,0,0,.115-.028h0L5.051,1.174a.084.084,0,0,0-.028-.115h0L3.285.012A.083.083,0,0,0,3.242,0h0A.083.083,0,0,0,3.17.04" fill="none"/>
    <g id="Group_131-2" data-name="Group 131" clip-path="url(#clip-path-37)">
      <path id="Fill_129" data-name="Fill 129" d="M3.17.04.012,5.278a.083.083,0,0,0,.028.115h0L1.778,6.44a.083.083,0,0,0,.115-.028h0L5.051,1.174a.084.084,0,0,0-.028-.115h0L3.285.012A.083.083,0,0,0,3.242,0h0A.083.083,0,0,0,3.17.04" fill="url(#linear-gradient-39)"/>
    </g>
  </g>
  <g id="Group_134" data-name="Group 134" transform="translate(54.317 21.306)">
    <path id="Clip_133-2" data-name="Clip 133" d="M0,2.887.6,4.623l3.1-2.266L8.7,7.733l.84-.992L4,0Z" fill="none"/>
    <g id="Group_134-2" data-name="Group 134" clip-path="url(#clip-path-38)">
      <path id="Fill_132" data-name="Fill 132" d="M0,2.887.6,4.623l3.1-2.266L8.7,7.733l.84-.992L4,0Z" fill="url(#linear-gradient-40)"/>
    </g>
  </g>
  <g id="Group_137" data-name="Group 137" transform="translate(51.154 28.147)">
    <path id="Clip_136-2" data-name="Clip 136" d="M.616.31,0,5.2,8.572,6.836,9.04,5.623,1.921,3.8l.5-3.8Z" fill="none"/>
    <g id="Group_137-2" data-name="Group 137" clip-path="url(#clip-path-39)">
      <path id="Fill_135" data-name="Fill 135" d="M.616.31,0,5.2,8.572,6.836,9.04,5.623,1.921,3.8l.5-3.8Z" fill="url(#linear-gradient-41)"/>
    </g>
  </g>
  <g id="Group_140" data-name="Group 140" transform="translate(50.479 23.108)">
    <path id="Clip_139-2" data-name="Clip 139" d="M0,5.221a3.1,3.1,0,0,0,3.041.51h0A3.1,3.1,0,0,0,4.87,1.751h0A3.088,3.088,0,0,0,3.233,0h0Z" fill="none"/>
    <g id="Group_140-2" data-name="Group 140" clip-path="url(#clip-path-40)">
      <path id="Fill_138" data-name="Fill 138" d="M0,5.221a3.1,3.1,0,0,0,3.041.51h0A3.1,3.1,0,0,0,4.87,1.751h0A3.088,3.088,0,0,0,3.233,0h0Z" fill="url(#linear-gradient-42)"/>
    </g>
  </g>
  <g id="Group_143" data-name="Group 143" transform="translate(48.17 21.243)">
    <path id="Clip_142-2" data-name="Clip 142" d="M4.078.149,3.614.918.549,6l-.506.839a.332.332,0,0,0,.128.451h0l1.556.938a.332.332,0,0,0,.459-.1h0L6.22,1.441A.332.332,0,0,0,6.092.99h0L4.536.052A.358.358,0,0,0,4.351,0h0a.315.315,0,0,0-.273.149" fill="none"/>
    <g id="Group_143-2" data-name="Group 143" clip-path="url(#clip-path-41)">
      <path id="Fill_141" data-name="Fill 141" d="M4.078.149,3.614.918.549,6l-.506.839a.332.332,0,0,0,.128.451h0l1.556.938a.332.332,0,0,0,.459-.1h0L6.22,1.441A.332.332,0,0,0,6.092.99h0L4.536.052A.358.358,0,0,0,4.351,0h0a.315.315,0,0,0-.273.149" fill="url(#linear-gradient-43)"/>
    </g>
  </g>
  <g id="Group_204" data-name="Group 204" transform="translate(40.051 20.46)">
    <g id="Group_150" data-name="Group 150" transform="translate(0 17.744)">
      <path id="Fill_144" data-name="Fill 144" d="M.592,1.084A.322.322,0,0,1,.318.934Q.179.712.045.487A.322.322,0,0,1,.6.158Q.729.376.864.59a.322.322,0,0,1-.273.494" transform="translate(2.903 31.286)" fill="#fff"/>
      <path id="Fill_146" data-name="Fill 146" d="M2.436,30.469a.32.32,0,0,1-.29-.18c-.155-.315-.3-.632-.434-.944a.322.322,0,1,1,.592-.254c.133.308.274.616.42.914a.321.321,0,0,1-.289.463Zm-1.021-2.48a.323.323,0,0,1-.306-.219C1,27.448.9,27.114.8,26.779a.323.323,0,0,1,.621-.176c.088.315.189.638.3.962a.324.324,0,0,1-.2.409A.346.346,0,0,1,1.416,27.989ZM.723,25.4a.323.323,0,0,1-.316-.259c-.065-.324-.125-.668-.178-1.022a.322.322,0,1,1,.637-.1c.049.33.108.664.174.993a.324.324,0,0,1-.253.379A.314.314,0,0,1,.723,25.4ZM.367,22.739a.323.323,0,0,1-.321-.3C.021,22.081.006,21.732,0,21.4a.321.321,0,0,1,.316-.329H.322a.32.32,0,0,1,.322.316c.006.325.021.663.044,1.005a.322.322,0,0,1-.3.344ZM.358,20.057H.338a.322.322,0,0,1-.3-.341c.022-.356.053-.7.09-1.037a.322.322,0,0,1,.32-.286l.036,0a.323.323,0,0,1,.284.356c-.037.321-.066.659-.087,1A.323.323,0,0,1,.358,20.057ZM.7,17.4a.357.357,0,0,1-.062-.006.323.323,0,0,1-.255-.378c.065-.338.141-.679.224-1.015a.321.321,0,0,1,.313-.245.322.322,0,0,1,.313.4c-.08.321-.153.652-.217.984A.324.324,0,0,1,.7,17.4Zm.682-2.6a.338.338,0,0,1-.1-.016.322.322,0,0,1-.2-.408c.106-.319.225-.648.354-.977a.322.322,0,1,1,.6.234c-.121.31-.236.629-.343.948A.322.322,0,0,1,1.381,14.8Zm1.013-2.484a.311.311,0,0,1-.14-.032.322.322,0,0,1-.149-.43c.143-.3.3-.606.476-.923a.322.322,0,0,1,.437-.128.322.322,0,0,1,.128.437c-.153.279-.308.58-.462.895A.32.32,0,0,1,2.394,12.316ZM3.718,9.983a.321.321,0,0,1-.269-.5c.189-.288.387-.575.591-.854a.321.321,0,0,1,.45-.07.321.321,0,0,1,.07.45c-.193.265-.385.543-.572.828A.323.323,0,0,1,3.718,9.983ZM5.331,7.84a.322.322,0,0,1-.244-.532c.222-.258.456-.518.695-.77a.322.322,0,0,1,.468.444c-.232.244-.459.5-.674.747A.323.323,0,0,1,5.331,7.84ZM7.205,5.923a.322.322,0,0,1-.215-.562c.253-.227.518-.454.788-.674a.322.322,0,0,1,.407.5c-.247.2-.5.42-.764.653A.326.326,0,0,1,7.205,5.923ZM9.312,4.265a.322.322,0,0,1-.183-.588c.289-.2.581-.389.869-.565a.322.322,0,0,1,.337.549c-.282.173-.565.357-.842.547A.317.317,0,0,1,9.312,4.265Zm2.3-1.37a.322.322,0,0,1-.147-.609c.317-.161.632-.312.937-.448a.318.318,0,0,1,.131-.028.323.323,0,0,1,.132.617c-.31.139-.615.285-.908.434A.313.313,0,0,1,11.615,2.9Zm2.463-1.059a.322.322,0,0,1-.3-.214.321.321,0,0,1,.2-.411c.332-.118.664-.226.986-.323A.325.325,0,0,1,15.05.874a.322.322,0,0,1,.092.631c-.324.1-.646.2-.956.313A.322.322,0,0,1,14.078,1.836ZM25.66,1.155a.337.337,0,0,1-.073-.008c-.316-.073-.648-.141-.986-.2a.322.322,0,0,1,.056-.639.326.326,0,0,1,.056,0c.336.06.679.13,1.018.208a.322.322,0,0,1-.072.636Zm-9-.051A.323.323,0,0,1,16.342.85a.323.323,0,0,1,.247-.383l.126-.027c.3-.063.605-.119.894-.167a.328.328,0,0,1,.054,0,.322.322,0,0,1,.052.64c-.286.048-.578.1-.868.163l-.122.026A.3.3,0,0,1,16.657,1.1ZM23.012.725a.185.185,0,0,1-.031,0c-.327-.031-.665-.055-1-.07A.322.322,0,0,1,21.67.317a.323.323,0,0,1,.325-.308h.012c.349.016.7.041,1.036.073a.323.323,0,0,1-.031.643Zm-3.7-.02a.323.323,0,0,1-.32-.3.322.322,0,0,1,.293-.348c.34-.028.688-.049,1.037-.062h.013a.323.323,0,0,1,.32.312.322.322,0,0,1-.31.333c-.325.011-.663.032-1,.06Z" fill="#fff"/>
      <path id="Fill_148" data-name="Fill 148" d="M.812.807A.321.321,0,0,1,.707.789Q.467.706.225.63A.322.322,0,0,1,.42.015q.249.079.5.164A.322.322,0,0,1,.812.807" transform="translate(26.951 0.951)" fill="#fff"/>
    </g>
    <g id="Group_157" data-name="Group 157" transform="translate(13.079 28.941)">
      <path id="Fill_151" data-name="Fill 151" d="M.553,1.106A.323.323,0,0,1,.263.924Q.152.7.036.47a.322.322,0,0,1,.573-.3q.12.232.234.468a.323.323,0,0,1-.29.463" transform="translate(26.037)" fill="#fff"/>
      <path id="Fill_153" data-name="Fill 153" d="M5.886,28.9l-.356,0a.322.322,0,0,1,0-.645h.013l.336,0c.215,0,.435,0,.654-.01h.012a.32.32,0,0,1,.321.312.324.324,0,0,1-.312.333C6.322,28.9,6.1,28.9,5.886,28.9Zm-1.982-.1-.032,0c-.342-.033-.683-.074-1.015-.123A.322.322,0,0,1,2.9,28.04a.327.327,0,0,1,.046,0c.331.049.662.089.984.12a.323.323,0,0,1-.031.644Zm4.268-.031a.322.322,0,0,1-.035-.643c.323-.036.653-.08.982-.133a.326.326,0,0,1,.051,0,.322.322,0,0,1,.051.64c-.325.052-.666.1-1.012.138A.241.241,0,0,1,8.172,28.775ZM1.3,28.383a.333.333,0,0,1-.072-.008c-.337-.077-.67-.162-.991-.252A.323.323,0,0,1,.41,27.5c.325.091.648.174.96.245a.322.322,0,0,1-.072.636Zm9.474-.065a.322.322,0,0,1-.075-.635c.331-.08.653-.166.957-.256a.328.328,0,0,1,.091-.013.322.322,0,0,1,.09.631c-.314.092-.645.181-.986.264A.321.321,0,0,1,10.772,28.319Zm2.522-.779a.322.322,0,0,1-.114-.624c.3-.115.611-.241.916-.374a.322.322,0,1,1,.258.59c-.3.132-.621.262-.946.386A.316.316,0,0,1,13.294,27.539Zm2.4-1.094a.322.322,0,0,1-.309-.416.319.319,0,0,1,.157-.191c.288-.154.577-.318.86-.489a.322.322,0,0,1,.443.111.322.322,0,0,1-.111.442c-.286.172-.585.341-.888.5A.323.323,0,0,1,15.7,26.445Zm2.241-1.393a.322.322,0,0,1-.187-.584c.273-.2.539-.395.79-.594a.322.322,0,1,1,.4.5c-.258.206-.533.412-.815.614A.32.32,0,0,1,17.937,25.052Zm2.044-1.667a.322.322,0,0,1-.219-.559c.243-.225.481-.458.708-.69a.322.322,0,1,1,.461.451c-.235.24-.48.48-.731.713A.322.322,0,0,1,19.981,23.385ZM21.8,21.47a.318.318,0,0,1-.206-.075.323.323,0,0,1-.041-.454c.214-.257.421-.518.616-.776a.322.322,0,0,1,.451-.063.324.324,0,0,1,.063.452c-.2.265-.413.534-.635.8A.324.324,0,0,1,21.8,21.47Zm1.56-2.129a.322.322,0,0,1-.272-.5c.177-.276.35-.561.513-.847a.323.323,0,0,1,.56.32c-.177.308-.355.6-.529.874A.322.322,0,0,1,23.357,19.341Zm1.277-2.309A.328.328,0,0,1,24.5,17a.323.323,0,0,1-.153-.429c.144-.306.28-.611.4-.906a.322.322,0,0,1,.595.248c-.133.32-.272.634-.415.934A.324.324,0,0,1,24.634,17.032Zm.976-2.453a.323.323,0,0,1-.1-.016.321.321,0,0,1-.206-.406c.1-.312.2-.632.284-.95a.322.322,0,1,1,.622.169c-.086.315-.184.645-.292.98A.323.323,0,0,1,25.61,14.578Zm.655-2.559a.343.343,0,0,1-.06-.005.323.323,0,0,1-.257-.376c.059-.309.113-.639.16-.979a.323.323,0,0,1,.639.088c-.047.335-.1.675-.166,1.011A.321.321,0,0,1,26.265,12.02ZM26.586,9.4h-.018a.322.322,0,0,1-.3-.341c.019-.325.03-.658.032-.989a.323.323,0,0,1,.645.005c0,.335-.015.679-.034,1.021A.323.323,0,0,1,26.586,9.4Zm.006-2.64h-.023a.324.324,0,0,1-.321-.3c-.025-.347-.056-.678-.094-.986a.323.323,0,0,1,.282-.358l.04,0a.321.321,0,0,1,.319.284c.04.331.073.673.1,1.017a.323.323,0,0,1-.3.345Zm-.375-2.615a.323.323,0,0,1-.316-.26L25.9,3.854c-.012-.057-.023-.115-.036-.172-.051-.244-.11-.5-.175-.766a.322.322,0,1,1,.625-.156c.067.27.128.535.181.789.014.068.029.138.042.207a.323.323,0,0,1-.253.38A.371.371,0,0,1,26.217,4.143Zm-.678-2.551a.322.322,0,0,1-.306-.221c-.105-.314-.218-.627-.337-.931a.323.323,0,0,1,.183-.418A.323.323,0,0,1,25.5.205c.125.319.242.643.347.961a.322.322,0,0,1-.2.408A.31.31,0,0,1,25.539,1.591Z" transform="translate(2.046 1.959)" fill="#fff"/>
      <path id="Fill_155" data-name="Fill 155" d="M.8.829A.322.322,0,0,1,.692.809Q.446.718.2.622a.322.322,0,0,1,.238-.6Q.677.116.915.2A.322.322,0,0,1,.8.829" transform="translate(0 28.758)" fill="#fff"/>
    </g>
    <path id="Fill_158" data-name="Fill 158" d="M8.361,30.1a.249.249,0,0,0,.289,0L11.1,28.323a13.178,13.178,0,0,0,4.168.924l1.468,2.643a.249.249,0,0,0,.261.124l3.573-.631a.249.249,0,0,0,.2-.206l.473-2.986a13.178,13.178,0,0,0,3.6-2.3l2.909.832a.249.249,0,0,0,.272-.1l2.08-2.973a.248.248,0,0,0,0-.289l-1.778-2.448a13.177,13.177,0,0,0,.924-4.168l2.643-1.468a.248.248,0,0,0,.124-.261l-.631-3.573a.248.248,0,0,0-.206-.2l-2.986-.473a13.177,13.177,0,0,0-2.3-3.6l.832-2.909A.249.249,0,0,0,26.63,4l-2.973-2.08a.248.248,0,0,0-.289,0L20.921,3.7a13.176,13.176,0,0,0-4.168-.924L15.285.128A.249.249,0,0,0,15.024,0L11.451.635a.248.248,0,0,0-.2.206l-.473,2.986a13.176,13.176,0,0,0-3.6,2.3L4.267,5.292a.248.248,0,0,0-.272.1L1.915,8.361a.249.249,0,0,0,0,.289L3.7,11.1a13.177,13.177,0,0,0-.924,4.168L.128,16.733A.248.248,0,0,0,0,16.994l.631,3.573a.249.249,0,0,0,.206.2l2.986.473a13.179,13.179,0,0,0,2.3,3.6l-.832,2.909a.249.249,0,0,0,.1.272Z" transform="translate(4.992 22.597)" fill="#91b3fa"/>
    <path id="Fill_160" data-name="Fill 160" d="M3.487,6.96A3.48,3.48,0,0,1,2.057.305,3.445,3.445,0,0,1,3.477,0,3.48,3.48,0,0,1,4.908,6.655,3.452,3.452,0,0,1,3.487,6.96ZM3.478.516a2.964,2.964,0,0,0-2.7,4.179,2.972,2.972,0,0,0,2.709,1.75,2.966,2.966,0,0,0,2.7-4.179A2.972,2.972,0,0,0,3.478.516Z" transform="translate(17.519 35.126)" fill="#fff"/>
    <path id="Fill_162" data-name="Fill 162" d="M8.874,17.773H8.8q-.129,0-.257-.006a.129.129,0,0,1-.124-.129s0,0,0,0a.13.13,0,0,1,.134-.124,8.665,8.665,0,0,0,1.833-.127q.3-.052.588-.125h.007a8.634,8.634,0,0,0,6.534-8.349,8.724,8.724,0,0,0-.134-1.521A8.627,8.627,0,1,0,2.365,14.537a.129.129,0,1,1-.195.169A8.886,8.886,0,1,1,17.635,7.342a8.982,8.982,0,0,1,.138,1.566,8.891,8.891,0,0,1-7.342,8.729,8.971,8.971,0,0,1-1.558.137" transform="translate(12.154 29.652)" fill="#fff"/>
    <g id="Group_170" data-name="Group 170" transform="translate(41.037 22.827)">
      <path id="Fill_164" data-name="Fill 164" d="M.214.569A.129.129,0,0,1,.09.476Q.044.319,0,.161A.129.129,0,1,1,.254.1Q.293.251.338.4A.129.129,0,0,1,.214.569" transform="translate(0.276 11.192)" fill="#fff"/>
      <path id="Fill_166" data-name="Fill 166" d="M.267,10.814a.13.13,0,0,1-.127-.106c-.039-.225-.07-.445-.092-.653a.129.129,0,0,1,.115-.141H.177a.13.13,0,0,1,.128.115c.021.2.051.416.089.634a.13.13,0,0,1-.1.15ZM.138,9.522h0A.128.128,0,0,1,0,9.4c0-.106,0-.2,0-.283,0-.124,0-.251.008-.376a.124.124,0,0,1,.126-.124H.142a.127.127,0,0,1,.089.041.129.129,0,0,1,.034.093c0,.11-.007.229-.007.365,0,.1,0,.193,0,.275a.127.127,0,0,1-.034.092A.129.129,0,0,1,.138,9.522Zm.049-1.3H.172a.126.126,0,0,1-.087-.047.13.13,0,0,1-.028-.1c.026-.224.059-.443.1-.652a.13.13,0,0,1,.127-.106l.024,0a.128.128,0,0,1,.1.15c-.038.2-.07.417-.095.634A.128.128,0,0,1,.186,8.223ZM.424,6.946a.145.145,0,0,1-.033,0A.13.13,0,0,1,.3,6.785C.356,6.57.42,6.358.49,6.154a.128.128,0,0,1,.122-.088.127.127,0,0,1,.041.007.13.13,0,0,1,.081.164c-.069.2-.131.407-.185.614A.129.129,0,0,1,.424,6.946Zm.42-1.228a.132.132,0,0,1-.051-.011.129.129,0,0,1-.067-.169c.084-.2.178-.4.28-.6a.129.129,0,0,1,.23.117c-.094.182-.186.378-.273.581A.128.128,0,0,1,.844,5.718Zm.595-1.157a.129.129,0,0,1-.111-.2c.117-.191.24-.376.364-.55a.129.129,0,1,1,.21.15c-.122.17-.241.35-.354.535A.128.128,0,0,1,1.439,4.561ZM2.2,3.5a.13.13,0,0,1-.083-.03A.129.129,0,0,1,2.1,3.293c.137-.165.285-.33.44-.492a.126.126,0,0,1,.093-.04.129.129,0,0,1,.093.218c-.142.148-.286.309-.427.478A.126.126,0,0,1,2.2,3.5Zm.9-.937A.133.133,0,0,1,3,2.525a.13.13,0,0,1,.01-.183c.174-.156.344-.3.5-.423a.129.129,0,0,1,.08-.028.13.13,0,0,1,.128.145.128.128,0,0,1-.049.086c-.17.132-.335.271-.49.411A.128.128,0,0,1,3.1,2.567Zm1.025-.8a.127.127,0,0,1-.107-.057.129.129,0,0,1-.02-.1.127.127,0,0,1,.055-.082c.184-.123.373-.24.561-.346a.127.127,0,0,1,.063-.017.129.129,0,0,1,.112.065.127.127,0,0,1-.048.176c-.178.1-.362.214-.545.337A.13.13,0,0,1,4.12,1.769Zm9.269-.423a.127.127,0,0,1-.061-.016c-.193-.105-.387-.2-.574-.285a.129.129,0,1,1,.107-.235c.2.089.4.188.59.293a.13.13,0,0,1-.062.243ZM5.249,1.127A.129.129,0,0,1,5.193.881c.2-.094.4-.182.6-.262A.128.128,0,0,1,5.844.611a.131.131,0,0,1,.121.082.126.126,0,0,1,0,.1A.13.13,0,0,1,5.891.86c-.2.08-.4.165-.587.255A.136.136,0,0,1,5.249,1.127ZM12.206.809A.127.127,0,0,1,12.162.8c-.2-.072-.4-.139-.609-.2a.13.13,0,0,1-.088-.16.128.128,0,0,1,.124-.093.131.131,0,0,1,.035,0c.205.059.416.128.627.205a.127.127,0,0,1,.072.067.129.129,0,0,1,0,.1A.131.131,0,0,1,12.206.809ZM6.458.654A.129.129,0,0,1,6.42.4c.211-.065.425-.123.637-.171a.129.129,0,1,1,.058.251C6.9.531,6.694.587,6.5.649A.137.137,0,0,1,6.458.654Zm4.5-.2a.091.091,0,0,1-.026,0C10.714.4,10.5.366,10.3.339a.129.129,0,0,1-.086-.05.129.129,0,0,1,.1-.207h.018c.213.028.432.066.651.112a.128.128,0,0,1,.1.153A.129.129,0,0,1,10.957.451ZM7.724.363A.129.129,0,0,1,7.7.106c.207-.032.427-.058.654-.077h.01A.127.127,0,0,1,8.5.148.128.128,0,0,1,8.38.286C8.164.3,7.95.33,7.744.362ZM9.669.276H9.661C9.469.263,9.278.257,9.095.257H9.02a.129.129,0,0,1,0-.258h.077c.189,0,.385.006.582.018A.129.129,0,0,1,9.8.155.13.13,0,0,1,9.669.276Z" fill="#fff"/>
      <path id="Fill_168" data-name="Fill 168" d="M.4.437A.128.128,0,0,1,.323.414Q.193.323.059.237A.129.129,0,1,1,.2.021Q.336.109.47.2A.129.129,0,0,1,.4.437" transform="translate(13.825 1.422)" fill="#fff"/>
    </g>
    <g id="Group_177" data-name="Group 177" transform="translate(44.558 30.011)">
      <path id="Fill_171" data-name="Fill 171" d="M.187.575A.129.129,0,0,1,.06.467Q.034.31,0,.155A.129.129,0,1,1,.255.1q.033.16.059.321A.129.129,0,0,1,.208.573l-.021,0" transform="translate(14.251)" fill="#fff"/>
      <path id="Fill_173" data-name="Fill 173" d="M5.013,10.069h0a.129.129,0,0,1,0-.257c.211-.005.423-.018.629-.038h.012a.129.129,0,0,1,.013.257C5.439,10.052,5.221,10.065,5.013,10.069Zm-.643-.007H4.364c-.067,0-.134-.007-.2-.011H4.155c-.138-.009-.285-.023-.437-.041A.129.129,0,0,1,3.6,9.866a.13.13,0,0,1,.127-.114h.016c.145.017.288.03.426.04.068,0,.136.009.2.012a.129.129,0,0,1-.006.257Zm1.912-.114a.129.129,0,0,1-.021-.256c.212-.036.42-.079.617-.127a.128.128,0,0,1,.156.094.127.127,0,0,1-.015.1.13.13,0,0,1-.08.058c-.2.049-.415.093-.635.13A.088.088,0,0,1,6.282,9.948ZM3.1,9.914l-.024,0c-.22-.042-.433-.09-.633-.143a.13.13,0,0,1-.092-.158.128.128,0,0,1,.124-.1.132.132,0,0,1,.033,0c.2.052.406.1.615.14a.129.129,0,0,1,.083.055.127.127,0,0,1,.02.1A.129.129,0,0,1,3.1,9.914Zm4.424-.267a.129.129,0,0,1-.04-.252c.194-.062.393-.134.592-.213a.126.126,0,0,1,.048-.01.128.128,0,0,1,.119.18.127.127,0,0,1-.07.068c-.194.079-.4.153-.609.22A.155.155,0,0,1,7.524,9.646Zm-5.66-.06a.138.138,0,0,1-.042-.007c-.2-.07-.408-.149-.606-.232a.128.128,0,0,1-.069-.071.127.127,0,0,1,0-.1A.129.129,0,0,1,1.267,9.1a.126.126,0,0,1,.05.01c.2.084.4.16.589.226a.129.129,0,0,1-.041.251Zm6.845-.417a.129.129,0,0,1-.057-.245c.186-.09.373-.189.556-.3a.129.129,0,0,1,.064-.017.13.13,0,0,1,.112.065.128.128,0,0,1-.047.175c-.186.108-.378.21-.572.305A.129.129,0,0,1,8.709,9.169ZM.688,9.085A.128.128,0,0,1,.628,9.07c-.192-.1-.383-.2-.566-.317a.128.128,0,0,1-.043-.176A.129.129,0,0,1,.2,8.533c.178.108.363.212.55.309a.129.129,0,0,1-.058.243Zm9.128-.555a.129.129,0,0,1-.073-.236c.171-.115.342-.24.509-.372a.127.127,0,0,1,.079-.028.129.129,0,0,1,.1.049.129.129,0,0,1-.022.181c-.165.13-.342.259-.524.383A.134.134,0,0,1,9.815,8.529Zm1-.79a.129.129,0,0,1-.086-.225c.16-.146.312-.294.451-.44a.129.129,0,0,1,.183,0,.128.128,0,0,1,0,.182c-.143.151-.3.3-.464.454A.13.13,0,0,1,10.82,7.739Zm.883-.925a.128.128,0,0,1-.082-.029A.13.13,0,0,1,11.6,6.6c.136-.165.265-.334.384-.5a.13.13,0,0,1,.105-.054.127.127,0,0,1,.075.024.13.13,0,0,1,.03.18c-.125.176-.258.349-.4.515A.131.131,0,0,1,11.7,6.814Zm.743-1.04a.135.135,0,0,1-.068-.019.13.13,0,0,1-.042-.177c.1-.17.208-.355.31-.55a.128.128,0,0,1,.174-.055.13.13,0,0,1,.056.174c-.1.193-.208.383-.319.565A.13.13,0,0,1,12.446,5.774Zm.588-1.137a.132.132,0,0,1-.051-.011.129.129,0,0,1-.068-.169c.082-.189.158-.387.228-.588a.129.129,0,1,1,.244.085c-.073.208-.152.412-.234.6A.131.131,0,0,1,13.034,4.637Zm.419-1.208a.141.141,0,0,1-.033,0,.129.129,0,0,1-.092-.158c.055-.2.1-.411.141-.614a.13.13,0,0,1,.128-.1l.024,0a.129.129,0,0,1,.1.151c-.043.219-.092.432-.146.633A.129.129,0,0,1,13.452,3.429Zm.242-1.255h-.016a.127.127,0,0,1-.086-.048.129.129,0,0,1-.027-.1c.018-.148.032-.3.043-.451,0-.059.007-.119.01-.177a.129.129,0,0,1,.129-.123h.007a.128.128,0,0,1,.122.135c0,.061-.006.122-.011.183-.009.142-.023.293-.043.463A.129.129,0,0,1,13.694,2.174ZM13.759.9h0A.13.13,0,0,1,13.628.77c0-.215-.017-.427-.036-.629a.129.129,0,0,1,.03-.095A.128.128,0,0,1,13.709,0h.013a.129.129,0,0,1,.127.117c.02.218.032.436.037.648a.13.13,0,0,1-.036.092A.127.127,0,0,1,13.759.9Z" transform="translate(0.799 0.951)" fill="#fff"/>
      <path id="Fill_175" data-name="Fill 175" d="M.388.449A.129.129,0,0,1,.313.425Q.18.331.051.231a.129.129,0,1,1,.157-.2q.126.1.255.188A.129.129,0,0,1,.388.449" transform="translate(0 8.919)" fill="#fff"/>
    </g>
    <path id="Fill_178" data-name="Fill 178" d="M2.1,11.924a.108.108,0,0,0,.121.033l1.23-.453a5.711,5.711,0,0,0,1.629.877l.3,1.275a.108.108,0,0,0,.094.082l1.565.158a.108.108,0,0,0,.109-.062l.55-1.189a5.712,5.712,0,0,0,1.772-.533l1.115.69a.108.108,0,0,0,.125-.008l1.218-.994a.108.108,0,0,0,.033-.121L11.5,10.45a5.712,5.712,0,0,0,.877-1.629l1.275-.3a.108.108,0,0,0,.082-.094L13.9,6.863a.108.108,0,0,0-.062-.109L12.647,6.2a5.711,5.711,0,0,0-.533-1.772l.69-1.115a.108.108,0,0,0-.008-.125L11.8,1.975a.108.108,0,0,0-.121-.033l-1.23.453a5.709,5.709,0,0,0-1.629-.877L8.521.242A.108.108,0,0,0,8.427.159L6.863,0a.108.108,0,0,0-.109.062L6.2,1.252a5.711,5.711,0,0,0-1.772.533l-1.115-.69a.108.108,0,0,0-.125.008L1.975,2.1a.108.108,0,0,0-.033.121l.452,1.23a5.711,5.711,0,0,0-.877,1.629l-1.275.3a.108.108,0,0,0-.082.094L0,7.036a.108.108,0,0,0,.062.109l1.189.55a5.711,5.711,0,0,0,.533,1.772l-.69,1.115a.108.108,0,0,0,.008.125Z" transform="translate(43.198 24.911)" fill="#91b3fa"/>
    <path id="Fill_180" data-name="Fill 180" d="M1.522,3.051a1.527,1.527,0,0,1-1.506-1.3A1.527,1.527,0,0,1,1.3.016,1.525,1.525,0,0,1,3.035,1.3,1.525,1.525,0,0,1,1.748,3.034,1.482,1.482,0,0,1,1.522,3.051Zm0-2.794A1.2,1.2,0,0,0,1.34.272,1.268,1.268,0,0,0,.272,1.71a1.268,1.268,0,0,0,1.25,1.083,1.29,1.29,0,0,0,.188-.014A1.267,1.267,0,0,0,2.779,1.341,1.275,1.275,0,0,0,1.526.257Z" transform="translate(48.621 30.334)" fill="#fff"/>
    <path id="Fill_182" data-name="Fill 182" d="M3.931,7.847a4.008,4.008,0,0,1-.4-.02,3.959,3.959,0,0,1-.744-.148l-.012,0-.061-.019a.129.129,0,0,1,.08-.245,3.692,3.692,0,0,0,.764.16l.149.012a3.638,3.638,0,0,0,1.844-.371,3.687,3.687,0,0,0,.658-.419l.036-.029A3.641,3.641,0,0,0,7.57,4.293a3.708,3.708,0,0,0,.019-.377A3.666,3.666,0,0,0,.277,3.554,3.666,3.666,0,0,0,.6,5.479a.129.129,0,0,1-.233.11A3.914,3.914,0,0,1,0,3.926a3.978,3.978,0,0,1,.02-.4,3.924,3.924,0,0,1,7.827.388,4.019,4.019,0,0,1-.02.4,3.924,3.924,0,0,1-3.9,3.528" transform="translate(46.247 27.913)" fill="#fff"/>
    <g id="Group_190" data-name="Group 190" transform="translate(23.224)">
      <path id="Fill_184" data-name="Fill 184" d="M.458,1.142A.323.323,0,0,1,.149.91C.1.742.052.571.01.4A.322.322,0,0,1,.635.244C.676.405.72.569.767.729a.323.323,0,0,1-.309.413" transform="translate(0.386 16.466)" fill="#fff"/>
      <path id="Fill_186" data-name="Fill 186" d="M.4,15.458a.323.323,0,0,1-.319-.284c-.041-.346-.069-.7-.084-1.057a.322.322,0,0,1,.31-.335H.326a.324.324,0,0,1,.319.309c.014.335.04.674.08,1.007a.322.322,0,0,1-.283.357ZM.361,12.747l-.025,0a.321.321,0,0,1-.3-.349c.032-.364.076-.718.131-1.051a.322.322,0,1,1,.635.1c-.053.324-.095.661-.124,1A.325.325,0,0,1,.361,12.747Zm.5-2.664a.333.333,0,0,1-.093-.014.323.323,0,0,1-.216-.4c.1-.325.212-.662.343-1a.322.322,0,0,1,.417-.184A.323.323,0,0,1,1.5,8.9c-.121.312-.231.633-.327.955A.323.323,0,0,1,.866,10.083Zm1.04-2.5a.311.311,0,0,1-.153-.04.322.322,0,0,1-.13-.437c.164-.3.346-.609.542-.912a.322.322,0,1,1,.541.351c-.184.284-.357.576-.516.868A.322.322,0,0,1,1.905,7.578ZM3.437,5.339a.323.323,0,0,1-.247-.531c.235-.277.476-.54.716-.781a.322.322,0,1,1,.459.453c-.233.236-.463.487-.682.745A.324.324,0,0,1,3.437,5.339ZM5.391,3.458a.322.322,0,0,1-.2-.576c.279-.218.567-.427.859-.62a.322.322,0,1,1,.357.536c-.278.185-.554.384-.819.591A.322.322,0,0,1,5.391,3.458ZM7.684,2.012A.322.322,0,0,1,7.541,1.4c.323-.159.649-.3.968-.432a.322.322,0,1,1,.239.6c-.311.125-.62.264-.921.412A.322.322,0,0,1,7.684,2.012Zm11.5-.109a.324.324,0,0,1-.137-.031c-.3-.142-.615-.275-.93-.394a.322.322,0,0,1,.229-.6c.334.127.662.266.976.414a.323.323,0,0,1,.155.429A.325.325,0,0,1,19.188,1.9Zm-8.964-.838a.322.322,0,0,1-.08-.634c.339-.088.687-.164,1.035-.225A.325.325,0,0,1,11.236.2a.322.322,0,0,1,.055.64c-.333.059-.664.131-.986.215A.353.353,0,0,1,10.224,1.066Zm6.405-.058A.3.3,0,0,1,16.555,1c-.327-.078-.661-.143-.991-.2a.322.322,0,1,1,.1-.636c.341.053.691.122,1.04.2a.323.323,0,0,1-.075.636ZM12.92.66h-.015A.322.322,0,0,1,12.89.015c.22-.01.423-.015.6-.015h.04c.119,0,.247,0,.416.006a.322.322,0,0,1,.312.332.327.327,0,0,1-.327.312H13.93c-.089,0-.178,0-.267,0h-.133C13.321.645,13.116.65,12.92.66Z" fill="#fff"/>
      <path id="Fill_188" data-name="Fill 188" d="M.751.931A.321.321,0,0,1,.567.873C.43.778.29.684.149.594A.322.322,0,1,1,.5.051c.148.095.3.193.439.293A.322.322,0,0,1,.751.931" transform="translate(20.345 2.076)" fill="#fff"/>
    </g>
    <g id="Group_197" data-name="Group 197" transform="translate(28.406 10.596)">
      <path id="Fill_191" data-name="Fill 191" d="M.415,1.152A.322.322,0,0,1,.1.881C.07.718.04.551.006.386A.322.322,0,1,1,.638.258c.035.173.067.348.095.52a.322.322,0,0,1-.267.37.326.326,0,0,1-.052,0" transform="translate(21.016)" fill="#fff"/>
      <path id="Fill_193" data-name="Fill 193" d="M6.434,14.368h0c-.263,0-.542-.013-.832-.032l-.21-.016a.322.322,0,0,1-.294-.348.324.324,0,0,1,.32-.295h.028l.2.015c.272.019.539.029.793.031a.322.322,0,0,1,0,.644Zm1.651-.088a.322.322,0,0,1-.037-.643c.331-.039.661-.091.981-.153a.322.322,0,1,1,.124.632c-.348.068-.695.123-1.031.161Zm-4.3-.2a.283.283,0,0,1-.067-.007c-.33-.069-.671-.155-1.012-.255a.321.321,0,0,1-.193-.156.318.318,0,0,1-.026-.244.322.322,0,0,1,.4-.219c.318.093.642.175.963.243a.322.322,0,0,1-.067.637ZM10.69,13.7a.322.322,0,0,1-.1-.628c.318-.105.63-.222.929-.348a.324.324,0,0,1,.125-.025.322.322,0,0,1,.124.62c-.322.135-.65.257-.976.365A.338.338,0,0,1,10.69,13.7Zm-9.451-.436a.33.33,0,0,1-.13-.027c-.316-.138-.632-.291-.939-.454a.322.322,0,1,1,.3-.569c.3.157.6.3.895.433a.322.322,0,0,1-.129.617Zm11.885-.653a.322.322,0,0,1-.312-.407.318.318,0,0,1,.151-.195c.288-.166.571-.344.841-.528a.323.323,0,0,1,.364.533c-.284.194-.581.381-.883.554A.323.323,0,0,1,13.125,12.613Zm2.167-1.555a.322.322,0,0,1-.213-.564c.249-.219.491-.449.719-.685a.323.323,0,0,1,.456-.006.323.323,0,0,1,.006.455c-.245.251-.5.493-.755.719A.322.322,0,0,1,15.292,11.057ZM17.105,9.1a.315.315,0,0,1-.194-.065.322.322,0,0,1-.063-.452c.2-.26.387-.535.568-.815a.321.321,0,0,1,.445-.1.324.324,0,0,1,.1.446c-.188.291-.388.579-.6.856A.319.319,0,0,1,17.105,9.1ZM18.49,6.818a.316.316,0,0,1-.138-.032.322.322,0,0,1-.153-.429c.14-.293.272-.6.392-.914a.325.325,0,0,1,.3-.207.322.322,0,0,1,.3.438c-.126.328-.264.651-.411.959A.323.323,0,0,1,18.49,6.818Zm.9-2.514a.321.321,0,0,1-.313-.4c.08-.327.147-.654.2-.972a.321.321,0,0,1,.317-.27.328.328,0,0,1,.054,0,.322.322,0,0,1,.265.37c-.057.345-.128.689-.21,1.021A.321.321,0,0,1,19.388,4.3Zm.373-2.641h-.013a.322.322,0,0,1-.31-.335c.007-.175.011-.354.011-.53,0-.154,0-.31-.008-.463A.322.322,0,0,1,19.751,0h.01a.322.322,0,0,1,.324.311c.005.16.008.323.008.487,0,.185,0,.372-.011.556A.322.322,0,0,1,19.76,1.663Z" transform="translate(1.831 2.153)" fill="#fff"/>
      <path id="Fill_195" data-name="Fill 195" d="M.737.95A.321.321,0,0,1,.551.891C.409.79.266.685.126.578A.322.322,0,1,1,.518.067c.133.1.269.2.4.3A.322.322,0,0,1,.737.95" transform="translate(0 13.153)" fill="#fff"/>
    </g>
    <path id="Fill_198" data-name="Fill 198" d="M3.092,17.585a.159.159,0,0,0,.178.049l1.815-.667a8.422,8.422,0,0,0,2.4,1.294l.443,1.881a.159.159,0,0,0,.139.122l2.307.234a.159.159,0,0,0,.16-.091l.811-1.754a8.422,8.422,0,0,0,2.613-.786L15.6,18.883a.159.159,0,0,0,.184-.012l1.8-1.466a.159.159,0,0,0,.049-.178l-.667-1.815a8.422,8.422,0,0,0,1.294-2.4l1.881-.443a.159.159,0,0,0,.122-.139l.234-2.307a.159.159,0,0,0-.091-.16L18.651,9.15a8.421,8.421,0,0,0-.786-2.613l1.018-1.644a.159.159,0,0,0-.012-.184L17.4,2.912a.159.159,0,0,0-.178-.049l-1.815.667a8.421,8.421,0,0,0-2.4-1.294L12.567.356a.159.159,0,0,0-.139-.122L10.121,0a.159.159,0,0,0-.16.091L9.15,1.846a8.421,8.421,0,0,0-2.613.786L4.893,1.614a.159.159,0,0,0-.184.012l-1.8,1.466a.159.159,0,0,0-.049.178l.667,1.815a8.423,8.423,0,0,0-1.294,2.4L.356,7.93a.159.159,0,0,0-.122.139L0,10.376a.159.159,0,0,0,.091.16l1.754.811a8.422,8.422,0,0,0,.786,2.613L1.614,15.6a.159.159,0,0,0,.012.184Z" transform="translate(26.532 3.206)" fill="#91b3fa"/>
    <path id="Fill_200" data-name="Fill 200" d="M2.441,4.893A2.448,2.448,0,0,1,.026,2.8,2.449,2.449,0,0,1,2.09.027,2.474,2.474,0,0,1,2.453,0,2.448,2.448,0,0,1,4.866,2.09,2.446,2.446,0,0,1,2.8,4.866,2.459,2.459,0,0,1,2.441,4.893ZM2.45.774A1.778,1.778,0,0,0,2.2.792a1.673,1.673,0,0,0-.753,3,1.655,1.655,0,0,0,.994.33A1.706,1.706,0,0,0,2.69,4.1a1.672,1.672,0,0,0,.753-3A1.654,1.654,0,0,0,2.45.774Z" transform="translate(34.334 11.008)" fill="#fff"/>
    <path id="Fill_202" data-name="Fill 202" d="M5.736,11.451a5.841,5.841,0,0,1-.588-.03,5.761,5.761,0,0,1-1.193-.25.129.129,0,1,1,.08-.245,5.5,5.5,0,0,0,1.139.239,5.467,5.467,0,0,0,5.99-4.888A5.463,5.463,0,0,0,6.276.286a5.468,5.468,0,0,0-5.5,7.759.129.129,0,0,1-.233.11A5.725,5.725,0,1,1,11.45,5.72a5.791,5.791,0,0,1-.029.582,5.726,5.726,0,0,1-5.685,5.149" transform="translate(31.091 7.695)" fill="#fff"/>
  </g>
</svg>
