<svg xmlns="http://www.w3.org/2000/svg" width="213.332" height="211.502" viewBox="0 0 213.332 211.502">
  <g id="box_price_back_or" transform="translate(76.5) rotate(30)" opacity="0.299">
    <g id="Group_79" data-name="Group 79">
      <path id="Fill_1" data-name="Fill 1" d="M4.774,2.393A2.387,2.387,0,1,1,2.386,0,2.39,2.39,0,0,1,4.774,2.393" fill="#2cbf8c"/>
      <path id="Fill_3" data-name="Fill 3" d="M4.774,2.393A2.387,2.387,0,1,1,2.387,0,2.39,2.39,0,0,1,4.774,2.393" transform="translate(14.323)" fill="#2cbf8c"/>
      <path id="Fill_5" data-name="Fill 5" d="M4.774,2.393A2.387,2.387,0,1,1,2.387,0,2.39,2.39,0,0,1,4.774,2.393" transform="translate(27.452)" fill="#2cbf8c"/>
      <path id="Fill_7" data-name="Fill 7" d="M4.774,2.393A2.387,2.387,0,1,1,2.386,0,2.39,2.39,0,0,1,4.774,2.393" transform="translate(41.774)" fill="#2cbf8c"/>
      <path id="Fill_9" data-name="Fill 9" d="M4.774,2.393A2.387,2.387,0,1,1,2.387,0,2.39,2.39,0,0,1,4.774,2.393" transform="translate(54.903)" fill="#2cbf8c"/>
      <path id="Fill_14" data-name="Fill 14" d="M4.774,2.393A2.387,2.387,0,1,1,2.386,0,2.39,2.39,0,0,1,4.774,2.393" transform="translate(0 13.164)" fill="#2cbf8c"/>
      <path id="Fill_16" data-name="Fill 16" d="M4.774,2.393A2.387,2.387,0,1,1,2.387,0,2.39,2.39,0,0,1,4.774,2.393" transform="translate(14.323 13.164)" fill="#2cbf8c"/>
      <path id="Fill_18" data-name="Fill 18" d="M4.774,2.393A2.387,2.387,0,1,1,2.387,0,2.39,2.39,0,0,1,4.774,2.393" transform="translate(27.452 13.164)" fill="#2cbf8c"/>
      <path id="Fill_20" data-name="Fill 20" d="M4.774,2.393A2.387,2.387,0,1,1,2.386,0,2.39,2.39,0,0,1,4.774,2.393" transform="translate(41.774 13.164)" fill="#2cbf8c"/>
      <path id="Fill_22" data-name="Fill 22" d="M4.774,2.393A2.387,2.387,0,1,1,2.387,0,2.39,2.39,0,0,1,4.774,2.393" transform="translate(54.903 13.164)" fill="#2cbf8c"/>
      <path id="Fill_27" data-name="Fill 27" d="M4.774,2.992A2.741,2.741,0,0,1,2.386,5.984C1.069,5.984,0,4.644,0,2.992S1.069,0,2.386,0A2.741,2.741,0,0,1,4.774,2.992" transform="translate(0 27.525)" fill="#2cbf8c"/>
      <path id="Fill_29" data-name="Fill 29" d="M4.774,2.992A2.741,2.741,0,0,1,2.387,5.984C1.069,5.984,0,4.644,0,2.992S1.069,0,2.387,0,4.774,1.34,4.774,2.992" transform="translate(14.323 27.525)" fill="#2cbf8c"/>
      <path id="Fill_31" data-name="Fill 31" d="M4.774,2.992c0,1.652-1.069,2.991-2.387,2.991S0,4.644,0,2.992,1.068,0,2.387,0,4.774,1.34,4.774,2.992" transform="translate(27.452 27.525)" fill="#2cbf8c"/>
      <path id="Fill_33" data-name="Fill 33" d="M4.774,2.992A2.741,2.741,0,0,1,2.386,5.984C1.068,5.984,0,4.644,0,2.992S1.068,0,2.386,0A2.742,2.742,0,0,1,4.774,2.992" transform="translate(41.774 27.525)" fill="#2cbf8c"/>
      <path id="Fill_35" data-name="Fill 35" d="M4.774,2.992A2.741,2.741,0,0,1,2.387,5.984C1.069,5.984,0,4.644,0,2.992S1.069,0,2.387,0,4.774,1.34,4.774,2.992" transform="translate(54.903 27.525)" fill="#2cbf8c"/>
      <path id="Fill_40" data-name="Fill 40" d="M4.774,2.991A2.741,2.741,0,0,1,2.386,5.984C1.069,5.984,0,4.644,0,2.991S1.069,0,2.386,0A2.741,2.741,0,0,1,4.774,2.991" transform="translate(0 40.689)" fill="#2cbf8c"/>
      <path id="Fill_42" data-name="Fill 42" d="M4.774,2.991c0,1.652-1.069,2.992-2.388,2.992S0,4.644,0,2.991,1.069,0,2.387,0A2.741,2.741,0,0,1,4.774,2.991" transform="translate(14.323 40.689)" fill="#2cbf8c"/>
      <path id="Fill_44" data-name="Fill 44" d="M4.774,2.991c0,1.652-1.069,2.992-2.387,2.992S0,4.644,0,2.991,1.068,0,2.387,0,4.774,1.34,4.774,2.991" transform="translate(27.452 40.689)" fill="#2cbf8c"/>
      <path id="Fill_46" data-name="Fill 46" d="M4.774,2.991A2.742,2.742,0,0,1,2.386,5.984C1.068,5.984,0,4.644,0,2.991S1.068,0,2.386,0A2.741,2.741,0,0,1,4.774,2.991" transform="translate(41.774 40.689)" fill="#2cbf8c"/>
      <path id="Fill_48" data-name="Fill 48" d="M4.774,2.991c0,1.652-1.068,2.992-2.388,2.992S0,4.644,0,2.991,1.069,0,2.387,0A2.741,2.741,0,0,1,4.774,2.991" transform="translate(54.903 40.689)" fill="#2cbf8c"/>
      <path id="Fill_53" data-name="Fill 53" d="M4.774,2.393A2.387,2.387,0,1,1,2.386,0,2.391,2.391,0,0,1,4.774,2.393" transform="translate(0 55.049)" fill="#2cbf8c"/>
      <path id="Fill_55" data-name="Fill 55" d="M4.774,2.393A2.387,2.387,0,1,1,2.387,0,2.391,2.391,0,0,1,4.774,2.393" transform="translate(14.323 55.049)" fill="#2cbf8c"/>
      <path id="Fill_57" data-name="Fill 57" d="M4.774,2.393A2.387,2.387,0,1,1,2.387,0,2.391,2.391,0,0,1,4.774,2.393" transform="translate(27.452 55.049)" fill="#2cbf8c"/>
      <path id="Fill_59" data-name="Fill 59" d="M4.774,2.393A2.387,2.387,0,1,1,2.386,0,2.391,2.391,0,0,1,4.774,2.393" transform="translate(41.774 55.049)" fill="#2cbf8c"/>
      <path id="Fill_61" data-name="Fill 61" d="M4.774,2.393A2.387,2.387,0,1,1,2.387,0,2.39,2.39,0,0,1,4.774,2.393" transform="translate(54.903 55.049)" fill="#2cbf8c"/>
      <path id="Fill_66" data-name="Fill 66" d="M4.774,2.393A2.387,2.387,0,1,1,2.386,0,2.39,2.39,0,0,1,4.774,2.393" transform="translate(0 68.213)" fill="#2cbf8c"/>
      <path id="Fill_68" data-name="Fill 68" d="M4.774,2.393A2.387,2.387,0,1,1,2.387,0,2.39,2.39,0,0,1,4.774,2.393" transform="translate(14.323 68.213)" fill="#2cbf8c"/>
      <path id="Fill_70" data-name="Fill 70" d="M4.774,2.393A2.387,2.387,0,1,1,2.387,0,2.39,2.39,0,0,1,4.774,2.393" transform="translate(27.452 68.213)" fill="#2cbf8c"/>
      <path id="Fill_72" data-name="Fill 72" d="M4.774,2.393A2.387,2.387,0,1,1,2.386,0,2.39,2.39,0,0,1,4.774,2.393" transform="translate(41.774 68.213)" fill="#2cbf8c"/>
      <path id="Fill_74" data-name="Fill 74" d="M4.774,2.393A2.387,2.387,0,1,1,2.387,0,2.39,2.39,0,0,1,4.774,2.393" transform="translate(54.903 68.213)" fill="#2cbf8c"/>
      <path id="Fill_9_Copy" data-name="Fill 9 Copy" d="M4.774,2.393A2.387,2.387,0,1,1,2.387,0,2.39,2.39,0,0,1,4.774,2.393" transform="translate(69.226)" fill="#2cbf8c"/>
      <path id="Fill_22_Copy" data-name="Fill 22 Copy" d="M4.774,2.393A2.387,2.387,0,1,1,2.387,0,2.39,2.39,0,0,1,4.774,2.393" transform="translate(69.226 13.164)" fill="#2cbf8c"/>
      <path id="Fill_35_Copy" data-name="Fill 35 Copy" d="M4.774,2.992A2.741,2.741,0,0,1,2.387,5.984C1.069,5.984,0,4.644,0,2.992S1.069,0,2.387,0,4.774,1.34,4.774,2.992" transform="translate(69.226 27.525)" fill="#2cbf8c"/>
      <path id="Fill_48_Copy" data-name="Fill 48 Copy" d="M4.774,2.991c0,1.652-1.068,2.992-2.388,2.992S0,4.644,0,2.991,1.069,0,2.387,0A2.741,2.741,0,0,1,4.774,2.991" transform="translate(69.226 40.689)" fill="#2cbf8c"/>
      <path id="Fill_61_Copy" data-name="Fill 61 Copy" d="M4.774,2.393A2.387,2.387,0,1,1,2.387,0,2.39,2.39,0,0,1,4.774,2.393" transform="translate(69.226 55.049)" fill="#2cbf8c"/>
      <path id="Fill_74_Copy" data-name="Fill 74 Copy" d="M4.774,2.393A2.387,2.387,0,1,1,2.387,0,2.39,2.39,0,0,1,4.774,2.393" transform="translate(69.226 68.213)" fill="#2cbf8c"/>
    </g>
    <g id="Group_79_Copy" data-name="Group 79 Copy" transform="translate(0 80)">
      <path id="Fill_1-2" data-name="Fill 1" d="M4.774,2.393A2.387,2.387,0,1,1,2.386,0,2.39,2.39,0,0,1,4.774,2.393" fill="#2cbf8c"/>
      <path id="Fill_3-2" data-name="Fill 3" d="M4.774,2.393A2.387,2.387,0,1,1,2.387,0,2.39,2.39,0,0,1,4.774,2.393" transform="translate(14.323)" fill="#2cbf8c"/>
      <path id="Fill_5-2" data-name="Fill 5" d="M4.774,2.393A2.387,2.387,0,1,1,2.387,0,2.39,2.39,0,0,1,4.774,2.393" transform="translate(27.452)" fill="#2cbf8c"/>
      <path id="Fill_7-2" data-name="Fill 7" d="M4.774,2.393A2.387,2.387,0,1,1,2.386,0,2.39,2.39,0,0,1,4.774,2.393" transform="translate(41.774)" fill="#2cbf8c"/>
      <path id="Fill_9-2" data-name="Fill 9" d="M4.774,2.393A2.387,2.387,0,1,1,2.387,0,2.39,2.39,0,0,1,4.774,2.393" transform="translate(54.903)" fill="#2cbf8c"/>
      <path id="Fill_14-2" data-name="Fill 14" d="M4.774,2.393A2.387,2.387,0,1,1,2.386,0,2.39,2.39,0,0,1,4.774,2.393" transform="translate(0 13.164)" fill="#2cbf8c"/>
      <path id="Fill_16-2" data-name="Fill 16" d="M4.774,2.393A2.387,2.387,0,1,1,2.387,0,2.39,2.39,0,0,1,4.774,2.393" transform="translate(14.323 13.164)" fill="#2cbf8c"/>
      <path id="Fill_18-2" data-name="Fill 18" d="M4.774,2.393A2.387,2.387,0,1,1,2.387,0,2.39,2.39,0,0,1,4.774,2.393" transform="translate(27.452 13.164)" fill="#2cbf8c"/>
      <path id="Fill_20-2" data-name="Fill 20" d="M4.774,2.393A2.387,2.387,0,1,1,2.386,0,2.39,2.39,0,0,1,4.774,2.393" transform="translate(41.774 13.164)" fill="#2cbf8c"/>
      <path id="Fill_22-2" data-name="Fill 22" d="M4.774,2.393A2.387,2.387,0,1,1,2.387,0,2.39,2.39,0,0,1,4.774,2.393" transform="translate(54.903 13.164)" fill="#2cbf8c"/>
      <path id="Fill_27-2" data-name="Fill 27" d="M4.774,2.992A2.741,2.741,0,0,1,2.386,5.984C1.069,5.984,0,4.644,0,2.992S1.069,0,2.386,0A2.741,2.741,0,0,1,4.774,2.992" transform="translate(0 27.525)" fill="#2cbf8c"/>
      <path id="Fill_29-2" data-name="Fill 29" d="M4.774,2.992A2.741,2.741,0,0,1,2.387,5.984C1.069,5.984,0,4.644,0,2.992S1.069,0,2.387,0,4.774,1.34,4.774,2.992" transform="translate(14.323 27.525)" fill="#2cbf8c"/>
      <path id="Fill_31-2" data-name="Fill 31" d="M4.774,2.992c0,1.652-1.069,2.991-2.387,2.991S0,4.644,0,2.992,1.068,0,2.387,0,4.774,1.34,4.774,2.992" transform="translate(27.452 27.525)" fill="#2cbf8c"/>
      <path id="Fill_33-2" data-name="Fill 33" d="M4.774,2.992A2.741,2.741,0,0,1,2.386,5.984C1.068,5.984,0,4.644,0,2.992S1.068,0,2.386,0A2.742,2.742,0,0,1,4.774,2.992" transform="translate(41.774 27.525)" fill="#2cbf8c"/>
      <path id="Fill_35-2" data-name="Fill 35" d="M4.774,2.992A2.741,2.741,0,0,1,2.387,5.984C1.069,5.984,0,4.644,0,2.992S1.069,0,2.387,0,4.774,1.34,4.774,2.992" transform="translate(54.903 27.525)" fill="#2cbf8c"/>
      <path id="Fill_40-2" data-name="Fill 40" d="M4.774,2.991A2.741,2.741,0,0,1,2.386,5.984C1.069,5.984,0,4.644,0,2.991S1.069,0,2.386,0A2.741,2.741,0,0,1,4.774,2.991" transform="translate(0 40.689)" fill="#2cbf8c"/>
      <path id="Fill_42-2" data-name="Fill 42" d="M4.774,2.991c0,1.652-1.069,2.992-2.388,2.992S0,4.644,0,2.991,1.069,0,2.387,0A2.741,2.741,0,0,1,4.774,2.991" transform="translate(14.323 40.689)" fill="#2cbf8c"/>
      <path id="Fill_44-2" data-name="Fill 44" d="M4.774,2.991c0,1.652-1.069,2.992-2.387,2.992S0,4.644,0,2.991,1.068,0,2.387,0,4.774,1.34,4.774,2.991" transform="translate(27.452 40.689)" fill="#2cbf8c"/>
      <path id="Fill_46-2" data-name="Fill 46" d="M4.774,2.991A2.742,2.742,0,0,1,2.386,5.984C1.068,5.984,0,4.644,0,2.991S1.068,0,2.386,0A2.741,2.741,0,0,1,4.774,2.991" transform="translate(41.774 40.689)" fill="#2cbf8c"/>
      <path id="Fill_48-2" data-name="Fill 48" d="M4.774,2.991c0,1.652-1.068,2.992-2.388,2.992S0,4.644,0,2.991,1.069,0,2.387,0A2.741,2.741,0,0,1,4.774,2.991" transform="translate(54.903 40.689)" fill="#2cbf8c"/>
      <path id="Fill_53-2" data-name="Fill 53" d="M4.774,2.393A2.387,2.387,0,1,1,2.386,0,2.391,2.391,0,0,1,4.774,2.393" transform="translate(0 55.049)" fill="#2cbf8c"/>
      <path id="Fill_55-2" data-name="Fill 55" d="M4.774,2.393A2.387,2.387,0,1,1,2.387,0,2.391,2.391,0,0,1,4.774,2.393" transform="translate(14.323 55.049)" fill="#2cbf8c"/>
      <path id="Fill_57-2" data-name="Fill 57" d="M4.774,2.393A2.387,2.387,0,1,1,2.387,0,2.391,2.391,0,0,1,4.774,2.393" transform="translate(27.452 55.049)" fill="#2cbf8c"/>
      <path id="Fill_59-2" data-name="Fill 59" d="M4.774,2.393A2.387,2.387,0,1,1,2.386,0,2.391,2.391,0,0,1,4.774,2.393" transform="translate(41.774 55.049)" fill="#2cbf8c"/>
      <path id="Fill_61-2" data-name="Fill 61" d="M4.774,2.393A2.387,2.387,0,1,1,2.387,0,2.39,2.39,0,0,1,4.774,2.393" transform="translate(54.903 55.049)" fill="#2cbf8c"/>
      <path id="Fill_66-2" data-name="Fill 66" d="M4.774,2.393A2.387,2.387,0,1,1,2.386,0,2.39,2.39,0,0,1,4.774,2.393" transform="translate(0 68.213)" fill="#2cbf8c"/>
      <path id="Fill_68-2" data-name="Fill 68" d="M4.774,2.393A2.387,2.387,0,1,1,2.387,0,2.39,2.39,0,0,1,4.774,2.393" transform="translate(14.323 68.213)" fill="#2cbf8c"/>
      <path id="Fill_70-2" data-name="Fill 70" d="M4.774,2.393A2.387,2.387,0,1,1,2.387,0,2.39,2.39,0,0,1,4.774,2.393" transform="translate(27.452 68.213)" fill="#2cbf8c"/>
      <path id="Fill_72-2" data-name="Fill 72" d="M4.774,2.393A2.387,2.387,0,1,1,2.386,0,2.39,2.39,0,0,1,4.774,2.393" transform="translate(41.774 68.213)" fill="#2cbf8c"/>
      <path id="Fill_74-2" data-name="Fill 74" d="M4.774,2.393A2.387,2.387,0,1,1,2.387,0,2.39,2.39,0,0,1,4.774,2.393" transform="translate(54.903 68.213)" fill="#2cbf8c"/>
      <path id="Fill_9_Copy-2" data-name="Fill 9 Copy" d="M4.774,2.393A2.387,2.387,0,1,1,2.387,0,2.39,2.39,0,0,1,4.774,2.393" transform="translate(69.226)" fill="#2cbf8c"/>
      <path id="Fill_22_Copy-2" data-name="Fill 22 Copy" d="M4.774,2.393A2.387,2.387,0,1,1,2.387,0,2.39,2.39,0,0,1,4.774,2.393" transform="translate(69.226 13.164)" fill="#2cbf8c"/>
      <path id="Fill_35_Copy-2" data-name="Fill 35 Copy" d="M4.774,2.992A2.741,2.741,0,0,1,2.387,5.984C1.069,5.984,0,4.644,0,2.992S1.069,0,2.387,0,4.774,1.34,4.774,2.992" transform="translate(69.226 27.525)" fill="#2cbf8c"/>
      <path id="Fill_48_Copy-2" data-name="Fill 48 Copy" d="M4.774,2.991c0,1.652-1.068,2.992-2.388,2.992S0,4.644,0,2.991,1.069,0,2.387,0A2.741,2.741,0,0,1,4.774,2.991" transform="translate(69.226 40.689)" fill="#2cbf8c"/>
      <path id="Fill_61_Copy-2" data-name="Fill 61 Copy" d="M4.774,2.393A2.387,2.387,0,1,1,2.387,0,2.39,2.39,0,0,1,4.774,2.393" transform="translate(69.226 55.049)" fill="#2cbf8c"/>
      <path id="Fill_74_Copy-2" data-name="Fill 74 Copy" d="M4.774,2.393A2.387,2.387,0,1,1,2.387,0,2.39,2.39,0,0,1,4.774,2.393" transform="translate(69.226 68.213)" fill="#2cbf8c"/>
    </g>
    <g id="Group_79_Copy_3" data-name="Group 79 Copy 3" transform="translate(84)">
      <path id="Fill_1-3" data-name="Fill 1" d="M4.774,2.393A2.387,2.387,0,1,1,2.386,0,2.39,2.39,0,0,1,4.774,2.393" fill="#2cbf8c"/>
      <path id="Fill_3-3" data-name="Fill 3" d="M4.774,2.393A2.387,2.387,0,1,1,2.387,0,2.39,2.39,0,0,1,4.774,2.393" transform="translate(14.323)" fill="#2cbf8c"/>
      <path id="Fill_5-3" data-name="Fill 5" d="M4.774,2.393A2.387,2.387,0,1,1,2.387,0,2.39,2.39,0,0,1,4.774,2.393" transform="translate(27.452)" fill="#2cbf8c"/>
      <path id="Fill_7-3" data-name="Fill 7" d="M4.774,2.393A2.387,2.387,0,1,1,2.386,0,2.39,2.39,0,0,1,4.774,2.393" transform="translate(41.774)" fill="#2cbf8c"/>
      <path id="Fill_9-3" data-name="Fill 9" d="M4.774,2.393A2.387,2.387,0,1,1,2.387,0,2.39,2.39,0,0,1,4.774,2.393" transform="translate(54.903)" fill="#2cbf8c"/>
      <path id="Fill_14-3" data-name="Fill 14" d="M4.774,2.393A2.387,2.387,0,1,1,2.386,0,2.39,2.39,0,0,1,4.774,2.393" transform="translate(0 13.164)" fill="#2cbf8c"/>
      <path id="Fill_16-3" data-name="Fill 16" d="M4.774,2.393A2.387,2.387,0,1,1,2.387,0,2.39,2.39,0,0,1,4.774,2.393" transform="translate(14.323 13.164)" fill="#2cbf8c"/>
      <path id="Fill_18-3" data-name="Fill 18" d="M4.774,2.393A2.387,2.387,0,1,1,2.387,0,2.39,2.39,0,0,1,4.774,2.393" transform="translate(27.452 13.164)" fill="#2cbf8c"/>
      <path id="Fill_20-3" data-name="Fill 20" d="M4.774,2.393A2.387,2.387,0,1,1,2.386,0,2.39,2.39,0,0,1,4.774,2.393" transform="translate(41.774 13.164)" fill="#2cbf8c"/>
      <path id="Fill_22-3" data-name="Fill 22" d="M4.774,2.393A2.387,2.387,0,1,1,2.387,0,2.39,2.39,0,0,1,4.774,2.393" transform="translate(54.903 13.164)" fill="#2cbf8c"/>
      <path id="Fill_27-3" data-name="Fill 27" d="M4.774,2.992A2.741,2.741,0,0,1,2.386,5.984C1.069,5.984,0,4.644,0,2.992S1.069,0,2.386,0A2.741,2.741,0,0,1,4.774,2.992" transform="translate(0 27.525)" fill="#2cbf8c"/>
      <path id="Fill_29-3" data-name="Fill 29" d="M4.774,2.992A2.741,2.741,0,0,1,2.387,5.984C1.069,5.984,0,4.644,0,2.992S1.069,0,2.387,0,4.774,1.34,4.774,2.992" transform="translate(14.323 27.525)" fill="#2cbf8c"/>
      <path id="Fill_31-3" data-name="Fill 31" d="M4.774,2.992c0,1.652-1.069,2.991-2.387,2.991S0,4.644,0,2.992,1.068,0,2.387,0,4.774,1.34,4.774,2.992" transform="translate(27.452 27.525)" fill="#2cbf8c"/>
      <path id="Fill_33-3" data-name="Fill 33" d="M4.774,2.992A2.741,2.741,0,0,1,2.386,5.984C1.068,5.984,0,4.644,0,2.992S1.068,0,2.386,0A2.742,2.742,0,0,1,4.774,2.992" transform="translate(41.774 27.525)" fill="#2cbf8c"/>
      <path id="Fill_35-3" data-name="Fill 35" d="M4.774,2.992A2.741,2.741,0,0,1,2.387,5.984C1.069,5.984,0,4.644,0,2.992S1.069,0,2.387,0,4.774,1.34,4.774,2.992" transform="translate(54.903 27.525)" fill="#2cbf8c"/>
      <path id="Fill_40-3" data-name="Fill 40" d="M4.774,2.991A2.741,2.741,0,0,1,2.386,5.984C1.069,5.984,0,4.644,0,2.991S1.069,0,2.386,0A2.741,2.741,0,0,1,4.774,2.991" transform="translate(0 40.689)" fill="#2cbf8c"/>
      <path id="Fill_42-3" data-name="Fill 42" d="M4.774,2.991c0,1.652-1.069,2.992-2.388,2.992S0,4.644,0,2.991,1.069,0,2.387,0A2.741,2.741,0,0,1,4.774,2.991" transform="translate(14.323 40.689)" fill="#2cbf8c"/>
      <path id="Fill_44-3" data-name="Fill 44" d="M4.774,2.991c0,1.652-1.069,2.992-2.387,2.992S0,4.644,0,2.991,1.068,0,2.387,0,4.774,1.34,4.774,2.991" transform="translate(27.452 40.689)" fill="#2cbf8c"/>
      <path id="Fill_46-3" data-name="Fill 46" d="M4.774,2.991A2.742,2.742,0,0,1,2.386,5.984C1.068,5.984,0,4.644,0,2.991S1.068,0,2.386,0A2.741,2.741,0,0,1,4.774,2.991" transform="translate(41.774 40.689)" fill="#2cbf8c"/>
      <path id="Fill_48-3" data-name="Fill 48" d="M4.774,2.991c0,1.652-1.068,2.992-2.388,2.992S0,4.644,0,2.991,1.069,0,2.387,0A2.741,2.741,0,0,1,4.774,2.991" transform="translate(54.903 40.689)" fill="#2cbf8c"/>
      <path id="Fill_53-3" data-name="Fill 53" d="M4.774,2.393A2.387,2.387,0,1,1,2.386,0,2.391,2.391,0,0,1,4.774,2.393" transform="translate(0 55.049)" fill="#2cbf8c"/>
      <path id="Fill_55-3" data-name="Fill 55" d="M4.774,2.393A2.387,2.387,0,1,1,2.387,0,2.391,2.391,0,0,1,4.774,2.393" transform="translate(14.323 55.049)" fill="#2cbf8c"/>
      <path id="Fill_57-3" data-name="Fill 57" d="M4.774,2.393A2.387,2.387,0,1,1,2.387,0,2.391,2.391,0,0,1,4.774,2.393" transform="translate(27.452 55.049)" fill="#2cbf8c"/>
      <path id="Fill_59-3" data-name="Fill 59" d="M4.774,2.393A2.387,2.387,0,1,1,2.386,0,2.391,2.391,0,0,1,4.774,2.393" transform="translate(41.774 55.049)" fill="#2cbf8c"/>
      <path id="Fill_61-3" data-name="Fill 61" d="M4.774,2.393A2.387,2.387,0,1,1,2.387,0,2.39,2.39,0,0,1,4.774,2.393" transform="translate(54.903 55.049)" fill="#2cbf8c"/>
      <path id="Fill_66-3" data-name="Fill 66" d="M4.774,2.393A2.387,2.387,0,1,1,2.386,0,2.39,2.39,0,0,1,4.774,2.393" transform="translate(0 68.213)" fill="#2cbf8c"/>
      <path id="Fill_68-3" data-name="Fill 68" d="M4.774,2.393A2.387,2.387,0,1,1,2.387,0,2.39,2.39,0,0,1,4.774,2.393" transform="translate(14.323 68.213)" fill="#2cbf8c"/>
      <path id="Fill_70-3" data-name="Fill 70" d="M4.774,2.393A2.387,2.387,0,1,1,2.387,0,2.39,2.39,0,0,1,4.774,2.393" transform="translate(27.452 68.213)" fill="#2cbf8c"/>
      <path id="Fill_72-3" data-name="Fill 72" d="M4.774,2.393A2.387,2.387,0,1,1,2.386,0,2.39,2.39,0,0,1,4.774,2.393" transform="translate(41.774 68.213)" fill="#2cbf8c"/>
      <path id="Fill_74-3" data-name="Fill 74" d="M4.774,2.393A2.387,2.387,0,1,1,2.387,0,2.39,2.39,0,0,1,4.774,2.393" transform="translate(54.903 68.213)" fill="#2cbf8c"/>
      <path id="Fill_9_Copy-3" data-name="Fill 9 Copy" d="M4.774,2.393A2.387,2.387,0,1,1,2.387,0,2.39,2.39,0,0,1,4.774,2.393" transform="translate(69.226)" fill="#2cbf8c"/>
      <path id="Fill_22_Copy-3" data-name="Fill 22 Copy" d="M4.774,2.393A2.387,2.387,0,1,1,2.387,0,2.39,2.39,0,0,1,4.774,2.393" transform="translate(69.226 13.164)" fill="#2cbf8c"/>
      <path id="Fill_35_Copy-3" data-name="Fill 35 Copy" d="M4.774,2.992A2.741,2.741,0,0,1,2.387,5.984C1.069,5.984,0,4.644,0,2.992S1.069,0,2.387,0,4.774,1.34,4.774,2.992" transform="translate(69.226 27.525)" fill="#2cbf8c"/>
      <path id="Fill_48_Copy-3" data-name="Fill 48 Copy" d="M4.774,2.991c0,1.652-1.068,2.992-2.388,2.992S0,4.644,0,2.991,1.069,0,2.387,0A2.741,2.741,0,0,1,4.774,2.991" transform="translate(69.226 40.689)" fill="#2cbf8c"/>
      <path id="Fill_61_Copy-3" data-name="Fill 61 Copy" d="M4.774,2.393A2.387,2.387,0,1,1,2.387,0,2.39,2.39,0,0,1,4.774,2.393" transform="translate(69.226 55.049)" fill="#2cbf8c"/>
      <path id="Fill_74_Copy-3" data-name="Fill 74 Copy" d="M4.774,2.393A2.387,2.387,0,1,1,2.387,0,2.39,2.39,0,0,1,4.774,2.393" transform="translate(69.226 68.213)" fill="#2cbf8c"/>
    </g>
    <g id="Group_79_Copy_2" data-name="Group 79 Copy 2" transform="translate(84 80)">
      <path id="Fill_1-4" data-name="Fill 1" d="M4.774,2.393A2.387,2.387,0,1,1,2.386,0,2.39,2.39,0,0,1,4.774,2.393" fill="#2cbf8c"/>
      <path id="Fill_3-4" data-name="Fill 3" d="M4.774,2.393A2.387,2.387,0,1,1,2.387,0,2.39,2.39,0,0,1,4.774,2.393" transform="translate(14.323)" fill="#2cbf8c"/>
      <path id="Fill_5-4" data-name="Fill 5" d="M4.774,2.393A2.387,2.387,0,1,1,2.387,0,2.39,2.39,0,0,1,4.774,2.393" transform="translate(27.452)" fill="#2cbf8c"/>
      <path id="Fill_7-4" data-name="Fill 7" d="M4.774,2.393A2.387,2.387,0,1,1,2.386,0,2.39,2.39,0,0,1,4.774,2.393" transform="translate(41.774)" fill="#2cbf8c"/>
      <path id="Fill_9-4" data-name="Fill 9" d="M4.774,2.393A2.387,2.387,0,1,1,2.387,0,2.39,2.39,0,0,1,4.774,2.393" transform="translate(54.903)" fill="#2cbf8c"/>
      <path id="Fill_14-4" data-name="Fill 14" d="M4.774,2.393A2.387,2.387,0,1,1,2.386,0,2.39,2.39,0,0,1,4.774,2.393" transform="translate(0 13.164)" fill="#2cbf8c"/>
      <path id="Fill_16-4" data-name="Fill 16" d="M4.774,2.393A2.387,2.387,0,1,1,2.387,0,2.39,2.39,0,0,1,4.774,2.393" transform="translate(14.323 13.164)" fill="#2cbf8c"/>
      <path id="Fill_18-4" data-name="Fill 18" d="M4.774,2.393A2.387,2.387,0,1,1,2.387,0,2.39,2.39,0,0,1,4.774,2.393" transform="translate(27.452 13.164)" fill="#2cbf8c"/>
      <path id="Fill_20-4" data-name="Fill 20" d="M4.774,2.393A2.387,2.387,0,1,1,2.386,0,2.39,2.39,0,0,1,4.774,2.393" transform="translate(41.774 13.164)" fill="#2cbf8c"/>
      <path id="Fill_22-4" data-name="Fill 22" d="M4.774,2.393A2.387,2.387,0,1,1,2.387,0,2.39,2.39,0,0,1,4.774,2.393" transform="translate(54.903 13.164)" fill="#2cbf8c"/>
      <path id="Fill_27-4" data-name="Fill 27" d="M4.774,2.992A2.741,2.741,0,0,1,2.386,5.984C1.069,5.984,0,4.644,0,2.992S1.069,0,2.386,0A2.741,2.741,0,0,1,4.774,2.992" transform="translate(0 27.525)" fill="#2cbf8c"/>
      <path id="Fill_29-4" data-name="Fill 29" d="M4.774,2.992A2.741,2.741,0,0,1,2.387,5.984C1.069,5.984,0,4.644,0,2.992S1.069,0,2.387,0,4.774,1.34,4.774,2.992" transform="translate(14.323 27.525)" fill="#2cbf8c"/>
      <path id="Fill_31-4" data-name="Fill 31" d="M4.774,2.992c0,1.652-1.069,2.991-2.387,2.991S0,4.644,0,2.992,1.068,0,2.387,0,4.774,1.34,4.774,2.992" transform="translate(27.452 27.525)" fill="#2cbf8c"/>
      <path id="Fill_33-4" data-name="Fill 33" d="M4.774,2.992A2.741,2.741,0,0,1,2.386,5.984C1.068,5.984,0,4.644,0,2.992S1.068,0,2.386,0A2.742,2.742,0,0,1,4.774,2.992" transform="translate(41.774 27.525)" fill="#2cbf8c"/>
      <path id="Fill_35-4" data-name="Fill 35" d="M4.774,2.992A2.741,2.741,0,0,1,2.387,5.984C1.069,5.984,0,4.644,0,2.992S1.069,0,2.387,0,4.774,1.34,4.774,2.992" transform="translate(54.903 27.525)" fill="#2cbf8c"/>
      <path id="Fill_40-4" data-name="Fill 40" d="M4.774,2.991A2.741,2.741,0,0,1,2.386,5.984C1.069,5.984,0,4.644,0,2.991S1.069,0,2.386,0A2.741,2.741,0,0,1,4.774,2.991" transform="translate(0 40.689)" fill="#2cbf8c"/>
      <path id="Fill_42-4" data-name="Fill 42" d="M4.774,2.991c0,1.652-1.069,2.992-2.388,2.992S0,4.644,0,2.991,1.069,0,2.387,0A2.741,2.741,0,0,1,4.774,2.991" transform="translate(14.323 40.689)" fill="#2cbf8c"/>
      <path id="Fill_44-4" data-name="Fill 44" d="M4.774,2.991c0,1.652-1.069,2.992-2.387,2.992S0,4.644,0,2.991,1.068,0,2.387,0,4.774,1.34,4.774,2.991" transform="translate(27.452 40.689)" fill="#2cbf8c"/>
      <path id="Fill_46-4" data-name="Fill 46" d="M4.774,2.991A2.742,2.742,0,0,1,2.386,5.984C1.068,5.984,0,4.644,0,2.991S1.068,0,2.386,0A2.741,2.741,0,0,1,4.774,2.991" transform="translate(41.774 40.689)" fill="#2cbf8c"/>
      <path id="Fill_48-4" data-name="Fill 48" d="M4.774,2.991c0,1.652-1.068,2.992-2.388,2.992S0,4.644,0,2.991,1.069,0,2.387,0A2.741,2.741,0,0,1,4.774,2.991" transform="translate(54.903 40.689)" fill="#2cbf8c"/>
      <path id="Fill_53-4" data-name="Fill 53" d="M4.774,2.393A2.387,2.387,0,1,1,2.386,0,2.391,2.391,0,0,1,4.774,2.393" transform="translate(0 55.049)" fill="#2cbf8c"/>
      <path id="Fill_55-4" data-name="Fill 55" d="M4.774,2.393A2.387,2.387,0,1,1,2.387,0,2.391,2.391,0,0,1,4.774,2.393" transform="translate(14.323 55.049)" fill="#2cbf8c"/>
      <path id="Fill_57-4" data-name="Fill 57" d="M4.774,2.393A2.387,2.387,0,1,1,2.387,0,2.391,2.391,0,0,1,4.774,2.393" transform="translate(27.452 55.049)" fill="#2cbf8c"/>
      <path id="Fill_59-4" data-name="Fill 59" d="M4.774,2.393A2.387,2.387,0,1,1,2.386,0,2.391,2.391,0,0,1,4.774,2.393" transform="translate(41.774 55.049)" fill="#2cbf8c"/>
      <path id="Fill_61-4" data-name="Fill 61" d="M4.774,2.393A2.387,2.387,0,1,1,2.387,0,2.39,2.39,0,0,1,4.774,2.393" transform="translate(54.903 55.049)" fill="#2cbf8c"/>
      <path id="Fill_66-4" data-name="Fill 66" d="M4.774,2.393A2.387,2.387,0,1,1,2.386,0,2.39,2.39,0,0,1,4.774,2.393" transform="translate(0 68.213)" fill="#2cbf8c"/>
      <path id="Fill_68-4" data-name="Fill 68" d="M4.774,2.393A2.387,2.387,0,1,1,2.387,0,2.39,2.39,0,0,1,4.774,2.393" transform="translate(14.323 68.213)" fill="#2cbf8c"/>
      <path id="Fill_70-4" data-name="Fill 70" d="M4.774,2.393A2.387,2.387,0,1,1,2.387,0,2.39,2.39,0,0,1,4.774,2.393" transform="translate(27.452 68.213)" fill="#2cbf8c"/>
      <path id="Fill_72-4" data-name="Fill 72" d="M4.774,2.393A2.387,2.387,0,1,1,2.386,0,2.39,2.39,0,0,1,4.774,2.393" transform="translate(41.774 68.213)" fill="#2cbf8c"/>
      <path id="Fill_74-4" data-name="Fill 74" d="M4.774,2.393A2.387,2.387,0,1,1,2.387,0,2.39,2.39,0,0,1,4.774,2.393" transform="translate(54.903 68.213)" fill="#2cbf8c"/>
      <path id="Fill_9_Copy-4" data-name="Fill 9 Copy" d="M4.774,2.393A2.387,2.387,0,1,1,2.387,0,2.39,2.39,0,0,1,4.774,2.393" transform="translate(69.226)" fill="#2cbf8c"/>
      <path id="Fill_22_Copy-4" data-name="Fill 22 Copy" d="M4.774,2.393A2.387,2.387,0,1,1,2.387,0,2.39,2.39,0,0,1,4.774,2.393" transform="translate(69.226 13.164)" fill="#2cbf8c"/>
      <path id="Fill_35_Copy-4" data-name="Fill 35 Copy" d="M4.774,2.992A2.741,2.741,0,0,1,2.387,5.984C1.069,5.984,0,4.644,0,2.992S1.069,0,2.387,0,4.774,1.34,4.774,2.992" transform="translate(69.226 27.525)" fill="#2cbf8c"/>
      <path id="Fill_48_Copy-4" data-name="Fill 48 Copy" d="M4.774,2.991c0,1.652-1.068,2.992-2.388,2.992S0,4.644,0,2.991,1.069,0,2.387,0A2.741,2.741,0,0,1,4.774,2.991" transform="translate(69.226 40.689)" fill="#2cbf8c"/>
      <path id="Fill_61_Copy-4" data-name="Fill 61 Copy" d="M4.774,2.393A2.387,2.387,0,1,1,2.387,0,2.39,2.39,0,0,1,4.774,2.393" transform="translate(69.226 55.049)" fill="#2cbf8c"/>
      <path id="Fill_74_Copy-4" data-name="Fill 74 Copy" d="M4.774,2.393A2.387,2.387,0,1,1,2.387,0,2.39,2.39,0,0,1,4.774,2.393" transform="translate(69.226 68.213)" fill="#2cbf8c"/>
    </g>
  </g>
</svg>
