<svg xmlns="http://www.w3.org/2000/svg" xmlns:xlink="http://www.w3.org/1999/xlink" width="167" height="167" viewBox="0 0 167 167">
  <defs>
    <filter id="Oval" x="0" y="0" width="167" height="167" filterUnits="userSpaceOnUse">
      <feOffset dy="12" input="SourceAlpha"/>
      <feGaussianBlur stdDeviation="10" result="blur"/>
      <feFlood flood-color="#24366c" flood-opacity="0.49"/>
      <feComposite operator="in" in2="blur"/>
      <feComposite in="SourceGraphic"/>
    </filter>
  </defs>
  <g id="Group_138" data-name="Group 138" transform="translate(30 18)">
    <g transform="matrix(1, 0, 0, 1, -30, -18)" filter="url(#Oval)">
      <circle id="Oval-2" data-name="Oval" cx="53.5" cy="53.5" r="53.5" transform="translate(30 18)" fill="#496bd3"/>
    </g>
    <g id="chat_3_" data-name="chat (3)" transform="translate(29.336 32.5)">
      <path id="Path" d="M40.274,0H8.055A8.055,8.055,0,0,0,0,8.055V32.219a8.055,8.055,0,0,0,8.055,8.055h0v7.712a2.014,2.014,0,0,0,3.323,1.53l10.773-9.243H40.274a8.055,8.055,0,0,0,8.055-8.055V8.055A8.055,8.055,0,0,0,40.274,0Z" fill="#fff"/>
      <path id="Path-2" data-name="Path" d="M6.867,6.944a2.839,2.839,0,0,1-.6.5,4.47,4.47,0,0,1-.685.383,5.356,5.356,0,0,1-.765.222,3.55,3.55,0,0,1-.785.081A4.026,4.026,0,0,1,0,4.1,4.028,4.028,0,0,1,4.813.077,5.356,5.356,0,0,1,5.579.3a3.257,3.257,0,0,1,.685.383,3.5,3.5,0,0,1,.6.483A4.031,4.031,0,0,1,8.056,4.1,4.019,4.019,0,0,1,6.867,6.944Z" transform="translate(8.054 16.032)" fill="#fff"/>
      <path id="Path-3" data-name="Path" d="M6.889,6.945A4.019,4.019,0,0,1,4.05,8.133a3.415,3.415,0,0,1-.785,0A5.356,5.356,0,0,1,2.5,7.912a4.47,4.47,0,0,1-.685-.383,3.656,3.656,0,0,1-.624-.5A4.028,4.028,0,0,1,.023,4.106a3.414,3.414,0,0,1,0-.785,5.356,5.356,0,0,1,.222-.765,3.257,3.257,0,0,1,.383-.685,4.7,4.7,0,0,1,.483-.624A4.7,4.7,0,0,1,1.734.763,3.257,3.257,0,0,1,2.419.381a5.288,5.288,0,0,1,.846-.3A4.026,4.026,0,0,1,8.077,4.106,4.031,4.031,0,0,1,6.909,6.945Z" transform="translate(20.114 16.031)" fill="#fff"/>
      <path id="Path-4" data-name="Path" d="M6.867,6.944a2.839,2.839,0,0,1-.6.5,4.47,4.47,0,0,1-.685.383,5.356,5.356,0,0,1-.765.222,3.55,3.55,0,0,1-.785.081A4.026,4.026,0,0,1,0,4.1,4.028,4.028,0,0,1,4.813.077,5.356,5.356,0,0,1,5.579.3a3.257,3.257,0,0,1,.685.383,3.5,3.5,0,0,1,.6.483A4.031,4.031,0,0,1,8.056,4.1,4.019,4.019,0,0,1,6.867,6.944Z" transform="translate(32.218 16.032)" fill="#fff"/>
    </g>
  </g>
</svg>
