<svg xmlns="http://www.w3.org/2000/svg" width="74.04" height="79.167" viewBox="0 0 74.04 79.167">
  <path id="count2" d="M39.028,10.3H95.191a1.979,1.979,0,0,1,1.979,1.978v8.283h11.942a1.978,1.978,0,0,1,1.978,1.978v64.95a1.978,1.978,0,0,1-1.978,1.978H52.949a1.979,1.979,0,0,1-1.979-1.978V79.206H39.028a1.978,1.978,0,0,1-1.978-1.978V12.278A1.978,1.978,0,0,1,39.028,10.3ZM97.17,24.518v52.71a1.979,1.979,0,0,1-1.979,1.978H54.928v6.3h52.2V24.518Zm-36,16.934a1.973,1.973,0,0,1-3.87-.772,10.01,10.01,0,0,1,4.11-6.251q-.147-.19-.281-.39a7.2,7.2,0,1,1,11.676.39,10,10,0,0,1,4.11,6.251,1.97,1.97,0,1,1-3.864.772,6.078,6.078,0,0,0-3.921-4.507,7.125,7.125,0,0,1-4.046,0,6.073,6.073,0,0,0-3.917,4.507Zm5.943-8.171a3.224,3.224,0,1,0-2.3-.946,3.244,3.244,0,0,0,2.3.946ZM52.592,52.342a1.979,1.979,0,0,1,0-3.957H81.628a1.979,1.979,0,0,1,0,3.957Zm0,14.328a1.979,1.979,0,0,1,0-3.957H81.628a1.979,1.979,0,0,1,0,3.957Zm0-7.164a1.979,1.979,0,0,1,0-3.957H81.628a1.979,1.979,0,0,1,0,3.957Zm40.62-45.249h-52.2V75.249h52.2Z" transform="translate(-37.05 -10.3)" fill="#223a84"/>
</svg>
