<svg xmlns="http://www.w3.org/2000/svg" width="158.531" height="78.123" viewBox="0 0 158.531 78.123">
  <g id="count3" transform="translate(0 0.001)">
    <g id="Group_3" data-name="Group 3" transform="translate(44.613)">
      <g id="Group_1" data-name="Group 1" transform="translate(0 43.731)">
        <path id="Path_1" data-name="Path 1" d="M223.481,304.391h-5.836c0-13.534-15.021-28.555-28.555-28.555s-28.555,15.021-28.555,28.555H154.7a34.391,34.391,0,1,1,68.781,0Z" transform="translate(-154.7 -270)" fill="#223a84"/>
      </g>
      <g id="Group_2" data-name="Group 2" transform="translate(9.836)">
        <path id="Path_2" data-name="Path 2" d="M206.655,209.709a24.555,24.555,0,1,1,24.555-24.555,24.555,24.555,0,0,1-24.555,24.555Zm0-43.309c-12.9,0-18.754,10.6-18.754,18.754s6.763,18.754,18.754,18.754,18.754-10.6,18.754-18.754S219.559,166.4,206.655,166.4Z" transform="translate(-182.1 -160.6)" fill="#223a84"/>
      </g>
    </g>
    <g id="Group_6" data-name="Group 6" transform="translate(0 21.865)">
      <g id="Group_4" data-name="Group 4" transform="translate(0 31.492)">
        <path id="Path_3" data-name="Path 3" d="M204.231,294.765h-4.2c0-9.746-10.817-20.563-20.563-20.563S158.9,285.02,158.9,294.765h-4.2a24.765,24.765,0,1,1,49.531,0Z" transform="translate(-154.7 -270)" fill="#223a84"/>
      </g>
      <g id="Group_5" data-name="Group 5" transform="translate(7.083)">
        <path id="Path_4" data-name="Path 4" d="M199.782,195.964a17.682,17.682,0,1,1,17.682-17.682,17.682,17.682,0,0,1-17.682,17.682Zm0-31.188c-9.292,0-13.505,7.637-13.505,13.505s4.87,13.505,13.505,13.505,13.505-7.637,13.505-13.505-4.212-13.5-13.505-13.5Z" transform="translate(-182.1 -160.6)" fill="#223a84"/>
      </g>
    </g>
    <g id="Group_9" data-name="Group 9" transform="translate(109 21.865)">
      <g id="Group_7" data-name="Group 7" transform="translate(0 31.492)">
        <path id="Path_5" data-name="Path 5" d="M204.231,294.765h-4.2c0-9.746-10.817-20.563-20.563-20.563S158.9,285.02,158.9,294.765h-4.2a24.765,24.765,0,1,1,49.531,0Z" transform="translate(-154.7 -270)" fill="#223a84"/>
      </g>
      <g id="Group_8" data-name="Group 8" transform="translate(7.083)">
        <path id="Path_6" data-name="Path 6" d="M199.782,195.964a17.682,17.682,0,1,1,17.682-17.682,17.682,17.682,0,0,1-17.682,17.682Zm0-31.188c-9.292,0-13.505,7.637-13.505,13.505s4.87,13.505,13.505,13.505,13.505-7.637,13.505-13.505-4.212-13.5-13.505-13.5Z" transform="translate(-182.1 -160.6)" fill="#223a84"/>
      </g>
    </g>
  </g>
</svg>
