<svg xmlns="http://www.w3.org/2000/svg" width="87.1" height="76.213" viewBox="0 0 87.1 76.213">
  <path id="count1" d="M77.574,13.888H66.686V11.166A8.166,8.166,0,0,0,58.521,3H28.58a8.166,8.166,0,0,0-8.166,8.166v2.722H9.527A9.527,9.527,0,0,0,0,23.414V69.686a9.527,9.527,0,0,0,9.527,9.527H77.574A9.527,9.527,0,0,0,87.1,69.687V23.414a9.527,9.527,0,0,0-9.527-9.527ZM25.858,11.166A2.722,2.722,0,0,1,28.58,8.444H58.521a2.722,2.722,0,0,1,2.722,2.722v2.722H25.858ZM9.527,19.331H77.574a4.083,4.083,0,0,1,4.083,4.083v14.97H57.16V32.941a2.722,2.722,0,0,0-2.722-2.722H32.663a2.722,2.722,0,0,0-2.722,2.722v5.444H5.444V23.414a4.083,4.083,0,0,1,4.083-4.083ZM51.716,35.663V46.55H35.385V35.663ZM77.574,73.769H9.527a4.083,4.083,0,0,1-4.083-4.083V43.828h24.5v5.444a2.722,2.722,0,0,0,2.722,2.722H54.438a2.722,2.722,0,0,0,2.722-2.722V43.828h24.5V69.686A4.083,4.083,0,0,1,77.574,73.769Z" transform="translate(0 -3)" fill="#223a84"/>
</svg>
