<svg xmlns="http://www.w3.org/2000/svg" width="12.633" height="9.927" viewBox="0 0 12.633 9.927">
  <path id="email" d="M11.506,9.947H1.128a1.091,1.091,0,0,1-.8-.332A1.091,1.091,0,0,1,0,8.818v-5.6a3.758,3.758,0,0,0,.712.613C2.4,4.98,3.576,5.8,4.216,6.267c.264.194.484.349.653.462a4.08,4.08,0,0,0,.666.338,2.04,2.04,0,0,0,.776.173h.014A2.038,2.038,0,0,0,7.1,7.067a4.08,4.08,0,0,0,.666-.338c.163-.108.376-.259.653-.462.8-.579,1.981-1.4,3.511-2.433a3.872,3.872,0,0,0,.7-.613v5.6a1.132,1.132,0,0,1-1.128,1.129ZM6.324,6.337H6.31a1.128,1.128,0,0,1-.353-.064,2.08,2.08,0,0,1-.4-.19c-.131-.077-.255-.154-.367-.229S4.95,5.692,4.8,5.586c-.167-.121-.256-.186-.3-.215-.45-.316-1.088-.761-1.847-1.287-.822-.569-1.3-.9-1.445-1a3.514,3.514,0,0,1-.824-.814A1.652,1.652,0,0,1,0,1.3,1.426,1.426,0,0,1,.293.387,1.011,1.011,0,0,1,1.128.02H11.506A1.093,1.093,0,0,1,12.3.352a1.084,1.084,0,0,1,.335.8,1.871,1.871,0,0,1-.346,1.065,3.364,3.364,0,0,1-.859.867l-3.3,2.291c-.046.032-.145.1-.3.215s-.274.2-.381.268-.225.145-.366.229a2.083,2.083,0,0,1-.406.19A1.126,1.126,0,0,1,6.324,6.337Z" transform="translate(0 -0.02)" fill="#232826"/>
</svg>
