<svg xmlns="http://www.w3.org/2000/svg" width="21.328" height="23.52" viewBox="0 0 21.328 23.52">
  <path id="Icon_simple-email" data-name="Icon simple-email" d="M22.983,10.855a12.13,12.13,0,0,1-.391,2.631A7.613,7.613,0,0,1,21.57,15.8a5.4,5.4,0,0,1-1.734,1.642,4.894,4.894,0,0,1-2.532.625,3.671,3.671,0,0,1-1.831-.448,3.136,3.136,0,0,1-1.238-1.268,3.922,3.922,0,0,1-3.319,1.667,3.374,3.374,0,0,1-2.9-1.558,5.1,5.1,0,0,1-.72-1.8A7.784,7.784,0,0,1,7.2,12.3a10.937,10.937,0,0,1,.717-2.884A7.838,7.838,0,0,1,9.247,7.2,5.608,5.608,0,0,1,11.07,5.8,5.085,5.085,0,0,1,13.286,5.3a6.892,6.892,0,0,1,1.326.113,5.426,5.426,0,0,1,1.029.309,5.563,5.563,0,0,1,.852.45c.26.168.522.341.782.517L16.631,14.1a2.462,2.462,0,0,0,.019.867,1.213,1.213,0,0,0,.265.535.952.952,0,0,0,.429.279,1.593,1.593,0,0,0,1.508-.3,3.214,3.214,0,0,0,.808-1.029,6.626,6.626,0,0,0,.544-1.546,10.608,10.608,0,0,0,.238-1.925,12.3,12.3,0,0,0-.3-3.6A7.152,7.152,0,0,0,18.808,4.6a6.183,6.183,0,0,0-2.387-1.793,8.663,8.663,0,0,0-3.477-.636,7.678,7.678,0,0,0-3.439.75A7.891,7.891,0,0,0,6.892,5,9.974,9.974,0,0,0,5.181,8.126a14.088,14.088,0,0,0-.72,3.895,12.951,12.951,0,0,0,.367,3.974A7.178,7.178,0,0,0,6.28,18.843a6.06,6.06,0,0,0,2.46,1.711,9.437,9.437,0,0,0,3.4.567,11.628,11.628,0,0,0,2.228-.24c.367-.073.716-.162,1.048-.259a7.887,7.887,0,0,0,.9-.323l.466,2.1a5.172,5.172,0,0,1-1.01.5,9.719,9.719,0,0,1-1.193.345,11.645,11.645,0,0,1-2.493.279,13.072,13.072,0,0,1-4.544-.732A8.364,8.364,0,0,1,4.227,20.61a9.148,9.148,0,0,1-1.989-3.6,15.341,15.341,0,0,1-.556-4.993A15.226,15.226,0,0,1,2.638,7.23a11.858,11.858,0,0,1,2.3-3.807A10.488,10.488,0,0,1,8.451.911,10.993,10.993,0,0,1,13,0,11.477,11.477,0,0,1,17.4.789a8.57,8.57,0,0,1,3.18,2.219,9.108,9.108,0,0,1,1.887,3.429A13.111,13.111,0,0,1,22.983,10.855ZM10.362,12.3a5,5,0,0,0,.259,2.479,1.329,1.329,0,0,0,1.279.838,1.412,1.412,0,0,0,.438-.081,1.562,1.562,0,0,0,.5-.3,2.69,2.69,0,0,0,.511-.617,4.737,4.737,0,0,0,.47-1.044l.5-5.755a3,3,0,0,0-.782-.1,2.7,2.7,0,0,0-1.3.3,2.575,2.575,0,0,0-.922.876,5.144,5.144,0,0,0-.611,1.44,12.218,12.218,0,0,0-.347,1.969Z" transform="translate(-1.67)" fill="#9ba2a3" opacity="0.42"/>
</svg>
