<svg xmlns="http://www.w3.org/2000/svg" width="7.501" height="13.873" viewBox="0 0 7.501 13.873">
  <g id="facebook-logo" transform="translate(-0.011)">
    <path id="Path" d="M7.218,0l-1.8,0A3.159,3.159,0,0,0,2.092,3.414V4.988H.283A.283.283,0,0,0,0,5.272V7.552a.283.283,0,0,0,.283.283H2.092v5.755a.283.283,0,0,0,.283.283h2.36a.283.283,0,0,0,.283-.283V7.835H7.133a.283.283,0,0,0,.283-.283V5.272a.283.283,0,0,0-.283-.283H5.018V3.654c0-.641.153-.967.988-.967H7.218A.283.283,0,0,0,7.5,2.4V.286A.283.283,0,0,0,7.218,0Z" transform="translate(0.011)" fill="#fff"/>
  </g>
</svg>
