<svg xmlns="http://www.w3.org/2000/svg" width="30.104" height="30" viewBox="0 0 30.104 30">
  <g id="faq_ct" transform="translate(-95.748 -577)">
    <path id="Path_134" data-name="Path 134" d="M110.647,591.219a2.118,2.118,0,0,1,.435-1.276,8.264,8.264,0,0,1,1.284-1.319,9.019,9.019,0,0,0,1.175-1.221,1.766,1.766,0,0,0,.327-1.068,1.74,1.74,0,0,0-1.764-1.779,1.844,1.844,0,0,0-1.263.483,3.181,3.181,0,0,0-.849,1.408l-1.915-.835a4.474,4.474,0,0,1,1.534-2.363,4.116,4.116,0,0,1,2.58-.825,4.421,4.421,0,0,1,2.035.473,3.709,3.709,0,0,1,1.469,1.33,3.536,3.536,0,0,1,.545,1.935,3.281,3.281,0,0,1-.479,1.748,7.831,7.831,0,0,1-1.458,1.659,12.329,12.329,0,0,0-1.208,1.176,1.367,1.367,0,0,0-.337.89,2.536,2.536,0,0,0,.089.594H110.89a2.436,2.436,0,0,1-.243-1.01Zm1.305,6.2a1.647,1.647,0,0,1-1.207-.483,1.629,1.629,0,0,1-.49-1.209,1.668,1.668,0,0,1,.49-1.221,1.632,1.632,0,0,1,1.207-.495,1.664,1.664,0,0,1,1.7,1.715,1.632,1.632,0,0,1-.489,1.209,1.652,1.652,0,0,1-1.209.483Z" transform="translate(-1.359 -0.598)" fill="#2f5bea"/>
    <path id="Path_135" data-name="Path 135" d="M97.06,607a1.312,1.312,0,0,1-.557-.125,1.3,1.3,0,0,1-.755-1.186V580.178A3.182,3.182,0,0,1,98.926,577h23.748a3.182,3.182,0,0,1,3.178,3.178v18.165a3.182,3.182,0,0,1-3.178,3.177H104.9a2.273,2.273,0,0,0-1.457.529l-5.552,4.644A1.305,1.305,0,0,1,97.06,607Zm1.867-28.22a1.4,1.4,0,0,0-1.4,1.4v24.5l4.778-4a4.058,4.058,0,0,1,2.6-.943h17.77a1.4,1.4,0,0,0,1.4-1.4V580.178a1.4,1.4,0,0,0-1.4-1.4Z" fill="#353535"/>
  </g>
</svg>
