<svg xmlns="http://www.w3.org/2000/svg" width="539.716" height="506.987" viewBox="0 0 539.716 506.987"><defs><style>.a{opacity:0.12;}.b,.c{fill:none;stroke:#4a4849;}.c{stroke-miterlimit:10;stroke-width:0.5px;}</style></defs><g class="a" transform="translate(-169.622 -150.568)"><path class="b" d="M696.562,645.936A90.046,90.046,0,0,1,567.538,539.021h-.155s27.376-57.824-10.857-127.527C531.035,365.077,496.656,344.7,474,335.574c-22.658,9.127-57.037,29.5-82.528,75.919-38.235,69.7-10.857,127.527-10.857,127.527h-.155a90.219,90.219,0,1,1-112.189-58.138,106.085,106.085,0,0,0,1.576-18.568c.156-53.5-30.526-78.75-35.01-83.235a.108.108,0,0,0,0-.158,60.73,60.73,0,1,1,83.785.236v.158c-4.484,4.407-35.243,29.581-35.322,83.079a120.681,120.681,0,0,0,.862,14.4c20.142-5.9,61.839-23.759,89.845-74.816,38.313-69.7,16.286-124.539,13.612-133.507,0,0,.158-.081.158-.158a89.866,89.866,0,0,1,76.153-116.671c1.651-.156,3.225-.314,4.879-.392a76.1,76.1,0,0,1,10.384,0c1.574.078,3.147.236,4.721.392h.078a74.751,74.751,0,0,1,8.418,1.418c1.574.314,3.147.706,4.721,1.1,1.729.473,3.38.942,5.032,1.493a88.475,88.475,0,0,1,51.3,42.25,89.393,89.393,0,0,1,6.767,70.409c0,.078.156.158.156.158-2.675,8.969-24.7,63.8,13.611,133.507,38.235,69.623,101.722,77.571,101.722,77.571l-.078.156a90.033,90.033,0,0,1,20.926,166.235Z" transform="translate(-34.518 0)"/><g transform="translate(370.887 166.314)"><path class="b" d="M289.509,176.716a2.207,2.207,0,1,1-2.208-2.207A2.205,2.205,0,0,1,289.509,176.716Z" transform="translate(-254.015 -122.2)"/><path class="b" d="M313.476,174.972a2.206,2.206,0,1,1-2.2-2.207A2.205,2.205,0,0,1,313.476,174.972Z" transform="translate(-208.904 -125.482)"/><g transform="translate(3.11 3.391)"><path class="c" d="M334.783,244.055l-17.894-10.026-17.315.141-.023-.006L275.389,226l2.222-28.722.028-.037L294.3,176.579l.035-.014,21.765-9.245,18.825-9.784,25.8.833,23.258,5.533.031.04,17.338,21.45.005.035,5.594,28.581L387.777,234.76l-.072,0L358.188,233Zm-17.816-10.323.035.02,17.793,9.969L358.131,232.7l.037,0,29.486,1.752,18.981-20.543-5.56-28.393-17.26-21.356-23.142-5.507-25.678-.827-18.767,9.753-21.742,9.24L277.9,197.393,275.7,225.8l23.921,8.078Z" transform="translate(-275.389 -157.535)"/><path class="c" d="M287.5,227.7l-.288-.067,5.957-25.373L281.9,170.084,306.572,180.4l-2.84-19.485,42.274,9.4-.064.289-41.855-9.309,2.854,19.578L282.4,170.613l11.077,31.633-.01.042Z" transform="translate(-263.142 -151.182)"/><path class="c" d="M275.566,225.4l-.148-.257,29.988-17.274,13.449-21.64.058-.015,39.122-10.151,2.456-18.2.293.039L358.3,176.3l-.1.025-39.16,10.161-13.426,21.6-.032.018Z" transform="translate(-275.335 -156.911)"/><path class="c" d="M378.285,210.028l-31.756-10.205.014.023-.395-.147-.286-.089.012-.009L314.317,188.03l-23.8-4.974.06-.288,23.825,4.977.008,0,31.44,11.528-16.295-26.6.144-.072,25.926-12.9-3.092,21.534h20.7l-26.7,18.277,31.849,10.234ZM329.971,172.8l16.269,26.555,26.033-17.819H352.189l3.061-21.315Z" transform="translate(-246.928 -153.461)"/><rect class="c" width="21.607" height="0.296" transform="matrix(0.713, -0.701, 0.701, 0.713, 67.324, 34.32)"/><path class="c" d="M315.109,243.894l-5.548-29.105L297.37,234.17l-11.6-25.8,23.8,5.853.142-.228.043.219,45.253-10.727,6.093-17.966-22.488-8.6-23.284-19.142.191-.228,23.243,19.11,22.71,8.689-6.236,18.39-.081.02L309.808,214.5l5.592,29.333ZM286.289,208.8l11.124,24.744L309.4,214.486Z" transform="translate(-255.852 -157.512)"/><path class="c" d="M385.446,237.772,356.56,210.7l-29.1-18.511,13.474-22.171L304.062,186.5l-.058-.023L276.19,175.208l.113-.274,27.753,11.245,37.627-16.813L327.867,192.1,356.6,210.379l16.569-29.345,13.188,31.281v.035Zm-28.609-27.214,28.336,26.554.888-24.742L373.131,181.7Z" transform="translate(-273.882 -135.269)"/></g><path class="b" d="M318.259,161.924a3.268,3.268,0,1,1-3.268-3.268A3.269,3.269,0,0,1,318.259,161.924Z" transform="translate(-203.9 -152.035)"/><circle class="b" cx="3.268" cy="3.268" r="3.268" transform="translate(125.716 28.044)"/><circle class="b" cx="3.268" cy="3.268" r="3.268" transform="translate(105.273 28.42)"/><circle class="b" cx="3.268" cy="3.268" r="3.268" transform="translate(130.58 57.39) rotate(-13.33)"/><circle class="b" cx="3.268" cy="3.268" r="3.268" transform="translate(111.525 82.928) rotate(-77.196)"/><circle class="b" cx="3.268" cy="3.268" r="3.268" transform="translate(110.493 103.103) rotate(-12.819)"/><path class="b" d="M309.533,185.831a3.268,3.268,0,1,1-3.268-3.268A3.269,3.269,0,0,1,309.533,185.831Z" transform="translate(-220.322 -107.042)"/><circle class="b" cx="3.268" cy="3.268" r="3.268" transform="translate(59.394 86.476)"/><circle class="b" cx="3.268" cy="3.268" r="3.268" transform="translate(40.586 82.166) rotate(-76.717)"/><circle class="b" cx="3.268" cy="3.268" r="3.268" transform="matrix(0.23, -0.973, 0.973, 0.23, 23.426, 82.307)"/><path class="b" d="M280.843,183.388a3.267,3.267,0,1,1-3.265-3.265A3.265,3.265,0,0,1,280.843,183.388Z" transform="translate(-274.31 -111.634)"/><circle class="b" cx="3.268" cy="3.268" r="3.268" transform="translate(1.948 46.083) rotate(-85.269)"/><path class="b" d="M287.385,166.357a3.268,3.268,0,1,1-3.268-3.268A3.267,3.267,0,0,1,287.385,166.357Z" transform="translate(-262.004 -143.692)"/><path class="b" d="M295.925,169.947a3.268,3.268,0,1,1-3.268-3.268A3.269,3.269,0,0,1,295.925,169.947Z" transform="translate(-245.932 -136.936)"/><circle class="b" cx="3.268" cy="3.268" r="3.268" transform="translate(40.344 10.042)"/><circle class="b" cx="3.268" cy="3.268" r="3.268" transform="translate(59.467 6.511) rotate(-85.008)"/><path class="b" d="M310.387,160.008a3.266,3.266,0,1,1-3.268-3.268A3.264,3.264,0,0,1,310.387,160.008Z" transform="translate(-218.709 -155.64)"/><circle class="b" cx="3.268" cy="3.268" r="3.268" transform="translate(66.607 40.246) rotate(-76.718)"/><circle class="b" cx="3.268" cy="3.268" r="3.268" transform="translate(53.544 63.455) rotate(-85.269)"/><path class="b" d="M309.533,166.357a3.268,3.268,0,1,1-3.268-3.268A3.269,3.269,0,0,1,309.533,166.357Z" transform="translate(-220.322 -143.692)"/></g></g></svg>