<svg xmlns="http://www.w3.org/2000/svg" width="773.213" height="637.781" viewBox="0 0 773.213 637.781">
  <g id="help_image" transform="translate(0)">
    <path id="Fill_1" data-name="Fill 1" d="M6.122,0S0,4.626,0,10.748V42.058H45.653V9.349s-.638-8.028-6-9.349Z" transform="translate(613.906 384.386)" fill="#f5f5f5"/>
    <path id="Fill_3" data-name="Fill 3" d="M.681,22.119a86.334,86.334,0,0,1-.673-9.625A7.718,7.718,0,0,1,5.355,5.4c2.406-.661,4.926.22,7.39.629A19.61,19.61,0,0,0,24.561,4.266c3.084-1.53,5.9-3.923,9.329-4.24,2.244-.207,4.834.844,5.455,3.009a7.516,7.516,0,0,1-.053,3.176c-.729,4.827.207,10.822.207,15.458-12.782.594-26.024.173-38.817.449" transform="translate(616.688 402.627)" fill="#e0e0e0"/>
    <path id="Fill_5" data-name="Fill 5" d="M0,4.424,6.879,0H48.548l6.691,4.424Z" transform="translate(611.011 426.445)" fill="#e0e0e0"/>
    <path id="Fill_7" data-name="Fill 7" d="M0,9.924V56.531H56.531v55.24H1.292v13.244h95.3V9.924A9.924,9.924,0,0,0,86.664,0H9.924A9.924,9.924,0,0,0,0,9.924" transform="translate(609.719 319.097)" fill="#f5f5f5"/>
    <path id="Fill_9" data-name="Fill 9" d="M96.588.636c0,.227-21.624.41-48.292.41S0,.862,0,.636,21.619.227,48.3.227,96.588.409,96.588.636" transform="translate(609.719 329.445)" fill="#e0e0e0"/>
    <path id="Fill_11" data-name="Fill 11" d="M.636,124.692c-.225,0-.409-27.915-.409-62.344S.411,0,.636,0s.41,27.909.41,62.349-.185,62.344-.41,62.344" transform="translate(678.859 319.421)" fill="#e0e0e0"/>
    <path id="Fill_13" data-name="Fill 13" d="M.588,30.684l-.57-14.12A19.058,19.058,0,0,1,3.086,5.045C4.9,2.374,7.594,0,11.408,0H49.54V3.725H12.117s-6.739.71-7.627,9.933a91.3,91.3,0,0,0,0,17.026Z" transform="translate(604.015 380.661)" fill="#e0e0e0"/>
    <path id="Fill_15" data-name="Fill 15" d="M0,27.408H15.2V0H0Z" transform="translate(628.421 608.807)" fill="#e0e0e0"/>
    <path id="Fill_17" data-name="Fill 17" d="M0,27.408H15.2V0H0Z" transform="translate(695.597 608.807)" fill="#e0e0e0"/>
    <path id="Fill_18" data-name="Fill 18" d="M0,164.3H125.907V0H0Z" transform="translate(595.018 444.506)" fill="#e0e0e0"/>
    <path id="Fill_19" data-name="Fill 19" d="M0,164.3H122.642V0H0Z" transform="translate(571.952 444.506)" fill="#f5f5f5"/>
    <path id="Fill_20" data-name="Fill 20" d="M0,27.408H15.2V0H0Z" transform="translate(582.793 608.807)" fill="#f5f5f5"/>
    <path id="Fill_21" data-name="Fill 21" d="M0,27.408H15.2V0H0Z" transform="translate(670.202 608.807)" fill="#f5f5f5"/>
    <path id="Fill_22" data-name="Fill 22" d="M105.5,40.806s-.011-.252-.018-.726-.01-1.186-.018-2.1c-.01-1.852-.024-4.561-.043-8.053-.022-6.991-.053-17.108-.093-29.68l.172.171L.256.5H.248L.5.248C.494,14.423.49,28.126.488,40.806l-.239-.238,75.4.112,21.926.066,5.879.031,1.525.014c.344.005.527.015.527.015s-.163.01-.5.015l-1.5.014-5.828.031-21.873.066L.248,41.044H.01v-.238C.008,28.126,0,14.423,0,.248V0H.256L105.5.076h.172V.248c-.038,12.615-.07,22.768-.093,29.783-.018,3.475-.032,6.171-.042,8.015q-.011,1.35-.018,2.069c-.006.463-.018.691-.018.691" transform="translate(579.332 549.232)" fill="#e0e0e0"/>
    <path id="Fill_23" data-name="Fill 23" d="M6.606,3.391a7.464,7.464,0,0,1-.193-.752A3.168,3.168,0,0,0,5.244,1,3.015,3.015,0,0,0,2.423.62,2.983,2.983,0,0,0,.5,3.391a2.98,2.98,0,0,0,1.926,2.77,3.011,3.011,0,0,0,2.821-.383A3.173,3.173,0,0,0,6.412,4.143a7.464,7.464,0,0,1,.193-.752,1.473,1.473,0,0,1-.006.8A3.157,3.157,0,0,1,5.457,6.057a3.341,3.341,0,0,1-3.191.535,3.393,3.393,0,0,1,0-6.4,3.338,3.338,0,0,1,3.19.535A3.153,3.153,0,0,1,6.6,2.592a1.477,1.477,0,0,1,.006.8" transform="translate(628.781 566.367)" fill="#e0e0e0"/>
    <path id="Fill_24" data-name="Fill 24" d="M105.5,40.806s-.011-.252-.018-.726-.01-1.186-.018-2.1c-.01-1.852-.024-4.561-.043-8.053-.022-6.991-.053-17.108-.093-29.68l.172.171L.256.5H.248L.5.248C.494,14.423.49,28.126.488,40.806l-.239-.238,75.4.112,21.926.066,5.879.031,1.525.014c.344.005.527.015.527.015s-.163.01-.5.015l-1.5.014-5.828.031-21.873.066L.248,41.044H.01v-.238C.008,28.126,0,14.423,0,.248V0H.256L105.5.076h.172V.248c-.038,12.615-.07,22.768-.093,29.783-.018,3.475-.032,6.171-.042,8.015q-.011,1.35-.018,2.069c-.006.463-.018.691-.018.691" transform="translate(579.332 500.661)" fill="#e0e0e0"/>
    <path id="Fill_25" data-name="Fill 25" d="M6.606,3.391a7.464,7.464,0,0,1-.193-.752A3.168,3.168,0,0,0,5.244,1,3.011,3.011,0,0,0,2.423.621,2.979,2.979,0,0,0,.5,3.39,2.98,2.98,0,0,0,2.423,6.161a3.011,3.011,0,0,0,2.821-.383A3.173,3.173,0,0,0,6.412,4.143a7.464,7.464,0,0,1,.193-.752,1.473,1.473,0,0,1-.006.8A3.157,3.157,0,0,1,5.457,6.057a3.341,3.341,0,0,1-3.191.535,3.393,3.393,0,0,1,0-6.4,3.338,3.338,0,0,1,3.19.535A3.153,3.153,0,0,1,6.6,2.592a1.477,1.477,0,0,1,.006.8" transform="translate(628.781 517.797)" fill="#e0e0e0"/>
    <path id="Fill_26" data-name="Fill 26" d="M105.5,40.806s-.011-.252-.018-.726-.01-1.186-.018-2.1c-.01-1.852-.024-4.561-.043-8.053-.022-6.991-.053-17.108-.093-29.68l.172.171L.256.5H.248L.5.248C.494,14.423.49,28.126.488,40.806l-.239-.238,75.4.112,21.926.066,5.879.031,1.525.014c.344.005.527.015.527.015s-.163.01-.5.015l-1.5.014-5.828.031-21.873.066L.248,41.044H.01v-.238C.008,28.126,0,14.423,0,.248V0H.256L105.5.076h.172V.248c-.038,12.615-.07,22.768-.093,29.783-.018,3.475-.032,6.171-.042,8.015-.008.9-.014,1.587-.018,2.069-.006.463-.018.691-.018.691" transform="translate(579.332 452.746)" fill="#e0e0e0"/>
    <path id="Fill_27" data-name="Fill 27" d="M6.606,3.391a7.464,7.464,0,0,1-.193-.752A3.173,3.173,0,0,0,5.244,1,3.011,3.011,0,0,0,2.423.621,2.98,2.98,0,0,0,.5,3.391,2.983,2.983,0,0,0,2.423,6.162a3.015,3.015,0,0,0,2.821-.384A3.168,3.168,0,0,0,6.412,4.143a7.464,7.464,0,0,1,.193-.752,1.477,1.477,0,0,1-.006.8A3.157,3.157,0,0,1,5.457,6.057a3.341,3.341,0,0,1-3.191.535,3.393,3.393,0,0,1,0-6.4,3.338,3.338,0,0,1,3.19.535A3.153,3.153,0,0,1,6.6,2.592a1.473,1.473,0,0,1,.006.8" transform="translate(628.781 469.882)" fill="#e0e0e0"/>
    <path id="Fill_28" data-name="Fill 28" d="M102.488.636c0,.247-22.944.447-51.241.447S0,.883,0,.636,22.939.19,51.247.19s51.241.2,51.241.447" transform="translate(594.039 443.476)" fill="#e0e0e0"/>
    <path id="Fill_29" data-name="Fill 29" d="M0,7.424H95.7V0H0Z" transform="translate(142.632 562.703)" fill="#ebebeb"/>
    <path id="Fill_30" data-name="Fill 30" d="M0,7.424H26.278V0H0Z" transform="translate(212.056 562.703)" fill="#e0e0e0"/>
    <path id="Fill_31" data-name="Fill 31" d="M5.242,0V33.44H0V37.07H5.242V59.451h97.994V39.086H95.977V34.65h7.259V28h3.226V24.971h-3.83V0Z" transform="translate(125.239 570.127)" fill="#f5f5f5"/>
    <path id="Fill_32" data-name="Fill 32" d="M0,.1V59.078H26.023V38.713H18.764V34.65h7.259V28h3.226V24.6h-3.83V0Z" transform="translate(202.452 570.127)" fill="#e0e0e0"/>
    <path id="Fill_33" data-name="Fill 33" d="M79.206.636c0,.2-17.733.37-39.6.37S0,.841,0,.636,17.729.266,39.605.266s39.6.165,39.6.37" transform="translate(125.101 606.08)" fill="#e0e0e0"/>
    <path id="Fill_34" data-name="Fill 34" d="M79.206.636c0,.2-17.733.37-39.6.37S0,.841,0,.636,17.729.266,39.605.266s39.6.165,39.6.37" transform="translate(125.101 602.683)" fill="#e0e0e0"/>
    <path id="Fill_35" data-name="Fill 35" d="M79.206.636c0,.2-17.733.37-39.6.37S0,.841,0,.636,17.729.266,39.6.266s39.6.165,39.6.37" transform="translate(130.187 593.541)" fill="#e0e0e0"/>
    <path id="Fill_36" data-name="Fill 36" d="M79.206.636c0,.2-17.733.37-39.6.37S0,.841,0,.636,17.729.266,39.6.266s39.6.165,39.6.37" transform="translate(130.677 618.453)" fill="#e0e0e0"/>
    <path id="Fill_37" data-name="Fill 37" d="M5.242,0V33.44H0V37.07H5.242V59.451h97.994V39.086H95.977V34.65h7.259V28h3.226V24.972h-3.83V0Z" transform="translate(134.933 503.251)" fill="#f5f5f5"/>
    <path id="Fill_38" data-name="Fill 38" d="M0,.1V59.078H26.023V38.713H18.764V34.65l7.259.137V28.133l3.289.005-.064-3.44-3.83-.1V0Z" transform="translate(212.146 503.252)" fill="#e0e0e0"/>
    <path id="Fill_39" data-name="Fill 39" d="M79.206.636c0,.2-17.733.37-39.6.37S0,.841,0,.636,17.729.266,39.605.266s39.6.165,39.6.37" transform="translate(134.794 539.205)" fill="#e0e0e0"/>
    <path id="Fill_40" data-name="Fill 40" d="M79.206.636c0,.2-17.733.37-39.6.37S0,.841,0,.636,17.729.266,39.605.266s39.6.165,39.6.37" transform="translate(134.794 535.808)" fill="#e0e0e0"/>
    <path id="Fill_41" data-name="Fill 41" d="M79.206.636c0,.2-17.733.37-39.6.37S0,.841,0,.636,17.729.266,39.605.266s39.6.165,39.6.37" transform="translate(139.881 526.666)" fill="#e0e0e0"/>
    <path id="Fill_42" data-name="Fill 42" d="M79.206.636c0,.2-17.733.37-39.6.37S0,.841,0,.636,17.728.266,39.6.266s39.6.165,39.6.37" transform="translate(140.371 551.578)" fill="#e0e0e0"/>
    <path id="Fill_43" data-name="Fill 43" d="M0,7.424H95.7V0H0Z" transform="translate(136.216 629.239)" fill="#ebebeb"/>
    <path id="Fill_44" data-name="Fill 44" d="M0,7.424H26.278V0H0Z" transform="translate(205.64 629.239)" fill="#e0e0e0"/>
    <path id="Fill_45" data-name="Fill 45" d="M4.8,0V30.593H0v3.32H4.8V54.389H94.445V35.757H87.8V31.7h6.641V25.611H97.4V22.845h-3.5V0Z" transform="translate(163.054 350.717)" fill="#f5f5f5"/>
    <path id="Fill_46" data-name="Fill 46" d="M0,.089V54.048H23.806V35.417h-6.64V31.7l6.64.125V25.739l3.009,0L26.758,22.6l-3.5-.093V0Z" transform="translate(233.692 350.717)" fill="#e0e0e0"/>
    <path id="Fill_47" data-name="Fill 47" d="M72.461.636c0,.187-16.222.339-36.228.339S0,.824,0,.636,16.219.3,36.233.3,72.461.449,72.461.636" transform="translate(162.927 383.554)" fill="#e0e0e0"/>
    <path id="Fill_48" data-name="Fill 48" d="M72.461.636c0,.187-16.222.339-36.228.339S0,.824,0,.636,16.219.3,36.233.3,72.461.449,72.461.636" transform="translate(162.927 380.446)" fill="#e0e0e0"/>
    <path id="Fill_49" data-name="Fill 49" d="M72.461.636c0,.187-16.222.339-36.228.339S0,.824,0,.636,16.219.3,36.233.3,72.461.449,72.461.636" transform="translate(167.581 372.083)" fill="#e0e0e0"/>
    <path id="Fill_50" data-name="Fill 50" d="M72.461.636c0,.187-16.222.339-36.228.339S0,.824,0,.636,16.219.3,36.233.3,72.461.449,72.461.636" transform="translate(168.028 394.873)" fill="#e0e0e0"/>
    <g id="Group_115" data-name="Group 115" transform="translate(222.52 164.093)">
      <path id="Fill_51" data-name="Fill 51" d="M0,116.218H129.9V0H0Z" transform="translate(0.347 0.348)" fill="#fafafa"/>
      <path id="Fill_52" data-name="Fill 52" d="M130.249,116.566s-.022-.745-.033-2.158-.019-3.511-.034-6.226c-.017-5.456-.043-13.433-.076-23.591-.036-20.307-.088-49.322-.15-84.243l.294.294L.359.7H.346L.694.348C.679,42.629.665,82.416.652,116.566l-.306-.306,93.956.154,26.5.08,7.015.037,1.809.017c.407.006.624.018.624.018s-.192.011-.589.018l-1.776.017-6.956.036-26.43.081-94.152.154H.041v-.306C.029,82.416.015,42.629,0,.348V0H.359l129.89.053h.3V.348c-.062,35-.115,64.079-.151,84.43-.032,10.129-.059,18.083-.075,23.524-.015,2.692-.027,4.758-.034,6.171-.011,1.391-.033,2.093-.033,2.093" transform="translate(0 0)" fill="#e0e0e0"/>
      <path id="Fill_53" data-name="Fill 53" d="M30.542.636c0,.192-6.837.348-15.27.348S0,.829,0,.636,6.836.289,15.272.289s15.27.155,15.27.348" transform="translate(19.614 20.361)" fill="#e0e0e0"/>
      <path id="Fill_54" data-name="Fill 54" d="M83.9.636c0,.192-18.784.348-41.95.348S0,.829,0,.636,18.779.289,41.954.289,83.9.446,83.9.636" transform="translate(21.293 29.087)" fill="#e0e0e0"/>
      <path id="Fill_55" data-name="Fill 55" d="M0,5.473H5.473V0H0Z" transform="translate(19.839 44.505)" fill="#e0e0e0"/>
      <path id="Fill_56" data-name="Fill 56" d="M0,5.473H5.473V0H0Z" transform="translate(33.31 44.505)" fill="#e0e0e0"/>
      <path id="Fill_57" data-name="Fill 57" d="M0,5.473H5.473V0H0Z" transform="translate(47.03 44.256)" fill="#e0e0e0"/>
      <path id="Fill_58" data-name="Fill 58" d="M0,5.473H5.473V0H0Z" transform="translate(60.253 44.505)" fill="#e0e0e0"/>
      <path id="Fill_59" data-name="Fill 59" d="M0,5.473H5.473V0H0Z" transform="translate(73.724 44.505)" fill="#e0e0e0"/>
      <path id="Fill_60" data-name="Fill 60" d="M0,5.473H5.473V0H0Z" transform="translate(87.196 44.505)" fill="#e0e0e0"/>
      <path id="Fill_61" data-name="Fill 61" d="M0,5.473H5.473V0H0Z" transform="translate(100.666 44.505)" fill="#ebebeb"/>
      <path id="Fill_62" data-name="Fill 62" d="M0,5.473H5.473V0H0Z" transform="translate(19.839 56.139)" fill="#ebebeb"/>
      <path id="Fill_63" data-name="Fill 63" d="M0,5.473H5.473V0H0Z" transform="translate(33.31 56.139)" fill="#e0e0e0"/>
      <path id="Fill_64" data-name="Fill 64" d="M0,5.473H5.473V0H0Z" transform="translate(46.782 56.139)" fill="#ebebeb"/>
      <path id="Fill_65" data-name="Fill 65" d="M0,5.473H5.473V0H0Z" transform="translate(60.253 56.139)" fill="#e0e0e0"/>
      <path id="Fill_66" data-name="Fill 66" d="M0,5.473H5.473V0H0Z" transform="translate(73.724 56.139)" fill="#e0e0e0"/>
      <path id="Fill_67" data-name="Fill 67" d="M0,5.473H5.473V0H0Z" transform="translate(87.444 55.891)" fill="#e0e0e0"/>
      <path id="Fill_68" data-name="Fill 68" d="M0,5.473H5.473V0H0Z" transform="translate(100.666 56.139)" fill="#e0e0e0"/>
      <path id="Fill_69" data-name="Fill 69" d="M0,5.473H5.473V0H0Z" transform="translate(19.839 67.774)" fill="#e0e0e0"/>
      <path id="Fill_70" data-name="Fill 70" d="M0,5.473H5.473V0H0Z" transform="translate(33.558 67.526)" fill="#e0e0e0"/>
      <path id="Fill_71" data-name="Fill 71" d="M0,5.473H5.473V0H0Z" transform="translate(46.782 67.774)" fill="#e0e0e0"/>
      <path id="Fill_72" data-name="Fill 72" d="M0,5.473H5.473V0H0Z" transform="translate(60.253 67.774)" fill="#ebebeb"/>
      <path id="Fill_73" data-name="Fill 73" d="M0,5.473H5.473V0H0Z" transform="translate(73.724 67.774)" fill="#e0e0e0"/>
      <path id="Fill_74" data-name="Fill 74" d="M0,5.473H5.473V0H0Z" transform="translate(87.196 67.774)" fill="#e0e0e0"/>
      <path id="Fill_75" data-name="Fill 75" d="M0,5.473H5.473V0H0Z" transform="translate(100.666 67.774)" fill="#e0e0e0"/>
      <path id="Fill_76" data-name="Fill 76" d="M0,5.473H5.473V0H0Z" transform="translate(19.839 79.41)" fill="#e0e0e0"/>
      <path id="Fill_77" data-name="Fill 77" d="M0,5.473H5.473V0H0Z" transform="translate(33.31 79.41)" fill="#e0e0e0"/>
      <path id="Fill_78" data-name="Fill 78" d="M0,5.473H5.473V0H0Z" transform="translate(46.782 79.41)" fill="#e0e0e0"/>
      <path id="Fill_79" data-name="Fill 79" d="M0,5.473H5.473V0H0Z" transform="translate(60.501 79.16)" fill="#e0e0e0"/>
      <path id="Fill_80" data-name="Fill 80" d="M0,5.473H5.473V0H0Z" transform="translate(73.724 79.41)" fill="#e0e0e0"/>
      <path id="Fill_81" data-name="Fill 81" d="M0,5.473H5.473V0H0Z" transform="translate(87.196 79.41)" fill="#ebebeb"/>
      <path id="Fill_82" data-name="Fill 82" d="M0,5.473H5.473V0H0Z" transform="translate(100.666 79.41)" fill="#e0e0e0"/>
      <path id="Fill_83" data-name="Fill 83" d="M0,5.473H5.473V0H0Z" transform="translate(19.839 91.043)" fill="#e0e0e0"/>
      <path id="Fill_84" data-name="Fill 84" d="M0,5.473H5.473V0H0Z" transform="translate(33.31 91.043)" fill="#ebebeb"/>
      <path id="Fill_85" data-name="Fill 85" d="M0,5.473H5.473V0H0Z" transform="translate(46.782 91.043)" fill="#e0e0e0"/>
      <path id="Fill_86" data-name="Fill 86" d="M0,5.473H5.473V0H0Z" transform="translate(60.253 91.043)" fill="#e0e0e0"/>
      <path id="Fill_87" data-name="Fill 87" d="M0,5.473H5.473V0H0Z" transform="translate(73.724 91.043)" fill="#e0e0e0"/>
      <path id="Fill_88" data-name="Fill 88" d="M0,5.473H5.473V0H0Z" transform="translate(87.444 90.795)" fill="#e0e0e0"/>
      <path id="Fill_89" data-name="Fill 89" d="M0,5.473H5.473V0H0Z" transform="translate(100.666 91.043)" fill="#e0e0e0"/>
    </g>
    <path id="Fill_124" data-name="Fill 124" d="M41.015,68.132C49.959,57.5,55.081,54.571,61.549,47.359c5.457-6.084,11.01-12.317,14.209-19.838S79.436,10.822,74.926,4c0,0-14.333-2.928-24.985-3.5S34.34,0,34.34,0l-5.9,17.865L39.1,22.218,17.25,41.992,0,62.06,8.577,86.907l11.606,1.072Z" transform="translate(557.424 282.783)" fill="#ffbe9d"/>
    <path id="Fill_125" data-name="Fill 125" d="M20.139,0a27.716,27.716,0,0,1-2.831,2.93L10.3,9.818c-2.745,2.683-5.27,5.075-7.148,6.753A22.466,22.466,0,0,1,0,19.16a27.716,27.716,0,0,1,2.831-2.93L9.839,9.344c2.745-2.682,5.269-5.074,7.148-6.752A22.263,22.263,0,0,1,20.139,0" transform="translate(593.563 288.522)" fill="#eb996e"/>
    <path id="Fill_126" data-name="Fill 126" d="M11.488,2.8c-.081.073-.588-.494-1.608-1.091A7.488,7.488,0,0,0,5.519.684,7.484,7.484,0,0,0,1.4,2.453C.5,3.218.1,3.864.01,3.806c-.066-.029.2-.783,1.072-1.7A7.057,7.057,0,0,1,5.462.025a7.053,7.053,0,0,1,4.674,1.29c1.022.747,1.412,1.444,1.352,1.484" transform="translate(618.002 290.437)" fill="#eb996e"/>
    <path id="Fill_127" data-name="Fill 127" d="M67.991,45.339a7.271,7.271,0,0,0,4.452-9.494c-.743-1.693-2.12-3.013-3.17-4.536a16.176,16.176,0,0,1-1.507-2.784L66.01,23.119c-1.188-4.528-2.172-9.1-5.694-11.973-3.193-2.6-7.621-2.984-11.305-4.822C46.325,4.985,44.08,2.9,41.445,1.459S35.43-.68,32.878.9c-1.5.925-2.5,2.509-4.009,3.422C25.758,6.2,21.3,4.8,18.454,7.062c-2.316,1.837-2.528,5.273-4.2,7.709-1.819,2.652-2.915,5.139-5.8,6.565a8.159,8.159,0,0,0-4.584,7.411c-.032,2.827-.406,4.116-.488,6.943-.06,2.061-1.132,4.136-1.95,6.029S-.928,50.957.752,52.155l19.2,8.654C26.018,66.767,32.3,72.868,40.165,76.09l1.517,2.044c-1.813.219,19.206-1.88,22.72-14.517a12.586,12.586,0,0,1,2.188-4.892,22.367,22.367,0,0,0,3.321-4.336,7.772,7.772,0,0,0-1.921-9.05" transform="translate(522.648 245.845)" fill="#263238"/>
    <path id="Fill_128" data-name="Fill 128" d="M0,39.471A106.014,106.014,0,0,0,10.987,24.866c3.091-5.259,5.316-11.151,5.525-17.248.032-.924-.3-7.348-1.183-7.614C14.7-.185,14.2,5.476,13.673,5.878c-5.009,3.834-8.3,9.569-10.222,15.576A82.641,82.641,0,0,0,0,39.471" transform="translate(570.368 272.987)" fill="#263238"/>
    <path id="Fill_129" data-name="Fill 129" d="M13.164,97.631c8.822,3.412,26.606-11.624,26.606-11.624L60.533,37.129C66.807,23.176,63.916,7.894,49.795,2.009L48.458,1.54A27.35,27.35,0,0,0,14.417,16.273C9.046,28.4,3.267,41.862,1.009,48.584-3.668,62.5,9.437,69.5,9.437,69.5c.031.013-1.218,3.177-2.815,7.178C3.035,85.671,9.535,96.5,13.164,97.631" transform="translate(519.242 254.032)" fill="#ffbe9d"/>
    <path id="Fill_130" data-name="Fill 130" d="M1.407,0A35.46,35.46,0,0,0,21.315.978S13.391,9.517,0,3.432Z" transform="translate(527.272 323.536)" fill="#eb996e"/>
    <path id="Fill_131" data-name="Fill 131" d="M.01,1.054c.155.344,2.042-.242,4.17.509C6.316,2.282,7.5,3.924,7.818,3.745c.154-.076.067-.629-.44-1.362A5.743,5.743,0,0,0,4.577.317,5.523,5.523,0,0,0,1.146.233C.315.506-.07.9.01,1.054" transform="translate(531.977 281.534)" fill="#263238"/>
    <path id="Fill_132" data-name="Fill 132" d="M.01,1.052c.155.344,2.044-.241,4.17.51C6.315,2.282,7.5,3.924,7.818,3.744c.154-.075.07-.628-.44-1.362A5.753,5.753,0,0,0,4.578.315,5.535,5.535,0,0,0,1.146.233C.317.506-.07.895.01,1.052" transform="translate(552.895 287.956)" fill="#263238"/>
    <path id="Fill_133" data-name="Fill 133" d="M5,17.406a14.963,14.963,0,0,0-3.24-1.834c-.524-.246-1-.535-.964-.937a2.944,2.944,0,0,1,.928-1.486L4.778,9.572c4.3-5.114,7.609-9.4,7.4-9.567S8.322,3.84,4.025,8.953q-1.568,1.9-3,3.627A3.324,3.324,0,0,0,0,14.615a1.443,1.443,0,0,0,.615,1.108,3.967,3.967,0,0,0,.88.452A14.669,14.669,0,0,0,5,17.406" transform="translate(536.805 281.535)" fill="#263238"/>
    <path id="Fill_134" data-name="Fill 134" d="M8.769.006c-.34-.141-1.152,2.168-3.7,3.116S.14,2.957.009,3.273c-.083.134.392.642,1.422,1.034a6.094,6.094,0,0,0,4.174.005A5.307,5.307,0,0,0,8.562,1.646c.426-.936.369-1.6.206-1.64" transform="translate(538.785 302.6)" fill="#263238"/>
    <path id="Fill_135" data-name="Fill 135" d="M0,.655c.008.653,2.229,1.122,4.622,2.3C7.038,4.079,8.8,5.515,9.311,5.112c.234-.2.074-.864-.545-1.71A8.591,8.591,0,0,0,5.611.885,8.588,8.588,0,0,0,1.673.007C.626.055.005.348,0,.655" transform="translate(558.306 275.996)" fill="#263238"/>
    <path id="Fill_136" data-name="Fill 136" d="M.011,1.232c.2.615,1.848.625,3.62,1.22C5.424,2.982,6.775,3.915,7.3,3.53c.237-.192.172-.759-.321-1.445A5.287,5.287,0,0,0,4.32.267,5.285,5.285,0,0,0,1.1.233c-.8.279-1.176.705-1.094,1" transform="translate(537.954 269.09)" fill="#263238"/>
    <path id="Fill_137" data-name="Fill 137" d="M5.3,0C5.571-.019,15.8.515,12.188,9.883S-.087,13.686,0,13.411,5.3,0,5.3,0" transform="translate(569.755 301.025)" fill="#ffbe9d"/>
    <path id="Fill_138" data-name="Fill 138" d="M.029,6.828c.052-.014.12.177.346.41a1.755,1.755,0,0,0,1.211.5c1.129.019,2.569-1.231,3.267-2.9A5.8,5.8,0,0,0,5.3,2.321,2.026,2.026,0,0,0,4.554.593.891.891,0,0,0,3.418.67c-.227.213-.239.423-.3.42C3.088,1.1,2.982.856,3.206.5A1.12,1.12,0,0,1,3.8.052,1.321,1.321,0,0,1,4.8.163,2.455,2.455,0,0,1,5.941,2.274,5.931,5.931,0,0,1,5.5,5.1C4.71,6.967,3.061,8.36,1.555,8.229a1.878,1.878,0,0,1-1.4-.824c-.2-.344-.169-.573-.13-.577" transform="translate(573.958 305.164)" fill="#eb996e"/>
    <path id="Fill_139" data-name="Fill 139" d="M.141,4.778C-1.039,3.346,5.433.25,9.814.036c6.621-.322,15.811,1.506,20.4,5.023,5.53,4.235,9.476,9.385,10.357,16.293a39.484,39.484,0,0,1-3.309,20.381,11.988,11.988,0,0,1-3.575,5.182c-2.122,1.547-5.139,1.856-6.157,4.746a4.2,4.2,0,0,1-2.1,2.466c-2.428,1.141-3.841-1.4-4.123-3.487-.6-4.469.9-8.926,2.378-13.186,1.051-3.028,2.136-6.118,4.109-8.645,1.073-1.375,2.389-2.554,3.385-3.987A6.032,6.032,0,0,0,32.367,19.9a6.3,6.3,0,0,0-.454-1.067,10.472,10.472,0,0,0-8.93-5.666c-5.993-.223-16.072-1-17.709-3.716-2.356-3.9-2.5-5.9-2.5-5.9Z" transform="translate(545.686 252.455)" fill="#263238"/>
    <path id="Fill_140" data-name="Fill 140" d="M25.641,5.479A22.058,22.058,0,0,0,9.528.094C6.456.406,3.316,1.607,1.444,4.063s-2.042,6.324.188,8.462l.137.187c3.452,2.919,6.252,3.412,10.768,3.61,3.8.168,7.588-.717,11.387-.531a20.4,20.4,0,0,1,11.232,4.077,33.308,33.308,0,0,0-9.516-14.39" transform="translate(550.275 250.576)" fill="#263238"/>
    <path id="Fill_141" data-name="Fill 141" d="M17.445.005a8.51,8.51,0,0,1-1.8,2.359,20.794,20.794,0,0,1-5.8,4.207A20.8,20.8,0,0,1,2.965,8.566,8.451,8.451,0,0,1,0,8.536c-.036-.224,4.6-.1,9.554-2.568C14.543,3.575,17.29-.16,17.445.005" transform="translate(571.927 276.162)" fill="#455a64"/>
    <path id="Fill_142" data-name="Fill 142" d="M23.926,0a3.419,3.419,0,0,1-.4,1.072A17.809,17.809,0,0,1,21.95,3.759a21.2,21.2,0,0,1-7.761,6.676,21.187,21.187,0,0,1-10,2.2,17.69,17.69,0,0,1-3.1-.348A3.385,3.385,0,0,1,0,11.966c.02-.118,1.609.234,4.195.2a22.651,22.651,0,0,0,9.7-2.332,22.633,22.633,0,0,0,7.679-6.356C23.147,1.43,23.819-.053,23.926,0" transform="translate(568.607 279.224)" fill="#455a64"/>
    <path id="Fill_143" data-name="Fill 143" d="M54.759,47.08,9.685,0,0,15.263,11.951,38.108s13.03,21.324,19.735,28.846,7.195,5.891,7.195,5.891Z" transform="translate(414.191 335.696)" fill="#ffbe9d"/>
    <path id="Fill_144" data-name="Fill 144" d="M22.148,1.755C22,1.658,14.1.493,10.963.035A3.332,3.332,0,0,0,8.639.556L3.908,3.7.022,11.934l1.161.77L0,20.141a2.356,2.356,0,0,0,3.766-.275A32.509,32.509,0,0,0,7.2,14.281l5.128-.089-.228.477L6.845,16.01,5.1,20.484,6.676,25.1l3.534,3.236,1.526-.061L14.611,30s2.918-2.557.451-5.031c0,0,2.377,2.347,3.685,1.427l10.7,4.867,8.411-8.118,2.286-6.467S26.732,3.542,25.922,2.916a14.044,14.044,0,0,0-3.774-1.161" transform="translate(385.08 320.331)" fill="#ffbe9d"/>
    <path id="Fill_145" data-name="Fill 145" d="M2.482,10.453c-.106-.025.046-.652-.094-1.623A4.985,4.985,0,0,0,.6,5.633L.412,5.491l-.2-.15.071-.223a6.964,6.964,0,0,0,.134-3.61C.209.588-.071.054.017,0c.061-.042.5.42.84,1.376A6.292,6.292,0,0,1,.915,5.317L.787,4.944c.07.052.145.109.222.165A4.919,4.919,0,0,1,2.855,8.79c.024,1.083-.306,1.691-.373,1.663" transform="translate(397.709 334.708)" fill="#eb996e"/>
    <path id="Fill_146" data-name="Fill 146" d="M2.769,11.077a4.829,4.829,0,0,0,.923-1.558A4.748,4.748,0,0,0,2.566,5.485c-.286-.393-.588-.766-.877-1.128l-.117-.146.062-.168A3.1,3.1,0,0,0,1.068.933C.5.291-.034.107,0,.02.008-.04.623,0,1.364.64a3.391,3.391,0,0,1,.878,3.622l-.055-.314c.3.355.612.733.914,1.15A6.528,6.528,0,0,1,4.259,7.476a3.71,3.71,0,0,1-.123,2.195c-.493,1.213-1.362,1.488-1.366,1.407" transform="translate(393.614 337.517)" fill="#eb996e"/>
    <path id="Fill_147" data-name="Fill 147" d="M2.45.05c.1.155-.369.625-1.041,1.049s-1.3.642-1.4.488S.382.961,1.054.538s1.3-.643,1.4-.488" transform="translate(395.476 340.05)" fill="#eb996e"/>
    <path id="Fill_148" data-name="Fill 148" d="M2.75,3.41C2.56,3.443,2.276,2.5,1.532,1.6.806.692-.066.23,0,.051.041-.121,1.185.118,2.046,1.184s.88,2.223.7,2.226" transform="translate(396.868 342.501)" fill="#eb996e"/>
    <path id="Fill_149" data-name="Fill 149" d="M.022,11.244C-.164,11.162.884,8.8,1.263,5.689,1.676,2.581,1.24.034,1.44,0c.157-.055.906,2.533.48,5.772-.4,3.238-1.761,5.562-1.9,5.471" transform="translate(402.886 334.687)" fill="#eb996e"/>
    <path id="Fill_150" data-name="Fill 150" d="M5.7,0c.081.036-.014.5-.272,1.211a8.113,8.113,0,0,1-1.5,2.61,4.488,4.488,0,0,1-2.668,1.5C.446,5.421-.023,5.186,0,5.113c.018-.1.484-.051,1.16-.25A5.048,5.048,0,0,0,3.43,3.38,12.856,12.856,0,0,0,5,1.018C5.359.366,5.61-.035,5.7,0" transform="translate(386.327 327.674)" fill="#eb996e"/>
    <path id="Fill_151" data-name="Fill 151" d="M.026,1.85C-.086,1.7.184,1.312.468.845S.99-.032,1.173,0s.22.611-.141,1.192-.9.8-1.006.657" transform="translate(397.599 331.739)" fill="#eb996e"/>
    <path id="Fill_152" data-name="Fill 152" d="M0,.182.136,19.46c.046,6.485,26.09,6.272,25.767-.182C25.884,18.9,25.767,0,25.767,0Z" transform="translate(364.68 320.181)" fill="#455a64"/>
    <path id="Fill_153" data-name="Fill 153" d="M.157.164A14.432,14.432,0,0,1,4.8.213,4.386,4.386,0,0,1,7.737,1.72a5.071,5.071,0,0,1,.7,2.513,9.834,9.834,0,0,1-.5,5A6.376,6.376,0,0,1,4.565,12.34,10.374,10.374,0,0,1,0,13q.011-1.472.022-2.943A12.668,12.668,0,0,0,2.765,9.9a4.316,4.316,0,0,0,2.4-1.288,5.862,5.862,0,0,0,1-4.323,3.14,3.14,0,0,0-.482-1.7A2.727,2.727,0,0,0,3.44,1.747a8.166,8.166,0,0,0-3.181.644" transform="translate(389.662 323.398)" fill="#455a64"/>
    <path id="Fill_154" data-name="Fill 154" d="M5.147,3.865A.928.928,0,0,1,4.6,4.1,1.8,1.8,0,0,1,3.071,3.37a2.305,2.305,0,0,1-.519-1.157A1.733,1.733,0,0,1,3.021.759,2.868,2.868,0,0,1,6.514.438,3.9,3.9,0,0,1,8.073,4.423,9.072,9.072,0,0,1,5.781,8.813,15.4,15.4,0,0,0,2.841,13.14a5,5,0,0,0,.97,5.068C5.07,19.637,6.8,20.592,8.139,21.99a4.92,4.92,0,0,1,1.367,2.54,4.247,4.247,0,0,1-.453,2.739,9.881,9.881,0,0,1-3.5,3.506,14.653,14.653,0,0,0-3.213,2.634A9.163,9.163,0,0,0,.26,38.928,20.663,20.663,0,0,0,.4,41.154,1.931,1.931,0,0,1,.209,40.6,8.129,8.129,0,0,1,0,38.926a9.137,9.137,0,0,1,1.977-5.814,14.708,14.708,0,0,1,3.26-2.787A9.462,9.462,0,0,0,8.507,27a3.634,3.634,0,0,0,.376-2.355,4.274,4.274,0,0,0-1.216-2.2c-1.245-1.3-2.983-2.249-4.357-3.795a5.647,5.647,0,0,1-1.081-5.72,15.659,15.659,0,0,1,3.082-4.5A8.617,8.617,0,0,0,7.529,4.342,3.422,3.422,0,0,0,6.273.839a2.478,2.478,0,0,0-2.983.174,1.657,1.657,0,0,0-.015,2.2,1.7,1.7,0,0,0,1.316.755c.363-.014.54-.137.556-.1" transform="translate(375.74 277.165)" fill="#263238"/>
    <path id="Fill_155" data-name="Fill 155" d="M.657.482,10.827,0,22.388,3.286,36.806,15.594s-11.005,8.168-14.578,4.6S14.5,8.721,14.5,8.721l-4.1-1.73S-3.088,6.967.657.482" transform="translate(391.055 324.781)" fill="#ffbe9d"/>
    <path id="Fill_156" data-name="Fill 156" d="M30.466,10.222a2.8,2.8,0,0,1-.583-.406L28.3,8.547,22.555,3.785l.09.047L11.063.619l.1.011L1,1.129,1.266.965l-.078.153a2.786,2.786,0,0,0-.034,3.191A6.182,6.182,0,0,0,4.094,6.04a25.1,25.1,0,0,0,6.634.97h.065l.05.022,4.091,1.754.089.038.045.085a80.837,80.837,0,0,0,5.186,8.605c.689.989,1.283,1.72,1.683,2.223a4.751,4.751,0,0,1,.615.77,4.437,4.437,0,0,1-.737-.662A26.224,26.224,0,0,1,20,17.7a69.057,69.057,0,0,1-5.417-8.537l.135.123-4.112-1.7.116.024A25.161,25.161,0,0,1,3.9,6.655,6.723,6.723,0,0,1,.635,4.714,2.934,2.934,0,0,1,0,2.75,4.454,4.454,0,0,1,.606.8C.635.745.665.686.692.633L.772.476.963.467,11.133,0l.053,0,.048.014L22.776,3.37l.052.015.038.033c2.312,2.032,4.209,3.7,5.606,4.926l1.5,1.366a2.824,2.824,0,0,1,.493.512" transform="translate(390.733 324.465)" fill="#eb996e"/>
    <path id="Fill_157" data-name="Fill 157" d="M25.419.012c.022.039-.286.244-.868.58a8.946,8.946,0,0,1-1.091.552,13.789,13.789,0,0,1-1.5.617,26.211,26.211,0,0,1-9.236,1.5A29,29,0,0,1,3.5,1.664,19.566,19.566,0,0,1,.891.554C.3.243-.019.052,0,.012c.05-.106,1.385.524,3.648,1.207a33.281,33.281,0,0,0,9.083,1.376A29.547,29.547,0,0,0,21.81,1.318c2.253-.7,3.553-1.412,3.609-1.306" transform="translate(364.924 340.261)" fill="#263238"/>
    <path id="Fill_158" data-name="Fill 158" d="M.675,19.919c-.183,0-.349-4.458-.37-9.957S.414,0,.6,0s.349,4.457.37,9.959-.109,9.959-.293,9.96" transform="translate(389.849 320.183)" fill="#263238"/>
    <path id="Fill_159" data-name="Fill 159" d="M.623,30.628c-.02.01-.093-.1-.214-.322A3.893,3.893,0,0,1,.074,29.25a6.335,6.335,0,0,1,.764-3.964,15.049,15.049,0,0,1,4.035-4.412c1.7-1.41,3.636-2.994,4.517-5.336a4.989,4.989,0,0,0,.132-3.447,7.481,7.481,0,0,0-1.9-2.728C6.058,7.86,4.379,6.55,3.651,4.912a4.13,4.13,0,0,1,.16-4,2.442,2.442,0,0,1,.81-.771c.225-.121.355-.155.363-.137A4.228,4.228,0,0,0,4.03,1.05a3.94,3.94,0,0,0,.042,3.657C4.79,6.19,6.4,7.393,8.054,8.926a7.96,7.96,0,0,1,2.08,2.948,5.59,5.59,0,0,1-.125,3.9c-.967,2.557-3.048,4.2-4.747,5.576A15.28,15.28,0,0,0,1.25,25.51a6.406,6.406,0,0,0-.92,3.706c.085.918.355,1.386.293,1.412" transform="translate(377.127 288.349)" fill="#263238"/>
    <path id="Fill_160" data-name="Fill 160" d="M56.4,54.17,31.6,35.419S42.331,3.912,38.085,0L0,46.781l37.443,30.8Z" transform="translate(153.854 277.953)" fill="#ff725e"/>
    <path id="Fill_161" data-name="Fill 161" d="M56.4,54.17,31.6,35.419S42.331,3.912,38.085,0L0,46.781l37.443,30.8Z" transform="translate(153.854 277.953)"/>
    <path id="Fill_162" data-name="Fill 162" d="M3.709,4.118A2.463,2.463,0,0,1,.454,3.664,2.367,2.367,0,0,1,.875.433a2.6,2.6,0,0,1,3.445.5c.633,1.032.306,2.846-.811,3.312" transform="translate(171.995 325.368)" fill="#e0e0e0"/>
    <path id="Fill_163" data-name="Fill 163" d="M0,46.78l3.9,2.957L38.955,3.78S39.744.959,38.085,0Z" transform="translate(153.853 277.953)" fill="#fff"/>
    <path id="Fill_164" data-name="Fill 164" d="M6.1.02C5.868-.158,4.834.9,3.184,1.425c-1.636.569-3.1.342-3.177.626C-.12,2.3,1.523,3.07,3.509,2.4,5.5,1.744,6.352.141,6.1.02" transform="translate(180.207 312.786)" fill="#263238"/>
    <path id="Fill_165" data-name="Fill 165" d="M5.971.049C5.793-.183,4.6.489,3,.479,1.4.515.2-.14.024.1c-.211.186,1,1.432,2.985,1.408C4.995,1.5,6.185.231,5.971.049" transform="translate(182.303 306.199)" fill="#263238"/>
    <path id="Fill_166" data-name="Fill 166" d="M.033.037C-.185.205.7,1.453,2.426,1.884s3.1-.232,2.985-.482C5.328,1.119,4.092,1.267,2.678.89,1.256.548.24-.171.033.037" transform="translate(184.638 298.642)" fill="#263238"/>
    <path id="Fill_167" data-name="Fill 167" d="M4.234,0c-.286-.074-.824,1.231-1.963,2.451C1.158,3.7-.094,4.348.006,4.627c.057.267,1.7-.025,3.022-1.482S4.506.037,4.234,0" transform="translate(187.252 317.704)" fill="#263238"/>
    <path id="Fill_168" data-name="Fill 168" d="M55.066,56.009,32.757,34.353S47.278,4.4,43.545,0L0,41.747l33.375,35.17Z" transform="translate(167.372 257.934)" fill="#ff725e"/>
    <path id="Fill_169" data-name="Fill 169" d="M3.474,4.278A2.462,2.462,0,0,1,.3,3.428,2.368,2.368,0,0,1,1.114.273a2.6,2.6,0,0,1,3.358.918c.5,1.1-.047,2.862-1.212,3.188" transform="translate(185 302.804)" fill="#e0e0e0"/>
    <path id="Fill_170" data-name="Fill 170" d="M0,41.747l3.5,3.413,40.439-41.3s1.13-2.7-.4-3.857Z" transform="translate(167.372 257.934)" fill="#fff"/>
    <path id="Fill_171" data-name="Fill 171" d="M6.31.03C6.1-.176,4.944.746,3.242,1.066,1.549,1.43.126,1.025.011,1.3c-.157.229,1.38,1.2,3.433.774C5.5,1.667,6.543.18,6.31.03" transform="translate(194.738 291.802)" fill="#263238"/>
    <path id="Fill_172" data-name="Fill 172" d="M5.94.719C5.791.467,4.523.988,2.94.78,1.348.621.234-.177.032.036-.2.194.847,1.58,2.821,1.8,4.793,2.037,6.13.927,5.94.719" transform="translate(197.864 284.844)" fill="#263238"/>
    <path id="Fill_173" data-name="Fill 173" d="M.044.025C-.193.165.53,1.511,2.193,2.153s3.1.151,3.021-.112c-.047-.29-1.292-.3-2.649-.844C1.2.682.276-.157.044.025" transform="translate(201.113 277.585)" fill="#263238"/>
    <path id="Fill_174" data-name="Fill 174" d="M4.768.007C4.493-.1,3.8,1.127,2.519,2.2,1.261,3.294-.061,3.787,0,4.076c.025.271,1.693.183,3.182-1.1S5.033.074,4.768.007" transform="translate(200.816 297.325)" fill="#263238"/>
    <path id="Fill_175" data-name="Fill 175" d="M24.349,0s66.962,52.889,79.524,54.46l14.264,2.312,28.653,12.343,88.451,46.58,27.739,19.365,14.249,26.911,1.206,16.173s-63.993,7.791-73.414,2.033-90.156-66.052-94.344-70.762S30.343,72.778,0,20.513Z" transform="translate(188.354 302.957)" fill="#263238"/>
    <path id="Fill_176" data-name="Fill 176" d="M0,29.246s48.567,45.1,82.587,58.187a415.005,415.005,0,0,1,61.236,29.833l57.067,31.073,73.307-33.13L259.732,89.253,140.682,61.264,19.812,0S.523,19.826,0,29.246" transform="translate(178.208 324.416)" fill="#263238"/>
    <path id="Fill_177" data-name="Fill 177" d="M0,15.406A30.341,30.341,0,0,1,28.33.085" transform="translate(419.539 437.953)" fill="#263238"/>
    <path id="Fill_178" data-name="Fill 178" d="M5.3,0A16.724,16.724,0,0,1,0,17.926" transform="translate(420.762 426.934)" fill="#263238"/>
    <path id="Fill_179" data-name="Fill 179" d="M0,0A6.31,6.31,0,0,1,1.36.589C2.217,1,3.44,1.629,4.94,2.427c3,1.6,7.091,3.9,11.51,6.609s8.33,5.313,11.112,7.264c1.391.975,2.505,1.781,3.261,2.356a6.391,6.391,0,0,1,1.137.947,6.39,6.39,0,0,1-1.283-.735L27.3,16.69c-2.845-1.848-6.786-4.382-11.2-7.088S7.649,4.534,4.712,2.837L1.238.816A6.323,6.323,0,0,1,0,0" transform="translate(383.933 397.071)" fill="#455a64"/>
    <path id="Fill_180" data-name="Fill 180" d="M208.4,158.191s-.2-.113-.575-.363l-1.65-1.12-6.306-4.36L176.75,136.214l-34.245-24L122.3,98.027,111.61,90.516q-5.383-3.876-11.151-7.478c-7.7-4.8-15.434-9.162-22.635-13.82C70.6,64.6,63.79,59.912,57.351,55.382,50.929,50.827,44.812,46.533,39.2,42.331A179.562,179.562,0,0,1,24.235,29.848,138.708,138.708,0,0,1,5.667,8.649C4.688,7.3,3.867,6.071,3.157,5S1.851,3.03,1.391,2.282C.939,1.556.589.993.339.588.106.2,0,0,0,0S.144.181.4.552q.4.592,1.108,1.657c.477.735,1.079,1.636,1.817,2.682S4.883,7.164,5.876,8.5A142.76,142.76,0,0,0,24.555,29.5,181.822,181.822,0,0,0,39.53,41.892c5.608,4.169,11.747,8.454,18.172,12.991,6.445,4.513,13.258,9.182,20.471,13.789,7.191,4.641,14.916,9,22.636,13.8,3.858,2.4,7.6,4.918,11.183,7.5q5.423,3.819,10.68,7.518l20.186,14.221,34.162,24.114,23,16.306,6.235,4.461,1.612,1.174c.362.267.536.419.536.419" transform="translate(188.354 323.47)" fill="#455a64"/>
    <path id="Fill_181" data-name="Fill 181" d="M104.909,0S81.6,12.591,77.245,17.84c-4.052,4.89-49.159,50.034-49.159,50.034S-1.1,76.555.032,78.978C2.107,83.426,10.286,91.4,14.669,95.489a41.054,41.054,0,0,1,5.24,5.919c3.689,5.092,10.907,15.066,16.866,23.373,8.4,11.706,9.344,25.564,9.344,25.564L66.7,139.034c10.5-4.24,16.237-15.727,27.779-21.688l34.65-37.339L139.7,58.439l3.52-53.107-5.007.359L118.819,8.259S102.028,6.463,104.909,0" transform="translate(420.67 330.755)" fill="#ff725e"/>
    <path id="Fill_182" data-name="Fill 182" d="M4.178,17.954,20.133,10.9A139.624,139.624,0,0,1,32.9,0S13.005,24.786,30.474,33.041,62.029,19.509,62.029,19.509a106.876,106.876,0,0,0-5.549,9.626c-2.042,4.237-12.409,17.709-12.409,17.709s-.292,6.676-6.255,13.494S25.157,78.427,19.84,81.316,2.623,89.511,2.623,89.511A151.407,151.407,0,0,1,.448,50.422C2.2,30,4.178,17.954,4.178,17.954" transform="translate(540.061 326.773)" fill="#ff725e"/>
    <path id="Fill_183" data-name="Fill 183" d="M7.835,37.209a7.493,7.493,0,0,1-1.348-.988,26.055,26.055,0,0,1-3.281-3.179,12.98,12.98,0,0,1-2.984-6.1,21.09,21.09,0,0,1,.5-8.3A42.72,42.72,0,0,1,6.888,4.961c1.063-1.6,1.995-2.85,2.655-3.7A7.925,7.925,0,0,1,10.638,0a8.385,8.385,0,0,1-.886,1.414c-.594.891-1.464,2.173-2.47,3.8A46.028,46.028,0,0,0,1.363,18.788a21.169,21.169,0,0,0-.538,8.048,12.849,12.849,0,0,0,2.745,5.911C6,35.665,7.941,37.1,7.835,37.209" transform="translate(561.167 327.49)" fill="#263238"/>
    <path id="Fill_184" data-name="Fill 184" d="M20.154,45.86a2.618,2.618,0,0,1-.615.3c-.414.168-1.021.429-1.82.717a22.961,22.961,0,0,1-7.077,1.346,10.7,10.7,0,0,1-4.9-1.115,9.211,9.211,0,0,1-3.959-4.186c-1.805-3.731-2-8.337-1.631-12.943a51.554,51.554,0,0,1,2.692-12.8A45.232,45.232,0,0,1,7.89,7.762C9.606,5.253,11.127,3.327,12.186,2L13.426.5A2.583,2.583,0,0,1,13.9,0a2.693,2.693,0,0,1-.364.578c-.3.423-.682.945-1.142,1.581C11.4,3.53,9.934,5.5,8.281,8.022a46.832,46.832,0,0,0-4.859,9.365,52.657,52.657,0,0,0-2.6,12.642C.445,34.574.643,39.088,2.334,42.646a8.7,8.7,0,0,0,3.671,3.972,10.343,10.343,0,0,0,4.643,1.132,24.6,24.6,0,0,0,6.991-1.123l1.852-.6a2.646,2.646,0,0,1,.662-.171" transform="translate(546.472 338.117)" fill="#263238"/>
    <path id="Fill_185" data-name="Fill 185" d="M16.251,0A31.358,31.358,0,0,1,13.445,2.3,52.6,52.6,0,0,0,1.95,15.255,31.367,31.367,0,0,1,.006,18.314a14.443,14.443,0,0,1,1.54-3.3A42.079,42.079,0,0,1,13.158,1.928,14.417,14.417,0,0,1,16.251,0" transform="translate(543.914 337.044)" fill="#263238"/>
    <path id="Fill_186" data-name="Fill 186" d="M17.3,0h0C7.121,9.547.43,24.744,0,38.7c-.039,1.269.342,2.97,1.613,3a1.722,1.722,0,0,0,1.549-1.469,8.333,8.333,0,0,0-.188-2.3C2.5,31.815,3.832,24.583,5.951,18.1,8.063,11.638,13.264,5.465,17.3,0" transform="translate(543.888 337.048)"/>
    <path id="Fill_187" data-name="Fill 187" d="M12.156,0C7.826,4.841,3.762,10.1,1.57,16.209S-.727,29.457,2.6,35.035c.92,1.545,2.765,3.1,4.321,2.2a2.787,2.787,0,0,0,.886-3.3A13.718,13.718,0,0,0,5.849,30.8C2.835,26.416,2.732,20.536,4.307,15.453S8.934,5.894,11.945,1.5" transform="translate(558.049 328.968)"/>
    <path id="Fill_188" data-name="Fill 188" d="M0,0C7.493,4.554,15.7,8.168,24.363,9.527,31.7,10.678,39.174,9.385,46.506,8.2,65.622,5.12,85.07,2.34,104.291,0H52.034C34.056,0,17.352,0,0,0" transform="translate(433.106 424.127)"/>
    <path id="Fill_189" data-name="Fill 189" d="M0,.49A3.263,3.263,0,0,1,1.111.172,11.572,11.572,0,0,1,4.265.052a15.64,15.64,0,0,1,9.3,4.41A16.561,16.561,0,0,1,17,9.06a11.219,11.219,0,0,1,1.161,4.555,11.632,11.632,0,0,1-.328,3.142,3.681,3.681,0,0,1-.392,1.087,24.869,24.869,0,0,0,.253-4.2,11.4,11.4,0,0,0-1.24-4.31A16.867,16.867,0,0,0,13.1,4.938,16.084,16.084,0,0,0,4.211.518,24.458,24.458,0,0,0,0,.49" transform="translate(502.493 480.611)" fill="#263238"/>
    <path id="Fill_190" data-name="Fill 190" d="M134.278,28.523H13.154A13.153,13.153,0,0,1,0,15.369V13.154A13.153,13.153,0,0,1,13.154,0H134.278a13.153,13.153,0,0,1,13.154,13.154v2.215a13.153,13.153,0,0,1-13.154,13.154" transform="translate(372.846 481.101)" fill="#455a64"/>
    <path id="Fill_191" data-name="Fill 191" d="M4.676,149.528l1.466.971a10.443,10.443,0,0,0,14.475-2.936L107.025,17.187a10.444,10.444,0,0,0-2.936-14.476l-1.466-.971A10.446,10.446,0,0,0,88.146,4.675L1.739,135.051a10.445,10.445,0,0,0,2.937,14.476" transform="translate(493.875 357.13)" fill="#455a64"/>
    <path id="Fill_192" data-name="Fill 192" d="M0,0C.248,0,8.915,8.478,10.944,14.194s4.694,19.725,5.923,25.045c1.685,7.292,4.389,14.316,14.361,14.786l37.737.146a6.817,6.817,0,0,0,5.753-3.115L107.755,0H97.429L68.591,42.961H35.9a7.379,7.379,0,0,1-5.884-2.8,5.5,5.5,0,0,1-1-1.995c-.738-2.95-3.32-18.255-6.454-24.893A120.642,120.642,0,0,0,15,0Z" transform="translate(433.496 451.599)" fill="#263238"/>
    <path id="Fill_193" data-name="Fill 193" d="M4.644,2.322A2.322,2.322,0,1,1,2.322,0,2.323,2.323,0,0,1,4.644,2.322" transform="translate(463.26 497.799)" fill="#455a64"/>
    <path id="Fill_194" data-name="Fill 194" d="M4.644,2.322A2.322,2.322,0,1,1,2.322,0,2.323,2.323,0,0,1,4.644,2.322" transform="translate(499.765 497.799)" fill="#455a64"/>
    <path id="Fill_195" data-name="Fill 195" d="M126.282,7.014H3.235A3.235,3.235,0,0,1,0,3.78V3.235A3.234,3.234,0,0,1,3.235,0H126.282a3.234,3.234,0,0,1,3.235,3.235V3.78a3.234,3.234,0,0,1-3.235,3.235" transform="translate(421.717 444.584)" fill="#263238"/>
    <path id="Fill_196" data-name="Fill 196" d="M53.944.307a1.521,1.521,0,0,1-.323.031l-.952.034-3.689.08L35.18.624C29.29.673,22.2.732,14.189.714L8.007.661c-2.093.019-4.383-.429-6.2.663A2.325,2.325,0,0,0,.664,3.876,3.14,3.14,0,0,0,2.687,6.1,15.642,15.642,0,0,0,9.471,7h.024l25-.013,64.559.1,19.563.106,5.319.062,1.384.033a2.436,2.436,0,0,1,.471.033,2.483,2.483,0,0,1-.471.034l-1.384.033-5.319.062-19.563.1-64.559.1-25-.013h.024a16.194,16.194,0,0,1-7.093-.971A3.758,3.758,0,0,1,.065,3.993,7.781,7.781,0,0,1,0,3.064a2.715,2.715,0,0,1,.256-.909A3.223,3.223,0,0,1,1.487.816,6.636,6.636,0,0,1,4.8,0c1.124,0,2.16.073,3.223.085l6.173.081L35.178.222l13.8.014,3.69.025.952.02a1.38,1.38,0,0,1,.323.025" transform="translate(421.579 444.277)" fill="#455a64"/>
    <path id="Fill_197" data-name="Fill 197" d="M14.675,31.662a5.726,5.726,0,0,1-.438-1.338l-.953-3.7A110.938,110.938,0,0,0,9.776,14.567,41.87,41.87,0,0,0,6.841,8.351,34.36,34.36,0,0,0,3.569,3.793C1.476,1.365-.084.1,0,0A5.733,5.733,0,0,1,1.139.835,25.527,25.527,0,0,1,3.921,3.482,30.944,30.944,0,0,1,7.364,8.035a38.851,38.851,0,0,1,3.032,6.3A85.419,85.419,0,0,1,13.74,26.518c.332,1.58.587,2.862.749,3.749a5.784,5.784,0,0,1,.186,1.4" transform="translate(434.081 451.695)" fill="#455a64"/>
    <path id="Fill_198" data-name="Fill 198" d="M0,103.48H8.216V0H0Z" transform="translate(444.963 509.623)" fill="#263238"/>
    <path id="Fill_199" data-name="Fill 199" d="M0,0,85.319,16.8v8.908L0,12.855Z" transform="translate(451.511 596.518)" fill="#263238"/>
    <path id="Fill_200" data-name="Fill 200" d="M15.123,7.562A7.562,7.562,0,1,1,7.562,0a7.562,7.562,0,0,1,7.562,7.562" transform="translate(521.707 621.091)" fill="#263238"/>
    <path id="Fill_201" data-name="Fill 201" d="M69.038,0,0,16.856v8.908L69.038,12.043Z" transform="translate(380.264 596.518)" fill="#263238"/>
    <path id="Fill_202" data-name="Fill 202" d="M0,7.562A7.562,7.562,0,1,0,7.562,0,7.562,7.562,0,0,0,0,7.562" transform="translate(380.264 621.091)" fill="#263238"/>
    <path id="Fill_203" data-name="Fill 203" d="M0,7.562A7.562,7.562,0,1,0,7.562,0,7.562,7.562,0,0,0,0,7.562" transform="translate(441.522 621.091)" fill="#263238"/>
    <path id="Fill_204" data-name="Fill 204" d="M17.131,64.73H0L.172,0H17.3Z" transform="translate(440.565 556.361)" fill="#263238"/>
    <path id="Fill_205" data-name="Fill 205" d="M16.217.636c0,.183-3.631.331-8.108.331S0,.82,0,.636,3.629.306,8.109.306s8.108.148,8.108.331" transform="translate(441.022 555.863)" fill="#455a64"/>
    <path id="Fill_206" data-name="Fill 206" d="M16.217.636c0,.183-3.631.331-8.108.331S0,.82,0,.636,3.629.306,8.109.306s8.108.148,8.108.331" transform="translate(440.484 609.493)" fill="#455a64"/>
    <path id="Fill_207" data-name="Fill 207" d="M0,17.733H405.52V0H0Z" transform="translate(161.31 406.396)" fill="#455a64"/>
    <path id="Fill_208" data-name="Fill 208" d="M85.263,0c.008.005-.037.07-.129.192S84.906.5,84.71.726a8.5,8.5,0,0,1-2.038,1.633,11.422,11.422,0,0,1-3.918,1.314,27.71,27.71,0,0,1-5.464.241,53.255,53.255,0,0,1-6.578-.756,58.511,58.511,0,0,0-7.492-.894c-5.315-.19-11.088,1.2-16.86,3.269C36.574,7.6,31.169,9.953,26,11.385a45.047,45.047,0,0,1-7.462,1.479,31.448,31.448,0,0,1-6.631-.013A22.527,22.527,0,0,1,2.811,9.942,14.332,14.332,0,0,1,0,7.839a.813.813,0,0,1,.2.125l.541.4A18.742,18.742,0,0,0,2.909,9.773,22.991,22.991,0,0,0,11.942,12.5a31.687,31.687,0,0,0,6.551-.047,45.443,45.443,0,0,0,7.38-1.511C31,9.5,36.382,7.139,42.2,5.062,47.991,2.984,53.837,1.585,59.236,1.8a57.785,57.785,0,0,1,7.542.943,54.173,54.173,0,0,0,6.527.812A28.224,28.224,0,0,0,78.712,3.4a11.485,11.485,0,0,0,3.866-1.209A10.261,10.261,0,0,0,85.263,0" transform="translate(161.952 406.656)" fill="#263238"/>
    <path id="Fill_209" data-name="Fill 209" d="M37.094.054A9.893,9.893,0,0,1,35.867,1.1a28.161,28.161,0,0,1-3.7,2.383,32.41,32.41,0,0,1-6.052,2.462,32.859,32.859,0,0,1-7.9,1.236A30.261,30.261,0,0,1,4.075,4.264,8.94,8.94,0,0,1,.665,1.477,4.891,4.891,0,0,1,.107.408,1.321,1.321,0,0,1,0,0,10.787,10.787,0,0,0,.822,1.363,9.235,9.235,0,0,0,4.234,3.948,31.3,31.3,0,0,0,18.2,6.681a33.779,33.779,0,0,0,7.8-1.179A34.39,34.39,0,0,0,32,3.17,34.5,34.5,0,0,0,35.752.943,10.048,10.048,0,0,1,37.094.054" transform="translate(165.762 406.874)" fill="#263238"/>
    <path id="Fill_210" data-name="Fill 210" d="M32.384,7.694a5.037,5.037,0,0,1,.629.227,12.011,12.011,0,0,0,1.873.5,11.047,11.047,0,0,0,7.1-1.11l-.022.225a16.894,16.894,0,0,0-8.8-3.428A17.122,17.122,0,0,0,21.715,7.079a1.835,1.835,0,0,0-.886,1.151,1.242,1.242,0,0,0,.76,1.144,5.233,5.233,0,0,0,1.572.551l1.726.391c2.321.517,4.718,1.03,7.2,1.394a42.77,42.77,0,0,0,7.657.521,28.169,28.169,0,0,0,3.93-.377c.656-.112,1.309-.239,1.957-.411a9.825,9.825,0,0,0,1.894-.612,6.217,6.217,0,0,0,2.456-1.775,2.8,2.8,0,0,0,.472-2.724,4.657,4.657,0,0,0-1.929-2.154,15.281,15.281,0,0,0-2.692-1.315A36.787,36.787,0,0,0,34.567.527a46.635,46.635,0,0,0-19.225,2.98A47.558,47.558,0,0,0,3.767,9.829C2.531,10.785,1.579,11.54.97,12.1c-.3.253-.533.453-.714.608A1.493,1.493,0,0,1,0,12.9a1.524,1.524,0,0,1,.22-.232L.9,12.022c.588-.582,1.523-1.363,2.747-2.349a46.129,46.129,0,0,1,11.566-6.5A46.571,46.571,0,0,1,34.594.068,37.021,37.021,0,0,1,46.011,2.409a15.707,15.707,0,0,1,2.781,1.356,5.126,5.126,0,0,1,2.125,2.4,3.306,3.306,0,0,1-.542,3.2,6.725,6.725,0,0,1-2.652,1.929,10.25,10.25,0,0,1-1.973.639c-.661.176-1.328.3-1.995.418a28.451,28.451,0,0,1-4,.381,43,43,0,0,1-7.742-.538c-2.5-.372-4.906-.894-7.229-1.418l-1.727-.4a5.651,5.651,0,0,1-1.7-.608,2.252,2.252,0,0,1-.713-.622,1.388,1.388,0,0,1-.26-.956,2.235,2.235,0,0,1,1.072-1.459A17.447,17.447,0,0,1,33.2,3.743a17.09,17.09,0,0,1,8.935,3.578l.163.131-.185.1A11.03,11.03,0,0,1,34.857,8.56a8.186,8.186,0,0,1-2.473-.866" transform="translate(265.625 410.473)" fill="#263238"/>
    <path id="Fill_211" data-name="Fill 211" d="M14.082,0a2.627,2.627,0,0,1,.4.894,6.76,6.76,0,0,1,.267,2.661,13.108,13.108,0,0,1-3.949,7.74A19.933,19.933,0,0,1,7.11,14.43a16.375,16.375,0,0,1-3.559,1.726A16.694,16.694,0,0,1,.971,16.8,3.529,3.529,0,0,1,0,16.885c-.019-.092,1.361-.283,3.431-1.062a17.754,17.754,0,0,0,3.427-1.778,20.91,20.91,0,0,0,3.577-3.092A13.421,13.421,0,0,0,14.4,3.519,9.646,9.646,0,0,0,14.082,0" transform="translate(336.11 407.118)" fill="#263238"/>
    <path id="Fill_212" data-name="Fill 212" d="M59.133,11.7a23.173,23.173,0,0,0-1.861-1.811,13.217,13.217,0,0,0-6.343-2.859,14.129,14.129,0,0,0-4.828.139,20.739,20.739,0,0,1-5.66.521c-2.081-.191-3.945-1.449-5.633-2.762a19.182,19.182,0,0,0-5.662-3.358A20.748,20.748,0,0,0,16.571,1.37a29.857,29.857,0,0,0-9.3,4.713,51.053,51.053,0,0,0-5.394,4.6C1.306,11.249.849,11.7.5,12.044A3.377,3.377,0,0,1,0,12.5a3.477,3.477,0,0,1,.424-.527c.289-.336.731-.817,1.312-1.426A45.029,45.029,0,0,1,7.058,5.8,29.584,29.584,0,0,1,16.444.927a21.029,21.029,0,0,1,12.87.168A19.533,19.533,0,0,1,35.1,4.533c1.685,1.32,3.445,2.507,5.391,2.695a20.793,20.793,0,0,0,5.54-.472,14.294,14.294,0,0,1,4.951-.079A13.032,13.032,0,0,1,57.4,9.737,8.635,8.635,0,0,1,59.133,11.7" transform="translate(363.88 411.501)" fill="#263238"/>
    <path id="Fill_213" data-name="Fill 213" d="M64.041,0A4.135,4.135,0,0,1,63.6.606c-.316.376-.732.979-1.386,1.649a37.842,37.842,0,0,1-5.919,5.26,47.508,47.508,0,0,1-10.272,5.693A42.135,42.135,0,0,1,39.4,15.321a34.108,34.108,0,0,1-7.41.953A36.647,36.647,0,0,1,17.93,13.35,46.849,46.849,0,0,1,7.713,7.556,39.972,39.972,0,0,1,1.835,2.25C1.183,1.578.762.981.446.605A4.374,4.374,0,0,1,0,0,4.259,4.259,0,0,1,.524.54c.34.354.783.928,1.454,1.577A43.428,43.428,0,0,0,7.923,7.27,47.822,47.822,0,0,0,18.1,12.924a36.716,36.716,0,0,0,13.879,2.852,34.151,34.151,0,0,0,7.306-.931,42.456,42.456,0,0,0,6.562-2.064A48.617,48.617,0,0,0,56.086,7.227a40.929,40.929,0,0,0,5.984-5.1c.672-.647,1.109-1.226,1.45-1.58A4.217,4.217,0,0,1,64.041,0" transform="translate(423.989 406.565)" fill="#263238"/>
    <path id="Fill_214" data-name="Fill 214" d="M40.5,0a1.535,1.535,0,0,1-.345.279c-.238.167-.583.421-1.05.713a42.724,42.724,0,0,1-4.062,2.3,43.155,43.155,0,0,1-6.417,2.612,28.26,28.26,0,0,1-8.374,1.431A34.385,34.385,0,0,1,5.385,3.579,32.688,32.688,0,0,1,1.359,1.214C.9.911.566.639.334.464S-.01.186,0,.172a14.021,14.021,0,0,1,1.464.88,40.687,40.687,0,0,0,4.075,2.21A35.674,35.674,0,0,0,20.251,6.837a28.714,28.714,0,0,0,8.238-1.372,46.306,46.306,0,0,0,6.4-2.49c1.769-.839,3.166-1.6,4.116-2.148A13.214,13.214,0,0,1,40.5,0" transform="translate(438.242 406.394)" fill="#263238"/>
    <path id="Fill_215" data-name="Fill 215" d="M70.769.5a5.048,5.048,0,0,1-.807,0L67.674.415,66.026.344q-.92-.006-1.968-.009C62.647.325,61.042.3,59.27.381L56.49.467l-3,.2c-2.08.1-4.259.39-6.571.614-4.583.578-9.553,1.4-14.605,2.528a141.826,141.826,0,0,0-13.68,3.906c-1.968.74-3.9,1.391-5.563,2.126L10.62,10.866,8.455,11.885c-1.409.628-2.573,1.27-3.617,1.823l-1.456.768-1.153.687c-.643.376-1.176.687-1.617.943a3.188,3.188,0,0,1-.61.308c-.023-.011.144-.14.48-.374l1.5-1.011q.512-.332,1.1-.722l1.417-.8c1.017-.575,2.162-1.241,3.558-1.892l2.148-1.051,2.443-1.055c1.659-.754,3.592-1.424,5.568-2.182A134.4,134.4,0,0,1,32,3.347C37.1,2.2,42.128,1.393,46.762.833,49.1.619,51.305.346,53.409.26l3.03-.177L59.247.028c1.787-.061,3.407-.009,4.826.027L66.05.106,67.7.222,69.984.4a4.467,4.467,0,0,1,.785.1" transform="translate(478.894 407.715)" fill="#263238"/>
    <path id="Fill_216" data-name="Fill 216" d="M81.579,14.579a18.753,18.753,0,0,0-2.232-2.653A20.636,20.636,0,0,0,71.176,7.36,44.461,44.461,0,0,0,64.8,5.952c-2.326-.37-4.832-.659-7.456-1.113a62.564,62.564,0,0,1-8.1-2.03A52.983,52.983,0,0,0,40.609.724,36,36,0,0,0,23.781,3.047a61.184,61.184,0,0,0-6.845,3.076c-2.1,1.073-4.02,2.135-5.767,3.12C7.68,11.219,4.9,12.9,2.987,14.069q-1.394.852-2.2,1.349l-.577.345a.834.834,0,0,1-.206.1C0,15.86.056,15.81.179,15.721l.55-.387C1.216,15,1.939,14.513,2.882,13.9,4.768,12.682,7.521,10.954,11,8.936c1.738-1.007,3.655-2.088,5.751-3.181a60.075,60.075,0,0,1,6.874-3.139A36.118,36.118,0,0,1,40.671.229a52.73,52.73,0,0,1,8.716,2.112,63.247,63.247,0,0,0,8.036,2.046c2.6.462,5.109.768,7.442,1.157a43.875,43.875,0,0,1,6.418,1.479,20.311,20.311,0,0,1,8.2,4.765,10.442,10.442,0,0,1,2.1,2.792" transform="translate(348.719 408.262)" fill="#263238"/>
    <path id="Fill_217" data-name="Fill 217" d="M20.38,0a3.893,3.893,0,0,1-.06,1.133,13.229,13.229,0,0,1-.792,2.993A17.194,17.194,0,0,1,13.3,12.1a41.747,41.747,0,0,1-9.238,4.252c-1.235.41-2.246.705-2.95.887A4.773,4.773,0,0,1,0,17.471a5.058,5.058,0,0,1,1.05-.416l2.888-1.034a47.767,47.767,0,0,0,9.083-4.338A17.712,17.712,0,0,0,19.2,3.994,23.885,23.885,0,0,0,20.38,0" transform="translate(318.58 406.659)" fill="#263238"/>
    <path id="Fill_218" data-name="Fill 218" d="M0,17.474a7.056,7.056,0,0,1,.987-.948c.653-.593,1.638-1.4,2.887-2.363A83.606,83.606,0,0,1,14.217,7.5c4.215-2.317,8.152-4.169,11.009-5.482,1.43-.656,2.593-1.172,3.4-1.52A7.252,7.252,0,0,1,29.9,0a7.117,7.117,0,0,1-1.194.67L25.377,2.337c-2.817,1.394-6.721,3.292-10.918,5.6A101.923,101.923,0,0,0,4.086,14.447c-1.27.919-2.286,1.683-2.974,2.228a7.2,7.2,0,0,1-1.111.8" transform="translate(244.819 406.655)" fill="#263238"/>
    <path id="Fill_219" data-name="Fill 219" d="M63.06.2c-.005.057-.937-.12-2.616.008A18.475,18.475,0,0,0,53.68,2.263a61.8,61.8,0,0,0-8.789,5.9A44.775,44.775,0,0,1,39.6,11.589a29.572,29.572,0,0,1-6.329,2.437,58.853,58.853,0,0,1-12.955,1.557c-4.009.117-7.611.037-10.628.162a52.231,52.231,0,0,0-7.108.7c-.83.153-1.474.279-1.907.382A3.491,3.491,0,0,1,0,16.942a3.577,3.577,0,0,1,.645-.218c.426-.135,1.067-.293,1.894-.476a46.3,46.3,0,0,1,7.13-.858c3.03-.169,6.639-.126,10.63-.269a59.948,59.948,0,0,0,12.843-1.58,29.413,29.413,0,0,0,6.226-2.386A45.45,45.45,0,0,0,44.62,7.788a59.265,59.265,0,0,1,8.9-5.842A17.878,17.878,0,0,1,60.432.012,12.224,12.224,0,0,1,62.39.076,3.519,3.519,0,0,1,63.06.2" transform="translate(200.864 407.187)" fill="#263238"/>
    <path id="Fill_220" data-name="Fill 220" d="M9.043,213.9H3.282L0,0H12.325Z" transform="translate(189.574 422.762)" fill="#455a64"/>
    <path id="Fill_221" data-name="Fill 221" d="M5.762,212.841H0L2.881,0H15.206Z" transform="translate(564.379 423.374)" fill="#263238"/>
    <path id="Fill_222" data-name="Fill 222" d="M0,17.735H51.418V0H0Z" transform="translate(547.503 406.394)" fill="#263238"/>
    <path id="Fill_223" data-name="Fill 223" d="M0,0,4.659,30.614H31.724L38.005.443Z" transform="translate(228.36 375.989)" fill="#ff725e"/>
    <path id="Fill_224" data-name="Fill 224" d="M30.978.636C30.978.724,24.043.8,15.49.8S0,.724,0,.636,6.934.477,15.49.477,30.978.549,30.978.636" transform="translate(231.602 394.973)" fill="#fafafa"/>
    <path id="Fill_225" data-name="Fill 225" d="M31.188.636C31.188.724,24.206.8,15.6.8S0,.724,0,.636,6.981.477,15.6.477,31.188.549,31.188.636" transform="translate(231.497 393.468)" fill="#fafafa"/>
    <path id="Fill_226" data-name="Fill 226" d="M31.187.636C31.187.724,24.2.8,15.594.8S0,.724,0,.636,6.98.477,15.594.477,31.187.549,31.187.636" transform="translate(231.445 391.767)" fill="#fafafa"/>
    <path id="Fill_227" data-name="Fill 227" d="M1.365,7.764a24.513,24.513,0,0,1-.83-3.855A24.569,24.569,0,0,1,.018,0a24.906,24.906,0,0,1,.83,3.855,24.569,24.569,0,0,1,.517,3.909" transform="translate(234.762 397.093)" fill="#fafafa"/>
    <path id="Fill_228" data-name="Fill 228" d="M.869,7.532a29.707,29.707,0,0,1-.336-3.76A29.76,29.76,0,0,1,.357,0,18.229,18.229,0,0,1,.85,3.75,18.14,18.14,0,0,1,.869,7.532" transform="translate(237.099 396.999)" fill="#fafafa"/>
    <path id="Fill_229" data-name="Fill 229" d="M1.1,7.77A18.921,18.921,0,0,1,.4,3.914,18.914,18.914,0,0,1,.192,0,33.867,33.867,0,0,1,.714,3.878,33.687,33.687,0,0,1,1.1,7.77" transform="translate(240.222 396.76)" fill="#fafafa"/>
    <path id="Fill_230" data-name="Fill 230" d="M.816,7.853A19.226,19.226,0,0,1,.44,3.935,19.3,19.3,0,0,1,.56,0a33.656,33.656,0,0,1,.2,3.925A33.494,33.494,0,0,1,.816,7.853" transform="translate(242.864 396.839)" fill="#fafafa"/>
    <path id="Fill_231" data-name="Fill 231" d="M.763,7.448A22.01,22.01,0,0,1,.478,3.73,21.9,21.9,0,0,1,.511,0,21.992,21.992,0,0,1,.8,3.718a22.055,22.055,0,0,1-.033,3.73" transform="translate(247.087 397.084)" fill="#fafafa"/>
    <path id="Fill_232" data-name="Fill 232" d="M.6,7.691A23.358,23.358,0,0,1,.478,3.844,23.325,23.325,0,0,1,.667,0,23.412,23.412,0,0,1,.8,3.847,23.415,23.415,0,0,1,.6,7.691" transform="translate(250.291 397.002)" fill="#fafafa"/>
    <path id="Fill_233" data-name="Fill 233" d="M.248,8.011a25.458,25.458,0,0,1,.23-4.02A25.606,25.606,0,0,1,1.026,0,25.848,25.848,0,0,1,.8,4.021a25.756,25.756,0,0,1-.547,3.99" transform="translate(253.504 396.273)" fill="#fafafa"/>
    <path id="Fill_234" data-name="Fill 234" d="M.024,6.719A13.645,13.645,0,0,1,.48,3.3,13.658,13.658,0,0,1,1.485,0a30.146,30.146,0,0,1-.7,3.367A30.181,30.181,0,0,1,.024,6.719" transform="translate(257.41 397.164)" fill="#fafafa"/>
    <path id="Fill_235" data-name="Fill 235" d="M0,0V5.728A2.256,2.256,0,0,0,2.256,7.984H41.449A2.256,2.256,0,0,0,43.7,5.728V0Z" transform="translate(225.254 369.927)" fill="#ff725e"/>
    <path id="Fill_236" data-name="Fill 236" d="M0,0,.325,1.824,36.489,4.4,37.406,0Z" transform="translate(228.652 377.911)"/>
    <path id="Fill_237" data-name="Fill 237" d="M9.084,36.97C3.325,33.631.243,25.863.014,19.507S2.431,6.518,7.644,2.873A17.465,17.465,0,0,1,26.6,2.716a19.731,19.731,0,0,1,8.693,17.128,22.712,22.712,0,0,1-9.3,17.059" transform="translate(230.386 332.94)" fill="#455a64"/>
    <path id="Fill_238" data-name="Fill 238" d="M1.649,36.973a7.554,7.554,0,0,1-.107-1.455c-.029-1.039-.067-2.37-.112-3.964-.085-3.348-.218-7.97-.44-13.074S.489,8.759.28,5.418C.185,3.825.106,2.5.044,1.459A7.446,7.446,0,0,1,.023,0a7.564,7.564,0,0,1,.23,1.44c.115.931.255,2.28.407,3.949.306,3.338.642,7.957.867,13.069s.3,9.74.284,13.091c-.006,1.677-.027,3.032-.06,3.969a7.54,7.54,0,0,1-.1,1.455" transform="translate(247.012 333.551)" fill="#263238"/>
    <path id="Fill_239" data-name="Fill 239" d="M4.058.8C4.046.952,3.128,1,2.008.9S-.013.618,0,.469.931.276,2.051.367,4.071.654,4.058.8" transform="translate(228.045 350.204)" fill="#263238"/>
    <path id="Fill_240" data-name="Fill 240" d="M3.324,1.513c-.061.136-.853-.083-1.769-.49S-.057.177,0,.04s.853.083,1.769.49,1.61.847,1.551.983" transform="translate(229.095 343.79)" fill="#263238"/>
    <path id="Fill_241" data-name="Fill 241" d="M3.306,2.737c-.078.123-.967-.3-1.894-1.064S-.094.11.013.012s.845.5,1.744,1.245,1.631,1.352,1.549,1.48" transform="translate(232.047 338.332)" fill="#263238"/>
    <path id="Fill_242" data-name="Fill 242" d="M1.455,3.2C1.319,3.261.892,2.594.5,1.712S-.094.064.042,0,.6.611,1,1.493s.6,1.649.46,1.708" transform="translate(236.85 333.874)" fill="#263238"/>
    <path id="Fill_243" data-name="Fill 243" d="M1.2,3.486c-.132.062-.593-.648-.9-1.632S-.028.025.116,0s.406.747.7,1.693.519,1.73.382,1.792" transform="translate(241.735 330.755)" fill="#263238"/>
    <path id="Fill_244" data-name="Fill 244" d="M1.083,0c.14.05.055.656-.192,1.354S.33,2.581.19,2.531.136,1.876.383,1.178.943-.046,1.083,0" transform="translate(249.58 331.043)" fill="#263238"/>
    <path id="Fill_245" data-name="Fill 245" d="M2.026.021c.1.109-.266.615-.821,1.127S.118,1.989.017,1.88.283,1.266.838.752,1.924-.088,2.026.021" transform="translate(254.368 333.484)" fill="#263238"/>
    <path id="Fill_246" data-name="Fill 246" d="M2.315.032c.084.123-.364.573-1,1s-1.22.681-1.3.558.365-.573,1-1,1.22-.681,1.3-.558" transform="translate(259.125 336.732)" fill="#263238"/>
    <path id="Fill_247" data-name="Fill 247" d="M3.372.042c.059.137-.648.57-1.579.966S.062,1.615,0,1.479.651.909,1.582.512,3.313-.1,3.372.042" transform="translate(261.651 341.58)" fill="#263238"/>
    <path id="Fill_248" data-name="Fill 248" d="M3.277.433c.018.148-.7.359-1.605.471S.018.987,0,.84.7.481,1.606.369,3.259.286,3.277.433" transform="translate(263.156 346.487)" fill="#263238"/>
    <path id="Fill_249" data-name="Fill 249" d="M3.21,1.437c-.06.136-.826-.065-1.711-.449S-.055.179,0,.043.83.108,1.714.492s1.554.808,1.5.945" transform="translate(263.958 352.007)" fill="#263238"/>
    <path id="Fill_250" data-name="Fill 250" d="M3.549,2.325c-.047.136-1.016-.094-2.028-.759S-.093.111.012.013s.845.479,1.805,1.1S3.6,2.181,3.549,2.325" transform="translate(262.972 356.715)" fill="#263238"/>
    <path id="Fill_251" data-name="Fill 251" d="M2.637,2.824c-.089.116-.859-.337-1.6-1.137S-.1.089.022.008s.7.55,1.41,1.312,1.3,1.384,1.2,1.5" transform="translate(260.971 361.312)" fill="#263238"/>
    <path id="Fill_252" data-name="Fill 252" d="M3.869.028c.069.132-.741.69-1.808,1.245S.073,2.173,0,2.041.745,1.351,1.812.795,3.8-.1,3.869.028" transform="translate(232.067 364.705)" fill="#263238"/>
    <path id="Fill_253" data-name="Fill 253" d="M3.127.042C3.188.178,2.539.6,1.677,1s-1.61.6-1.673.462S.592.895,1.454.5s1.612-.6,1.673-.462" transform="translate(230.282 360.083)" fill="#263238"/>
    <path id="Fill_254" data-name="Fill 254" d="M3.645.378C3.665.526,2.867.761,1.86.9S.022,1.043,0,.895.778.512,1.785.369,3.625.23,3.645.378" transform="translate(227.906 355.665)" fill="#263238"/>
    <path id="Fill_255" data-name="Fill 255" d="M3.643.342c.045.139-.736.5-1.775.619S-.011.9,0,.753.824.538,1.808.423,3.6.2,3.643.342" transform="translate(234.002 353.452)" fill="#263238"/>
    <path id="Fill_256" data-name="Fill 256" d="M2.9.4c.043.139-.577.453-1.413.535S-.015.832,0,.687.661.478,1.437.4,2.861.257,2.9.4" transform="translate(239.804 348.354)" fill="#263238"/>
    <path id="Fill_257" data-name="Fill 257" d="M2.825,1.124c-.048.141-.721.037-1.5-.233S-.047.289,0,.148.722.112,1.5.381s1.371.6,1.323.743" transform="translate(240.85 343.597)" fill="#263238"/>
    <path id="Fill_258" data-name="Fill 258" d="M1.22,1.937c-.1.1-.565-.2-.894-.773S-.036.041.105,0,.5.387.794.894s.536.938.426,1.043" transform="translate(244.311 338.703)" fill="#263238"/>
    <path id="Fill_259" data-name="Fill 259" d="M2.5.3c.036.145-.546.411-1.3.6a4.973,4.973,0,0,1-1.091.16L0,.746C.195.71.321.718.346.775S.292.931.134,1.05L.028.735A4.9,4.9,0,0,1,1.069.375C1.822.191,2.461.159,2.5.3" transform="translate(240.797 357.043)" fill="#263238"/>
    <path id="Fill_260" data-name="Fill 260" d="M3.511.045c.055.139-.687.56-1.656.941S.056,1.562,0,1.423.689.863,1.658.482s1.8-.577,1.853-.438" transform="translate(240.826 364.457)" fill="#263238"/>
    <path id="Fill_261" data-name="Fill 261" d="M2.386.231c.048.141-.447.437-1.1.661S.051,1.183,0,1.042.45.605,1.108.381,2.338.09,2.386.231" transform="translate(236.231 361.092)" fill="#263238"/>
    <path id="Fill_262" data-name="Fill 262" d="M3.548,1.294c-.034.143-.895.057-1.889-.3S-.06.171,0,.039.872.148,1.838.489s1.745.658,1.71.8" transform="translate(235.507 345.467)" fill="#263238"/>
    <path id="Fill_263" data-name="Fill 263" d="M2.471.031c.081.125-.4.588-1.082,1.037s-1.3.71-1.38.587.4-.589,1.082-1.037,1.3-.712,1.38-.587" transform="translate(250.423 345.147)" fill="#263238"/>
    <path id="Fill_264" data-name="Fill 264" d="M2.387.389C2.417.535,1.908.764,1.249.9S.032,1.03,0,.884.481.509,1.139.372,2.356.243,2.387.389" transform="translate(251.26 351.973)" fill="#263238"/>
    <path id="Fill_265" data-name="Fill 265" d="M3.053,1.453c-.062.135-.8-.071-1.638-.461S-.059.176,0,.041.8.113,1.641.5s1.474.816,1.412.951" transform="translate(251.468 358.987)" fill="#263238"/>
    <path id="Fill_266" data-name="Fill 266" d="M1.736,2.1c-.115.094-.592-.3-1.064-.869S-.09.11.025.014s.592.3,1.064.871S1.851,2,1.736,2.1" transform="translate(250.935 366.209)" fill="#263238"/>
    <path id="Fill_267" data-name="Fill 267" d="M1.847.148c.092.115-.223.512-.763.782S.041,1.217,0,1.074.357.693.843.448s.913-.419,1-.3" transform="translate(250.445 339.739)" fill="#263238"/>
    <path id="Fill_268" data-name="Fill 268" d="M2.983.351c.05.137-.578.482-1.436.6S-.01.911,0,.766.672.53,1.472.417,2.933.207,2.983.351" transform="translate(256.091 346.784)" fill="#263238"/>
    <path id="Fill_269" data-name="Fill 269" d="M3.116.112c.066.13-.558.575-1.442.857S.022,1.253,0,1.107.668.726,1.508.454,3.048-.024,3.116.112" transform="translate(254.607 340.517)" fill="#263238"/>
    <path id="Fill_270" data-name="Fill 270" d="M4.555,1A4.113,4.113,0,0,1,2.2,1,4.1,4.1,0,0,1,0,.173a7.281,7.281,0,0,1,2.3.3A7.231,7.231,0,0,1,4.555,1" transform="translate(255.999 356.21)" fill="#263238"/>
    <path id="Fill_271" data-name="Fill 271" d="M2.8,2.806c-.089.116-.875-.346-1.657-1.134S-.1.1.018.009s.751.522,1.51,1.282S2.9,2.686,2.8,2.806" transform="translate(255.233 363.852)" fill="#263238"/>
    <path id="Fill_272" data-name="Fill 272" d="M11.3,0a24.454,24.454,0,0,0-4.73,3.739A23.081,23.081,0,0,0,.673,16.767a29.222,29.222,0,0,0,.355,7.98,61.146,61.146,0,0,0,1.494,6.4c.518,1.8.994,3.249,1.314,4.249a9.987,9.987,0,0,1,.453,1.572,9.154,9.154,0,0,1-.652-1.5c-.381-.981-.913-2.41-1.48-4.209A54.231,54.231,0,0,1,.538,24.834a28.624,28.624,0,0,1-.4-8.129A22.709,22.709,0,0,1,6.291,3.477,16.944,16.944,0,0,1,9.819.718,10.71,10.71,0,0,1,10.9.157,1.274,1.274,0,0,1,11.3,0" transform="translate(235.657 332.937)" fill="#263238"/>
    <path id="Fill_273" data-name="Fill 273" d="M7.768,37.1A59.019,59.019,0,0,0,10.193,31.3a32.783,32.783,0,0,0,1.45-14.9,27.985,27.985,0,0,0-2.3-7.946A18.741,18.741,0,0,0,5.427,2.995,14.282,14.282,0,0,0,1.588.567C.589.152-.009.054,0,.008A1.338,1.338,0,0,1,.442.042a8.04,8.04,0,0,1,1.222.33A13.275,13.275,0,0,1,5.679,2.707a18.5,18.5,0,0,1,4.116,5.53,27.6,27.6,0,0,1,2.383,8.087,31.691,31.691,0,0,1-1.623,15.1c-.306.932-.7,1.73-.99,2.449-.348.7-.634,1.3-.9,1.78a10.154,10.154,0,0,1-.9,1.441" transform="translate(246.544 333.16)" fill="#263238"/>
    <path id="Fill_274" data-name="Fill 274" d="M54.387,54.488c-9.488,3.314-21.865.353-29.982-5.574S10.449,34.495,5.271,25.88C3.063,22.205.906,18.372.207,14.141S.538,5.148,3.819,2.387C8.92-1.9,16.733.273,22.525,3.571A64.51,64.51,0,0,1,54.387,54.488" transform="translate(546.88 497.482)" fill="#ff725e"/>
    <path id="Fill_275" data-name="Fill 275" d="M60.561,15.05c-5.7,7.518-15.489,10.865-24.911,11.3S16.916,24.182,8.11,20.8C4.913,19.576,1.418,17.9.322,14.654A7.819,7.819,0,0,1,1.991,7.4,16.243,16.243,0,0,1,8.349,3.066C17.018-.626,26.95-.8,36.071,1.565S53.16,9.218,60.561,15.05" transform="translate(530.519 559.63)" fill="#ff725e"/>
    <path id="Fill_276" data-name="Fill 276" d="M22.807,56.669c-7.854.157-13.8-6.723-17.356-13.728A50.882,50.882,0,0,1,.774,11.214C1.492,7.2,3.01,2.874,6.6.943c3.65-1.963,8.4-.67,11.459,2.123s4.736,6.78,5.959,10.74c4.215,13.641,3.307,29.32-1.213,42.863" transform="translate(578.599 454.654)" fill="#ff725e"/>
    <path id="Fill_277" data-name="Fill 277" d="M12.282,84.958C-1.11,62.166-3.341,34.281,4.568,9.057,5.851,4.965,8.272.283,12.552.012,17.291-.288,20.262,5,21.571,9.56c4.592,16.017,3.615,33.03,2.6,49.661-.625,10.245-4.144,19-11.888,25.737" transform="translate(614.924 469.808)" fill="#ff725e"/>
    <path id="Fill_278" data-name="Fill 278" d="M0,35.673A54.768,54.768,0,0,1,32.5,1.214c3.555-1.339,8.077-2.1,10.73.619,2.6,2.668,1.8,7.129.13,10.461-2.7,5.383-7.073,9.708-11.434,13.859-3.965,3.774-8.087,7.564-13.1,9.758S4.587,38.663,0,35.673" transform="translate(641.132 528.466)" fill="#ff725e"/>
    <path id="Fill_279" data-name="Fill 279" d="M0,0A1.162,1.162,0,0,0,.235.21L.955.769q1.023.766,2.807,2.1L5.8,4.371c.732.565,1.5,1.221,2.335,1.9,1.657,1.385,3.617,2.876,5.588,4.751q1.508,1.373,3.157,2.869c1.092,1,2.144,2.136,3.279,3.259,2.305,2.216,4.537,4.8,6.938,7.472A161.368,161.368,0,0,1,40.905,43.45,161.331,161.331,0,0,1,51.573,64.222c1.316,3.343,2.631,6.5,3.583,9.549.5,1.519,1.04,2.966,1.449,4.392s.787,2.8,1.155,4.107c.8,2.6,1.253,5.021,1.752,7.122.233,1.054.477,2.03.656,2.938.159.906.3,1.739.434,2.493.264,1.459.472,2.611.622,3.449.073.363.131.658.178.9a1.2,1.2,0,0,0,.081.3,1.084,1.084,0,0,0-.018-.311c-.031-.241-.069-.538-.116-.905-.122-.843-.292-2-.505-3.471-.116-.759-.243-1.6-.381-2.508-.162-.913-.39-1.9-.607-2.956-.466-2.113-.895-4.547-1.665-7.164q-.535-1.976-1.12-4.131c-.4-1.435-.931-2.891-1.418-4.417-.934-3.072-2.235-6.244-3.543-9.606A157.365,157.365,0,0,0,41.443,43.117,157.364,157.364,0,0,0,27.536,24.244c-2.423-2.672-4.678-5.255-7.008-7.464-1.148-1.119-2.211-2.246-3.316-3.244l-3.2-2.849c-2-1.859-3.982-3.33-5.664-4.692C7.5,5.327,6.726,4.684,5.981,4.132L3.907,2.669l-2.88-2L.27.156A1.108,1.108,0,0,0,0,0" transform="translate(558.106 505.585)" fill="#263238"/>
    <path id="Fill_280" data-name="Fill 280" d="M0,2.495a5.065,5.065,0,0,0,.919-.153c.6-.108,1.468-.34,2.608-.53a73.559,73.559,0,0,1,9.7-1.185,72.092,72.092,0,0,1,31.488,5.3A72.069,72.069,0,0,1,70.665,24.53a73.37,73.37,0,0,1,5.992,7.712c.67.943,1.116,1.722,1.463,2.223a5.014,5.014,0,0,0,.54.76,5.305,5.305,0,0,0-.43-.825c-.312-.523-.727-1.325-1.367-2.291A65.154,65.154,0,0,0,71,24.236a70.613,70.613,0,0,0-26.049-18.9A70.62,70.62,0,0,0,13.195.182a65.257,65.257,0,0,0-9.717,1.39c-1.137.228-2,.5-2.589.645A5.1,5.1,0,0,0,0,2.495" transform="translate(540.372 566.27)" fill="#263238"/>
    <path id="Fill_281" data-name="Fill 281" d="M0,0A1.567,1.567,0,0,0,.055.354C.11.619.18.956.268,1.377c.211.941.507,2.254.881,3.923C1.92,8.707,3.1,13.621,4.575,19.686c2.95,12.133,7.237,28.84,11.7,47.353C18.5,76.3,20.507,85.149,22.238,93.216c1.7,8.075,3.148,15.364,4.226,21.51.578,3.067,1.013,5.854,1.424,8.3s.746,4.553,1,6.28c.264,1.691.47,3.02.619,3.972.073.424.13.764.176,1.031a1.57,1.57,0,0,0,.081.349,1.461,1.461,0,0,0-.017-.358c-.031-.269-.067-.611-.115-1.039-.121-.957-.288-2.293-.5-3.99-.214-1.733-.5-3.85-.892-6.3s-.783-5.247-1.333-8.32c-1.023-6.161-2.429-13.466-4.1-21.553-1.7-8.08-3.7-16.938-5.916-26.206C12.425,48.369,8.068,31.681,5.008,19.577c-1.52-6.019-2.755-10.9-3.62-14.334-.424-1.657-.757-2.961-1-3.9L.117.339A1.5,1.5,0,0,0,0,0" transform="translate(589.826 464.695)" fill="#263238"/>
    <path id="Fill_282" data-name="Fill 282" d="M0,110.553a1.006,1.006,0,0,0,.085-.276c.051-.221.112-.491.187-.821q.243-1.167.659-3.174c.566-2.756,1.319-6.76,2.177-11.718,1.717-9.915,3.754-23.687,5.005-39,.606-7.661.945-14.976,1.092-21.631.111-6.656.052-12.654-.155-17.684-.061-2.517-.228-4.788-.337-6.784S8.476,5.75,8.346,4.349q-.189-2.039-.3-3.227C8.01.785,7.98.51,7.956.284A1.073,1.073,0,0,0,7.9,0a.943.943,0,0,0-.011.289c.009.228.019.5.031.843q.067,1.19.179,3.235c.092,1.4.2,3.119.265,5.116s.211,4.266.244,6.779c.15,5.026.162,11.013.019,17.658-.179,6.644-.535,13.944-1.141,21.593C6.24,70.8,4.275,84.564,2.673,94.491c-.8,4.965-1.486,8.977-1.978,11.747q-.344,2.018-.542,3.194c-.051.335-.092.608-.126.834a1.045,1.045,0,0,0-.022.288" transform="translate(620.576 486.964)" fill="#263238"/>
    <path id="Fill_283" data-name="Fill 283" d="M0,62.587A4.505,4.505,0,0,0,.352,61.8c.224-.583.517-1.344.882-2.293l.629-1.657.859-1.926q.462-1.041.983-2.215c.346-.784.8-1.575,1.22-2.426s.892-1.735,1.367-2.657q.785-1.35,1.628-2.8c1.074-1.964,2.466-3.918,3.808-6.045A142.988,142.988,0,0,1,21.815,26.89,158.405,158.405,0,0,1,33.389,15.3c1.925-1.624,3.688-3.247,5.469-4.608l2.535-2.02L43.8,6.9C45.317,5.748,46.746,4.786,48,3.943c1.245-.862,2.332-1.581,3.247-2.13L53.326.5a4.42,4.42,0,0,0,.7-.5,4.273,4.273,0,0,0-.766.387C52.718.7,52.008,1.1,51.123,1.6c-.936.518-2.046,1.208-3.314,2.046-1.281.816-2.732,1.757-4.272,2.89Q42.37,7.377,41.1,8.288l-2.568,2c-1.8,1.349-3.583,2.964-5.527,4.583a149.653,149.653,0,0,0-11.661,11.6,136.055,136.055,0,0,0-10.1,12.983C9.91,41.6,8.528,43.575,7.468,45.562L5.863,48.395q-.7,1.4-1.338,2.689c-.414.863-.85,1.664-1.184,2.458s-.648,1.54-.943,2.244-.563,1.349-.815,1.954q-.315.915-.579,1.683c-.32.967-.577,1.743-.773,2.337A4.426,4.426,0,0,0,0,62.587" transform="translate(619.586 537.825)" fill="#263238"/>
    <path id="Fill_284" data-name="Fill 284" d="M0,.206c0,.1,1.623.1,4.23.246A78.533,78.533,0,0,1,14.339,1.675a78.739,78.739,0,0,1,9.854,2.568c2.479.821,3.987,1.414,4.025,1.323a3.98,3.98,0,0,0-1.006-.546c-.662-.318-1.642-.731-2.871-1.2A60.211,60.211,0,0,0,4.247,0C2.932-.011,1.869.012,1.136.067A3.969,3.969,0,0,0,0,.206" transform="translate(563.073 531.815)" fill="#263238"/>
    <path id="Fill_285" data-name="Fill 285" d="M.009,14.434c.191.1,1.7-4.266,5.512-8.314,3.757-4.1,8-5.93,7.885-6.113a9.4,9.4,0,0,0-2.722,1.2A24.037,24.037,0,0,0,1.009,11.631a9.383,9.383,0,0,0-1,2.8" transform="translate(552.96 566.929)" fill="#263238"/>
    <path id="Fill_286" data-name="Fill 286" d="M0,0C-.124.141,2.343,2.585,5.034,5.9s4.6,6.21,4.761,6.112c.14-.08-1.535-3.167-4.272-6.51S.11-.117,0,0" transform="translate(587.415 483.193)" fill="#263238"/>
    <path id="Fill_287" data-name="Fill 287" d="M1.87,0C1.7-.029,1.152,2.337.65,5.286s-.77,5.362-.6,5.391S.77,8.341,1.272,5.391,2.042.03,1.87,0" transform="translate(593.641 469.224)" fill="#263238"/>
    <path id="Fill_288" data-name="Fill 288" d="M.009,0c-.154.08,1.6,3.773,3.92,8.249s4.327,8.039,4.481,7.959-1.6-3.773-3.92-8.249S.165-.079.009,0" transform="translate(620.553 513.07)" fill="#263238"/>
    <path id="Fill_289" data-name="Fill 289" d="M6.093,0C5.937-.076,4.45,2.6,2.771,5.968S-.143,12.14.013,12.217,1.657,9.624,3.336,6.25,6.25.079,6.093,0" transform="translate(629.381 498.184)" fill="#263238"/>
    <path id="Fill_290" data-name="Fill 290" d="M0,1.268C.043,1.449,2.7.932,6.015.7S12.034.6,12.051.414c.02-.162-2.7-.586-6.08-.339C2.595.307-.043,1.112,0,1.268" transform="translate(657.387 547.827)" fill="#263238"/>
    <path id="Fill_291" data-name="Fill 291" d="M46.78,0,39.325,39.207a5.5,5.5,0,0,1-5.4,4.469H11.9a5.5,5.5,0,0,1-5.422-4.6L0,0Z" transform="translate(595.642 594.105)" fill="#263238"/>
    <path id="Fill_292" data-name="Fill 292" d="M44.357,12.743H2.238L0,0H46.78Z" transform="translate(595.642 594.104)" fill="#455a64"/>
    <path id="Fill_293" data-name="Fill 293" d="M42.12,0l-.883,4.646H.645L0,0Z" transform="translate(597.88 606.847)" fill="#fafafa"/>
    <g id="Group_117" data-name="Group 117" transform="translate(245.504 0)">
      <path id="Fill_294" data-name="Fill 294" d="M102.011,51.005A51.006,51.006,0,1,1,51.006,0a51,51,0,0,1,51.005,51.005" transform="translate(0 0)" fill="#ff725e"/>
      <path id="Fill_295" data-name="Fill 295" d="M.105,45.006a48.16,48.16,0,1,1,44.9,51.211A48.16,48.16,0,0,1,.105,45.006" transform="translate(2.653 2.584)" fill="#fafafa"/>
      <path id="Fill_296" data-name="Fill 296" d="M.155,45.256s.019.266.022.783c0,.54,0,1.3,0,2.29q0,.758-.01,1.687c.025.619.113,1.293.174,2.027L.558,54.4a26.41,26.41,0,0,0,.457,2.661A45.94,45.94,0,0,0,5.5,70.158a47.854,47.854,0,0,0,11.28,14.366L18.749,86.2c.7.523,1.431,1.009,2.158,1.525.743.49,1.44,1.072,2.243,1.5l2.4,1.353,1.222.681,1.295.569L30.7,92.984c.894.363,1.837.62,2.766.938a24.387,24.387,0,0,0,2.849.844,44.377,44.377,0,0,0,6,1.095c1.027.1,2.058.272,3.106.325l3.171.043c.532,0,1.068.037,1.6,0l1.609-.141c1.074-.106,2.164-.159,3.247-.311a50.758,50.758,0,0,0,6.49-1.451A49.854,49.854,0,0,0,67.938,92c1.044-.481,2.053-1.054,3.09-1.581.509-.28,1.049-.513,1.537-.835l1.475-.961a54,54,0,0,0,5.717-4.247,54.089,54.089,0,0,0,5.04-5.226l1.194-1.4,1.064-1.507,1.064-1.517a11.754,11.754,0,0,0,1-1.57q.918-1.623,1.842-3.259.76-1.72,1.528-3.451a51.112,51.112,0,0,0,3.451-14.9,51.109,51.109,0,0,0-1.47-15.225q-.533-1.818-1.063-3.62-.7-1.745-1.4-3.474a11.785,11.785,0,0,0-.782-1.687L90.365,25.9l-.858-1.635-1-1.54a54.137,54.137,0,0,0-4.314-5.842,53.927,53.927,0,0,0-5.114-4.961L77.74,10.779c-.442-.384-.946-.685-1.414-1.03-.959-.658-1.884-1.358-2.857-1.972a49.95,49.95,0,0,0-6.048-3.147,50.891,50.891,0,0,0-6.245-2.288C60.122,2.051,59.049,1.857,58,1.61L56.42,1.261c-.526-.106-1.062-.137-1.589-.209L51.681.68C50.636.6,49.591.628,48.558.6a44.507,44.507,0,0,0-6.086.3,24.1,24.1,0,0,0-2.936.465c-.962.195-1.932.326-2.866.568l-2.753.8-1.358.4-1.3.514L28.7,4.671c-.853.321-1.619.807-2.42,1.2-.788.416-1.582.8-2.338,1.23L21.771,8.5A47.845,47.845,0,0,0,8.71,21.269,45.921,45.921,0,0,0,2.551,33.662a25.922,25.922,0,0,0-.8,2.578q-.281,1.235-.526,2.313c-.155.718-.331,1.376-.437,1.986C.71,41.153.64,41.712.577,42.212c-.129.981-.227,1.735-.3,2.271-.071.512-.125.773-.125.773s.008-.264.056-.778c.056-.538.132-1.3.233-2.282q.082-.756.181-1.683c.094-.615.261-1.277.407-2s.321-1.5.5-2.331a25.914,25.914,0,0,1,.775-2.6A45.722,45.722,0,0,1,8.4,21.059,48.022,48.022,0,0,1,21.511,8.11L23.7,6.683c.764-.435,1.563-.829,2.358-1.253.807-.395,1.581-.887,2.44-1.216l2.583-1.048,1.315-.526,1.37-.4,2.783-.821c.943-.248,1.922-.384,2.895-.584A24.676,24.676,0,0,1,42.406.352,44.915,44.915,0,0,1,48.563.029c1.045.031,2.1,0,3.16.079l3.189.367c.533.071,1.076.1,1.609.207l1.6.35c1.065.247,2.153.443,3.221.736a51.123,51.123,0,0,1,6.329,2.3A50.326,50.326,0,0,1,73.8,7.249c.985.62,1.925,1.326,2.9,1.992.475.349.985.654,1.433,1.041l1.356,1.158a54.259,54.259,0,0,1,5.187,5.019,54.657,54.657,0,0,1,4.379,5.916l1.016,1.562.872,1.655.868,1.666a12.12,12.12,0,0,1,.794,1.71q.708,1.753,1.421,3.521.538,1.827,1.079,3.67A51.712,51.712,0,0,1,96.6,51.6a51.661,51.661,0,0,1-3.5,15.1q-.777,1.755-1.551,3.5l-1.867,3.3a12.085,12.085,0,0,1-1.012,1.59l-1.078,1.538-1.081,1.526-1.211,1.416a54.662,54.662,0,0,1-5.115,5.291,54.28,54.28,0,0,1-5.8,4.3l-1.5.971c-.5.326-1.041.561-1.558.844-1.051.533-2.074,1.111-3.133,1.6A50.192,50.192,0,0,1,61.7,94.914a51.161,51.161,0,0,1-6.575,1.456c-1.1.15-2.2.2-3.288.308l-1.629.139c-.541.034-1.083-.006-1.622-.005l-3.209-.052c-1.059-.056-2.1-.229-3.142-.336A45.14,45.14,0,0,1,36.175,95.3a24.607,24.607,0,0,1-2.878-.863c-.939-.325-1.892-.589-2.794-.957L27.851,92.3l-1.306-.58-1.234-.693-2.424-1.376c-.811-.438-1.512-1.027-2.261-1.525-.732-.524-1.474-1.018-2.173-1.551l-1.98-1.7a48,48,0,0,1-11.3-14.552A45.64,45.64,0,0,1,.761,57.111a26.013,26.013,0,0,1-.429-2.678q-.1-1.27-.19-2.377C.093,51.32.014,50.642,0,50.02q.023-.932.042-1.692c.029-.992.052-1.753.067-2.294.019-.516.046-.779.046-.779" transform="translate(2.603 2.334)" fill="#263238"/>
      <path id="Fill_297" data-name="Fill 297" d="M.636,0C.808,0,.948,1.811.948,4.046S.808,8.091.636,8.091.325,6.28.325,4.046.465,0,.636,0" transform="translate(50.058 10.496)" fill="#263238"/>
      <path id="Fill_298" data-name="Fill 298" d="M5.648.009c.122.122-1.043,1.483-2.6,3.04S.131,5.769.009,5.648s1.043-1.483,2.6-3.04,2.918-2.72,3.04-2.6" transform="translate(66.99 16.985)" fill="#263238"/>
      <path id="Fill_299" data-name="Fill 299" d="M6.818.021C6.9.179,5.369,1.1,3.5,2.236S.108,4.3.005,4.162,1.278,2.854,3.176,1.7,6.744-.13,6.818.021" transform="translate(78.65 30.989)" fill="#263238"/>
      <path id="Fill_300" data-name="Fill 300" d="M11.033.636c0,.172-2.47.312-5.516.312S0,.808,0,.636,2.47.325,5.517.325s5.516.14,5.516.312" transform="translate(81.955 51.172)" fill="#263238"/>
      <path id="Fill_301" data-name="Fill 301" d="M10.421.636c0,.172-2.333.312-5.21.312S0,.808,0,.636,2.333.325,5.21.325s5.21.14,5.21.312" transform="translate(6.071 50.437)" fill="#263238"/>
      <path id="Fill_302" data-name="Fill 302" d="M8.269.008c.113.13-1.65,1.729-3.936,3.571S.107,6.8,0,6.665,1.663,4.929,3.94,3.094,8.155-.121,8.269.008" transform="translate(13.633 66.55)" fill="#263238"/>
      <path id="Fill_303" data-name="Fill 303" d="M5.539,0c.144.1-1.164,2.114-2.68,4.644S.176,9.272.016,9.195s.77-2.313,2.309-4.868S5.406-.1,5.539,0" transform="translate(29.709 78.53)" fill="#263238"/>
      <path id="Fill_304" data-name="Fill 304" d="M.636,11.033c-.172,0-.312-2.47-.312-5.516S.465,0,.636,0,.948,2.47.948,5.517s-.14,5.516-.312,5.516" transform="translate(50.058 82.947)" fill="#263238"/>
      <path id="Fill_305" data-name="Fill 305" d="M8.263,7.2c-.087.139-2.246-1.1-4.548-3.116S-.119.111.007.006s1.843,1.636,4.117,3.61S8.363,7.052,8.263,7.2" transform="translate(66.211 79.428)" fill="#263238"/>
      <path id="Fill_306" data-name="Fill 306" d="M6.873,6.872C6.75,6.995,5.114,5.556,3.22,3.661S-.115.129.007.007,1.764,1.323,3.661,3.22,6.993,6.751,6.873,6.872" transform="translate(78.76 67.738)" fill="#263238"/>
      <path id="Fill_307" data-name="Fill 307" d="M6.015,6.015c-.122.122-1.565-1.124-3.223-2.783S-.113.13.008.008,1.574,1.132,3.233,2.792s2.9,3.1,2.783,3.223" transform="translate(15.38 30.225)" fill="#263238"/>
      <path id="Fill_308" data-name="Fill 308" d="M5.906,5.88C5.785,6,4.366,4.786,2.738,3.164S-.113.131.008.008,1.549,1.1,3.177,2.724,6.027,5.757,5.906,5.88" transform="translate(29.262 15.853)" fill="#263238"/>
      <path id="Fill_309" data-name="Fill 309" d="M16.556,0a8.644,8.644,0,0,1,.129,1.724c.028,1.241.064,2.818.106,4.7.06,3.97.1,9.456.1,15.513,0,1.167,0,2.313,0,3.408v.533l-.475-.241C11.718,23.265,7.6,21.146,4.66,19.6L1.215,17.756A6.465,6.465,0,0,1,0,17.014a6.475,6.475,0,0,1,1.319.533l3.535,1.668C7.845,20.656,12,22.7,16.7,25.054l-.475.293c0-1.095,0-2.24,0-3.408,0-6.057.037-11.542.1-15.513.042-1.884.078-3.461.106-4.7A8.644,8.644,0,0,1,16.556,0" transform="translate(34.259 25.398)" fill="#263238"/>
    </g>
    <path id="Fill_310" data-name="Fill 310" d="M.184,2.89,23.49,54.447a7.645,7.645,0,0,0,6.236,3.9L137.273,58.2a4.562,4.562,0,0,0-4.431-4.023l-40.806-.9L71.147,3.151A4.319,4.319,0,0,0,67.193.494L2.064,0A2.047,2.047,0,0,0,.184,2.89" transform="translate(300.659 348.594)" fill="#e0e0e0"/>
    <path id="Fill_311" data-name="Fill 311" d="M.215,2.963a1.576,1.576,0,0,1-.193-.6A2.065,2.065,0,0,1,.6.631,2.085,2.085,0,0,1,1.84.018C2.361-.015,2.9.008,3.5,0L7.653.007,34.462.115l18.825.1L63.876.282,66.638.3a5.145,5.145,0,0,1,2.836.61A4.631,4.631,0,0,1,71.437,3.14l1.115,2.667c5.988,14.335,12.66,30.31,19.809,47.425l-.289-.2,22.058.475,11.488.251,5.835.127,1.469.034a4.807,4.807,0,0,1,1.542.3,4.932,4.932,0,0,1,2.428,1.944,5.064,5.064,0,0,1,.741,2.066l.045.37H137.3l-66.979.064-29.19.009H31.127c-.546-.006-1.065.015-1.627-.014a6.872,6.872,0,0,1-1.627-.317,7.582,7.582,0,0,1-4.732-4.072l-2.447-5.437L5.646,15.289,1.588,6.162.548,3.783c-.23-.537-.334-.82-.334-.82s.144.264.395.792l1.1,2.354,4.17,9.075C9.484,23.1,14.688,34.523,21.12,48.644q1.2,2.652,2.466,5.428a7.086,7.086,0,0,0,4.443,3.788,8.863,8.863,0,0,0,3.1.3L34.4,58.15l6.734-.019,29.19-.07,66.975-.118-.328.37a4.384,4.384,0,0,0-.642-1.785,4.27,4.27,0,0,0-2.1-1.682,4.181,4.181,0,0,0-1.333-.261l-1.464-.034q-2.931-.063-5.835-.129l-11.486-.253-22.058-.494-.209,0-.079-.192L72.045,6.019,70.936,3.349a4.1,4.1,0,0,0-1.727-1.976A4.6,4.6,0,0,0,66.634.826L63.872.8,53.283.7,34.459.521,7.651.225,3.5.167c-.594,0-1.16-.033-1.647-.01A1.966,1.966,0,0,0,.678.71a2.028,2.028,0,0,0-.6,1.646,4.268,4.268,0,0,0,.137.607" transform="translate(300.628 348.521)" fill="#263238"/>
    <path id="Fill_312" data-name="Fill 312" d="M23.886,58.3a2.318,2.318,0,0,1-.313-.563c-.21-.451-.466-1-.777-1.665-.686-1.552-1.608-3.639-2.729-6.177-2.274-5.228-5.359-12.475-8.682-20.516S5.135,14.026,3.1,8.7C2.088,6.032,1.279,3.87.758,2.362.523,1.668.328,1.094.167.623A2.354,2.354,0,0,1,0,0,2.356,2.356,0,0,1,.293.576C.486,1.034.719,1.593,1,2.27c.639,1.572,1.5,3.685,2.54,6.254L12,29.129c3.3,7.994,6.287,15.23,8.5,20.587,1.04,2.57,1.9,4.685,2.535,6.258.264.685.481,1.25.661,1.715a2.34,2.34,0,0,1,.188.615" transform="translate(366.81 349.079)" fill="#455a64"/>
    <path id="Fill_313" data-name="Fill 313" d="M6.667,3.333A3.333,3.333,0,1,1,3.334,0,3.333,3.333,0,0,1,6.667,3.333" transform="translate(341.857 373.147)" fill="#fff"/>
    <path id="Fill_322" data-name="Fill 322" d="M563.926.636c0,.183-126.249.331-281.949.331C126.222.967,0,.82,0,.636S126.222.306,281.977.306c155.7,0,281.949.148,281.949.331" transform="translate(135.782 636.026)" fill="#263238"/>
    <g id="Group_112" data-name="Group 112" transform="translate(148.307 151.922)">
      <path id="Path" d="M-18.784,49.1H-6.055L0,0H-18.787l0,49.1Z" transform="translate(-116.852 424.422)" fill="#9e616a"/>
      <path id="Path-2" data-name="Path" d="M-41.044,16.5,0,16.494v-.519A15.976,15.976,0,0,0-15.975,0H-41.045Z" transform="translate(-97.838 469.363)" fill="#2f2e41"/>
      <path id="Path-3" data-name="Path" d="M-12.26,52.341,0,48.916-7.379,0-25.473,5.055-12.26,52.341Z" transform="translate(-27.463 420.76)" fill="#9e616a"/>
      <path id="Path-4" data-name="Path" d="M-39.53,23.226,0,12.18l-.14-.5A15.976,15.976,0,0,0-19.824.593h0L-43.969,7.34Z" transform="translate(0 462.633)" fill="#2f2e41"/>
      <circle id="Oval" cx="27.847" cy="27.847" r="27.847" transform="translate(-133.37 6.539)" fill="#9e616a"/>
      <path id="Path-5" data-name="Path" d="M-89.8,3.95-92,19.062s-27.847,55.355,2.377,82.524c0,0,45.167,136.209,58.072,154.548l10.79,22.577L0,275.595l-12.877-77.534L-34.612,87.322-37.838.893S-85.383-2.5-89.8,3.95Z" transform="translate(-28.906 169.825)" fill="#2f2e41"/>
      <path id="Path-6" data-name="Path" d="M-27.168,0-42.45,86.627s-8.15,39.734-8.83,55.016-3.4,34.979-3.4,34.979l27.508,4.415L0,64.525Z" transform="translate(-86.271 267.995)" fill="#2f2e41"/>
      <path id="Path-7" data-name="Path" d="M-72.33,31.887l1.978,50.425,10.446,23.107,3.871,8.568L0,113.308-5.773,74.253C2.377,53.2-16.98,44.708-16.98,44.708l-16.3-17.371,1.443-22.446L-56.374.22c-12.769-2.431-6.612,16.093-6.612,16.093C-79.966,14.615-72.33,31.887-72.33,31.887Z" transform="translate(-63.518 66.749)" fill="#6c63ff"/>
      <ellipse id="Oval-2" data-name="Oval" cx="0.662" cy="1.767" rx="0.662" ry="1.767" transform="matrix(0.535, 0.845, -0.845, 0.535, -20.928, 143.947)" fill="#3f3d56"/>
      <path id="Path-8" data-name="Path" d="M0,1.438H0A3.092,3.092,0,0,0-1.935.075a3.092,3.092,0,0,0-2.331.4h0L-43.445,25.29a3.092,3.092,0,0,0-1.363,1.935,3.092,3.092,0,0,0,.4,2.331h0L0,1.438Z" transform="translate(-20.665 139.207)" fill="#6c63ff"/>
      <path id="Path-9" data-name="Path" d="M0,2.929-1.233.983A2.113,2.113,0,0,0-4.148.328h0L-48.757,28.577a2.5,2.5,0,0,0-.775,3.453l1.024,1.617h0L0,2.929Z" transform="translate(-16.96 139.028)" fill="#3f3d56"/>
      <path id="Rectangle" d="M-.5,0h0V3.533h0Z" transform="matrix(0.535, 0.845, -0.845, 0.535, -23.098, 143.822)" fill="#d0cde1"/>
      <path id="Rectangle-2" data-name="Rectangle" d="M-.5,0h0V3.533h0Z" transform="matrix(0.535, 0.845, -0.845, 0.535, -27.203, 146.421)" fill="#d0cde1"/>
      <path id="Path-10" data-name="Path" d="M-16.849,23.169a10.93,10.93,0,0,0-1.356,1.059L-68.224,12-71.747,0-90.556,2.949-86.385,24.8a8.306,8.306,0,0,0,7.371,6.711L-20.7,37.074a10.9,10.9,0,0,0,10.8,6.08A10.9,10.9,0,0,0-.4,35.208a10.9,10.9,0,0,0-4.068-11.7,10.9,10.9,0,0,0-12.385-.336Z" transform="translate(-42.044 128.682)" fill="#9e616a"/>
      <path id="Path-11" data-name="Path" d="M-.69,56.823a4.667,4.667,0,0,0,.469-3.862l-7.13-42.067A12.976,12.976,0,0,0-22.209.165a12.976,12.976,0,0,0-10.767,14.83l.342,43.251a4.672,4.672,0,0,0,1.672,3.513,4.672,4.672,0,0,0,3.752,1.03l23.29-3.8A4.667,4.667,0,0,0-.69,56.823Z" transform="translate(-108.063 81.381)" fill="#6c63ff"/>
      <path id="Path-12" data-name="Path" d="M-45.165,0h0A29.447,29.447,0,0,1-30.049,4.153h2.015A28.033,28.033,0,0,1,0,32.187H-15.574V65.411H-74.756V29.591A29.591,29.591,0,0,1-45.165,0Z" transform="translate(-73.551 0)" fill="#2f2e41"/>
    </g>
    <g id="Group_114" data-name="Group 114" transform="translate(76.608 29.781)">
      <path id="Path_16" data-name="Path 16" d="M41.589,123.248l-17.881,21.21V112.286s-48.872-53.5,3-94.733,96.137.433,111.633,20.712-6.055,81.891-29.173,90.382S41.589,123.248,41.589,123.248Z" transform="translate(0)" fill="none" stroke="#496ad2" stroke-linejoin="round" stroke-miterlimit="10" stroke-width="4"/>
      <text id="Honey_when_will_you" data-name="Honey, when will you" transform="translate(9.667 49.863)" fill="#7e8085" font-size="12" font-family="Poppins-Medium, Poppins" font-weight="500"><tspan x="0.35" y="13">Honey, when will you </tspan><tspan x="22.106" y="31">get a new job</tspan></text>
    </g>
    <g id="Group_114-2" data-name="Group 114" transform="translate(638.183 116.481)">
      <path id="Path_16-2" data-name="Path 16" d="M36.616,127.068l-24.4,16.961,6.522-27.923s-38.915-48.842,3-94.733S122.082,14.317,129.7,37.428s3.322,91.641-25.506,95.04S36.616,127.068,36.616,127.068Z" fill="none" stroke="#496ad2" stroke-linejoin="round" stroke-miterlimit="10" stroke-width="4"/>
      <text id="iApply_is_working_on" data-name="iApply is working on" transform="translate(3.941 44.05)" fill="#7e8085" font-size="12" font-family="Poppins-Medium, Poppins" font-weight="500"><tspan x="2.762" y="13">iApply is working on </tspan><tspan x="20.462" y="31">it, I will get my </tspan><tspan x="14.732" y="49">dream job Soon</tspan></text>
    </g>
  </g>
</svg>
