<svg xmlns="http://www.w3.org/2000/svg" width="57.534" height="59.026" viewBox="0 0 57.534 59.026">
  <g id="Organise" transform="translate(-3.7 -2.5)">
    <path id="Path_2396" data-name="Path 2396" d="M30.217,38.534H50.058a1.617,1.617,0,0,0,0-3.234H30.217a1.617,1.617,0,1,0,0,3.234Z" transform="translate(-9.413 -12.399)" fill="#253c7f"/>
    <path id="Path_2397" data-name="Path 2397" d="M30.217,51.434H50.058a1.617,1.617,0,0,0,0-3.234H30.217a1.617,1.617,0,1,0,0,3.234Z" transform="translate(-9.413 -17.276)" fill="#253c7f"/>
    <path id="Path_2398" data-name="Path 2398" d="M30.217,25.634h8.521a1.617,1.617,0,1,0,0-3.234H30.217a1.617,1.617,0,0,0,0,3.234Z" transform="translate(-9.413 -7.523)" fill="#253c7f"/>
    <path id="Path_2399" data-name="Path 2399" d="M41.973,61.1H30.217a1.617,1.617,0,1,0,0,3.234H41.973a1.647,1.647,0,0,0,1.617-1.617A1.606,1.606,0,0,0,41.973,61.1Z" transform="translate(-9.413 -22.152)" fill="#253c7f"/>
    <path id="Path_2400" data-name="Path 2400" d="M49.975,35.838V15.126a1.457,1.457,0,0,0-.5-1.12L38.469,3a1.558,1.558,0,0,0-1.12-.5H13.092a1.647,1.647,0,0,0-1.617,1.617v6.158H5.317A1.606,1.606,0,0,0,3.7,11.892V56.363A1.647,1.647,0,0,0,5.317,57.98H39.4A12.715,12.715,0,0,0,48.3,61.526a12.9,12.9,0,0,0,1.679-25.688ZM37.6,6.667l8.21,8.21H37.6ZM14.709,5.734H34.364v10.76a1.647,1.647,0,0,0,1.617,1.617h10.76V35.838a12.936,12.936,0,0,0-11.2,11.133H14.709ZM6.934,13.509h4.54v35.08a1.647,1.647,0,0,0,1.617,1.617H35.483a12.523,12.523,0,0,0,1.431,4.54H6.934ZM48.358,58.354A9.641,9.641,0,1,1,58,48.651,9.649,9.649,0,0,1,48.358,58.354Z" fill="#253c7f"/>
    <path id="Path_2401" data-name="Path 2401" d="M74.778,70.816l-4.167,4.167-1.493-1.493a1.627,1.627,0,0,0-2.3,2.3L69.429,78.4a1.7,1.7,0,0,0,1.182.5,1.82,1.82,0,0,0,1.182-.5l5.287-5.287a1.627,1.627,0,0,0-2.3-2.3Z" transform="translate(-23.683 -25.649)" fill="#253c7f"/>
  </g>
</svg>
