<svg xmlns="http://www.w3.org/2000/svg" width="41.85" height="67.997" viewBox="0 0 41.85 67.997">
  <g id="Save_Time_Blue" data-name="Save Time_Blue" transform="translate(-1.383 -290.915)">
    <path id="Path_2393" data-name="Path 2393" d="M1.384.265V4.189a26.152,26.152,0,0,0,11.859,21.9,9.761,9.761,0,0,1,0,16.351,26.154,26.154,0,0,0-11.861,21.9v3.924H43.232V64.341a26.152,26.152,0,0,0-11.859-21.9,9.761,9.761,0,0,1,0-16.351,26.154,26.154,0,0,0,11.861-21.9V.265Zm3.091,3.09H40.141v.833A23.06,23.06,0,0,1,29.683,23.5a12.852,12.852,0,0,0,0,21.532A23.063,23.063,0,0,1,40.142,64.342v.833H4.475v-.833A23.061,23.061,0,0,1,14.933,45.03a12.852,12.852,0,0,0,0-21.531A23.063,23.063,0,0,1,4.475,4.189Z" transform="translate(0 290.65)" fill="#253c7f"/>
    <path id="Path_2394" data-name="Path 2394" d="M1.991,292.105H29.65a21.517,21.517,0,0,1-7.3,8.033A14.4,14.4,0,0,0,15.821,312.2a14.4,14.4,0,0,0-6.529-12.058,21.52,21.52,0,0,1-7.3-8.033Z" transform="translate(6.488 12.717)" fill="#253c7f"/>
    <path id="Path_2395" data-name="Path 2395" d="M2.436,304.233l8.633-8.632,8.633,8.632Z" transform="translate(11.24 50.051)" fill="#253c7f"/>
  </g>
</svg>
