<svg xmlns="http://www.w3.org/2000/svg" width="46.782" height="73.085" viewBox="0 0 46.782 73.085">
  <path id="Sit_Back_Relax" data-name="Sit Back &amp; Relax" d="M197.366,294.079a.5.5,0,0,0-.081-.184l-.5-.7a.509.509,0,0,0-.3-.2l-1.563-.354-4.454-2.582a2.59,2.59,0,0,1-.089-.27c-.03-.105-.059-.205-.08-.311l-.03-.139v.021l0-.037v-.009l0-.017v0l0-.05-.116-1.167.178-.086a.5.5,0,0,0,.28-.486l-.137-3.409-.006-.989c0-.533,0-1.067-.015-1.605l-.139-4.033c0-.007-.006-.093-.007-.1l-.692-6.29a2.619,2.619,0,0,0-1.762-2.183L171.5,263.432l-.139-1.086c-.018-.17-.045-.339-.074-.51l-.549-4.5a10.913,10.913,0,0,1-.068-1.289l1.889.858.158.071a1.459,1.459,0,0,0,1.07.054l3.867-1.3-.031,1.327a.5.5,0,0,0,.5.511l.062,0,9.456-1.18a.5.5,0,0,0,.43-.407l1.161-6.442a.494.494,0,0,0-.172-.467l.435-.512a1.451,1.451,0,0,0,.108-1.744.484.484,0,0,0,.17-.275l1.341-7.438c0-.012,0-.024,0-.037a.5.5,0,0,0,0-.128.392.392,0,0,0-.01-.058.484.484,0,0,0-.073-.156l-.005-.011h0a.5.5,0,0,0-.125-.117l-7.277-4.748a.5.5,0,0,0-.771.371l-.334,3.475-3.89-.393a.492.492,0,0,0-.381.122.506.506,0,0,0-.169.363l-.323,13.84-2.949.591-3.557-2.361c-.008-.142-.014-.285-.034-.423a3.16,3.16,0,0,0-1.927-2.533c-3.564-1.687-4.069-3.973-4.088-4.066a.5.5,0,0,0-.04-.122c-.159-.334-.285-.646-.393-.944,1.1.251,1.937.376,1.937.376a10.324,10.324,0,0,0,1.747-3.954,20.735,20.735,0,0,0,.246-2.752,16.759,16.759,0,0,0-.424-3.525c-.009-.036-.024-.069-.034-.1-.005.019,0,.038-.009.058-2.744.032-4.306-.764-5.406,2.753-.532,1.7-.118,3.463-.207,5.274a5.114,5.114,0,0,1-.109.733.494.494,0,0,0-.344.038.5.5,0,0,0-.248.311,15.779,15.779,0,0,1-3,5.646c-.063-.219-.122-.417-.178-.6a16.345,16.345,0,0,0,2.913-5.619,6,6,0,0,0,.218-1.213c.089-1.811-.325-3.576.207-5.274,1.1-3.517,3.425-2.812,6.17-2.844,0-.02-2.367-7.956-9.605-4.3-3.736,1.886-3.938,8.381-3.091,12.037a22.218,22.218,0,0,1,.9,4.779c.508.18.883.328,1.018.36.051.013.139.207.256.537-.152-.056-.324-.12-.524-.191-2.013-.715-6.2-1.954-6.576,1.3l3.726,31.574c1.059,4.605,5.689,6.512,10.816,7.152,1.368,3.571,3.527,10.876-1.184,11.98-6.272,1.47-5.933,2.938,5.555,2.519s11.064-1.679,4.869-2.73c-5.064-.858-5.309-8.173-3.9-11.5a63.447,63.447,0,0,0,10.717-1.1s.01-.146.022-.4c.056.174.111.355.171.521.1.285.214.564.33.841l.179.437c.112.274.236.542.36.81l1.347,2.909.29.7a.491.491,0,0,0,.272.272.5.5,0,0,0,.381,0l.035.086c.16.42.312.84.45,1.261a5.186,5.186,0,0,1,.29,1.293c0,.015,0,.029,0,.044a.474.474,0,0,0-.258.073.5.5,0,0,0-.23.4,2.428,2.428,0,0,1-.12.7,1.586,1.586,0,0,0,.99,2.021l7.547,2.572a2.508,2.508,0,0,0,.809.149,1.433,1.433,0,0,0,1.2-.579,1.524,1.524,0,0,0,.3-1.139,1.5,1.5,0,0,0-.222-.6l.218.041a1.586,1.586,0,0,0,.291.027,1.534,1.534,0,0,0,1.329-.769A1.511,1.511,0,0,0,197.366,294.079Zm-10.1-24.318.262.089a1.612,1.612,0,0,1,1.086,1.344l.633,5.758.2,4.58c.011.528.013,1.057.015,1.585l.083,3.6.038.527-1.285.623-.421-2.888-.075-.627c-.079-.673-.158-1.345-.246-2.023l-.362-2.64-1.261-7.866a2.624,2.624,0,0,0-2.109-2.159l-11.8-2.161-.383-2.97Zm-21.054-3.25h0a4.118,4.118,0,0,0-.8.088c-.071.014-.141.031-.211.049a4.082,4.082,0,0,0-.642.219c-.032.014-.068.019-.1.034-1.033-4.38-2.416-10.171-3.57-14.754l8.778,3.989a11.6,11.6,0,0,0,.079,1.315l.414,3.427L170.3,262c.025.15.049.3.066.461l.625,4.855-4.036-.74A4.71,4.71,0,0,0,166.216,266.511Zm20.939-11.075-8.516,1.062.014-.577,6.907-2.319a1.705,1.705,0,0,0,.765-.53l1.6-1.882Zm-3.389-20.305,4.864,3.174-5.119-.517Zm-4.7,3.213,10.974,1.108L188.91,245.7a2.01,2.01,0,0,0-2.254.921l-2.439,4.269-5.472,1.093Zm-16.334,3.391q.512.16,1.067.3c.118.331.263.681.435,1.045.113.461.881,2.939,4.627,4.713a2.145,2.145,0,0,1,1.366,1.773,6.25,6.25,0,0,1-.012,1.507l-7.988-4.369-.17-.084a2.713,2.713,0,0,0-1.129-.245,2.751,2.751,0,0,0-.582.061A17.471,17.471,0,0,0,162.729,241.735Zm20.456,43.535c-.118-.254-.236-.508-.34-.763l-.184-.448c-.108-.259-.217-.518-.31-.789-.207-.575-.392-1.188-.58-1.926a29.3,29.3,0,0,0-.616-6.153c.012-.192.024-.383.046-.577a.5.5,0,0,0-.349-.533c-.066-.219-.137-.434-.214-.642-1.071-2.9-9.159-4.525-15.9-5.384l-.034-.144.044-.026a3.087,3.087,0,0,1,.646-.254c.043-.012.088-.021.132-.03a3.259,3.259,0,0,1,.732-.09h0a3.629,3.629,0,0,1,.53.049l4.705.863h0l12.157,2.225a1.625,1.625,0,0,1,1.3,1.335l1.258,7.854.361,2.626c.086.669.165,1.337.244,2.007l.4,2.89-2.564,1.091Zm2.523,8.935a.588.588,0,0,1-.026-.455c.031-.1.059-.19.082-.288,2.963,1.234,6.641,2.623,8.7,2.858a.537.537,0,0,1,.013.673c-.1.132-.379.258-.882.082l-7.546-2.57A.588.588,0,0,1,185.708,294.2Zm10.618.45a.522.522,0,0,1-.565.256l-1.982-.377-2.13-1.606,4.436,1.006.313.441A.539.539,0,0,1,196.326,294.655Z" transform="translate(-150.617 -225.801)" fill="#253c7f"/>
</svg>
