<svg xmlns="http://www.w3.org/2000/svg" width="25" height="25" viewBox="0 0 25 25">
  <g id="instagram_1_" data-name="instagram (1)" transform="translate(0.5 0.5)">
    <g id="Group_3" data-name="Group 3">
      <path id="Shape" d="M6.5,24A6.5,6.5,0,0,1,0,17.5V6.5A6.5,6.5,0,0,1,6.5,0H17.5A6.5,6.5,0,0,1,24,6.5V17.5A6.5,6.5,0,0,1,17.5,24Z" fill="none" stroke="#fff" stroke-width="1"/>
      <g id="instagram_1_2" data-name="instagram (1)">
        <path id="Path" d="M5.155,10.311a5.155,5.155,0,1,1,5.155-5.155A5.161,5.161,0,0,1,5.155,10.311Z" transform="translate(6.845 6.845)" fill="none" stroke="#fff" stroke-width="1"/>
        <path id="Shape-2" data-name="Shape" d="M0,1.94A1.939,1.939,0,1,1,1.94,3.878,1.941,1.941,0,0,1,0,1.94Z" transform="translate(16.78 3.106)" fill="none" stroke="#fff" stroke-width="1"/>
      </g>
    </g>
  </g>
</svg>
