<svg xmlns="http://www.w3.org/2000/svg" width="48.283" height="57.762" viewBox="0 0 48.283 57.762"><defs><style>.a{fill:#3ea864;fill-rule:evenodd;}</style></defs><g transform="translate(-0.009 0.038)"><path class="a" d="M24.121,48.658a2.515,2.515,0,1,1-2.515,2.515,2.514,2.514,0,0,1,2.515-2.515ZM14.693,17.375a2.3,2.3,0,0,0-1.194.31.955.955,0,0,0-.343.395,1.46,1.46,0,0,0-.113.635,5.614,5.614,0,0,0,1.128,2.74l.009.014h0l2.364,3.76A20.072,20.072,0,0,0,19.722,29.4a6.5,6.5,0,0,0,4.536,1.824,6.686,6.686,0,0,0,4.8-1.9,21.067,21.067,0,0,0,3.271-4.46l2.665-4.385a4.254,4.254,0,0,0,.564-2.336c-.066-.263-.357-.395-.855-.418-.1,0-.216,0-.324,0s-.244.009-.371.023a.754.754,0,0,1-.207-.014,3.846,3.846,0,0,1-.729-.038l.912-4.037C27.213,14.719,22.151,9.695,15,12.646l.517,4.756a3.9,3.9,0,0,1-.822-.028ZM35.6,16.524a1.705,1.705,0,0,1,1.246,1.288,5.327,5.327,0,0,1-.649,3.229h0a.375.375,0,0,1-.038.075l-2.693,4.437a21.821,21.821,0,0,1-3.5,4.742l-.071.061c.136.193.282.409.432.63.465.686,1,1.466,1.495,2.077,2.928,1.819,9.367,2.312,11.886,3.713,6.411,3.572,4.07,12.253,4.536,18.5a2.5,2.5,0,0,1-2.623,2.449H43.837l1.951-14.805a1.78,1.78,0,0,0-1.673-2.1H30.391c.338-2.421.588-4.733.7-6.477a26.245,26.245,0,0,1-1.913-2.58c-.132-.193-.258-.376-.376-.55a7.86,7.86,0,0,1-4.55,1.34A7.672,7.672,0,0,1,19.27,30.77a15.264,15.264,0,0,1-1.448,3.375.683.683,0,0,1-.164.164c.226,1.8.541,4.117.912,6.514H4.508a1.778,1.778,0,0,0-1.673,2.1L4.785,57.724H3A2.5,2.5,0,0,1,.386,55.276c.08-6.613-2.43-14.617,4.536-18.5,2.552-1.424,9.127-1.908,12-3.788A24.593,24.593,0,0,0,18.138,29.8c.033-.1-.023.066.028-.085a25.188,25.188,0,0,1-2.745-3.788l-2.364-3.76a6.815,6.815,0,0,1-1.34-3.436,2.746,2.746,0,0,1,.23-1.231,2.281,2.281,0,0,1,.813-.945,2.626,2.626,0,0,1,.573-.291,59.616,59.616,0,0,1-.113-6.759,9.259,9.259,0,0,1,.291-1.532,9.912,9.912,0,0,1,6.561-6.369c1.471-.508.9-1.72,2.392-1.64C26,.158,31.439,2.433,33.53,4.844c2.923,3.4,2.171,7.558,2.068,11.68ZM19.444,37.2a2.923,2.923,0,0,1,0-4.282,12.59,12.59,0,0,1,4.127,1.9,1.926,1.926,0,0,1,.9-.146c1.311-.931,2.985-1.3,4.446-2,1.744,1.7,1.56,3.262-.16,4.719a12.075,12.075,0,0,1-2.745-1,2.888,2.888,0,0,1-.188.738l.446,3.708H22.706l.447-3.708a2.3,2.3,0,0,1-.376-1.208A11.267,11.267,0,0,1,19.444,37.2Z" transform="translate(0)"/></g></svg>