<svg xmlns="http://www.w3.org/2000/svg" width="49" height="24" viewBox="0 0 49 24">
  <g id="lang" transform="translate(-15.757 -39.598)">
    <path id="Path_2988" data-name="Path 2988" d="M59.687,40H43.281A3.306,3.306,0,0,0,40,43.333V60a3.306,3.306,0,0,0,3.281,3.333H59.687A3.306,3.306,0,0,0,62.969,60V43.333A3.306,3.306,0,0,0,59.687,40ZM55.848,55.873a.846.846,0,0,1,.517,1.058.818.818,0,0,1-.779.567,1.01,1.01,0,0,1-.263-.042,12.537,12.537,0,0,1-3.839-2.025,12.539,12.539,0,0,1-3.839,2.025,1.01,1.01,0,0,1-.263.042.818.818,0,0,1-.779-.567.846.846,0,0,1,.517-1.058,10.931,10.931,0,0,0,3.158-1.608,8.421,8.421,0,0,1-2.084-5.1h-.812a.833.833,0,0,1,0-1.666h3.281v-.833a.82.82,0,1,1,1.641,0V47.5h3.281a.833.833,0,0,1,0,1.666h-.812a8.421,8.421,0,0,1-2.084,5.1A11.144,11.144,0,0,0,55.848,55.873Z" transform="translate(1.204 -0.107)" fill="#374d96"/>
    <path id="Path_2989" data-name="Path 2989" d="M53.661,54.991A6.615,6.615,0,0,0,55.344,51H51.97A6.465,6.465,0,0,0,53.661,54.991Z" transform="translate(-1.154 -1.942)" fill="#374d96"/>
    <g id="Rectangle_634" data-name="Rectangle 634" transform="translate(15.757 39.598)" fill="none" stroke="#374d96" stroke-width="1">
      <rect width="24" height="24" rx="1" stroke="none"/>
      <rect x="0.5" y="0.5" width="23" height="23" rx="0.5" fill="none"/>
    </g>
    <g id="Rectangle_635" data-name="Rectangle 635" transform="translate(40.757 39.598)" fill="none" stroke="#374d96" stroke-width="2">
      <rect width="24" height="24" rx="1" stroke="none"/>
      <rect x="1" y="1" width="22" height="22" fill="none"/>
    </g>
    <g id="Group_16480" data-name="Group 16480" transform="translate(16.508 39.893)">
      <path id="Path_2985" data-name="Path 2985" d="M558.568,470h-.048c-.19.855-.428,1.948-.665,2.8L557,475.844h3.183l-.9-3.041C559.043,471.948,558.806,470.855,558.568,470Z" transform="translate(-547.446 -463.11)" fill="#374d96"/>
      <path id="Path_2986" data-name="Path 2986" d="M370.153,325H348.368a.369.369,0,0,0-.368.38V347.95a.369.369,0,0,0,.368.38h21.785a.369.369,0,0,0,.368-.38V325.38A.369.369,0,0,0,370.153,325Zm-7.905,18.863-1.1-3.706h-4l-.965,3.706h-3.263l4.228-14.4h4.136l4.32,14.4Z" transform="translate(-348 -325)" fill="#374d96"/>
    </g>
  </g>
</svg>
