<svg xmlns="http://www.w3.org/2000/svg" width="86.411" height="84.392" viewBox="0 0 86.411 84.392"><defs><style>.a{fill:#fff;}</style></defs><g transform="translate(-1 -1.7)"><g transform="translate(11.633 8.564)"><path class="a" d="M27.34,8.684A4.719,4.719,0,0,1,26.532,6.8L8.9,17.029a7.631,7.631,0,0,1,1.077,1.75Z" transform="translate(-8.9 -6.8)"/></g><g transform="translate(8.672 12.064)"><path class="a" d="M14.1,35.915,8.45,26.09A7.631,7.631,0,0,1,6.7,27.167l6.191,10.768L6.7,48.7a3.865,3.865,0,0,1,1.75,1.077L14.1,39.953l3.9,6.73L9.8,51.125a7.252,7.252,0,0,1,.942,1.75l8.345-4.442L29.312,66.2l1.615-1.211-10.095-17.5,7.807-4.172a4.432,4.432,0,0,1-.942-1.75L19.89,45.741l-4.576-7.807,3.769-6.6,8.48,5.384a7.252,7.252,0,0,1,.942-1.75L20.16,29.589l10.9-18.978A3.675,3.675,0,0,1,29.447,9.4L18.41,28.513,10.6,23.533a7.631,7.631,0,0,1-1.077,1.75L17.468,30.4Z" transform="translate(-6.7 -9.4)"/></g><g transform="translate(39.36 12.064)"><path class="a" d="M49.555,23.533l-7.537,4.711L31.115,9.4A11.227,11.227,0,0,1,29.5,10.477L40.268,29.186l-8.48,5.249h0a7.631,7.631,0,0,1,1.077,1.75l8.48-5.249,3.9,6.864L42.96,41.7h.4a2.961,2.961,0,0,1,1.75.538l1.346-2.288,1.884,3.23a1.913,1.913,0,0,1,.808-.269l.269-1.75-1.884-3.23L53.727,27.3a7.252,7.252,0,0,1-1.75-.942l-5.518,9.556-3.365-5.922,7.672-4.711A8.1,8.1,0,0,1,49.555,23.533Z" transform="translate(-29.5 -9.4)"/></g><g transform="translate(65.337 30.1)"><path class="a" d="M48.8,22.935V33.3h2.019V22.8a5.521,5.521,0,0,1-1.481.135Z" transform="translate(-48.8 -22.8)"/></g><g transform="translate(5.038 30.234)"><path class="a" d="M4,22.9V43.628c.4,0,.673-.135,1.077-.135a2.964,2.964,0,0,1,1.077.135V22.9c-.4,0-.808.135-1.077.135S4.4,22.9,4,22.9Z" transform="translate(-4 -22.9)"/></g><g transform="translate(42.321 8.564)"><path class="a" d="M49.87,16.895,32.508,6.8A4.719,4.719,0,0,1,31.7,8.684L48.794,18.51A5.631,5.631,0,0,1,49.87,16.895Z" transform="translate(-31.7 -6.8)"/></g><g transform="translate(11.633 60.653)"><path class="a" d="M8.9,47.25,26.532,57.344a7.783,7.783,0,0,1,.673-1.884L9.977,45.5A12.287,12.287,0,0,1,8.9,47.25Z" transform="translate(-8.9 -45.5)"/></g><g transform="translate(41.648 44.636)"><path class="a" d="M38.334,36.7l-6.057-3.1A7.631,7.631,0,0,1,31.2,35.35l5.653,2.961Z" transform="translate(-31.2 -33.6)"/></g><g transform="translate(44.071 42.483)"><path class="a" d="M75.263,49.632l-3.5-.673a25.264,25.264,0,0,0-1.615-4.038l2.019-2.961a1.035,1.035,0,0,0-.135-1.346l-4.576-4.576a1.035,1.035,0,0,0-1.346-.135L63.15,37.922a19.869,19.869,0,0,0-3.9-1.615l-.673-3.5A.983.983,0,0,0,57.631,32H51.17a.9.9,0,0,0-.942.808l-.673,3.5c-.135,0-.269.135-.4.135a20.629,20.629,0,0,0-3.634,1.481L42.556,35.9a1.035,1.035,0,0,0-1.346.135l-4.172,4.711a1.035,1.035,0,0,0-.135,1.346l2.019,2.961a18.071,18.071,0,0,0-1.615,4.038l-3.5.673a.983.983,0,0,0-.808.942v6.461a.9.9,0,0,0,.808.942l3.5.673a19.87,19.87,0,0,0,1.615,3.9L36.9,65.649A1.035,1.035,0,0,0,37.038,67l4.442,4.576a1.035,1.035,0,0,0,1.346.135l2.961-2.019A18.071,18.071,0,0,0,49.825,71.3l.673,3.5a.983.983,0,0,0,.942.808H57.9a.9.9,0,0,0,.942-.808l.673-3.5a19.87,19.87,0,0,0,3.9-1.615l2.961,2.019a1.035,1.035,0,0,0,1.346-.135L72.3,67a1.035,1.035,0,0,0,.135-1.346l-2.019-2.961a19.87,19.87,0,0,0,1.615-3.9l3.5-.673a.983.983,0,0,0,.808-.942V50.709C76.071,50.17,75.667,49.632,75.263,49.632ZM54.535,62.284a8.444,8.444,0,0,1-8.48-8.48v-.269a8.582,8.582,0,0,1,5.115-7.4,7.966,7.966,0,0,1,2.557-.673h1.615a8.5,8.5,0,0,1,7.807,8.48A8.623,8.623,0,0,1,54.535,62.284Z" transform="translate(-33 -32)"/></g><g transform="translate(31.15 68.863)"><path class="a" d="M28.515,51.6a5.115,5.115,0,1,0,5.115,5.115A5.294,5.294,0,0,0,28.515,51.6Z" transform="translate(-23.4 -51.6)"/></g><g transform="translate(31.15 1.7)"><path class="a" d="M28.515,11.929A5.115,5.115,0,1,0,23.4,6.815,5.112,5.112,0,0,0,28.515,11.929Z" transform="translate(-23.4 -1.7)"/></g><g transform="translate(1 18.121)"><path class="a" d="M6.115,24.129A5.115,5.115,0,1,0,1,19.015,5.112,5.112,0,0,0,6.115,24.129Z" transform="translate(-1 -13.9)"/></g><g transform="translate(1 52.847)"><path class="a" d="M6.115,39.7a5.115,5.115,0,1,0,5.115,5.115A5.112,5.112,0,0,0,6.115,39.7Z" transform="translate(-1 -39.7)"/></g><g transform="translate(31.15 36.695)"><path class="a" d="M28.515,27.7a5.115,5.115,0,1,0,5.115,5.115A5.294,5.294,0,0,0,28.515,27.7Z" transform="translate(-23.4 -27.7)"/></g><g transform="translate(60.761 17.986)"><path class="a" d="M50.515,24.029A5.115,5.115,0,1,0,45.4,18.915,5.112,5.112,0,0,0,50.515,24.029Z" transform="translate(-45.4 -13.8)"/></g></g></svg>