<svg xmlns="http://www.w3.org/2000/svg" width="117.335" height="84.025" viewBox="0 0 117.335 84.025"><defs><style>.a{fill:#fff;}</style></defs><g transform="translate(-9.175 -951.129)"><path class="a" d="M12.443,973.13a3.252,3.252,0,0,0-3.233,3.233v9.97c0,.03,0,.06,0,.09a1.079,1.079,0,0,0,0,.539v50.477a3.29,3.29,0,0,0,3.233,3.278h62.6a1.078,1.078,0,1,0,0-2.156h-62.6a1.092,1.092,0,0,1-1.078-1.123V987.725h90.894v18.547a1.078,1.078,0,1,0,2.156,0v-19.4a1.078,1.078,0,0,0,0-.449v-10.06a3.251,3.251,0,0,0-3.233-3.233H12.443ZM43.7,975.286h57.483a1.054,1.054,0,0,1,1.078,1.078v9.206H47.74l-3.682-9.61a4.078,4.078,0,0,0-.359-.674ZM14.1,978.34H17.7v3.682H14.1Zm6.332,0h3.593v3.682H20.436Zm6.332,0h3.638v3.682H26.768Zm6.377,0h3.593v3.682H33.145Zm-15.538,19v3.682H65.614v-3.682Zm0,11.5v3.682H38.939v-3.682Zm25.867,0v3.682h5.165v-3.682Zm8.622,0v3.682H83.668v-3.682Zm45.492,1.3a1.078,1.078,0,0,0-.808,1.078v5.344c-.429.162-.853.307-1.257.494l-3.727-3.817a1.078,1.078,0,0,0-1.527-.045l-7.32,7.1a1.078,1.078,0,0,0-.045,1.527l3.727,3.817a17.935,17.935,0,0,0-.763,1.886H80.479a1.078,1.078,0,0,0-1.078,1.078v10.149a1.078,1.078,0,0,0,1.078,1.078h5.389a18.342,18.342,0,0,0,.808,1.886l-3.772,3.817a1.078,1.078,0,0,0,.045,1.527l7.32,7.051a1.078,1.078,0,0,0,1.527,0l3.727-3.862c.409.183.833.34,1.257.494v5.344a1.078,1.078,0,0,0,1.078,1.078h10.194a1.078,1.078,0,0,0,1.078-1.078v-5.344c.425-.154.85-.311,1.257-.494l3.727,3.862a1.078,1.078,0,0,0,1.527,0l7.32-7.051a1.078,1.078,0,0,0,.045-1.527l-3.682-3.862a18.37,18.37,0,0,0,.763-1.841h5.344a1.078,1.078,0,0,0,1.078-1.078v-10.149a1.078,1.078,0,0,0-1.078-1.078h-5.344a17.638,17.638,0,0,0-.808-1.886l3.727-3.817a1.078,1.078,0,0,0-.045-1.527l-7.32-7.1a1.078,1.078,0,0,0-1.527.045l-3.727,3.817c-.4-.187-.828-.332-1.257-.494v-5.344a1.078,1.078,0,0,0-1.078-1.078H97.858q-.045,0-.09,0t-.09,0q-.045,0-.09,0Zm-79.981,10.194v3.683H48.19v-3.683H17.607Zm34.49,0v3.683h2.829v-3.683Zm5.748,0v3.683H68.129v-3.683Zm14.371,0v3.683h3.862v-3.683Zm30.762.539a12.776,12.776,0,1,1-12.8,12.8,12.792,12.792,0,0,1,12.8-12.8Zm0,2.156a10.621,10.621,0,1,0,10.6,10.643A10.643,10.643,0,0,0,102.978,1023.024Z" transform="translate(0 -22)"/></g></svg>