<svg xmlns="http://www.w3.org/2000/svg" width="75.8" height="81" viewBox="0 0 75.8 81"><defs><style>.a,.b,.d{fill:none;}.a,.c{stroke:#fff;}.a,.b,.c,.d{stroke-linecap:round;stroke-linejoin:round;stroke-miterlimit:10;stroke-width:3px;}.b{stroke:#3ea864;}.c{fill:#fff;}.d{stroke:#253c7f;}</style></defs><g transform="translate(-0.5 0.5)"><g transform="translate(2 1)"><path class="a" d="M44.5,20.5A29.12,29.12,0,0,1,34.36,41.586l-.312.234A14.715,14.715,0,0,1,25,45.2a14.714,14.714,0,0,1-9.048-3.38l-.312-.234A29.119,29.119,0,0,1,5.5,20.5a19.5,19.5,0,0,1,39,0Z" transform="translate(3.6 -1)"/><path class="a" d="M57.9,54.024H2v-10.4A28.536,28.536,0,0,1,21.24,16.61l.312.234a14.715,14.715,0,0,0,9.048,3.38,14.714,14.714,0,0,0,9.048-3.38l.312-.234a28.721,28.721,0,0,1,9.75,5.72A16.907,16.907,0,0,0,57.9,54.024Z" transform="translate(-2 23.976)"/><path class="b" d="M24.8,30.98v.052H23.5C23.942,31.032,24.358,31.006,24.8,30.98Z" transform="translate(32.4 46.968)"/><path class="c" d="M50.8,34.9A16.885,16.885,0,0,1,35.2,51.748c-.442.026-.858.052-1.3.052A16.9,16.9,0,1,1,50.8,34.9Z" transform="translate(22 26.2)"/><g transform="translate(47.45 52.65)"><line class="d" y2="16.9" transform="translate(8.45)"/><line class="d" x1="16.9" transform="translate(0 8.45)"/></g></g></g></svg>