<svg xmlns="http://www.w3.org/2000/svg" width="11" height="11" viewBox="0 0 11 11">
  <g id="linkedin" transform="translate(-0.393)">
    <path id="Combined_Shape" data-name="Combined Shape" d="M11,11H8.722V7.424c0-.851-.018-1.944-1.186-1.944-1.185,0-1.367.925-1.367,1.883V11H3.891V3.656H6.079v1H6.11A2.4,2.4,0,0,1,8.268,3.471C10.575,3.471,11,4.991,11,6.965V11ZM.182,11V3.656H2.462V11ZM0,1.321A1.321,1.321,0,1,1,1.321,2.654,1.321,1.321,0,0,1,0,1.321Z" transform="translate(0.393)" fill="#fff"/>
  </g>
</svg>
