<svg xmlns="http://www.w3.org/2000/svg" xmlns:xlink="http://www.w3.org/1999/xlink" width="492.182" height="495.776" viewBox="0 0 492.182 495.776">
  <defs>
    <linearGradient id="linear-gradient" y1="0.5" x2="1" y2="0.5" gradientUnits="objectBoundingBox">
      <stop offset="0" stop-color="#fff" stop-opacity="0.2"/>
      <stop offset="1" stop-color="#fff" stop-opacity="0.702"/>
    </linearGradient>
    <filter id="Path_2081" x="170.425" y="2.816" width="259.741" height="166.436" filterUnits="userSpaceOnUse">
      <feOffset dy="3" input="SourceAlpha"/>
      <feGaussianBlur stdDeviation="3" result="blur"/>
      <feFlood flood-opacity="0.329"/>
      <feComposite operator="in" in2="blur"/>
      <feComposite in="SourceGraphic"/>
    </filter>
    <clipPath id="clip-path">
      <ellipse id="Ellipse_97" data-name="Ellipse 97" cx="19.467" cy="13.032" rx="19.467" ry="13.032" transform="translate(0 24.655) rotate(-39.289)" fill="none"/>
    </clipPath>
    <clipPath id="clip-path-2">
      <path id="Path_2296" data-name="Path 2296" d="M23.1,29.014H0L7.23,0h23.1Z" fill="none"/>
    </clipPath>
    <linearGradient id="linear-gradient-2" x1="-7.896" y1="14.361" x2="-9.196" y2="14.676" gradientUnits="objectBoundingBox">
      <stop offset="0.01" stop-color="#c1a1d5"/>
      <stop offset="0.049" stop-color="#c7abd9"/>
      <stop offset="0.115" stop-color="#d9c6e5"/>
      <stop offset="0.2" stop-color="#f6f2f9"/>
      <stop offset="0.222" stop-color="#fff"/>
      <stop offset="0.251" stop-color="#f9f5fb"/>
      <stop offset="0.3" stop-color="#e9dbf1"/>
      <stop offset="0.359" stop-color="#d1b4e3"/>
      <stop offset="0.426" stop-color="#b294d5"/>
      <stop offset="0.495" stop-color="#9b7ccb"/>
      <stop offset="0.558" stop-color="#8d6ec5"/>
      <stop offset="0.611" stop-color="#8969c3"/>
      <stop offset="0.755" stop-color="#9371c5"/>
      <stop offset="1" stop-color="#b086cc"/>
    </linearGradient>
    <radialGradient id="radial-gradient" cx="0.647" cy="0.581" r="0.461" gradientTransform="matrix(1.542, 0.063, -0.097, 0.998, 13.027, 1.402)" gradientUnits="objectBoundingBox">
      <stop offset="0" stop-color="#972a74"/>
      <stop offset="0.023" stop-color="#8c276b"/>
      <stop offset="0.114" stop-color="#671c4f"/>
      <stop offset="0.212" stop-color="#471336"/>
      <stop offset="0.318" stop-color="#2d0c22"/>
      <stop offset="0.434" stop-color="#180613"/>
      <stop offset="0.566" stop-color="#0a0308"/>
      <stop offset="0.727" stop-color="#020001"/>
      <stop offset="1"/>
    </radialGradient>
    <radialGradient id="radial-gradient-2" cx="0.385" cy="0.5" r="0.612" gradientTransform="matrix(-1, 0, 0, 1, 1945.95, 0)" gradientUnits="objectBoundingBox">
      <stop offset="0.02" stop-color="#364f87"/>
      <stop offset="0.429" stop-color="#1b2b69"/>
      <stop offset="1" stop-color="#12054e"/>
      <stop offset="1" stop-color="#10054d"/>
    </radialGradient>
    <radialGradient id="radial-gradient-3" cx="0.385" cy="0.5" r="0.612" gradientTransform="matrix(-1, 0, 0, 1, 2344.931, 0)" xlink:href="#radial-gradient-2"/>
    <linearGradient id="linear-gradient-3" x1="1.133" y1="0.502" x2="-0.329" y2="0.498" xlink:href="#linear-gradient-2"/>
    <radialGradient id="radial-gradient-4" cx="0.5" cy="0.5" r="0.223" gradientTransform="translate(2105.031 -0.328) scale(5.629 1.655)" xlink:href="#radial-gradient"/>
    <radialGradient id="radial-gradient-5" cx="0.385" cy="0.5" r="0.612" gradientTransform="matrix(-1, 0, 0, 1, 1949.697, 0)" xlink:href="#radial-gradient-2"/>
    <linearGradient id="linear-gradient-4" x1="1.246" y1="0.596" x2="-0.096" y2="0.421" xlink:href="#linear-gradient-2"/>
    <radialGradient id="radial-gradient-6" cx="0.53" cy="0.5" r="0.185" gradientTransform="matrix(3.357, 0.145, -1.04, 2.096, 627.99, 22.196)" xlink:href="#radial-gradient"/>
    <linearGradient id="linear-gradient-5" x1="0.547" y1="-0.114" x2="0.446" y2="1.222" xlink:href="#linear-gradient-2"/>
    <radialGradient id="radial-gradient-7" cx="0.55" cy="0.31" r="0.973" gradientTransform="translate(0.283 383.22) scale(0.486 0.5)" xlink:href="#radial-gradient"/>
    <radialGradient id="radial-gradient-8" cx="0.385" cy="0.5" r="0.612" gradientTransform="matrix(-1, 0, 0, 1, 1931.565, 0)" xlink:href="#radial-gradient-2"/>
    <linearGradient id="linear-gradient-6" x1="0.391" y1="-0.156" x2="0.618" y2="1.112" xlink:href="#linear-gradient-2"/>
    <radialGradient id="radial-gradient-9" cx="0.626" cy="0.118" r="0.562" gradientTransform="translate(0.148) scale(0.704 1)" xlink:href="#radial-gradient"/>
    <radialGradient id="radial-gradient-10" cx="0.385" cy="0.5" r="0.612" gradientTransform="matrix(-1, 0, 0, 1, 1939.451, 0)" xlink:href="#radial-gradient-2"/>
    <linearGradient id="linear-gradient-7" x1="1" y1="0.521" x2="-0.198" y2="0.476" xlink:href="#linear-gradient-2"/>
    <radialGradient id="radial-gradient-11" cx="0.673" cy="0.548" r="0.263" gradientTransform="translate(131.433 70.033) scale(3.944 1.8)" xlink:href="#radial-gradient"/>
    <radialGradient id="radial-gradient-12" cx="0.384" cy="0.534" r="0.695" gradientTransform="matrix(-1, 0, 0, 1, 1521.712, 0)" xlink:href="#radial-gradient-2"/>
    <linearGradient id="linear-gradient-8" x1="1.284" y1="0.479" x2="0.062" y2="0.519" xlink:href="#linear-gradient-2"/>
    <radialGradient id="radial-gradient-13" cx="-0.03" cy="0.376" r="0.683" gradientTransform="translate(-0.312) scale(1.625 1)" gradientUnits="objectBoundingBox">
      <stop offset="0.01" stop-color="#fff"/>
      <stop offset="0.162" stop-color="#e6d6f0"/>
      <stop offset="0.285" stop-color="#d6bde6"/>
      <stop offset="0.359" stop-color="#d1b4e3"/>
      <stop offset="0.477" stop-color="#c3a4db"/>
      <stop offset="0.706" stop-color="#a07bc9"/>
      <stop offset="0.717" stop-color="#9f79c8"/>
      <stop offset="0.811" stop-color="#a27bc8"/>
      <stop offset="0.898" stop-color="#ad84cb"/>
      <stop offset="0.909" stop-color="#b086cc"/>
      <stop offset="0.957" stop-color="#ad83cb"/>
      <stop offset="0.988" stop-color="#a47dc9"/>
      <stop offset="1" stop-color="#9f79c8"/>
    </radialGradient>
    <radialGradient id="radial-gradient-14" cx="0.348" cy="0.417" r="0.33" gradientTransform="translate(-0.312) scale(1.625 1)" xlink:href="#radial-gradient"/>
    <radialGradient id="radial-gradient-15" cx="0.385" cy="0.5" r="0.612" gradientTransform="matrix(-1, 0, 0, 1, 2282.152, 0)" xlink:href="#radial-gradient-2"/>
    <linearGradient id="linear-gradient-9" x1="0.36" y1="0.379" x2="0.707" y2="0.69" xlink:href="#linear-gradient-2"/>
    <radialGradient id="radial-gradient-16" cx="0.5" cy="0.501" r="0.524" gradientTransform="matrix(1.043, -0.064, 0.059, 0.873, 3.287, -6.748)" xlink:href="#radial-gradient"/>
    <linearGradient id="linear-gradient-10" x1="1.037" y1="0.462" x2="-0.035" y2="0.52" gradientTransform="matrix(1, 0, 0, 1, 0, 0)" xlink:href="#radial-gradient-2"/>
    <radialGradient id="radial-gradient-17" cx="0.98" cy="0.096" r="1.124" gradientTransform="translate(0.016) scale(0.967 1)" xlink:href="#radial-gradient-13"/>
    <linearGradient id="linear-gradient-11" x1="0.473" y1="0.44" x2="0.329" y2="1.044" gradientUnits="objectBoundingBox">
      <stop offset="0" stop-color="#fff"/>
      <stop offset="1" stop-color="#b086cc"/>
    </linearGradient>
    <radialGradient id="radial-gradient-18" cx="0.76" cy="0.225" r="1.229" gradientTransform="translate(0.265) scale(0.471 1)" xlink:href="#radial-gradient"/>
    <linearGradient id="linear-gradient-12" x1="0.083" y1="1.003" x2="0.589" y2="0.234" xlink:href="#linear-gradient-11"/>
    <radialGradient id="radial-gradient-19" cx="0.5" cy="0.5" r="0.558" gradientTransform="translate(0.09) scale(0.82 1)" xlink:href="#radial-gradient-2"/>
    <linearGradient id="linear-gradient-13" x1="0.859" y1="0.536" x2="0" y2="0.471" xlink:href="#linear-gradient-2"/>
    <radialGradient id="radial-gradient-20" cx="0.581" cy="0.462" r="0.19" gradientTransform="matrix(2.881, 0.075, -0.556, 2.55, 114.921, 158.29)" xlink:href="#radial-gradient"/>
    <radialGradient id="radial-gradient-21" cx="0.385" cy="0.5" r="0.612" gradientTransform="matrix(-1, 0, 0, 1, 1513.788, 0)" xlink:href="#radial-gradient-2"/>
    <radialGradient id="radial-gradient-22" cx="0.385" cy="0.5" r="0.612" gradientTransform="matrix(-1, 0, 0, 1, 1913.635, 0)" xlink:href="#radial-gradient-2"/>
    <linearGradient id="linear-gradient-14" x1="0.473" y1="-0.269" x2="0.516" y2="1.075" xlink:href="#linear-gradient-2"/>
    <radialGradient id="radial-gradient-23" cx="0.528" cy="0.264" r="1.39" gradientTransform="translate(0.298 292.281) scale(0.435 0.5)" xlink:href="#radial-gradient"/>
    <radialGradient id="radial-gradient-24" cx="1.199" cy="0.284" r="0.797" gradientTransform="translate(-0.438) scale(1.876 1)" xlink:href="#radial-gradient-2"/>
    <radialGradient id="radial-gradient-25" cx="0.807" cy="0.21" r="0.934" gradientTransform="translate(-0.045) scale(1.089 1)" gradientUnits="objectBoundingBox">
      <stop offset="0.01" stop-color="#fff"/>
      <stop offset="0.162" stop-color="#e6d6f0"/>
      <stop offset="0.285" stop-color="#d6bde6"/>
      <stop offset="0.359" stop-color="#d1b4e3"/>
      <stop offset="0.477" stop-color="#c3a4db"/>
      <stop offset="0.706" stop-color="#a07bc9"/>
      <stop offset="0.717" stop-color="#9f79c8"/>
      <stop offset="0.99" stop-color="#9f79c8"/>
      <stop offset="1" stop-color="#9f79c8"/>
    </radialGradient>
    <linearGradient id="linear-gradient-15" x1="1.121" y1="0.469" x2="0.118" y2="0.53" xlink:href="#linear-gradient-2"/>
    <radialGradient id="radial-gradient-26" cx="0.77" cy="0.429" r="0.231" gradientTransform="matrix(4.151, -0.014, 0.119, 2.04, 520.519, 30.803)" xlink:href="#radial-gradient"/>
    <linearGradient id="linear-gradient-16" x1="0.487" y1="-0.031" x2="0.51" y2="1.023" xlink:href="#linear-gradient-11"/>
  </defs>
  <g id="image" transform="translate(-212.909 -288.164)">
    <path id="Path_2079" data-name="Path 2079" d="M419.23,279.46c14.181-62.339,79-99.752,139.862-80.178q1.834.59,3.7,1.231c79.559,27.348,53.455,108.152,93.234,133.014S724.4,394.44,706.994,441.679,583.924,533.67,500.633,482.7C435.163,442.638,401.184,358.789,419.23,279.46Z" transform="translate(-114.253 216.133)" fill="none" stroke="#bfd9ff" stroke-miterlimit="10" stroke-width="1.109"/>
    <ellipse id="Ellipse_86" data-name="Ellipse 86" cx="51.59" cy="51.59" rx="51.59" ry="51.59" transform="translate(213.543 442.385) rotate(-80.912)" fill="none" stroke="#bfd9ff" stroke-miterlimit="10" stroke-width="1.109"/>
    <g id="Group_16400" data-name="Group 16400" transform="translate(250.329 291.768)">
      <path id="Path_2080" data-name="Path 2080" d="M620.988,455.6H440.553a5.593,5.593,0,0,1-5.108-7.872L563.471,160.564a5.591,5.591,0,0,1,5.108-3.315H749.014a5.594,5.594,0,0,1,5.11,7.872L626.1,452.284A5.6,5.6,0,0,1,620.988,455.6Z" transform="translate(-350.581 -110.481)" fill="url(#linear-gradient)"/>
      <path id="Path_2082" data-name="Path 2082" d="M639.743,323.1,697.973,192.5a4.79,4.79,0,0,0-4.375-6.74H530.214a15.359,15.359,0,0,0-14.026,9.1L457.073,327.453a4.79,4.79,0,0,0,4.375,6.74H622.659A18.7,18.7,0,0,0,639.743,323.1Z" transform="translate(-335.781 -91.039)" fill="none" stroke="#fff" stroke-miterlimit="10" stroke-width="1.109"/>
      <g id="Group_16453" data-name="Group 16453" transform="translate(268.671 20.421)">
        <path id="Path_2240" data-name="Path 2240" d="M610.158,238.273l44.825-100.542a3.687,3.687,0,0,0-3.368-5.188H525.844a11.822,11.822,0,0,0-10.8,7.009L469.54,241.62a3.688,3.688,0,0,0,3.368,5.188h124.1A14.4,14.4,0,0,0,610.158,238.273Z" transform="translate(-469.216 -127.94)" fill="#fff"/>
        <g id="Group_16450" data-name="Group 16450" transform="translate(27.772 0)">
          <g id="Group_16423" data-name="Group 16423" transform="translate(6.254)">
            <g id="Group_16418" data-name="Group 16418" transform="translate(0 0)">
              <ellipse id="Ellipse_94" data-name="Ellipse 94" cx="25.155" cy="18.903" rx="25.155" ry="18.903" transform="translate(0 32.954) rotate(-40.92)" fill="#e6f4ff"/>
              <g id="Group_16417" data-name="Group 16417" transform="translate(3.693 3.619)">
                <ellipse id="Ellipse_95" data-name="Ellipse 95" cx="22.196" cy="16.679" rx="22.196" ry="16.679" transform="translate(0 29.077) rotate(-40.92)" fill="#94c3ff"/>
              </g>
            </g>
            <g id="Group_16422" data-name="Group 16422" transform="translate(13.208 15.791)">
              <g id="Group_16421" data-name="Group 16421">
                <g id="Group_16420" data-name="Group 16420" transform="translate(0 2.324)">
                  <g id="Group_16419" data-name="Group 16419">
                    <path id="Path_2212" data-name="Path 2212" d="M521.837,166.427s-10.109,1.671-14.426,3.373a7.809,7.809,0,0,0-4.1,5.275l-.01.021c2.35,4.109,6.824,6.72,12.664,6.72,7.545,0,15.307-4.354,20.272-10.677C533.536,167.169,521.837,166.427,521.837,166.427Z" transform="translate(-503.303 -149.93)" fill="#4361c4"/>
                    <path id="Path_2213" data-name="Path 2213" d="M516.561,163.27l-1.743,7.365a1.4,1.4,0,0,0,1.112,1.834,8.279,8.279,0,0,0,5.858-1.279,2.611,2.611,0,0,0,1.22-1.92c.245-3.437.943-10.484.943-10.484Z" transform="translate(-501.585 -151.076)" fill="#ff8d68"/>
                    <path id="Path_2214" data-name="Path 2214" d="M515.475,156.47s-4.748,9.614-3.824,12.2c1.068,1.763,10.615-2.2,12.179-4.773s5.155-7.246,2.357-10.165S519.068,151.8,515.475,156.47Z" transform="translate(-502.069 -152.081)" fill="#ff8d68"/>
                  </g>
                </g>
                <path id="Path_2215" data-name="Path 2215" d="M514.976,156.773a5.294,5.294,0,0,1,2.038-5.4c2.875-2,6.563-1.6,7.89.4a21.971,21.971,0,0,1,1.441,2.3,2.7,2.7,0,0,1,1.885,1.8c.47,1.5-2.521,5.3-3.737,6.4s-.965,1.129-.965,1.129l-.407-.529a23.906,23.906,0,0,1,.819-4.6c.159-.9-.869-2.2-2.684-2.5S518.773,157.168,514.976,156.773Z" transform="translate(-501.57 -150.06)" fill="#7e3636"/>
                <path id="Path_2216" data-name="Path 2216" d="M523.138,159.825a1.681,1.681,0,0,1,1.835-.88c1.167.39-1.164,4.064-2.4,3.809C521.391,162.451,523.138,159.825,523.138,159.825Z" transform="translate(-500.475 -148.737)" fill="#ff8d68"/>
                <path id="Path_2217" data-name="Path 2217" d="M523.272,166.69s-2.538,2.8-5.034,3.6c-.438.133-1.088,1-1.088,1l-.455-1.2a2.537,2.537,0,0,1-1.217-2.735l-.344.267-.917,2.268a13.966,13.966,0,0,0-.642,2.935l2.3-1.267a4.479,4.479,0,0,0,2.515.067s.475,1.6.9,1.734,3.9-3.135,4.425-4.269a4.26,4.26,0,0,0,.451-2.268Z" transform="translate(-501.763 -147.566)" fill="#fff"/>
              </g>
            </g>
          </g>
          <g id="Group_16424" data-name="Group 16424" transform="translate(78.966 17.182)">
            <path id="Path_2218" data-name="Path 2218" d="M592.274,173.524H543.885c-1.485,0-2.249-1.2-1.709-2.689l6.849-18.818a4.251,4.251,0,0,1,3.666-2.687H601.08c1.485,0,2.25,1.2,1.71,2.687l-6.849,18.818A4.252,4.252,0,0,1,592.274,173.524Z" transform="translate(-542.003 -149.33)" fill="#a1c2ff" opacity="0.39"/>
            <path id="Path_2219" data-name="Path 2219" d="M593.583,157H551.916l.734-2.016h41.667Z" transform="translate(-540.517 -148.483)" fill="#94c3ff"/>
            <path id="Path_2220" data-name="Path 2220" d="M575.517,161.086h-25.09l.734-2.016h25.09Z" transform="translate(-540.74 -147.87)" fill="#94c3ff"/>
            <path id="Path_2221" data-name="Path 2221" d="M555.576,164.788h-6.5l.734-2.016h6.5Z" transform="translate(-540.942 -147.315)" fill="#94c3ff"/>
          </g>
          <g id="Group_16438" data-name="Group 16438" transform="translate(66.96 45.664)">
            <path id="Path_2218-2" data-name="Path 2218" d="M592.274,173.524H543.885c-1.485,0-2.249-1.2-1.709-2.689l6.849-18.818a4.251,4.251,0,0,1,3.666-2.687H601.08c1.485,0,2.25,1.2,1.71,2.687l-6.849,18.818A4.252,4.252,0,0,1,592.274,173.524Z" transform="translate(-542.003 -149.33)" fill="#a1c2ff" opacity="0.39"/>
            <path id="Path_2219-2" data-name="Path 2219" d="M593.583,157H551.916l.734-2.016h41.667Z" transform="translate(-540.517 -148.483)" fill="#94c3ff"/>
            <path id="Path_2220-2" data-name="Path 2220" d="M575.517,161.086h-25.09l.734-2.016h25.09Z" transform="translate(-540.74 -147.87)" fill="#94c3ff"/>
            <path id="Path_2221-2" data-name="Path 2221" d="M555.576,164.788h-6.5l.734-2.016h6.5Z" transform="translate(-540.942 -147.315)" fill="#94c3ff"/>
          </g>
          <g id="Group_16439" data-name="Group 16439" transform="translate(0 74.146)">
            <path id="Path_2218-3" data-name="Path 2218" d="M638.838,185.863H545.629c-2.86,0-4.333-1.816-3.292-4.06l13.193-28.415c1.041-2.242,4.2-4.058,7.062-4.058H655.8c2.86,0,4.335,1.816,3.294,4.058L645.9,181.8C644.861,184.046,641.7,185.863,638.838,185.863Z" transform="translate(-542.003 -149.33)" fill="#a1c2ff" opacity="0.39"/>
            <path id="Path_2219-3" data-name="Path 2219" d="M593.583,157H551.916l.734-2.016h41.667Z" transform="translate(-484.051 -144.869)" fill="#94c3ff"/>
            <path id="Path_2220-3" data-name="Path 2220" d="M575.517,161.086h-25.09l.734-2.016h25.09Z" transform="translate(-525.173 -141.638)" fill="#94c3ff"/>
            <path id="Path_2221-3" data-name="Path 2221" d="M555.576,164.788h-6.5l.734-2.016h6.5Z" transform="translate(-540.942 -138.715)" fill="#94c3ff"/>
          </g>
          <g id="Group_16451" data-name="Group 16451" transform="translate(18.006 15.037)">
            <path id="Path_2218-4" data-name="Path 2218" d="M592.274,173.524H543.885c-1.485,0-2.249-1.2-1.709-2.689l6.849-18.818a4.251,4.251,0,0,1,3.666-2.687H601.08c1.485,0,2.25,1.2,1.71,2.687l-6.849,18.818A4.252,4.252,0,0,1,592.274,173.524Z" transform="translate(-542.003 -149.33)" fill="#a1c2ff" opacity="0.39"/>
            <path id="Path_2219-4" data-name="Path 2219" d="M593.583,157H551.916l.734-2.016h41.667Z" transform="translate(-540.517 -148.483)" fill="#94c3ff"/>
            <path id="Path_2220-4" data-name="Path 2220" d="M575.517,161.086h-25.09l.734-2.016h25.09Z" transform="translate(-540.74 -147.87)" fill="#94c3ff"/>
            <path id="Path_2221-4" data-name="Path 2221" d="M555.576,164.788h-6.5l.734-2.016h6.5Z" transform="translate(-540.942 -147.315)" fill="#94c3ff"/>
          </g>
          <g id="Group_16452" data-name="Group 16452" transform="translate(6 43.52)">
            <path id="Path_2218-5" data-name="Path 2218" d="M592.274,173.524H543.885c-1.485,0-2.249-1.2-1.709-2.689l6.849-18.818a4.251,4.251,0,0,1,3.666-2.687H601.08c1.485,0,2.25,1.2,1.71,2.687l-6.849,18.818A4.252,4.252,0,0,1,592.274,173.524Z" transform="translate(-542.003 -149.33)" fill="#a1c2ff" opacity="0.39"/>
            <path id="Path_2219-5" data-name="Path 2219" d="M593.583,157H551.916l.734-2.016h41.667Z" transform="translate(-540.517 -148.483)" fill="#94c3ff"/>
            <path id="Path_2220-5" data-name="Path 2220" d="M575.517,161.086h-25.09l.734-2.016h25.09Z" transform="translate(-540.74 -147.87)" fill="#94c3ff"/>
            <path id="Path_2221-5" data-name="Path 2221" d="M555.576,164.788h-6.5l.734-2.016h6.5Z" transform="translate(-540.942 -147.315)" fill="#94c3ff"/>
          </g>
        </g>
      </g>
      <path id="Path_2194" data-name="Path 2194" d="M652.307,269.892l58.23-130.609a4.79,4.79,0,0,0-4.375-6.74H542.779a15.357,15.357,0,0,0-14.028,9.1L469.636,274.24a4.79,4.79,0,0,0,4.375,6.74H635.223A18.7,18.7,0,0,0,652.307,269.892Z" transform="translate(-469.216 -85.036)" fill="#fff"/>
      <g id="Group_16437" data-name="Group 16437" transform="translate(26.983 41.527)">
        <g id="Group_16423-2" data-name="Group 16423" transform="translate(17.218 0)">
          <g id="Group_16418-2" data-name="Group 16418">
            <ellipse id="Ellipse_94-2" data-name="Ellipse 94" cx="32.678" cy="24.555" rx="32.678" ry="24.555" transform="translate(0 42.809) rotate(-40.92)" fill="#e6f4ff"/>
            <g id="Group_16417-2" data-name="Group 16417" transform="translate(4.797 4.701)">
              <ellipse id="Ellipse_95-2" data-name="Ellipse 95" cx="28.834" cy="21.667" rx="28.834" ry="21.667" transform="translate(0 37.772) rotate(-40.92)" fill="#94c3ff"/>
            </g>
          </g>
          <g id="Group_16422-2" data-name="Group 16422" transform="translate(17.158 20.513)">
            <g id="Group_16421-2" data-name="Group 16421">
              <g id="Group_16420-2" data-name="Group 16420" transform="translate(0 3.019)">
                <g id="Group_16419-2" data-name="Group 16419">
                  <path id="Path_2212-2" data-name="Path 2212" d="M527.379,166.427s-13.132,2.171-18.74,4.381c-3.808,2.293-4.413,4.116-5.323,6.852l-.013.027c3.053,5.337,8.864,8.73,16.452,8.73,9.8,0,19.884-5.656,26.335-13.87C542.577,167.391,527.379,166.427,527.379,166.427Z" transform="translate(-503.303 -144.997)" fill="#4361c4"/>
                  <path id="Path_2213-2" data-name="Path 2213" d="M517.1,164.61l-2.265,9.568a1.815,1.815,0,0,0,1.445,2.383,10.755,10.755,0,0,0,7.61-1.661,3.392,3.392,0,0,0,1.585-2.495c.318-4.465,1.225-13.619,1.225-13.619Z" transform="translate(-497.643 -148.77)" fill="#ff8d68"/>
                  <path id="Path_2214-2" data-name="Path 2214" d="M516.654,157.783s-6.168,12.488-4.967,15.844c1.388,2.29,13.79-2.853,15.821-6.2s6.7-9.413,3.062-13.205S521.321,151.718,516.654,157.783Z" transform="translate(-499.239 -152.081)" fill="#ff8d68"/>
                </g>
              </g>
              <path id="Path_2215-2" data-name="Path 2215" d="M515.01,158.781a6.877,6.877,0,0,1,2.647-7.012c3.735-2.6,8.525-2.079,10.249.52a28.524,28.524,0,0,1,1.872,2.989,3.514,3.514,0,0,1,2.448,2.339c.611,1.949-3.275,6.888-4.855,8.318s-1.253,1.467-1.253,1.467l-.529-.687a31.054,31.054,0,0,1,1.064-5.978c.206-1.17-1.129-2.859-3.487-3.249S519.942,159.293,515.01,158.781Z" transform="translate(-497.594 -150.06)" fill="#7e3636"/>
              <path id="Path_2216-2" data-name="Path 2216" d="M523.43,160.106a2.184,2.184,0,0,1,2.384-1.143c1.516.506-1.512,5.279-3.118,4.948C521.161,163.518,523.43,160.106,523.43,160.106Z" transform="translate(-493.989 -145.703)" fill="#ff8d68"/>
              <path id="Path_2217-2" data-name="Path 2217" d="M526.173,166.69s-3.3,3.639-6.54,4.679c-.569.173-1.413,1.3-1.413,1.3l-.592-1.56s-2.227-1.3-1.58-3.552l-.447.347-1.191,2.946a18.145,18.145,0,0,0-.833,3.812l2.985-1.646a5.818,5.818,0,0,0,3.267.087s.617,2.079,1.174,2.253,5.066-4.072,5.748-5.545a5.534,5.534,0,0,0,.585-2.946Z" transform="translate(-498.231 -141.848)" fill="#fff"/>
            </g>
          </g>
        </g>
        <g id="Group_16424-2" data-name="Group 16424" transform="translate(92.188 19.423)">
          <path id="Path_2218-6" data-name="Path 2218" d="M607.307,180.759H544.448c-1.929,0-2.922-1.563-2.22-3.493l8.9-24.445a5.523,5.523,0,0,1,4.762-3.491h62.859c1.929,0,2.923,1.563,2.221,3.491l-8.9,24.445A5.524,5.524,0,0,1,607.307,180.759Z" transform="translate(-542.003 -149.33)" fill="#a1c2ff" opacity="0.39"/>
          <path id="Path_2219-6" data-name="Path 2219" d="M606.044,157.6H551.916l.953-2.619H607Z" transform="translate(-537.108 -146.54)" fill="#94c3ff"/>
          <path id="Path_2220-6" data-name="Path 2220" d="M583.02,161.689H550.427l.953-2.619h32.594Z" transform="translate(-537.843 -144.52)" fill="#94c3ff"/>
          <path id="Path_2221-6" data-name="Path 2221" d="M557.519,165.391h-8.439l.953-2.619h8.439Z" transform="translate(-538.509 -142.692)" fill="#94c3ff"/>
        </g>
        <g id="Group_16438-2" data-name="Group 16438" transform="translate(79.19 55.423)">
          <path id="Path_2218-7" data-name="Path 2218" d="M607.307,180.759H544.448c-1.929,0-2.922-1.563-2.22-3.493l8.9-24.445a5.523,5.523,0,0,1,4.762-3.491h62.859c1.929,0,2.923,1.563,2.221,3.491l-8.9,24.445A5.524,5.524,0,0,1,607.307,180.759Z" transform="translate(-542.003 -149.33)" fill="#a1c2ff" opacity="0.39"/>
          <path id="Path_2219-7" data-name="Path 2219" d="M606.044,157.6H551.916l.953-2.619H607Z" transform="translate(-537.108 -146.54)" fill="#94c3ff"/>
          <path id="Path_2220-7" data-name="Path 2220" d="M583.02,161.689H550.427l.953-2.619h32.594Z" transform="translate(-537.843 -144.52)" fill="#94c3ff"/>
          <path id="Path_2221-7" data-name="Path 2221" d="M557.519,165.391h-8.439l.953-2.619h8.439Z" transform="translate(-538.509 -142.692)" fill="#94c3ff"/>
        </g>
        <g id="Group_16439-2" data-name="Group 16439" transform="translate(0 92.423)">
          <path id="Path_2218-8" data-name="Path 2218" d="M667.8,196.788H546.713c-3.715,0-5.628-2.359-4.276-5.274L559.576,154.6c1.353-2.912,5.459-5.272,9.173-5.272H689.833c3.715,0,5.631,2.359,4.279,5.272l-17.139,36.912C675.62,194.428,671.511,196.788,667.8,196.788Z" transform="translate(-542.003 -149.33)" fill="#a1c2ff" opacity="0.39"/>
          <path id="Path_2219-8" data-name="Path 2219" d="M606.044,157.6H551.916l.953-2.619H607Z" transform="translate(-463.756 -141.845)" fill="#94c3ff"/>
          <path id="Path_2220-8" data-name="Path 2220" d="M583.02,161.689H550.427l.953-2.619h32.594Z" transform="translate(-517.622 -136.425)" fill="#94c3ff"/>
          <path id="Path_2221-8" data-name="Path 2221" d="M557.519,165.391h-8.439l.953-2.619h8.439Z" transform="translate(-538.509 -131.52)" fill="#94c3ff"/>
        </g>
      </g>
      <path id="Path_2083" data-name="Path 2083" d="M575.726,239.978h7.459L563.14,279.137h-121.2l4.892-9.557" transform="translate(-345.819 -54.058)" fill="none" stroke="#a1c2ff" stroke-miterlimit="10" stroke-width="0.554" opacity="0.39"/>
      <g id="Group_16374" data-name="Group 16374" transform="translate(188.732 176.38)">
        <path id="Path_2113" data-name="Path 2113" d="M707.356,265.8l14-30.547c1.16-.751-.747-1.6-3.594-1.6l-126.909,1.6c-4.979,0-9.494.846-11.522,2.16l-26.568,29.419c-1.16.752.746,1.6,3.594,1.6h142.18C704.6,268.435,704.886,267.4,707.356,265.8Z" transform="translate(-552.417 -233.658)" fill="#fff"/>
        <path id="Path_2209" data-name="Path 2209" d="M594.533,268.434l6.323-33.37H599.6l-36.617.193a3.465,3.465,0,0,0-3.167,2.16l-7.3,29.419a1.133,1.133,0,0,0,.988,1.6h41.033Z" transform="translate(-552.417 -233.658)" fill="#abc9f6"/>
        <path id="Icon_material-search" data-name="Icon material-search" d="M18.715,17.009h-.9L17.5,16.7a7.4,7.4,0,1,0-.8.8l.307.318v.9L22.7,24.39,24.39,22.7Zm-6.823,0a5.118,5.118,0,1,1,5.118-5.118A5.111,5.111,0,0,1,11.892,17.009Z" transform="translate(9.775 3.646)" fill="#fff"/>
        <path id="Path_2210" data-name="Path 2210" d="M4.42,12.716a7.644,7.644,0,0,1-2.541-.425A4.67,4.67,0,0,1,0,11.169L.493,10.2A4.72,4.72,0,0,0,2.21,11.246a6.274,6.274,0,0,0,2.21.4,4.04,4.04,0,0,0,2.4-.587,1.807,1.807,0,0,0,.8-1.521A1.522,1.522,0,0,0,7.183,8.4,2.926,2.926,0,0,0,6.12,7.744a17.183,17.183,0,0,0-1.751-.5,18.4,18.4,0,0,1-2.142-.655A3.517,3.517,0,0,1,.859,5.627,2.554,2.554,0,0,1,.289,3.876,2.968,2.968,0,0,1,.765,2.235,3.26,3.26,0,0,1,2.227,1.054,5.984,5.984,0,0,1,4.675.612a7.207,7.207,0,0,1,2,.281,5.74,5.74,0,0,1,1.691.773l-.425,1a5.849,5.849,0,0,0-1.6-.74,5.964,5.964,0,0,0-1.666-.246,3.846,3.846,0,0,0-2.355.6,1.872,1.872,0,0,0-.79,1.556A1.551,1.551,0,0,0,1.964,4.99a2.84,2.84,0,0,0,1.088.663q.654.23,1.759.5a17.7,17.7,0,0,1,2.117.637A3.474,3.474,0,0,1,8.3,7.744a2.519,2.519,0,0,1,.561,1.725,2.93,2.93,0,0,1-.484,1.641,3.257,3.257,0,0,1-1.488,1.173A6.213,6.213,0,0,1,4.42,12.716Zm14.705-4.2h-7.48a3.2,3.2,0,0,0,1.071,2.253,3.555,3.555,0,0,0,2.448.858,3.857,3.857,0,0,0,1.53-.3,3.342,3.342,0,0,0,1.207-.876l.68.782a3.829,3.829,0,0,1-1.487,1.088,5.031,5.031,0,0,1-1.964.374,4.964,4.964,0,0,1-2.439-.587,4.228,4.228,0,0,1-1.658-1.623,4.629,4.629,0,0,1-.595-2.346A4.792,4.792,0,0,1,11.008,5.8a4.124,4.124,0,0,1,1.564-1.615A4.367,4.367,0,0,1,14.807,3.6a4.321,4.321,0,0,1,2.227.578,4.1,4.1,0,0,1,1.547,1.606,4.837,4.837,0,0,1,.561,2.354ZM14.807,4.641a3.041,3.041,0,0,0-2.167.825,3.238,3.238,0,0,0-.995,2.15h6.341a3.238,3.238,0,0,0-.994-2.15A3.063,3.063,0,0,0,14.807,4.641ZM24.48,3.6a3.785,3.785,0,0,1,2.686.875A3.383,3.383,0,0,1,28.1,7.072v5.542H26.945V11.22a2.768,2.768,0,0,1-1.2,1.088,4.2,4.2,0,0,1-1.878.391,3.678,3.678,0,0,1-2.38-.714A2.306,2.306,0,0,1,20.6,10.1a2.286,2.286,0,0,1,.825-1.836,4.035,4.035,0,0,1,2.626-.7h2.839V7.021a2.291,2.291,0,0,0-.646-1.76,2.668,2.668,0,0,0-1.887-.6,4.8,4.8,0,0,0-1.632.28,4.113,4.113,0,0,0-1.343.773l-.544-.9a4.824,4.824,0,0,1,1.632-.892A6.354,6.354,0,0,1,24.48,3.6Zm-.425,8.143a3.181,3.181,0,0,0,1.751-.468,2.792,2.792,0,0,0,1.088-1.351V8.466H24.089q-2.3,0-2.3,1.6a1.462,1.462,0,0,0,.6,1.233A2.709,2.709,0,0,0,24.055,11.747Zm8.483-6.324A2.925,2.925,0,0,1,33.8,4.063,4.3,4.3,0,0,1,35.887,3.6V4.777L35.6,4.76a2.856,2.856,0,0,0-2.21.867,3.454,3.454,0,0,0-.8,2.431v4.556H31.382V3.672h1.156ZM41.684,12.7a4.819,4.819,0,0,1-2.371-.578A4.184,4.184,0,0,1,37.672,10.5a4.675,4.675,0,0,1-.595-2.355A4.629,4.629,0,0,1,37.672,5.8a4.2,4.2,0,0,1,1.641-1.615A4.819,4.819,0,0,1,41.684,3.6a4.592,4.592,0,0,1,2.065.45,3.43,3.43,0,0,1,1.437,1.318l-.9.612a2.819,2.819,0,0,0-1.122-.995,3.33,3.33,0,0,0-1.479-.332,3.5,3.5,0,0,0-1.743.433,3.046,3.046,0,0,0-1.207,1.233A3.753,3.753,0,0,0,38.3,8.143a3.74,3.74,0,0,0,.433,1.828,3.06,3.06,0,0,0,1.207,1.224,3.5,3.5,0,0,0,1.743.434,3.4,3.4,0,0,0,1.479-.323,2.755,2.755,0,0,0,1.122-.986l.9.612a3.418,3.418,0,0,1-1.445,1.318A4.607,4.607,0,0,1,41.684,12.7ZM51.969,3.6a3.654,3.654,0,0,1,2.677.977,3.818,3.818,0,0,1,.994,2.848v5.185H54.434V7.548a2.964,2.964,0,0,0-.7-2.125,2.618,2.618,0,0,0-1.989-.731,3.055,3.055,0,0,0-2.287.859,3.242,3.242,0,0,0-.841,2.372v4.692H47.413V0H48.62V5.236a3.272,3.272,0,0,1,1.36-1.207A4.463,4.463,0,0,1,51.969,3.6Zm12.937,9.112a4.094,4.094,0,0,1-1.887-.442,3.678,3.678,0,0,1-1.411-1.258l.748-.85a2.981,2.981,0,0,0,2.567,1.462q2.21,0,2.21-2.618V1.8H62.781V.714h5.593V8.959a4,4,0,0,1-.876,2.813A3.366,3.366,0,0,1,64.906,12.716ZM75.548,12.7a4.647,4.647,0,0,1-2.329-.587,4.277,4.277,0,0,1-1.632-1.623,4.629,4.629,0,0,1-.6-2.346,4.629,4.629,0,0,1,.6-2.346,4.216,4.216,0,0,1,1.632-1.615,4.981,4.981,0,0,1,4.658,0A4.157,4.157,0,0,1,79.5,5.8a4.681,4.681,0,0,1,.587,2.346,4.681,4.681,0,0,1-.587,2.346,4.217,4.217,0,0,1-1.623,1.623A4.647,4.647,0,0,1,75.548,12.7Zm0-1.071a3.374,3.374,0,0,0,1.709-.434,3.022,3.022,0,0,0,1.181-1.233,3.813,3.813,0,0,0,.425-1.819,3.813,3.813,0,0,0-.425-1.819,3.022,3.022,0,0,0-1.181-1.233,3.584,3.584,0,0,0-3.417,0,3.079,3.079,0,0,0-1.19,1.233,3.753,3.753,0,0,0-.434,1.819,3.753,3.753,0,0,0,.434,1.819,3.079,3.079,0,0,0,1.19,1.233A3.374,3.374,0,0,0,75.548,11.628ZM87.159,3.6a4.592,4.592,0,0,1,2.278.569,4.073,4.073,0,0,1,1.6,1.607,4.771,4.771,0,0,1,.578,2.363,4.771,4.771,0,0,1-.578,2.363,4.131,4.131,0,0,1-1.6,1.615,4.539,4.539,0,0,1-2.278.578,4.213,4.213,0,0,1-2.015-.476,3.681,3.681,0,0,1-1.437-1.377v1.768H82.552V0h1.207V5.372A3.721,3.721,0,0,1,85.2,4.054,4.228,4.228,0,0,1,87.159,3.6Zm-.085,8.024a3.388,3.388,0,0,0,1.7-.434,3.062,3.062,0,0,0,1.2-1.233,3.753,3.753,0,0,0,.434-1.819,3.753,3.753,0,0,0-.434-1.819,3.062,3.062,0,0,0-1.2-1.233,3.567,3.567,0,0,0-3.409,0,3.079,3.079,0,0,0-1.19,1.233,3.753,3.753,0,0,0-.434,1.819,3.753,3.753,0,0,0,.434,1.819,3.079,3.079,0,0,0,1.19,1.233A3.374,3.374,0,0,0,87.074,11.628Z" transform="matrix(1, 0.017, -0.017, 1, 52.953, 9.976)" fill="#0e0d21" opacity="0.28"/>
      </g>
      <g id="Group_16375" data-name="Group 16375" transform="translate(208.491 265.767)">
        <path id="Path_2120" data-name="Path 2120" d="M599.9,355.833,628.9,290.8a2.384,2.384,0,0,0-2.178-3.356H545.371a7.649,7.649,0,0,0-6.985,4.533L508.954,358a2.386,2.386,0,0,0,2.178,3.356H591.4A9.315,9.315,0,0,0,599.9,355.833Z" transform="translate(-508.745 -287.449)" fill="#fff"/>
      </g>
      <g id="Group_16383" data-name="Group 16383" transform="translate(118.296 254.541)">
        <path id="Path_2130" data-name="Path 2130" d="M548.079,306.495h-89.6c-2.748,0-4.077-2.23-2.965-4.979l6.368-15.762a8.288,8.288,0,0,1,6.989-4.979h89.6c2.748,0,4.077,2.229,2.965,4.979l-6.368,15.762A8.291,8.291,0,0,1,548.079,306.495Z" transform="translate(-455.121 -280.775)" fill="#052e6d"/>
        <path id="Path_2131" data-name="Path 2131" d="M541.255,290.674H464.1l1.508-3.733h77.155Z" transform="translate(-448.997 -276.57)" fill="#fff"/>
      </g>
      <g id="Group_16388" data-name="Group 16388" transform="translate(111.122 15.69)">
        <g id="Group_16384" data-name="Group 16384" transform="translate(23.982)">
          <path id="Path_2132" data-name="Path 2132" d="M468.8,143.744H465.77c-.537,0-.8-.434-.579-.971l1.224-3.031a1.617,1.617,0,0,1,1.364-.971h3.029c.537,0,.8.434.579.971l-1.224,3.031A1.612,1.612,0,0,1,468.8,143.744Z" transform="translate(-465.114 -138.772)" fill="#f9fbfc"/>
          <path id="Path_2133" data-name="Path 2133" d="M487.278,143.744h-3.031c-.536,0-.8-.434-.579-.971l1.224-3.031a1.617,1.617,0,0,1,1.362-.971h3.031c.537,0,.8.434.579.971l-1.225,3.031A1.617,1.617,0,0,1,487.278,143.744Z" transform="translate(-452.513 -138.772)" fill="#bfd9ff"/>
        </g>
        <g id="Group_16385" data-name="Group 16385" transform="translate(18.206 14.295)">
          <path id="Path_2134" data-name="Path 2134" d="M465.367,152.245h-3.031c-.536,0-.8-.436-.579-.972l1.224-3.029a1.619,1.619,0,0,1,1.364-.972h3.029c.537,0,.8.436.579.972l-1.223,3.029A1.619,1.619,0,0,1,465.367,152.245Z" transform="translate(-461.68 -147.271)" fill="#bfd9ff"/>
          <path id="Path_2135" data-name="Path 2135" d="M474.6,152.245h-3.029c-.537,0-.8-.436-.579-.972l1.223-3.029a1.619,1.619,0,0,1,1.364-.972h3.031c.537,0,.8.436.579.972l-1.224,3.029A1.619,1.619,0,0,1,474.6,152.245Z" transform="translate(-455.379 -147.271)" fill="#f9fbfc"/>
          <path id="Path_2136" data-name="Path 2136" d="M483.844,152.245h-3.031c-.537,0-.8-.436-.579-.972l1.225-3.029a1.619,1.619,0,0,1,1.364-.972h3.029c.537,0,.8.436.579.972l-1.224,3.029A1.618,1.618,0,0,1,483.844,152.245Z" transform="translate(-449.079 -147.271)" fill="#f9fbfc"/>
          <path id="Path_2137" data-name="Path 2137" d="M491.233,152.245H488.2c-.537,0-.8-.436-.579-.972l1.224-3.029a1.614,1.614,0,0,1,1.362-.972h3.031c.536,0,.8.436.579.972l-1.225,3.029A1.618,1.618,0,0,1,491.233,152.245Z" transform="translate(-444.038 -147.271)" fill="#f9fbfc"/>
        </g>
        <g id="Group_16386" data-name="Group 16386" transform="translate(0 28.593)">
          <path id="Path_2138" data-name="Path 2138" d="M461.933,160.743H458.9c-.535,0-.8-.436-.579-.971l1.224-3.031a1.617,1.617,0,0,1,1.364-.971h3.029c.536,0,.8.434.579.971l-1.223,3.031A1.62,1.62,0,0,1,461.933,160.743Z" transform="translate(-445.816 -155.771)" fill="#f9fbfc"/>
          <path id="Path_2139" data-name="Path 2139" d="M454.541,160.743h-3.029c-.537,0-.8-.436-.579-.971l1.223-3.031a1.617,1.617,0,0,1,1.364-.971h3.031c.537,0,.8.434.579.971l-1.224,3.031A1.62,1.62,0,0,1,454.541,160.743Z" transform="translate(-450.856 -155.771)" fill="#f9fbfc"/>
          <path id="Path_2140" data-name="Path 2140" d="M471.17,160.743h-3.029c-.537,0-.8-.436-.579-.971l1.224-3.031a1.612,1.612,0,0,1,1.362-.971h3.031c.537,0,.8.434.579.971l-1.224,3.031A1.62,1.62,0,0,1,471.17,160.743Z" transform="translate(-439.515 -155.771)" fill="#f9fbfc"/>
          <path id="Path_2141" data-name="Path 2141" d="M480.41,160.743h-3.031c-.537,0-.8-.436-.579-.971l1.224-3.031a1.617,1.617,0,0,1,1.364-.971h3.029c.537,0,.8.434.579.971l-1.224,3.031A1.618,1.618,0,0,1,480.41,160.743Z" transform="translate(-433.215 -155.771)" fill="#bfd9ff"/>
        </g>
        <g id="Group_16387" data-name="Group 16387" transform="translate(6.655 42.888)">
          <path id="Path_2142" data-name="Path 2142" d="M458.5,169.242h-3.029c-.537,0-.8-.434-.58-.971l1.224-3.031a1.617,1.617,0,0,1,1.364-.971h3.029c.537,0,.8.434.58.971l-1.225,3.031A1.617,1.617,0,0,1,458.5,169.242Z" transform="translate(-454.813 -164.27)" fill="#f9fbfc"/>
        </g>
      </g>
      <g id="Group_16393" data-name="Group 16393" transform="translate(101.026 294.296)">
        <g id="Group_16389" data-name="Group 16389" transform="translate(33.804)">
          <path id="Path_2143" data-name="Path 2143" d="M470.147,311.419h-4.272c-.755,0-1.12-.612-.816-1.369l1.726-4.271a2.282,2.282,0,0,1,1.923-1.369h4.271c.757,0,1.122.614.816,1.369l-1.726,4.271A2.276,2.276,0,0,1,470.147,311.419Z" transform="translate(-464.951 -304.41)" fill="#abc9f6"/>
          <path id="Path_2144" data-name="Path 2144" d="M496.188,311.419h-4.271c-.755,0-1.122-.612-.816-1.369l1.726-4.271a2.279,2.279,0,0,1,1.923-1.369h4.271c.755,0,1.12.614.816,1.369l-1.726,4.271A2.279,2.279,0,0,1,496.188,311.419Z" transform="translate(-447.19 -304.41)" fill="#abc9f6"/>
        </g>
        <g id="Group_16390" data-name="Group 16390" transform="translate(25.663 20.151)">
          <path id="Path_2145" data-name="Path 2145" d="M465.3,323.4h-4.271c-.755,0-1.12-.614-.816-1.369l1.726-4.271a2.278,2.278,0,0,1,1.923-1.369h4.271c.755,0,1.122.612.816,1.369l-1.726,4.271A2.28,2.28,0,0,1,465.3,323.4Z" transform="translate(-460.111 -316.39)" fill="#bfd9ff"/>
          <path id="Path_2146" data-name="Path 2146" d="M478.327,323.4h-4.271c-.757,0-1.122-.614-.816-1.369l1.726-4.271a2.276,2.276,0,0,1,1.921-1.369h4.271c.757,0,1.122.612.816,1.369l-1.726,4.271A2.279,2.279,0,0,1,478.327,323.4Z" transform="translate(-451.23 -316.39)" fill="#ff8d02"/>
          <path id="Path_2147" data-name="Path 2147" d="M491.348,323.4h-4.271c-.757,0-1.122-.614-.816-1.369l1.726-4.271a2.276,2.276,0,0,1,1.921-1.369h4.272c.755,0,1.12.612.816,1.369l-1.726,4.271A2.282,2.282,0,0,1,491.348,323.4Z" transform="translate(-442.35 -316.39)" fill="#bfd9ff"/>
          <path id="Path_2148" data-name="Path 2148" d="M501.765,323.4h-4.271c-.755,0-1.122-.614-.816-1.369l1.726-4.271a2.276,2.276,0,0,1,1.921-1.369H504.6c.755,0,1.12.612.816,1.369l-1.726,4.271A2.282,2.282,0,0,1,501.765,323.4Z" transform="translate(-435.245 -316.39)" fill="#bfd9ff"/>
        </g>
        <g id="Group_16391" data-name="Group 16391" transform="translate(0 40.301)">
          <path id="Path_2149" data-name="Path 2149" d="M460.465,335.377h-4.271c-.755,0-1.12-.612-.816-1.369l1.726-4.271a2.28,2.28,0,0,1,1.923-1.368H463.3c.755,0,1.122.612.816,1.368l-1.726,4.271A2.279,2.279,0,0,1,460.465,335.377Z" transform="translate(-437.75 -328.37)" fill="#bfd9ff"/>
          <path id="Path_2150" data-name="Path 2150" d="M450.048,335.377h-4.271c-.755,0-1.12-.612-.816-1.369l1.726-4.271a2.28,2.28,0,0,1,1.923-1.368h4.271c.755,0,1.122.612.816,1.368l-1.726,4.271A2.278,2.278,0,0,1,450.048,335.377Z" transform="translate(-444.854 -328.37)" fill="#bfd9ff"/>
          <path id="Path_2151" data-name="Path 2151" d="M473.487,335.377h-4.271c-.757,0-1.122-.612-.816-1.369l1.724-4.271a2.282,2.282,0,0,1,1.923-1.368h4.271c.757,0,1.122.612.816,1.368l-1.726,4.271A2.276,2.276,0,0,1,473.487,335.377Z" transform="translate(-428.869 -328.37)" fill="#bfd9ff"/>
          <path id="Path_2152" data-name="Path 2152" d="M486.508,335.377h-4.271c-.757,0-1.122-.612-.816-1.369l1.726-4.271a2.277,2.277,0,0,1,1.921-1.368h4.272c.755,0,1.12.612.816,1.368l-1.726,4.271A2.281,2.281,0,0,1,486.508,335.377Z" transform="translate(-419.988 -328.37)" fill="#ff8d02"/>
        </g>
        <g id="Group_16392" data-name="Group 16392" transform="translate(9.381 60.45)">
          <path id="Path_2153" data-name="Path 2153" d="M455.625,347.358h-4.271c-.755,0-1.12-.612-.816-1.369l1.726-4.271a2.278,2.278,0,0,1,1.923-1.369h4.271c.755,0,1.12.612.816,1.369l-1.726,4.271A2.279,2.279,0,0,1,455.625,347.358Z" transform="translate(-450.431 -340.349)" fill="#ff8d02"/>
        </g>
      </g>
      <g id="Group_16456" data-name="Group 16456" transform="translate(142.004)">
        <g transform="matrix(1, 0, 0, 1, -179.42, -3.6)" filter="url(#Path_2081)">
          <path id="Path_2081-2" data-name="Path 2081" d="M652.307,269.892l58.23-130.609a4.79,4.79,0,0,0-4.375-6.74H542.779a15.357,15.357,0,0,0-14.028,9.1L469.636,274.24a4.79,4.79,0,0,0,4.375,6.74H635.223A18.7,18.7,0,0,0,652.307,269.892Z" transform="translate(-289.79 -123.73)" fill="#fff"/>
        </g>
        <path id="Path_2195" data-name="Path 2195" d="M171.662,129.3,219.722,6.017A4.284,4.284,0,0,0,215.727,0L63.755,4.682A14.039,14.039,0,0,0,50.947,12.81L.383,141.724a4.285,4.285,0,0,0,3.994,6.017l144.66-8.389,7.026-.153A17.1,17.1,0,0,0,171.662,129.3Z" transform="translate(13.655 0) rotate(3)" fill="#abc9f6"/>
      </g>
      <g id="Group_16446" data-name="Group 16446" transform="translate(252.055 265.767)">
        <ellipse id="Ellipse_96" data-name="Ellipse 96" cx="19.467" cy="13.032" rx="19.467" ry="13.032" transform="translate(0 24.655) rotate(-39.289)" fill="#a1c2ff" opacity="0.39"/>
        <g id="Group_16445" data-name="Group 16445">
          <g id="Group_16444" data-name="Group 16444" clip-path="url(#clip-path)">
            <g id="Group_16443" data-name="Group 16443" transform="translate(-8.966 10.595)">
              <path id="Path_2227" data-name="Path 2227" d="M549.365,303.862s2.374-1.13,2.692.241a2.622,2.622,0,0,1-.73,2.349s2.145-.59,2.717,1.241-1.151,2.7-.437,3.356,2.193,2.048.124,4.368-5.1,4.981-8.6,3.267-2.39-10.056-2.39-10.056l.857-2.436Z" transform="translate(-512.657 -296.57)" fill="#0e0d21"/>
              <path id="Path_2228" data-name="Path 2228" d="M547.075,296.864s-5.286.445-6.955,4.148,1.649,3.963,1.649,3.963Z" transform="translate(-512.657 -296.57)" fill="#0e0d21"/>
              <path id="Path_2229" data-name="Path 2229" d="M512.72,322.038l.34.613a82.086,82.086,0,0,0,7.7,7.97h7.549a95.355,95.355,0,0,0,9.336-10.1c.035-.364,4.735-5.475,3.7-7.559s-2.38-1.75-2.38-1.75a6.253,6.253,0,0,0-3.252,1.991c-1.72,1.781-10.2,14.934-10.2,14.934a12.313,12.313,0,0,0-3.094-3.463c-2.006-1.5-7.873-4.659-7.873-4.659s.36-2.538.326-3.024-1.494-2.7-1.937-2.225.593,2.559.593,2.559S512.381,321.424,512.72,322.038Z" transform="translate(-512.657 -296.57)" fill="#ffe5b2"/>
              <path id="Path_2230" data-name="Path 2230" d="M531.609,326.937s.224,1.617.657,3.684h14.988c.332-3.383,1.032-10.184,1.451-11.8.563-2.17.066-6.789.245-8.058s-3.444-.8-3.444-.8l-4.721.079-.762.326a6.01,6.01,0,0,0-2.611,2.183c-.585.9-1.446,2.2-2.6,3.908-1.864,1.414-5.975,3.871-5.672,6.969S531.609,326.937,531.609,326.937Z" transform="translate(-512.657 -296.57)" fill="#052e6d"/>
              <path id="Path_2231" data-name="Path 2231" d="M542.37,307.165a29.03,29.03,0,0,0-5.344,11.706c1.367-.42,5.524-4.234,7.975-6.559a2.283,2.283,0,0,0,.939-2.522,10.641,10.641,0,0,1,.922-3.436C547.246,304.18,542.37,307.165,542.37,307.165Z" transform="translate(-512.657 -296.57)" fill="#ffe5b2"/>
              <path id="Path_2232" data-name="Path 2232" d="M555.519,328.37s.652.9,1.728,2.251h6.705c-1.292-1.713-2.32-3.1-2.639-3.58-1.1-1.661-8.763-18.38-13.434-16.3-.864.384-3.984,3-2.711,5.942S555.519,328.37,555.519,328.37Z" transform="translate(-512.657 -296.57)" fill="#ffe5b2"/>
              <g id="Group_16442" data-name="Group 16442" transform="translate(25.829)">
                <g id="Group_16441" data-name="Group 16441" transform="translate(0 0.488)">
                  <g id="Group_16440" data-name="Group 16440">
                    <path id="Path_2233" data-name="Path 2233" d="M542.182,300.326a34.774,34.774,0,0,0-3.3,4.912c-.861,1.672-.272,3.2,1.332,3.374,2.3.246,5.821-.325,6.977-1.646,1.715-1.962,5.4-5.434,3.9-8.132-1.45-2.619-4.754-2.347-8.314.851A5.292,5.292,0,0,0,542.182,300.326Z" transform="translate(-538.486 -297.058)" fill="#ffe5b2"/>
                  </g>
                </g>
                <path id="Path_2234" data-name="Path 2234" d="M543.738,298.613s-2.314,3.783,4.257,6.2l.827.373s2.87-2.279,2.912-4.692a3.593,3.593,0,0,0-2.457-3.817C548.023,296.151,544.615,297.709,543.738,298.613Z" transform="translate(-538.486 -296.57)" fill="#0e0d21"/>
              </g>
              <path id="Path_2235" data-name="Path 2235" d="M547.815,305.356s1.663-1.147,1.644-.088-2.354,2.192-2.6,1.75S547.815,305.356,547.815,305.356Z" transform="translate(-512.657 -296.57)" fill="#ffe5b2"/>
            </g>
          </g>
        </g>
      </g>
      <g id="Group_16448" data-name="Group 16448" transform="translate(217.491 305.723)">
        <path id="Path_2236" data-name="Path 2236" d="M520.747,239.978h4.394l-11.808,23.067h-71.4l2.882-5.63" transform="translate(-440.287 -233.097)" fill="none" stroke="#a1c2ff" stroke-miterlimit="10" stroke-width="0.554" opacity="0.39"/>
        <path id="Path_2237" data-name="Path 2237" d="M511.67,257.918h-71.4l11.808-23.067h71.4Z" transform="translate(-440.272 -233.05)" fill="#a1c2ff" opacity="0.39"/>
        <g id="Group_16447" data-name="Group 16447" transform="translate(46.478)">
          <ellipse id="Ellipse_98" data-name="Ellipse 98" cx="10.623" cy="8.284" rx="10.623" ry="8.284" transform="translate(0 14.063) rotate(-41.447)" fill="#73a5ff"/>
          <path id="Path_2238" data-name="Path 2238" d="M498.279,251.131a.888.888,0,0,1-.731-.338l-2.424-3.229a1.234,1.234,0,0,1,.406-1.631,1.146,1.146,0,0,1,1.632,0l1.811,2.414,6.474-5.182a1.145,1.145,0,0,1,1.631,0,1.233,1.233,0,0,1-.406,1.631l-7.493,6A1.466,1.466,0,0,1,498.279,251.131Z" transform="translate(-487.252 -233.123)" fill="#fff"/>
        </g>
      </g>
      <path id="Path_2239" data-name="Path 2239" d="M4.351,2.743V4.21H3.394V2.731L1.791.071H2.808L3.914,1.91,5.02.071h.94ZM8.188,4.28A2.416,2.416,0,0,1,7.027,4a2.062,2.062,0,0,1-.81-.766,2.09,2.09,0,0,1-.293-1.1,2.09,2.09,0,0,1,.293-1.1,2.062,2.062,0,0,1,.81-.766,2.561,2.561,0,0,1,2.321,0A2.071,2.071,0,0,1,10.453,2.14,2.071,2.071,0,0,1,9.347,4,2.4,2.4,0,0,1,8.188,4.28Zm0-.816A1.313,1.313,0,0,0,8.851,3.3a1.209,1.209,0,0,0,.464-.47,1.382,1.382,0,0,0,.168-.686,1.382,1.382,0,0,0-.168-.686,1.209,1.209,0,0,0-.464-.47,1.385,1.385,0,0,0-1.324,0,1.209,1.209,0,0,0-.464.47,1.382,1.382,0,0,0-.168.686,1.382,1.382,0,0,0,.168.686,1.209,1.209,0,0,0,.464.47A1.313,1.313,0,0,0,8.188,3.465Zm4.824.816a1.873,1.873,0,0,1-1.381-.491,1.889,1.889,0,0,1-.494-1.4V.071H12.1V2.353q0,1.112.922,1.112A.865.865,0,0,0,13.7,3.2a1.254,1.254,0,0,0,.236-.842V.071h.946V2.389a1.889,1.889,0,0,1-.494,1.4A1.873,1.873,0,0,1,13.013,4.28Zm7.219-.958H18.31l-.367.887h-.981L18.807.071h.946L21.6,4.21H20.6Zm-.3-.727-.656-1.584L18.618,2.6ZM24.672,4.21l-.8-1.153h-.881V4.21h-.958V.071h1.791a2.3,2.3,0,0,1,.955.183,1.419,1.419,0,0,1,.624.52,1.433,1.433,0,0,1,.219.8,1.4,1.4,0,0,1-.222.8,1.405,1.405,0,0,1-.63.511L25.7,4.21Zm-.018-2.637a.656.656,0,0,0-.225-.535,1.006,1.006,0,0,0-.656-.186h-.78V2.294h.78a1,1,0,0,0,.656-.189A.657.657,0,0,0,24.654,1.573Zm4.931,1.868V4.21h-3.2V.071h3.128V.84H27.332v.9h1.921v.745H27.332v.958Zm-27.9,8.23a3.386,3.386,0,0,1-.949-.133A2.226,2.226,0,0,1,0,11.192l.325-.721a2.207,2.207,0,0,0,.633.313,2.376,2.376,0,0,0,.733.118,1.171,1.171,0,0,0,.6-.121.366.366,0,0,0,.2-.322.308.308,0,0,0-.115-.245.874.874,0,0,0-.3-.157Q1.9,10,1.59,9.927A6.743,6.743,0,0,1,.816,9.7,1.258,1.258,0,0,1,.3,9.341a.974.974,0,0,1-.216-.662,1.152,1.152,0,0,1,.2-.653,1.312,1.312,0,0,1,.588-.464,2.4,2.4,0,0,1,.961-.171,3.181,3.181,0,0,1,.775.095,2.288,2.288,0,0,1,.662.272l-.3.727a2.308,2.308,0,0,0-1.147-.325,1.075,1.075,0,0,0-.594.13.4.4,0,0,0-.192.343.335.335,0,0,0,.222.316,3.481,3.481,0,0,0,.677.2,6.743,6.743,0,0,1,.775.225,1.283,1.283,0,0,1,.517.355.951.951,0,0,1,.216.656,1.13,1.13,0,0,1-.2.647,1.331,1.331,0,0,1-.594.464A2.422,2.422,0,0,1,1.685,11.671Zm5.617-.84V11.6H4.1V7.461H7.225V8.23H5.049v.9H6.971v.745H5.049v.958Zm.763-3.37h.958v3.358H11.1v.78H8.064Zm6.775,3.37V11.6h-3.2V7.461h3.128V8.23H12.587v.9h1.921v.745H12.587v.958Zm2.731.84a2.377,2.377,0,0,1-1.144-.275,2.052,2.052,0,0,1-.8-.763,2.224,2.224,0,0,1,0-2.205,2.052,2.052,0,0,1,.8-.763A2.566,2.566,0,0,1,18.55,7.58a1.948,1.948,0,0,1,.73.544l-.615.568a1.322,1.322,0,0,0-1.041-.485,1.382,1.382,0,0,0-.686.168,1.2,1.2,0,0,0-.47.47,1.48,1.48,0,0,0,0,1.372,1.2,1.2,0,0,0,.47.47,1.382,1.382,0,0,0,.686.168,1.316,1.316,0,0,0,1.041-.491l.615.568a1.917,1.917,0,0,1-.733.55A2.433,2.433,0,0,1,17.571,11.671ZM20.74,8.242H19.416v-.78h3.606v.78H21.7V11.6H20.74Zm6,2.59V11.6h-3.2V7.461h3.128V8.23H24.489v.9H26.41v.745H24.489v.958Zm.763-3.37h1.88a2.642,2.642,0,0,1,1.191.257,1.926,1.926,0,0,1,.8.724,2.207,2.207,0,0,1,0,2.176,1.926,1.926,0,0,1-.8.724,2.642,2.642,0,0,1-1.191.257H27.5Zm1.833,3.352a1.391,1.391,0,0,0,.99-.346,1.222,1.222,0,0,0,.37-.937,1.222,1.222,0,0,0-.37-.937,1.391,1.391,0,0,0-.99-.346h-.875v2.566Z" transform="translate(231.549 312.267) rotate(2)" fill="#abc9f6"/>
    </g>
    <g id="Group_16468" data-name="Group 16468" transform="translate(408.121 286.976) rotate(2)">
      <path id="Path_2249" data-name="Path 2249" d="M3.21,0H169.087l-2.923,10.57H0Z" transform="translate(49.897 2.951) rotate(-1)" fill="#44474f"/>
      <g id="Group_16458" data-name="Group 16458" transform="matrix(0.999, -0.035, 0.035, 0.999, 194.996, 4.326)">
        <path id="Path_2250" data-name="Path 2250" d="M2.427,0A1.433,1.433,0,0,1,3.851,1.9a2.59,2.59,0,0,1-2.369,1.9A1.433,1.433,0,0,1,.058,1.9,2.591,2.591,0,0,1,2.427,0Z" transform="translate(13.085)" fill="#e9f3fe"/>
        <path id="Path_2251" data-name="Path 2251" d="M2.428,0A1.433,1.433,0,0,1,3.851,1.9a2.59,2.59,0,0,1-2.369,1.9A1.433,1.433,0,0,1,.059,1.9,2.59,2.59,0,0,1,2.428,0Z" transform="translate(6.785)" fill="#e9f3fe"/>
        <path id="Path_2252" data-name="Path 2252" d="M.058,1.9A2.591,2.591,0,0,1,2.428,0,1.433,1.433,0,0,1,3.851,1.9a2.591,2.591,0,0,1-2.369,1.9A1.433,1.433,0,0,1,.058,1.9Z" fill="#e9f3fe"/>
      </g>
      <g id="Group_16464" data-name="Group 16464" transform="translate(0 1.188)">
        <path id="Path_2267" data-name="Path 2267" d="M82.587,114.221H0L28.233,0H110.82Z" transform="translate(25.703 15.271)" fill="#eef5ff"/>
        <path id="Path_2268" data-name="Path 2268" d="M82.587,114.221H0L28.233,0H110.82Z" transform="translate(13.367 8.145)" fill="#eef5ff"/>
        <path id="Path_2269" data-name="Path 2269" d="M82.587,114.221H0L28.233,0H110.82Z" fill="#eef5ff"/>
        <path id="Path_2270" data-name="Path 2270" d="M94.788,0,68.659,106.411,0,107.095l70.732,1.556Z" transform="translate(27.717 15.271)" fill="#6aa5ff"/>
        <path id="Path_2271" data-name="Path 2271" d="M93.483,0,68.658,105.393,0,106.077,69.824,107.8Z" transform="translate(15.304 8.145)" fill="#6aa5ff"/>
        <path id="Path_2272" data-name="Path 2272" d="M23.1,29.014H0L7.23,0h23.1Z" transform="translate(25.083 10.57)" fill="#abc9f6"/>
        <g id="Group_16469" data-name="Group 16469" transform="translate(11.679 10.569)">
          <path id="Path_2273" data-name="Path 2273" d="M41.382,4.008H0L1.018,0H42.4Z" transform="translate(47.847)" fill="#2cbf8c"/>
          <path id="Path_2274" data-name="Path 2274" d="M41.382,4.009H0L1.018,0H42.4Z" transform="translate(45.981 8.229)" fill="#2cbf8c"/>
          <path id="Path_2275" data-name="Path 2275" d="M41.382,4.009H0L1.018,0H42.4Z" transform="translate(44.03 16.459)" fill="#2cbf8c"/>
          <path id="Path_2276" data-name="Path 2276" d="M41.382,4.008H0L1.018,0H42.4Z" transform="translate(41.739 24.689)" fill="#2cbf8c"/>
          <path id="Path_2277" data-name="Path 2277" d="M75.754,4.009H0L1.018,0H76.772Z" transform="translate(7.367 33.258)" fill="#2cbf8c"/>
          <path id="Path_2278" data-name="Path 2278" d="M75.753,4.009H0L1.018,0H76.772Z" transform="translate(5.345 41.826)" fill="#2cbf8c"/>
          <path id="Path_2279" data-name="Path 2279" d="M75.754,4.008H0L1.018,0H76.772Z" transform="translate(2.545 51.476)" fill="#2cbf8c"/>
          <path id="Path_2280" data-name="Path 2280" d="M75.754,4.008H0L1.018,0H76.771Z" transform="translate(0 59.808)" fill="#2cbf8c"/>
        </g>
        <g id="Group_16463" data-name="Group 16463" transform="translate(25.083 10.57)">
          <g id="Group_16462" data-name="Group 16462" clip-path="url(#clip-path-2)">
            <g id="Group_16461" data-name="Group 16461" transform="translate(1.399 2.467)">
              <path id="Path_2281" data-name="Path 2281" d="M.726.465S2.081-.153,2.609.036,4.573.843,4.54,1.464,2.206,2.773.669,2.021.726.465.726.465Z" transform="translate(22.988 28.968)" fill="#c97e67"/>
              <path id="Path_2282" data-name="Path 2282" d="M9.431,18.481a.907.907,0,0,1-.1.215c-.456.734-7.963.771-8.821.155C.13,18.575.013,14.777,0,10.661-.014,5.573.131,0,.131,0S3.069,1.363,3.212,3.041,2.12,14.8,2.978,15.419s4.815.7,6.136,1.084A3.5,3.5,0,0,1,9.431,18.481Z" transform="translate(14.685 12.653)" fill="#44474f"/>
              <path id="Path_2283" data-name="Path 2283" d="M6.971,1.085A2.84,2.84,0,0,0,5.078.462.916.916,0,0,1,5.513.32,3.033,3.033,0,0,0,4.4.461S1.779-1.341,0,2.179c0,0,.26-.249.609-.526C-.418,3.678-.074,6.987,2.22,7.866,3.713,8.437,12.236,6.567,6.971,1.085Z" transform="translate(9.549)" fill="#33353b"/>
              <path id="Path_2284" data-name="Path 2284" d="M4.2,5.045a4.3,4.3,0,0,1-2.676.138A3.42,3.42,0,0,1,0,3.289C.462,3.258.671,2.657,1.006,0l.2.066,3.33,1.12s-.217,1.066-.351,2.078C4.071,4.116,4.018,4.929,4.2,5.045Z" transform="translate(10.73 8.448)" fill="#c97e67"/>
              <path id="Path_2285" data-name="Path 2285" d="M3.33,1.12S3.113,2.186,2.979,3.2C1.073,2.9.289,1.021,0,0Z" transform="translate(11.934 8.515)" fill="#b2604d"/>
              <path id="Path_2286" data-name="Path 2286" d="M.864,6.8A10.137,10.137,0,0,1,0,3.7C-.045,2.708.912-.811,4.447.171A4.937,4.937,0,0,1,6.376,1.2c.713.629,1.694,1.916.027,4.879L5.938,7.1Z" transform="translate(10.766 1.3)" fill="#33353b"/>
              <path id="Path_2287" data-name="Path 2287" d="M4.193,7.923S-.342,7.411.021,4.592.042-.193,2.952.015,6.286,1.371,6.394,2.341,5.382,7.983,4.193,7.923Z" transform="translate(11.585 2.754)" fill="#c97e67"/>
              <path id="Path_2288" data-name="Path 2288" d="M0,.344C-.036.013.673-.141.8.166a6.2,6.2,0,0,1,.27,1.814A11.381,11.381,0,0,1,.6,5.623Z" transform="translate(16.075 16.718)" fill="#33353b"/>
              <path id="Path_2289" data-name="Path 2289" d="M7.8,1.28C7.208.343,6.656.459,6.327.675,5.538-.913,2.174.8,2.174.8A5.431,5.431,0,0,1,0,3.752a3.775,3.775,0,0,0,2.724.374c1.546-.191,2.908-2.18,3.419-3.019a3.628,3.628,0,0,1,.834,1.464c.133.747.042,2.238.48,2.243C7.456,4.815,8.681,2.688,7.8,1.28Z" transform="translate(10.251 2.23)" fill="#33353b"/>
              <path id="Path_2290" data-name="Path 2290" d="M0,.111S.038.48.936.54c0,0,.754.051.782-.346A2.427,2.427,0,0,0,0,.111Z" transform="translate(14.994 8.727)" fill="#fff"/>
              <path id="Path_2291" data-name="Path 2291" d="M9.2,8.7a.952.952,0,0,1-.1.215c-.456.734-7.964.771-8.821.155C-.106,8.791-.23,4.071.827,0,1.078,2.439.619,7.315,1.9,7.713,3.343,8.165,7.3,8.173,9.2,8.7Z" transform="translate(14.921 22.437)" fill="#33353b"/>
              <path id="Path_2292" data-name="Path 2292" d="M16.926,10.832c-2.98,8.6-1.621,10.16-2.687,10.906-.006,0-.893.258-.9.262-1.1.732-.994-.314-4.291.634A50.97,50.97,0,0,1,3.73,23.982a10.44,10.44,0,0,1-1.794.166c-1.019-.012-1.745-.284-1.9-.993-.454-2.061,3.629-6.848,3.24-10.526,0-.031-.006-.064-.009-.095a3.95,3.95,0,0,1,.1-1.069c.417-1.97,2.049-4.7,3.672-7A23.7,23.7,0,0,1,10.73,0c3.5,2.743,4.086.916,4.086.916S17.943,7.9,16.926,10.832Z" transform="translate(0 11.734)" fill="#44474f"/>
              <path id="Path_2293" data-name="Path 2293" d="M13.657,15.663h0c-1.1.733-1.312-.229-4.609.719A50.94,50.94,0,0,1,3.73,17.73a10.628,10.628,0,0,0-1.794.166C.917,17.884.191,17.612.035,16.9c-.454-2.061,3.629-6.848,3.24-10.526,0-.031-.006-.064-.009-.095a3.328,3.328,0,0,1,.1-1.069C3.739,3.724,5.064,2.227,6.634,0c.727,1,7.191.788,4.554,9.391C10.379,12.028,13.535,13.519,13.657,15.663Z" transform="translate(0 17.985)" fill="#33353b"/>
              <path id="Path_2294" data-name="Path 2294" d="M.73.033A4.726,4.726,0,0,1,2.773.226c.6.343,1.8,1.17,1.632,1.51S2.7,2.068,2.11,1.63.986,1.581.24,1.22.73.033.73.033Z" transform="translate(12.562 34.025)" fill="#c97e67"/>
              <path id="Path_2295" data-name="Path 2295" d="M7.929.068s-5.155-.6-6.4,1.765S-.562,12.96.446,15.76s8.21,7.34,9.043,7.593,1.535-.991,1.518-1.138-7.193-7.677-7.07-8.347S7.929.068,7.929.068Z" transform="translate(2.801 11.669)" fill="#44474f"/>
            </g>
          </g>
        </g>
      </g>
    </g>
    <g id="Group_16335" data-name="Group 16335" transform="translate(261.616 387.312)">
      <path id="Path_1963" data-name="Path 1963" d="M588.359,385.4c-34,14.208-50.806,2.906-76.362-11.847s-28.45-29.309-8.806-38.514c37.062-17.362,58.184.165,83.74,14.921S608.375,377.03,588.359,385.4Z" transform="translate(-478.447 4.705)" opacity="0.05" style="mix-blend-mode: multiply;isolation: isolate"/>
      <path id="Path_1964" data-name="Path 1964" d="M484.565,258.178c-2.483.6-3.584,1.382-3.353,3.836s.03,11.312-.212,15.149,3.126,12.435,3.126,12.435.343,3.441,1.706,5.259,2.379,1.224,2.789.8.322-2.034-.006-2.953a40.9,40.9,0,0,1-.488-5.486s1.6,6.135,2.165,8.415,2.088,4.562,3.558,4.652a1.739,1.739,0,0,0,1.915-1.868,25.363,25.363,0,0,1-1.429-4.84c-.095-1.546-.13-4.052-.13-4.052a34.5,34.5,0,0,0,1.978,8.34c.652,1.464,2.109,6.844,4.719,5.52,1.973-1-.453-5.8-.827-7.2a49.188,49.188,0,0,1-.8-15.84c.529-3.3,1.7-4.642,4.8-1.813s5.993,4.655,6.673,3.029-2.2-5.192-4.087-7.424a39.733,39.733,0,0,0-7.381-6.379c-4.579-2.815-4.65-8.038-7.634-9.575S485.411,257.975,484.565,258.178Z" transform="translate(-476.459 -76.832)" fill="url(#linear-gradient-2)"/>
      <path id="Path_1965" data-name="Path 1965" d="M484.565,258.178c-2.483.6-3.584,1.382-3.353,3.836s.03,11.312-.212,15.149,3.126,12.435,3.126,12.435.343,3.441,1.706,5.259,2.379,1.224,2.789.8.322-2.034-.006-2.953a40.9,40.9,0,0,1-.488-5.486s1.6,6.135,2.165,8.415,2.088,4.562,3.558,4.652a1.739,1.739,0,0,0,1.915-1.868,25.363,25.363,0,0,1-1.429-4.84c-.095-1.546-.13-4.052-.13-4.052a34.5,34.5,0,0,0,1.978,8.34c.652,1.464,2.109,6.844,4.719,5.52,1.973-1-.453-5.8-.827-7.2a49.188,49.188,0,0,1-.8-15.84c.529-3.3,1.7-4.642,4.8-1.813s5.993,4.655,6.673,3.029-2.2-5.192-4.087-7.424a39.733,39.733,0,0,0-7.381-6.379c-4.579-2.815-4.65-8.038-7.634-9.575S485.411,257.975,484.565,258.178Z" transform="translate(-476.459 -76.832)" fill="url(#radial-gradient)" style="mix-blend-mode: color-dodge;isolation: isolate"/>
      <ellipse id="Ellipse_81" data-name="Ellipse 81" cx="7.211" cy="7.211" rx="7.211" ry="7.211" transform="translate(17.202 69.185)" fill="url(#radial-gradient-2)"/>
      <path id="Path_1966" data-name="Path 1966" d="M480.483,260.449a6,6,0,1,0,6-6A6,6,0,0,0,480.483,260.449Z" transform="translate(-477.045 -80.307)" fill="url(#radial-gradient-3)"/>
      <path id="Path_1967" data-name="Path 1967" d="M482.065,229.9c-2.66,1.161-3.607,6.174-3,21.546.589,14.862.969,35.745,2.731,37.642s11.09.35,12.446-1.82.95-13.174,1.317-24.488c.414-12.856,2.1-20.676.2-24.609S486.4,228,482.065,229.9Z" transform="translate(-478.89 -109.173)" fill="url(#linear-gradient-3)"/>
      <path id="Path_1968" data-name="Path 1968" d="M483.877,230.74c-1.507,1.09-2.044,5.794-1.7,20.216.335,13.942.551,33.534,1.55,35.315s6.287.328,7.055-1.708.538-12.357.745-22.975c.237-12.062,1.19-19.4.114-23.087S486.338,228.959,483.877,230.74Z" transform="translate(-475.197 -108.171)" fill="url(#radial-gradient-4)" style="mix-blend-mode: color-dodge;isolation: isolate"/>
      <ellipse id="Ellipse_82" data-name="Ellipse 82" cx="7.211" cy="7.211" rx="7.211" ry="7.211" transform="translate(3.693 113.885)" fill="url(#radial-gradient-5)"/>
      <path id="Path_1969" data-name="Path 1969" d="M492.043,207.924c-2.589-.471-4.164,5.745-5.464,12.951-1.263,7.016-5.058,26.513-5.175,28.4-.158,2.528,9.272,7.895,12.234,8.286,2.884.38,6.535-16.164,7.968-22.085,1.744-7.208,2.612-12.841,1.321-15.263S494.858,208.436,492.043,207.924Z" transform="translate(-475.979 -134.258)" fill="url(#linear-gradient-4)"/>
      <path id="Path_1970" data-name="Path 1970" d="M495.23,210.076c-1.077-.44-2.617,5.289-4.171,11.932-1.513,6.468-5.84,24.438-6.148,26.174-.414,2.332,3.005,7.3,4.255,7.67,1.218.356,5.08-14.892,6.518-20.347,1.751-6.645,2.9-11.837,2.662-14.076S496.4,210.555,495.23,210.076Z" transform="translate(-471.954 -131.764)" fill="url(#radial-gradient-6)" style="mix-blend-mode: color-dodge;isolation: isolate"/>
      <path id="Path_1971" data-name="Path 1971" d="M513.04,344.719c-3.288,2.947-4.747,13.56-.542,17.357s8.543.272,17.9,0,27.256-4.069,27.8-10.442-7.323-6.915-13.562-7.457-12.068-3.528-15.73-3.8S516.971,341.193,513.04,344.719Z" transform="translate(-442.942 19.223)" fill="url(#linear-gradient-5)"/>
      <path id="Path_1972" data-name="Path 1972" d="M513.04,344.719c-3.288,2.947-4.747,13.56-.542,17.357s8.543.272,17.9,0,27.256-4.069,27.8-10.442-7.323-6.915-13.562-7.457-12.068-3.528-15.73-3.8S516.971,341.193,513.04,344.719Z" transform="translate(-442.942 19.223)" fill="url(#radial-gradient-7)" style="mix-blend-mode: color-dodge;isolation: isolate"/>
      <ellipse id="Ellipse_83" data-name="Ellipse 83" cx="7.211" cy="7.211" rx="7.211" ry="7.211" transform="translate(69.061 354.336)" fill="url(#radial-gradient-8)"/>
      <path id="Path_1973" data-name="Path 1973" d="M499.563,337.212c-2.714,2.614-5.7,18.171-.27,20.613s11.254-1.628,13.152-4.475a24.326,24.326,0,0,1,8.545-7.459c3.525-1.9,8.137-9.493,4.339-12.882s-10.578.678-13.154.678S503.225,333.686,499.563,337.212Z" transform="translate(-458.759 9.163)" fill="url(#linear-gradient-6)"/>
      <path id="Path_1974" data-name="Path 1974" d="M498.6,337.212c-2.714,2.614-1.88,11.641,3.543,14.082s14.359-3.506,17.884-5.4,8.137-9.493,4.339-12.882-10.579.678-13.154.678S502.259,333.686,498.6,337.212Z" transform="translate(-457.794 9.163)" fill="url(#radial-gradient-9)" style="mix-blend-mode: color-dodge;isolation: isolate"/>
      <ellipse id="Ellipse_84" data-name="Ellipse 84" cx="7.211" cy="7.211" rx="7.211" ry="7.211" transform="translate(40.627 336.297)" fill="url(#radial-gradient-10)"/>
      <path id="Path_1975" data-name="Path 1975" d="M504.4,296.224c-7.737,7.737-8.977,78.516-5.315,81.364s12.392,2.34,13.612-1.526,2.405-17.707,5.464-38.551c3.238-22.059,6.677-30.358,5.058-36.632C521.4,293.813,510.672,289.951,504.4,296.224Z" transform="translate(-457.776 -35.563)" fill="url(#linear-gradient-7)"/>
      <path id="Path_1976" data-name="Path 1976" d="M505.073,298.225c-6.315,6.11-7.6,68.818-4.814,71.258s9.43,2,10.358-1.306,1.313-16.148,3.234-34.065c2.157-20.11,4.685-29.6,4.313-31.9C517.169,296.062,512.3,291.228,505.073,298.225Z" transform="translate(-455.743 -33.581)" fill="url(#radial-gradient-11)" style="mix-blend-mode: color-dodge;isolation: isolate"/>
      <path id="Path_1977" data-name="Path 1977" d="M501.465,298.627a9.18,9.18,0,1,0,9.18-9.18A9.18,9.18,0,0,0,501.465,298.627Z" transform="translate(-452.729 -39.755)" fill="url(#radial-gradient-12)"/>
      <path id="Path_1978" data-name="Path 1978" d="M509.438,351.882c1.731,10.352,19.022,9.309,21.451,2.226,2.478-7.23.689-61.994.81-77.51.112-14.3-.544-38.173-16.546-36.545s-22.239,13.7-21.019,26.444,10.848,41.36,12.884,57.361S508.779,347.949,509.438,351.882Z" transform="translate(-461.397 -97.089)" fill="url(#linear-gradient-8)"/>
      <path id="Path_1979" data-name="Path 1979" d="M570.14,217.026c-.611-2.442-.408-3.05,0-6.1s-1.831-6.306-1.831-11.187,1.22-8.746,1.321-11.289.915-3.763,2.949-2.442,1.12,9.255,2.442,10.373,6.407-4.372,10.17-10.475,5.188-11.39,7.12-11.39,2.237,2.338.814,5.594-3.765,8.543-3.765,8.543a51.387,51.387,0,0,0,4.171-6.712c.883-1.956.732-2.943,1.831-3.256,1.518-.432,2.236,3.053,1.017,6.816a40.168,40.168,0,0,1-3.05,6.915,21.95,21.95,0,0,0,2.543-3.864c.71-1.628.609-1.831,1.524-1.831s1.25,3.955.132,6.09-1.962,3.469-1.962,3.469,1.528-3.141,2.34-2.938-1.222,5.481-1.831,6.906a56.063,56.063,0,0,1-8.035,11.289c-3.56,3.661-6.408,10.678-8.543,11.492S570.85,219.873,570.14,217.026Z" transform="translate(-375.265 -172.949)" fill="url(#radial-gradient-13)"/>
      <path id="Path_1980" data-name="Path 1980" d="M570.14,217.026c-.611-2.442-.408-3.05,0-6.1s-1.831-6.306-1.831-11.187,1.22-8.746,1.321-11.289.915-3.763,2.949-2.442,1.12,9.255,2.442,10.373,6.407-4.372,10.17-10.475,5.188-11.39,7.12-11.39,2.237,2.338.814,5.594-3.765,8.543-3.765,8.543a51.387,51.387,0,0,0,4.171-6.712c.883-1.956.732-2.943,1.831-3.256,1.518-.432,2.236,3.053,1.017,6.816a40.168,40.168,0,0,1-3.05,6.915,21.95,21.95,0,0,0,2.543-3.864c.71-1.628.609-1.831,1.524-1.831s1.25,3.955.132,6.09-1.962,3.469-1.962,3.469,1.528-3.141,2.34-2.938-1.222,5.481-1.831,6.906a56.063,56.063,0,0,1-8.035,11.289c-3.56,3.661-6.408,10.678-8.543,11.492S570.85,219.873,570.14,217.026Z" transform="translate(-375.265 -172.949)" fill="url(#radial-gradient-14)" style="mix-blend-mode: color-dodge;isolation: isolate"/>
      <path id="Path_1981" data-name="Path 1981" d="M567.663,199.845a6,6,0,1,0,6-6A6,6,0,0,0,567.663,199.845Z" transform="translate(-376.014 -150.54)" fill="url(#radial-gradient-15)"/>
      <path id="Path_1982" data-name="Path 1982" d="M597.45,194.963c2.28-.568,7.893,4.326,8.348,7.513.762,5.335-40.677,56.919-52.592,57.651-9.063.557-14.283-9.262-6.1-17.327C551.827,238.154,592.163,196.287,597.45,194.963Z" transform="translate(-404.56 -149.302)" fill="url(#linear-gradient-9)"/>
      <path id="Path_1983" data-name="Path 1983" d="M584.276,198.441c1.574-.451,5.285,3.957,5.73,5.889.743,3.234-26.269,36.718-34.592,37.7-6.332.749-9.959-6.693-4.538-12.006C554,226.966,580.621,199.491,584.276,198.441Z" transform="translate(-398.529 -145.256)" fill="url(#radial-gradient-16)" style="mix-blend-mode: color-dodge;isolation: isolate"/>
      <path id="Path_1984" data-name="Path 1984" d="M495.876,225.374c1.084,6.1,9.549,51.75,18.035,62.651,5.134,6.593,23,7.088,28.953,3.063,7.77-5.253,8.2-43.2,8.2-43.2Z" transform="translate(-459.206 -114.008)" fill="url(#linear-gradient-10)"/>
      <path id="Path_1985" data-name="Path 1985" d="M515.333,199.018c-8.527-.643-26.647.2-27.867,9.968s6.5,18.2,8.327,23.081,3.027,21.019,4.857,26.714,4.475,14.849,21.561,20.138,35.431,5.736,39.5,1.464,14.849-34.579,12.612-47.8-18.51-24.205-30.917-28.07S526.114,199.832,515.333,199.018Z" transform="translate(-469.103 -144.741)" fill="url(#radial-gradient-17)"/>
      <path id="Path_1986" data-name="Path 1986" d="M515.333,199.018c-8.527-.643-26.647.2-27.867,9.968s6.5,18.2,8.327,23.081,3.027,21.019,4.857,26.714,4.475,14.849,21.561,20.138,35.431,5.736,39.5,1.464,14.849-34.579,12.612-47.8-18.51-24.205-30.917-28.07S526.114,199.832,515.333,199.018Z" transform="translate(-469.103 -144.741)" fill="url(#linear-gradient-11)" style="mix-blend-mode: multiply;isolation: isolate"/>
      <path id="Path_1987" data-name="Path 1987" d="M515.3,199.018c-8.528-.643-26.647.2-27.867,9.968s13.843,18.586,18.75,20.35c25.9,9.309,70.343,16.468,68.106,3.245s-18.51-24.205-30.917-28.07S526.082,199.832,515.3,199.018Z" transform="translate(-469.071 -144.741)" fill="url(#radial-gradient-18)" style="mix-blend-mode: color-dodge;isolation: isolate"/>
      <path id="Path_1988" data-name="Path 1988" d="M542.259,216.781c-.779-3.256-2.286,8.234-10.822,10.7-9.154,2.645-14.849,2.543-15.663,8.34-.576,4.115-1.608,18.163,3.109,26.483,5.017.322,8.765-.242,10.466-2.029C533.021,256.418,542.162,231.349,542.259,216.781Z" transform="translate(-436.743 -124.633)" fill="url(#linear-gradient-12)" style="mix-blend-mode: multiply;isolation: isolate"/>
      <path id="Path_1989" data-name="Path 1989" d="M523.082,226.228c5.073-.328,11.8-7.12,11.8-7.731s.814,1.222,5.086,2.85,7.729,10.576,2.848,13.424S530,241.483,524.5,238.635,516.776,226.634,523.082,226.228Z" transform="translate(-432.101 -122.116)" fill="url(#radial-gradient-19)"/>
      <path id="Path_1990" data-name="Path 1990" d="M511.94,385.833c2.96,2.3,12.679.44,13.493-2s5.091-23.076,9.108-39.665c4.655-19.227,8.707-30.235,8.094-34.81-.687-5.127-10.218-8.143-15.1-7.193s-6.582,4.061-7.768,10.635c-1.187,6.6-5.535,31.2-6.677,44.725C512.061,369.691,509.5,383.933,511.94,385.833Z" transform="translate(-441.775 -25.22)" fill="url(#linear-gradient-13)"/>
      <path id="Path_1991" data-name="Path 1991" d="M512.638,384.746c2.027,2.461,9.389,1.151,10.179-1.237s5.518-22.727,9.752-39.043c4.907-18.909,8.748-29.661,8.635-34.255-.125-5.153-6.982-8.7-10.68-8.022s-5.2,3.681-6.574,10.17c-1.379,6.511-6.461,30.8-8.329,44.222C513.942,368.658,510.967,382.716,512.638,384.746Z" transform="translate(-440.353 -25.085)" fill="url(#radial-gradient-20)" style="mix-blend-mode: color-dodge;isolation: isolate"/>
      <path id="Path_1992" data-name="Path 1992" d="M518.1,307.087a9.18,9.18,0,1,0,9.18-9.18A9.179,9.179,0,0,0,518.1,307.087Z" transform="translate(-433.452 -29.951)" fill="url(#radial-gradient-21)"/>
      <ellipse id="Ellipse_85" data-name="Ellipse 85" cx="7.211" cy="7.211" rx="7.211" ry="7.211" transform="translate(133.667 96.737)" fill="url(#radial-gradient-22)"/>
      <path id="Path_1993" data-name="Path 1993" d="M566.927,218.509c4.147.4,4.754,6.766,4.046,10.827-.624,3.586-2.528,6.071-9.51,7.893-6.084,1.587-31.951,6.379-36.833,5.464s-1.418-11.738,3.236-16.6c4.389-4.579,5.341-5.643,11.574-5.6C545.98,220.532,560.479,217.879,566.927,218.509Z" transform="translate(-428.626 -122.076)" fill="url(#linear-gradient-14)"/>
      <path id="Path_1994" data-name="Path 1994" d="M566.808,218.847c4.147.352,4.754,5.885,4.046,9.413-.624,3.12-2.528,5.278-9.51,6.863-6.084,1.38-31.951,5.546-36.833,4.75s-.546-10.812,4.234-14.436,4.344-4.9,10.576-4.864C545.86,220.606,560.359,218.3,566.808,218.847Z" transform="translate(-428.507 -121.669)" fill="url(#radial-gradient-23)" style="mix-blend-mode: color-dodge;isolation: isolate"/>
      <path id="Path_1995" data-name="Path 1995" d="M508.973,177.714c-6.705,4.259-9.154,13.832-5.7,22.375s7.932,10.578,5.7,18.715-4.549,8.413-3.69,10.792,3.459,3.661,9.562,4.678,11.664.671,13.018-.814.14-7.254,2.265-11.2c1.192-2.217,2.884-5.313,2.884-5.313S526.264,166.73,508.973,177.714Z" transform="translate(-452.439 -171.06)" fill="url(#radial-gradient-24)"/>
      <path id="Path_1996" data-name="Path 1996" d="M528.257,221.347c2.01,1.4,9.562,1.973,12.191.389,2.5-1.5,8.545-25.427,4.069-35.8s-24.618-17.31-36.448-7.239c-9.48,8.07-6.677,17.3-5.615,17.454,2.617.374,16.99,4.231,18.821,7.893S523.579,218.094,528.257,221.347Z" transform="translate(-452.997 -173.789)" fill="url(#radial-gradient-25)"/>
      <path id="Path_1997" data-name="Path 1997" d="M530.046,363.195c3.508,5.937,9.728,7.357,15.866,6.112,5.181-1.051,7.459-5.7,7.459-11.39s-.253-52.2-1.468-67.983c-.868-11.274-1.013-35.82-13.154-40.878-19.736-8.223-34.5,9.661-31.165,23.676,3.035,12.75,14.175,29.415,17,48.167C527.415,339.719,527.262,358.482,530.046,363.195Z" transform="translate(-446.186 -88.974)" fill="url(#linear-gradient-15)"/>
      <path id="Path_1998" data-name="Path 1998" d="M529.662,355.16c2.036,5.41,5.529,6.664,8.942,5.475,2.882-1.006,4.093-5.276,4.02-10.494s-1.362-46.692-2.245-61.144c-.628-10.322.06-36.338-7.325-38.467-11.8-3.4-17.895,9.931-17.107,21.936.633,9.661,8.3,26.835,10.119,43.989C527.889,333.674,528.045,350.866,529.662,355.16Z" transform="translate(-436.026 -85.479)" fill="url(#radial-gradient-26)" style="mix-blend-mode: color-dodge;isolation: isolate"/>
      <path id="Path_1999" data-name="Path 1999" d="M534.021,214.494c-3.34-2.124-7.893-10.624-10.019-23.374-1.451-8.717-13.97-10.907-21.746-11.418-2.025,5.237-.525,9.495.194,9.6,2.617.374,16.99,4.231,18.821,7.893s2.3,14.05,6.982,17.3c1.321.92,5.022,1.468,8.158,1.3A23.485,23.485,0,0,1,534.021,214.494Z" transform="translate(-452.993 -166.936)" fill="url(#linear-gradient-16)" style="mix-blend-mode: multiply;isolation: isolate"/>
    </g>
  </g>
</svg>
