<svg xmlns="http://www.w3.org/2000/svg" xmlns:xlink="http://www.w3.org/1999/xlink" width="865" height="204" viewBox="0 0 865 204">
  <defs>
    <linearGradient id="linear-gradient" x1="0.353" y1="0.292" x2="1" y2="1" gradientUnits="objectBoundingBox">
      <stop offset="0" stop-color="#223a84"/>
      <stop offset="1" stop-color="#4c6fdb"/>
    </linearGradient>
    <clipPath id="clip-path">
      <rect id="Mask" width="865" height="204" transform="translate(0)" fill="url(#linear-gradient)"/>
    </clipPath>
  </defs>
  <g id="Mask_Group_6" data-name="Mask Group 6" transform="translate(0)" clip-path="url(#clip-path)">
    <g id="box_price_back_or" transform="translate(829.834 -67.406) rotate(30)" opacity="0.299">
      <g id="Group_79" data-name="Group 79">
        <path id="Fill_1" data-name="Fill 1" d="M4.944,2.687A2.3,2.3,0,0,1,2.589,5.139,2.681,2.681,0,0,1,.079,2.53,2.3,2.3,0,0,1,2.431.079,2.682,2.682,0,0,1,4.944,2.687" fill="#2cbf8c"/>
        <path id="Fill_3" data-name="Fill 3" d="M4.944,2.687A2.3,2.3,0,0,1,2.59,5.139,2.681,2.681,0,0,1,.079,2.53,2.3,2.3,0,0,1,2.432.079,2.682,2.682,0,0,1,4.944,2.687" transform="translate(14.595 0.472)" fill="#2cbf8c"/>
        <path id="Fill_5" data-name="Fill 5" d="M4.944,2.687A2.3,2.3,0,0,1,2.59,5.139,2.681,2.681,0,0,1,.079,2.53,2.3,2.3,0,0,1,2.432.079,2.682,2.682,0,0,1,4.944,2.687" transform="translate(27.974 0.904)" fill="#2cbf8c"/>
        <path id="Fill_7" data-name="Fill 7" d="M4.944,2.687A2.3,2.3,0,0,1,2.589,5.139,2.681,2.681,0,0,1,.079,2.53,2.3,2.3,0,0,1,2.431.079,2.682,2.682,0,0,1,4.944,2.687" transform="translate(42.569 1.376)" fill="#2cbf8c"/>
        <path id="Fill_9" data-name="Fill 9" d="M4.944,2.687A2.3,2.3,0,0,1,2.59,5.139,2.681,2.681,0,0,1,.079,2.53,2.3,2.3,0,0,1,2.432.079,2.681,2.681,0,0,1,4.944,2.687" transform="translate(55.947 1.808)" fill="#2cbf8c"/>
        <path id="Fill_14" data-name="Fill 14" d="M4.944,2.687A2.3,2.3,0,0,1,2.589,5.139,2.681,2.681,0,0,1,.079,2.53,2.3,2.3,0,0,1,2.431.079,2.682,2.682,0,0,1,4.944,2.687" transform="translate(0.434 13.915)" fill="#2cbf8c"/>
        <path id="Fill_16" data-name="Fill 16" d="M4.944,2.687A2.3,2.3,0,0,1,2.59,5.139,2.681,2.681,0,0,1,.079,2.53,2.3,2.3,0,0,1,2.432.079,2.682,2.682,0,0,1,4.944,2.687" transform="translate(15.029 14.387)" fill="#2cbf8c"/>
        <path id="Fill_18" data-name="Fill 18" d="M4.944,2.687A2.3,2.3,0,0,1,2.59,5.139,2.681,2.681,0,0,1,.079,2.53,2.3,2.3,0,0,1,2.432.079,2.682,2.682,0,0,1,4.944,2.687" transform="translate(28.407 14.819)" fill="#2cbf8c"/>
        <path id="Fill_20" data-name="Fill 20" d="M4.944,2.687A2.3,2.3,0,0,1,2.589,5.139,2.681,2.681,0,0,1,.079,2.53,2.3,2.3,0,0,1,2.431.079,2.682,2.682,0,0,1,4.944,2.687" transform="translate(43.002 15.291)" fill="#2cbf8c"/>
        <path id="Fill_22" data-name="Fill 22" d="M4.944,2.687A2.3,2.3,0,0,1,2.59,5.139,2.681,2.681,0,0,1,.079,2.53,2.3,2.3,0,0,1,2.432.079,2.682,2.682,0,0,1,4.944,2.687" transform="translate(56.381 15.723)" fill="#2cbf8c"/>
        <path id="Fill_27" data-name="Fill 27" d="M4.964,3.32c.054,1.746-.99,3.127-2.335,3.083S.153,4.909.1,3.163,1.089.035,2.431.079,4.909,1.573,4.964,3.32" transform="translate(0.907 29.095)" fill="#2cbf8c"/>
        <path id="Fill_29" data-name="Fill 29" d="M4.964,3.32c.054,1.746-.99,3.127-2.334,3.083S.153,4.909.1,3.163,1.089.035,2.432.079,4.909,1.573,4.964,3.32" transform="translate(15.502 29.567)" fill="#2cbf8c"/>
        <path id="Fill_31" data-name="Fill 31" d="M4.964,3.32C5.018,5.066,3.973,6.447,2.63,6.4S.153,4.909.1,3.163,1.089.035,2.432.079,4.909,1.573,4.964,3.32" transform="translate(28.88 29.999)" fill="#2cbf8c"/>
        <path id="Fill_33" data-name="Fill 33" d="M4.964,3.32C5.018,5.066,3.973,6.447,2.629,6.4S.153,4.909.1,3.163,1.088.035,2.431.079,4.909,1.573,4.964,3.32" transform="translate(43.475 30.471)" fill="#2cbf8c"/>
        <path id="Fill_35" data-name="Fill 35" d="M4.964,3.32c.054,1.746-.99,3.127-2.334,3.083S.153,4.909.1,3.163,1.089.035,2.432.079,4.909,1.573,4.964,3.32" transform="translate(56.854 30.903)" fill="#2cbf8c"/>
        <path id="Fill_40" data-name="Fill 40" d="M4.964,3.319c.054,1.747-.99,3.128-2.335,3.084S.153,4.909.1,3.162,1.089.035,2.431.079,4.909,1.573,4.964,3.319" transform="translate(1.34 43.01)" fill="#2cbf8c"/>
        <path id="Fill_42" data-name="Fill 42" d="M4.964,3.319c.054,1.747-.99,3.128-2.334,3.084S.153,4.909.1,3.162,1.089.035,2.432.079,4.909,1.573,4.964,3.319" transform="translate(15.935 43.481)" fill="#2cbf8c"/>
        <path id="Fill_44" data-name="Fill 44" d="M4.964,3.319C5.018,5.066,3.973,6.447,2.63,6.4S.153,4.909.1,3.162,1.089.035,2.432.079,4.909,1.573,4.964,3.319" transform="translate(29.314 43.914)" fill="#2cbf8c"/>
        <path id="Fill_46" data-name="Fill 46" d="M4.964,3.319C5.018,5.066,3.973,6.447,2.629,6.4S.153,4.909.1,3.162,1.088.035,2.431.079,4.909,1.573,4.964,3.319" transform="translate(43.909 44.386)" fill="#2cbf8c"/>
        <path id="Fill_48" data-name="Fill 48" d="M4.964,3.319c.054,1.747-.99,3.128-2.334,3.084S.153,4.909.1,3.162,1.089.035,2.432.079,4.909,1.573,4.964,3.319" transform="translate(57.287 44.818)" fill="#2cbf8c"/>
        <path id="Fill_53" data-name="Fill 53" d="M4.944,2.687A2.3,2.3,0,0,1,2.589,5.139,2.682,2.682,0,0,1,.079,2.53,2.3,2.3,0,0,1,2.431.079,2.682,2.682,0,0,1,4.944,2.687" transform="translate(1.813 58.19)" fill="#2cbf8c"/>
        <path id="Fill_55" data-name="Fill 55" d="M4.944,2.687A2.3,2.3,0,0,1,2.59,5.139,2.682,2.682,0,0,1,.079,2.53,2.3,2.3,0,0,1,2.432.079,2.682,2.682,0,0,1,4.944,2.687" transform="translate(16.408 58.661)" fill="#2cbf8c"/>
        <path id="Fill_57" data-name="Fill 57" d="M4.944,2.687A2.3,2.3,0,0,1,2.59,5.139,2.682,2.682,0,0,1,.079,2.53,2.3,2.3,0,0,1,2.432.079,2.682,2.682,0,0,1,4.944,2.687" transform="translate(29.787 59.094)" fill="#2cbf8c"/>
        <path id="Fill_59" data-name="Fill 59" d="M4.944,2.687A2.3,2.3,0,0,1,2.589,5.139,2.681,2.681,0,0,1,.079,2.53,2.3,2.3,0,0,1,2.431.079,2.682,2.682,0,0,1,4.944,2.687" transform="translate(44.382 59.566)" fill="#2cbf8c"/>
        <path id="Fill_61" data-name="Fill 61" d="M4.944,2.687A2.3,2.3,0,0,1,2.59,5.139,2.682,2.682,0,0,1,.079,2.53,2.3,2.3,0,0,1,2.432.079,2.681,2.681,0,0,1,4.944,2.687" transform="translate(57.76 59.998)" fill="#2cbf8c"/>
        <path id="Fill_66" data-name="Fill 66" d="M4.944,2.687A2.3,2.3,0,0,1,2.589,5.139,2.681,2.681,0,0,1,.079,2.53,2.3,2.3,0,0,1,2.431.079,2.682,2.682,0,0,1,4.944,2.687" transform="translate(2.247 72.105)" fill="#2cbf8c"/>
        <path id="Fill_68" data-name="Fill 68" d="M4.944,2.687A2.3,2.3,0,0,1,2.59,5.139,2.681,2.681,0,0,1,.079,2.53,2.3,2.3,0,0,1,2.432.079,2.682,2.682,0,0,1,4.944,2.687" transform="translate(16.842 72.576)" fill="#2cbf8c"/>
        <path id="Fill_70" data-name="Fill 70" d="M4.944,2.687A2.3,2.3,0,0,1,2.59,5.139,2.681,2.681,0,0,1,.079,2.53,2.3,2.3,0,0,1,2.432.079,2.682,2.682,0,0,1,4.944,2.687" transform="translate(30.22 73.009)" fill="#2cbf8c"/>
        <path id="Fill_72" data-name="Fill 72" d="M4.944,2.687A2.3,2.3,0,0,1,2.589,5.139,2.681,2.681,0,0,1,.079,2.53,2.3,2.3,0,0,1,2.431.079,2.682,2.682,0,0,1,4.944,2.687" transform="translate(44.815 73.48)" fill="#2cbf8c"/>
        <path id="Fill_74" data-name="Fill 74" d="M4.944,2.687A2.3,2.3,0,0,1,2.59,5.139,2.681,2.681,0,0,1,.079,2.53,2.3,2.3,0,0,1,2.432.079,2.681,2.681,0,0,1,4.944,2.687" transform="translate(58.194 73.913)" fill="#2cbf8c"/>
        <path id="Fill_9_Copy" data-name="Fill 9 Copy" d="M4.944,2.687A2.3,2.3,0,0,1,2.59,5.139,2.681,2.681,0,0,1,.079,2.53,2.3,2.3,0,0,1,2.432.079,2.681,2.681,0,0,1,4.944,2.687" transform="translate(70.542 2.28)" fill="#2cbf8c"/>
        <path id="Fill_22_Copy" data-name="Fill 22 Copy" d="M4.944,2.687A2.3,2.3,0,0,1,2.59,5.139,2.681,2.681,0,0,1,.079,2.53,2.3,2.3,0,0,1,2.432.079,2.682,2.682,0,0,1,4.944,2.687" transform="translate(70.976 16.195)" fill="#2cbf8c"/>
        <path id="Fill_35_Copy" data-name="Fill 35 Copy" d="M4.964,3.32c.054,1.746-.99,3.127-2.334,3.083S.153,4.909.1,3.163,1.089.035,2.432.079,4.909,1.573,4.964,3.32" transform="translate(71.449 31.375)" fill="#2cbf8c"/>
        <path id="Fill_48_Copy" data-name="Fill 48 Copy" d="M4.964,3.319c.054,1.747-.99,3.128-2.334,3.084S.153,4.909.1,3.162,1.089.035,2.432.079,4.909,1.573,4.964,3.319" transform="translate(71.882 45.29)" fill="#2cbf8c"/>
        <path id="Fill_61_Copy" data-name="Fill 61 Copy" d="M4.944,2.687A2.3,2.3,0,0,1,2.59,5.139,2.682,2.682,0,0,1,.079,2.53,2.3,2.3,0,0,1,2.432.079,2.681,2.681,0,0,1,4.944,2.687" transform="translate(72.355 60.47)" fill="#2cbf8c"/>
        <path id="Fill_74_Copy" data-name="Fill 74 Copy" d="M4.944,2.687A2.3,2.3,0,0,1,2.59,5.139,2.681,2.681,0,0,1,.079,2.53,2.3,2.3,0,0,1,2.432.079,2.681,2.681,0,0,1,4.944,2.687" transform="translate(72.789 74.385)" fill="#2cbf8c"/>
      </g>
      <g id="Group_79_Copy" data-name="Group 79 Copy" transform="translate(2.635 84.564)">
        <path id="Fill_1-2" data-name="Fill 1" d="M4.944,2.687A2.3,2.3,0,0,1,2.589,5.139,2.681,2.681,0,0,1,.079,2.53,2.3,2.3,0,0,1,2.431.079,2.682,2.682,0,0,1,4.944,2.687" fill="#2cbf8c"/>
        <path id="Fill_3-2" data-name="Fill 3" d="M4.944,2.687A2.3,2.3,0,0,1,2.59,5.139,2.681,2.681,0,0,1,.079,2.53,2.3,2.3,0,0,1,2.432.079,2.682,2.682,0,0,1,4.944,2.687" transform="translate(14.595 0.472)" fill="#2cbf8c"/>
        <path id="Fill_5-2" data-name="Fill 5" d="M4.944,2.687A2.3,2.3,0,0,1,2.59,5.139,2.681,2.681,0,0,1,.079,2.53,2.3,2.3,0,0,1,2.432.079,2.682,2.682,0,0,1,4.944,2.687" transform="translate(27.974 0.904)" fill="#2cbf8c"/>
        <path id="Fill_7-2" data-name="Fill 7" d="M4.944,2.687A2.3,2.3,0,0,1,2.589,5.139,2.681,2.681,0,0,1,.079,2.53,2.3,2.3,0,0,1,2.431.079,2.682,2.682,0,0,1,4.944,2.687" transform="translate(42.569 1.376)" fill="#2cbf8c"/>
        <path id="Fill_9-2" data-name="Fill 9" d="M4.944,2.687A2.3,2.3,0,0,1,2.59,5.139,2.681,2.681,0,0,1,.079,2.53,2.3,2.3,0,0,1,2.432.079,2.681,2.681,0,0,1,4.944,2.687" transform="translate(55.947 1.808)" fill="#2cbf8c"/>
        <path id="Fill_14-2" data-name="Fill 14" d="M4.944,2.687A2.3,2.3,0,0,1,2.589,5.139,2.681,2.681,0,0,1,.079,2.53,2.3,2.3,0,0,1,2.431.079,2.682,2.682,0,0,1,4.944,2.687" transform="translate(0.434 13.915)" fill="#2cbf8c"/>
        <path id="Fill_16-2" data-name="Fill 16" d="M4.944,2.687A2.3,2.3,0,0,1,2.59,5.139,2.681,2.681,0,0,1,.079,2.53,2.3,2.3,0,0,1,2.432.079,2.682,2.682,0,0,1,4.944,2.687" transform="translate(15.029 14.387)" fill="#2cbf8c"/>
        <path id="Fill_18-2" data-name="Fill 18" d="M4.944,2.687A2.3,2.3,0,0,1,2.59,5.139,2.681,2.681,0,0,1,.079,2.53,2.3,2.3,0,0,1,2.432.079,2.682,2.682,0,0,1,4.944,2.687" transform="translate(28.407 14.819)" fill="#2cbf8c"/>
        <path id="Fill_20-2" data-name="Fill 20" d="M4.944,2.687A2.3,2.3,0,0,1,2.589,5.139,2.681,2.681,0,0,1,.079,2.53,2.3,2.3,0,0,1,2.431.079,2.682,2.682,0,0,1,4.944,2.687" transform="translate(43.002 15.291)" fill="#2cbf8c"/>
        <path id="Fill_22-2" data-name="Fill 22" d="M4.944,2.687A2.3,2.3,0,0,1,2.59,5.139,2.681,2.681,0,0,1,.079,2.53,2.3,2.3,0,0,1,2.432.079,2.682,2.682,0,0,1,4.944,2.687" transform="translate(56.381 15.723)" fill="#2cbf8c"/>
        <path id="Fill_27-2" data-name="Fill 27" d="M4.964,3.32c.054,1.746-.99,3.127-2.335,3.083S.153,4.909.1,3.163,1.089.035,2.431.079,4.909,1.573,4.964,3.32" transform="translate(0.907 29.095)" fill="#2cbf8c"/>
        <path id="Fill_29-2" data-name="Fill 29" d="M4.964,3.32c.054,1.746-.99,3.127-2.334,3.083S.153,4.909.1,3.163,1.089.035,2.432.079,4.909,1.573,4.964,3.32" transform="translate(15.502 29.567)" fill="#2cbf8c"/>
        <path id="Fill_31-2" data-name="Fill 31" d="M4.964,3.32C5.018,5.066,3.973,6.447,2.63,6.4S.153,4.909.1,3.163,1.089.035,2.432.079,4.909,1.573,4.964,3.32" transform="translate(28.88 29.999)" fill="#2cbf8c"/>
        <path id="Fill_33-2" data-name="Fill 33" d="M4.964,3.32C5.018,5.066,3.973,6.447,2.629,6.4S.153,4.909.1,3.163,1.088.035,2.431.079,4.909,1.573,4.964,3.32" transform="translate(43.475 30.471)" fill="#2cbf8c"/>
        <path id="Fill_35-2" data-name="Fill 35" d="M4.964,3.32c.054,1.746-.99,3.127-2.334,3.083S.153,4.909.1,3.163,1.089.035,2.432.079,4.909,1.573,4.964,3.32" transform="translate(56.854 30.903)" fill="#2cbf8c"/>
        <path id="Fill_40-2" data-name="Fill 40" d="M4.964,3.319c.054,1.747-.99,3.128-2.335,3.084S.153,4.909.1,3.162,1.089.035,2.431.079,4.909,1.573,4.964,3.319" transform="translate(1.34 43.01)" fill="#2cbf8c"/>
        <path id="Fill_42-2" data-name="Fill 42" d="M4.964,3.319c.054,1.747-.99,3.128-2.334,3.084S.153,4.909.1,3.162,1.089.035,2.432.079,4.909,1.573,4.964,3.319" transform="translate(15.935 43.481)" fill="#2cbf8c"/>
        <path id="Fill_44-2" data-name="Fill 44" d="M4.964,3.319C5.018,5.066,3.973,6.447,2.63,6.4S.153,4.909.1,3.162,1.089.035,2.432.079,4.909,1.573,4.964,3.319" transform="translate(29.314 43.914)" fill="#2cbf8c"/>
        <path id="Fill_46-2" data-name="Fill 46" d="M4.964,3.319C5.018,5.066,3.973,6.447,2.629,6.4S.153,4.909.1,3.162,1.088.035,2.431.079,4.909,1.573,4.964,3.319" transform="translate(43.909 44.386)" fill="#2cbf8c"/>
        <path id="Fill_48-2" data-name="Fill 48" d="M4.964,3.319c.054,1.747-.99,3.128-2.334,3.084S.153,4.909.1,3.162,1.089.035,2.432.079,4.909,1.573,4.964,3.319" transform="translate(57.287 44.818)" fill="#2cbf8c"/>
        <path id="Fill_53-2" data-name="Fill 53" d="M4.944,2.687A2.3,2.3,0,0,1,2.589,5.139,2.682,2.682,0,0,1,.079,2.53,2.3,2.3,0,0,1,2.431.079,2.682,2.682,0,0,1,4.944,2.687" transform="translate(1.813 58.19)" fill="#2cbf8c"/>
        <path id="Fill_55-2" data-name="Fill 55" d="M4.944,2.687A2.3,2.3,0,0,1,2.59,5.139,2.682,2.682,0,0,1,.079,2.53,2.3,2.3,0,0,1,2.432.079,2.682,2.682,0,0,1,4.944,2.687" transform="translate(16.408 58.661)" fill="#2cbf8c"/>
        <path id="Fill_57-2" data-name="Fill 57" d="M4.944,2.687A2.3,2.3,0,0,1,2.59,5.139,2.682,2.682,0,0,1,.079,2.53,2.3,2.3,0,0,1,2.432.079,2.682,2.682,0,0,1,4.944,2.687" transform="translate(29.787 59.094)" fill="#2cbf8c"/>
        <path id="Fill_59-2" data-name="Fill 59" d="M4.944,2.687A2.3,2.3,0,0,1,2.589,5.139,2.681,2.681,0,0,1,.079,2.53,2.3,2.3,0,0,1,2.431.079,2.682,2.682,0,0,1,4.944,2.687" transform="translate(44.382 59.566)" fill="#2cbf8c"/>
        <path id="Fill_61-2" data-name="Fill 61" d="M4.944,2.687A2.3,2.3,0,0,1,2.59,5.139,2.682,2.682,0,0,1,.079,2.53,2.3,2.3,0,0,1,2.432.079,2.681,2.681,0,0,1,4.944,2.687" transform="translate(57.76 59.998)" fill="#2cbf8c"/>
        <path id="Fill_66-2" data-name="Fill 66" d="M4.944,2.687A2.3,2.3,0,0,1,2.589,5.139,2.681,2.681,0,0,1,.079,2.53,2.3,2.3,0,0,1,2.431.079,2.682,2.682,0,0,1,4.944,2.687" transform="translate(2.247 72.105)" fill="#2cbf8c"/>
        <path id="Fill_68-2" data-name="Fill 68" d="M4.944,2.687A2.3,2.3,0,0,1,2.59,5.139,2.681,2.681,0,0,1,.079,2.53,2.3,2.3,0,0,1,2.432.079,2.682,2.682,0,0,1,4.944,2.687" transform="translate(16.842 72.576)" fill="#2cbf8c"/>
        <path id="Fill_70-2" data-name="Fill 70" d="M4.944,2.687A2.3,2.3,0,0,1,2.59,5.139,2.681,2.681,0,0,1,.079,2.53,2.3,2.3,0,0,1,2.432.079,2.682,2.682,0,0,1,4.944,2.687" transform="translate(30.22 73.009)" fill="#2cbf8c"/>
        <path id="Fill_72-2" data-name="Fill 72" d="M4.944,2.687A2.3,2.3,0,0,1,2.589,5.139,2.681,2.681,0,0,1,.079,2.53,2.3,2.3,0,0,1,2.431.079,2.682,2.682,0,0,1,4.944,2.687" transform="translate(44.815 73.48)" fill="#2cbf8c"/>
        <path id="Fill_74-2" data-name="Fill 74" d="M4.944,2.687A2.3,2.3,0,0,1,2.59,5.139,2.681,2.681,0,0,1,.079,2.53,2.3,2.3,0,0,1,2.432.079,2.681,2.681,0,0,1,4.944,2.687" transform="translate(58.194 73.913)" fill="#2cbf8c"/>
        <path id="Fill_9_Copy-2" data-name="Fill 9 Copy" d="M4.944,2.687A2.3,2.3,0,0,1,2.59,5.139,2.681,2.681,0,0,1,.079,2.53,2.3,2.3,0,0,1,2.432.079,2.681,2.681,0,0,1,4.944,2.687" transform="translate(70.542 2.28)" fill="#2cbf8c"/>
        <path id="Fill_22_Copy-2" data-name="Fill 22 Copy" d="M4.944,2.687A2.3,2.3,0,0,1,2.59,5.139,2.681,2.681,0,0,1,.079,2.53,2.3,2.3,0,0,1,2.432.079,2.682,2.682,0,0,1,4.944,2.687" transform="translate(70.976 16.195)" fill="#2cbf8c"/>
        <path id="Fill_35_Copy-2" data-name="Fill 35 Copy" d="M4.964,3.32c.054,1.746-.99,3.127-2.334,3.083S.153,4.909.1,3.163,1.089.035,2.432.079,4.909,1.573,4.964,3.32" transform="translate(71.449 31.375)" fill="#2cbf8c"/>
        <path id="Fill_48_Copy-2" data-name="Fill 48 Copy" d="M4.964,3.319c.054,1.747-.99,3.128-2.334,3.084S.153,4.909.1,3.162,1.089.035,2.432.079,4.909,1.573,4.964,3.319" transform="translate(71.882 45.29)" fill="#2cbf8c"/>
        <path id="Fill_61_Copy-2" data-name="Fill 61 Copy" d="M4.944,2.687A2.3,2.3,0,0,1,2.59,5.139,2.682,2.682,0,0,1,.079,2.53,2.3,2.3,0,0,1,2.432.079,2.681,2.681,0,0,1,4.944,2.687" transform="translate(72.355 60.47)" fill="#2cbf8c"/>
        <path id="Fill_74_Copy-2" data-name="Fill 74 Copy" d="M4.944,2.687A2.3,2.3,0,0,1,2.59,5.139,2.681,2.681,0,0,1,.079,2.53,2.3,2.3,0,0,1,2.432.079,2.681,2.681,0,0,1,4.944,2.687" transform="translate(72.789 74.385)" fill="#2cbf8c"/>
      </g>
      <g id="Group_79_Copy_3" data-name="Group 79 Copy 3" transform="translate(85.597 2.767)">
        <path id="Fill_1-3" data-name="Fill 1" d="M4.944,2.687A2.3,2.3,0,0,1,2.589,5.139,2.681,2.681,0,0,1,.079,2.53,2.3,2.3,0,0,1,2.431.079,2.682,2.682,0,0,1,4.944,2.687" fill="#2cbf8c"/>
        <path id="Fill_3-3" data-name="Fill 3" d="M4.944,2.687A2.3,2.3,0,0,1,2.59,5.139,2.681,2.681,0,0,1,.079,2.53,2.3,2.3,0,0,1,2.432.079,2.682,2.682,0,0,1,4.944,2.687" transform="translate(14.595 0.472)" fill="#2cbf8c"/>
        <path id="Fill_5-3" data-name="Fill 5" d="M4.944,2.687A2.3,2.3,0,0,1,2.59,5.139,2.681,2.681,0,0,1,.079,2.53,2.3,2.3,0,0,1,2.432.079,2.682,2.682,0,0,1,4.944,2.687" transform="translate(27.974 0.904)" fill="#2cbf8c"/>
        <path id="Fill_7-3" data-name="Fill 7" d="M4.944,2.687A2.3,2.3,0,0,1,2.589,5.139,2.681,2.681,0,0,1,.079,2.53,2.3,2.3,0,0,1,2.431.079,2.682,2.682,0,0,1,4.944,2.687" transform="translate(42.569 1.376)" fill="#2cbf8c"/>
        <path id="Fill_9-3" data-name="Fill 9" d="M4.944,2.687A2.3,2.3,0,0,1,2.59,5.139,2.681,2.681,0,0,1,.079,2.53,2.3,2.3,0,0,1,2.432.079,2.681,2.681,0,0,1,4.944,2.687" transform="translate(55.947 1.808)" fill="#2cbf8c"/>
        <path id="Fill_14-3" data-name="Fill 14" d="M4.944,2.687A2.3,2.3,0,0,1,2.589,5.139,2.681,2.681,0,0,1,.079,2.53,2.3,2.3,0,0,1,2.431.079,2.682,2.682,0,0,1,4.944,2.687" transform="translate(0.434 13.915)" fill="#2cbf8c"/>
        <path id="Fill_16-3" data-name="Fill 16" d="M4.944,2.687A2.3,2.3,0,0,1,2.59,5.139,2.681,2.681,0,0,1,.079,2.53,2.3,2.3,0,0,1,2.432.079,2.682,2.682,0,0,1,4.944,2.687" transform="translate(15.029 14.387)" fill="#2cbf8c"/>
        <path id="Fill_18-3" data-name="Fill 18" d="M4.944,2.687A2.3,2.3,0,0,1,2.59,5.139,2.681,2.681,0,0,1,.079,2.53,2.3,2.3,0,0,1,2.432.079,2.682,2.682,0,0,1,4.944,2.687" transform="translate(28.407 14.819)" fill="#2cbf8c"/>
        <path id="Fill_20-3" data-name="Fill 20" d="M4.944,2.687A2.3,2.3,0,0,1,2.589,5.139,2.681,2.681,0,0,1,.079,2.53,2.3,2.3,0,0,1,2.431.079,2.682,2.682,0,0,1,4.944,2.687" transform="translate(43.002 15.291)" fill="#2cbf8c"/>
        <path id="Fill_22-3" data-name="Fill 22" d="M4.944,2.687A2.3,2.3,0,0,1,2.59,5.139,2.681,2.681,0,0,1,.079,2.53,2.3,2.3,0,0,1,2.432.079,2.682,2.682,0,0,1,4.944,2.687" transform="translate(56.381 15.723)" fill="#2cbf8c"/>
        <path id="Fill_27-3" data-name="Fill 27" d="M4.964,3.32c.054,1.746-.99,3.127-2.335,3.083S.153,4.909.1,3.163,1.089.035,2.431.079,4.909,1.573,4.964,3.32" transform="translate(0.907 29.095)" fill="#2cbf8c"/>
        <path id="Fill_29-3" data-name="Fill 29" d="M4.964,3.32c.054,1.746-.99,3.127-2.334,3.083S.153,4.909.1,3.163,1.089.035,2.432.079,4.909,1.573,4.964,3.32" transform="translate(15.502 29.567)" fill="#2cbf8c"/>
        <path id="Fill_31-3" data-name="Fill 31" d="M4.964,3.32C5.018,5.066,3.973,6.447,2.63,6.4S.153,4.909.1,3.163,1.089.035,2.432.079,4.909,1.573,4.964,3.32" transform="translate(28.88 29.999)" fill="#2cbf8c"/>
        <path id="Fill_33-3" data-name="Fill 33" d="M4.964,3.32C5.018,5.066,3.973,6.447,2.629,6.4S.153,4.909.1,3.163,1.088.035,2.431.079,4.909,1.573,4.964,3.32" transform="translate(43.475 30.471)" fill="#2cbf8c"/>
        <path id="Fill_35-3" data-name="Fill 35" d="M4.964,3.32c.054,1.746-.99,3.127-2.334,3.083S.153,4.909.1,3.163,1.089.035,2.432.079,4.909,1.573,4.964,3.32" transform="translate(56.854 30.903)" fill="#2cbf8c"/>
        <path id="Fill_40-3" data-name="Fill 40" d="M4.964,3.319c.054,1.747-.99,3.128-2.335,3.084S.153,4.909.1,3.162,1.089.035,2.431.079,4.909,1.573,4.964,3.319" transform="translate(1.34 43.01)" fill="#2cbf8c"/>
        <path id="Fill_42-3" data-name="Fill 42" d="M4.964,3.319c.054,1.747-.99,3.128-2.334,3.084S.153,4.909.1,3.162,1.089.035,2.432.079,4.909,1.573,4.964,3.319" transform="translate(15.935 43.481)" fill="#2cbf8c"/>
        <path id="Fill_44-3" data-name="Fill 44" d="M4.964,3.319C5.018,5.066,3.973,6.447,2.63,6.4S.153,4.909.1,3.162,1.089.035,2.432.079,4.909,1.573,4.964,3.319" transform="translate(29.314 43.914)" fill="#2cbf8c"/>
        <path id="Fill_46-3" data-name="Fill 46" d="M4.964,3.319C5.018,5.066,3.973,6.447,2.629,6.4S.153,4.909.1,3.162,1.088.035,2.431.079,4.909,1.573,4.964,3.319" transform="translate(43.909 44.386)" fill="#2cbf8c"/>
        <path id="Fill_48-3" data-name="Fill 48" d="M4.964,3.319c.054,1.747-.99,3.128-2.334,3.084S.153,4.909.1,3.162,1.089.035,2.432.079,4.909,1.573,4.964,3.319" transform="translate(57.287 44.818)" fill="#2cbf8c"/>
        <path id="Fill_53-3" data-name="Fill 53" d="M4.944,2.687A2.3,2.3,0,0,1,2.589,5.139,2.682,2.682,0,0,1,.079,2.53,2.3,2.3,0,0,1,2.431.079,2.682,2.682,0,0,1,4.944,2.687" transform="translate(1.813 58.19)" fill="#2cbf8c"/>
        <path id="Fill_55-3" data-name="Fill 55" d="M4.944,2.687A2.3,2.3,0,0,1,2.59,5.139,2.682,2.682,0,0,1,.079,2.53,2.3,2.3,0,0,1,2.432.079,2.682,2.682,0,0,1,4.944,2.687" transform="translate(16.408 58.661)" fill="#2cbf8c"/>
        <path id="Fill_57-3" data-name="Fill 57" d="M4.944,2.687A2.3,2.3,0,0,1,2.59,5.139,2.682,2.682,0,0,1,.079,2.53,2.3,2.3,0,0,1,2.432.079,2.682,2.682,0,0,1,4.944,2.687" transform="translate(29.787 59.094)" fill="#2cbf8c"/>
        <path id="Fill_59-3" data-name="Fill 59" d="M4.944,2.687A2.3,2.3,0,0,1,2.589,5.139,2.681,2.681,0,0,1,.079,2.53,2.3,2.3,0,0,1,2.431.079,2.682,2.682,0,0,1,4.944,2.687" transform="translate(44.382 59.566)" fill="#2cbf8c"/>
        <path id="Fill_61-3" data-name="Fill 61" d="M4.944,2.687A2.3,2.3,0,0,1,2.59,5.139,2.682,2.682,0,0,1,.079,2.53,2.3,2.3,0,0,1,2.432.079,2.681,2.681,0,0,1,4.944,2.687" transform="translate(57.76 59.998)" fill="#2cbf8c"/>
        <path id="Fill_66-3" data-name="Fill 66" d="M4.944,2.687A2.3,2.3,0,0,1,2.589,5.139,2.681,2.681,0,0,1,.079,2.53,2.3,2.3,0,0,1,2.431.079,2.682,2.682,0,0,1,4.944,2.687" transform="translate(2.247 72.105)" fill="#2cbf8c"/>
        <path id="Fill_68-3" data-name="Fill 68" d="M4.944,2.687A2.3,2.3,0,0,1,2.59,5.139,2.681,2.681,0,0,1,.079,2.53,2.3,2.3,0,0,1,2.432.079,2.682,2.682,0,0,1,4.944,2.687" transform="translate(16.842 72.576)" fill="#2cbf8c"/>
        <path id="Fill_70-3" data-name="Fill 70" d="M4.944,2.687A2.3,2.3,0,0,1,2.59,5.139,2.681,2.681,0,0,1,.079,2.53,2.3,2.3,0,0,1,2.432.079,2.682,2.682,0,0,1,4.944,2.687" transform="translate(30.22 73.009)" fill="#2cbf8c"/>
        <path id="Fill_72-3" data-name="Fill 72" d="M4.944,2.687A2.3,2.3,0,0,1,2.589,5.139,2.681,2.681,0,0,1,.079,2.53,2.3,2.3,0,0,1,2.431.079,2.682,2.682,0,0,1,4.944,2.687" transform="translate(44.815 73.48)" fill="#2cbf8c"/>
        <path id="Fill_74-3" data-name="Fill 74" d="M4.944,2.687A2.3,2.3,0,0,1,2.59,5.139,2.681,2.681,0,0,1,.079,2.53,2.3,2.3,0,0,1,2.432.079,2.681,2.681,0,0,1,4.944,2.687" transform="translate(58.194 73.913)" fill="#2cbf8c"/>
        <path id="Fill_9_Copy-3" data-name="Fill 9 Copy" d="M4.944,2.687A2.3,2.3,0,0,1,2.59,5.139,2.681,2.681,0,0,1,.079,2.53,2.3,2.3,0,0,1,2.432.079,2.681,2.681,0,0,1,4.944,2.687" transform="translate(70.542 2.28)" fill="#2cbf8c"/>
        <path id="Fill_22_Copy-3" data-name="Fill 22 Copy" d="M4.944,2.687A2.3,2.3,0,0,1,2.59,5.139,2.681,2.681,0,0,1,.079,2.53,2.3,2.3,0,0,1,2.432.079,2.682,2.682,0,0,1,4.944,2.687" transform="translate(70.976 16.195)" fill="#2cbf8c"/>
        <path id="Fill_35_Copy-3" data-name="Fill 35 Copy" d="M4.964,3.32c.054,1.746-.99,3.127-2.334,3.083S.153,4.909.1,3.163,1.089.035,2.432.079,4.909,1.573,4.964,3.32" transform="translate(71.449 31.375)" fill="#2cbf8c"/>
        <path id="Fill_48_Copy-3" data-name="Fill 48 Copy" d="M4.964,3.319c.054,1.747-.99,3.128-2.334,3.084S.153,4.909.1,3.162,1.089.035,2.432.079,4.909,1.573,4.964,3.319" transform="translate(71.882 45.29)" fill="#2cbf8c"/>
        <path id="Fill_61_Copy-3" data-name="Fill 61 Copy" d="M4.944,2.687A2.3,2.3,0,0,1,2.59,5.139,2.682,2.682,0,0,1,.079,2.53,2.3,2.3,0,0,1,2.432.079,2.681,2.681,0,0,1,4.944,2.687" transform="translate(72.355 60.47)" fill="#2cbf8c"/>
        <path id="Fill_74_Copy-3" data-name="Fill 74 Copy" d="M4.944,2.687A2.3,2.3,0,0,1,2.59,5.139,2.681,2.681,0,0,1,.079,2.53,2.3,2.3,0,0,1,2.432.079,2.681,2.681,0,0,1,4.944,2.687" transform="translate(72.789 74.385)" fill="#2cbf8c"/>
      </g>
      <g id="Group_79_Copy_2" data-name="Group 79 Copy 2" transform="translate(88.232 87.331)">
        <path id="Fill_1-4" data-name="Fill 1" d="M4.944,2.687A2.3,2.3,0,0,1,2.589,5.139,2.681,2.681,0,0,1,.079,2.53,2.3,2.3,0,0,1,2.431.079,2.682,2.682,0,0,1,4.944,2.687" fill="#2cbf8c"/>
        <path id="Fill_3-4" data-name="Fill 3" d="M4.944,2.687A2.3,2.3,0,0,1,2.59,5.139,2.681,2.681,0,0,1,.079,2.53,2.3,2.3,0,0,1,2.432.079,2.682,2.682,0,0,1,4.944,2.687" transform="translate(14.595 0.472)" fill="#2cbf8c"/>
        <path id="Fill_5-4" data-name="Fill 5" d="M4.944,2.687A2.3,2.3,0,0,1,2.59,5.139,2.681,2.681,0,0,1,.079,2.53,2.3,2.3,0,0,1,2.432.079,2.682,2.682,0,0,1,4.944,2.687" transform="translate(27.974 0.904)" fill="#2cbf8c"/>
        <path id="Fill_7-4" data-name="Fill 7" d="M4.944,2.687A2.3,2.3,0,0,1,2.589,5.139,2.681,2.681,0,0,1,.079,2.53,2.3,2.3,0,0,1,2.431.079,2.682,2.682,0,0,1,4.944,2.687" transform="translate(42.569 1.376)" fill="#2cbf8c"/>
        <path id="Fill_9-4" data-name="Fill 9" d="M4.944,2.687A2.3,2.3,0,0,1,2.59,5.139,2.681,2.681,0,0,1,.079,2.53,2.3,2.3,0,0,1,2.432.079,2.681,2.681,0,0,1,4.944,2.687" transform="translate(55.947 1.808)" fill="#2cbf8c"/>
        <path id="Fill_14-4" data-name="Fill 14" d="M4.944,2.687A2.3,2.3,0,0,1,2.589,5.139,2.681,2.681,0,0,1,.079,2.53,2.3,2.3,0,0,1,2.431.079,2.682,2.682,0,0,1,4.944,2.687" transform="translate(0.434 13.915)" fill="#2cbf8c"/>
        <path id="Fill_16-4" data-name="Fill 16" d="M4.944,2.687A2.3,2.3,0,0,1,2.59,5.139,2.681,2.681,0,0,1,.079,2.53,2.3,2.3,0,0,1,2.432.079,2.682,2.682,0,0,1,4.944,2.687" transform="translate(15.029 14.387)" fill="#2cbf8c"/>
        <path id="Fill_18-4" data-name="Fill 18" d="M4.944,2.687A2.3,2.3,0,0,1,2.59,5.139,2.681,2.681,0,0,1,.079,2.53,2.3,2.3,0,0,1,2.432.079,2.682,2.682,0,0,1,4.944,2.687" transform="translate(28.407 14.819)" fill="#2cbf8c"/>
        <path id="Fill_20-4" data-name="Fill 20" d="M4.944,2.687A2.3,2.3,0,0,1,2.589,5.139,2.681,2.681,0,0,1,.079,2.53,2.3,2.3,0,0,1,2.431.079,2.682,2.682,0,0,1,4.944,2.687" transform="translate(43.002 15.291)" fill="#2cbf8c"/>
        <path id="Fill_22-4" data-name="Fill 22" d="M4.944,2.687A2.3,2.3,0,0,1,2.59,5.139,2.681,2.681,0,0,1,.079,2.53,2.3,2.3,0,0,1,2.432.079,2.682,2.682,0,0,1,4.944,2.687" transform="translate(56.381 15.723)" fill="#2cbf8c"/>
        <path id="Fill_27-4" data-name="Fill 27" d="M4.964,3.32c.054,1.746-.99,3.127-2.335,3.083S.153,4.909.1,3.163,1.089.035,2.431.079,4.909,1.573,4.964,3.32" transform="translate(0.907 29.095)" fill="#2cbf8c"/>
        <path id="Fill_29-4" data-name="Fill 29" d="M4.964,3.32c.054,1.746-.99,3.127-2.334,3.083S.153,4.909.1,3.163,1.089.035,2.432.079,4.909,1.573,4.964,3.32" transform="translate(15.502 29.567)" fill="#2cbf8c"/>
        <path id="Fill_31-4" data-name="Fill 31" d="M4.964,3.32C5.018,5.066,3.973,6.447,2.63,6.4S.153,4.909.1,3.163,1.089.035,2.432.079,4.909,1.573,4.964,3.32" transform="translate(28.88 29.999)" fill="#2cbf8c"/>
        <path id="Fill_33-4" data-name="Fill 33" d="M4.964,3.32C5.018,5.066,3.973,6.447,2.629,6.4S.153,4.909.1,3.163,1.088.035,2.431.079,4.909,1.573,4.964,3.32" transform="translate(43.475 30.471)" fill="#2cbf8c"/>
        <path id="Fill_35-4" data-name="Fill 35" d="M4.964,3.32c.054,1.746-.99,3.127-2.334,3.083S.153,4.909.1,3.163,1.089.035,2.432.079,4.909,1.573,4.964,3.32" transform="translate(56.854 30.903)" fill="#2cbf8c"/>
        <path id="Fill_40-4" data-name="Fill 40" d="M4.964,3.319c.054,1.747-.99,3.128-2.335,3.084S.153,4.909.1,3.162,1.089.035,2.431.079,4.909,1.573,4.964,3.319" transform="translate(1.34 43.01)" fill="#2cbf8c"/>
        <path id="Fill_42-4" data-name="Fill 42" d="M4.964,3.319c.054,1.747-.99,3.128-2.334,3.084S.153,4.909.1,3.162,1.089.035,2.432.079,4.909,1.573,4.964,3.319" transform="translate(15.935 43.481)" fill="#2cbf8c"/>
        <path id="Fill_44-4" data-name="Fill 44" d="M4.964,3.319C5.018,5.066,3.973,6.447,2.63,6.4S.153,4.909.1,3.162,1.089.035,2.432.079,4.909,1.573,4.964,3.319" transform="translate(29.314 43.914)" fill="#2cbf8c"/>
        <path id="Fill_46-4" data-name="Fill 46" d="M4.964,3.319C5.018,5.066,3.973,6.447,2.629,6.4S.153,4.909.1,3.162,1.088.035,2.431.079,4.909,1.573,4.964,3.319" transform="translate(43.909 44.386)" fill="#2cbf8c"/>
        <path id="Fill_48-4" data-name="Fill 48" d="M4.964,3.319c.054,1.747-.99,3.128-2.334,3.084S.153,4.909.1,3.162,1.089.035,2.432.079,4.909,1.573,4.964,3.319" transform="translate(57.287 44.818)" fill="#2cbf8c"/>
        <path id="Fill_53-4" data-name="Fill 53" d="M4.944,2.687A2.3,2.3,0,0,1,2.589,5.139,2.682,2.682,0,0,1,.079,2.53,2.3,2.3,0,0,1,2.431.079,2.682,2.682,0,0,1,4.944,2.687" transform="translate(1.813 58.19)" fill="#2cbf8c"/>
        <path id="Fill_55-4" data-name="Fill 55" d="M4.944,2.687A2.3,2.3,0,0,1,2.59,5.139,2.682,2.682,0,0,1,.079,2.53,2.3,2.3,0,0,1,2.432.079,2.682,2.682,0,0,1,4.944,2.687" transform="translate(16.408 58.661)" fill="#2cbf8c"/>
        <path id="Fill_57-4" data-name="Fill 57" d="M4.944,2.687A2.3,2.3,0,0,1,2.59,5.139,2.682,2.682,0,0,1,.079,2.53,2.3,2.3,0,0,1,2.432.079,2.682,2.682,0,0,1,4.944,2.687" transform="translate(29.787 59.094)" fill="#2cbf8c"/>
        <path id="Fill_59-4" data-name="Fill 59" d="M4.944,2.687A2.3,2.3,0,0,1,2.589,5.139,2.681,2.681,0,0,1,.079,2.53,2.3,2.3,0,0,1,2.431.079,2.682,2.682,0,0,1,4.944,2.687" transform="translate(44.382 59.566)" fill="#2cbf8c"/>
        <path id="Fill_61-4" data-name="Fill 61" d="M4.944,2.687A2.3,2.3,0,0,1,2.59,5.139,2.682,2.682,0,0,1,.079,2.53,2.3,2.3,0,0,1,2.432.079,2.681,2.681,0,0,1,4.944,2.687" transform="translate(57.76 59.998)" fill="#2cbf8c"/>
        <path id="Fill_66-4" data-name="Fill 66" d="M4.944,2.687A2.3,2.3,0,0,1,2.589,5.139,2.681,2.681,0,0,1,.079,2.53,2.3,2.3,0,0,1,2.431.079,2.682,2.682,0,0,1,4.944,2.687" transform="translate(2.247 72.105)" fill="#2cbf8c"/>
        <path id="Fill_68-4" data-name="Fill 68" d="M4.944,2.687A2.3,2.3,0,0,1,2.59,5.139,2.681,2.681,0,0,1,.079,2.53,2.3,2.3,0,0,1,2.432.079,2.682,2.682,0,0,1,4.944,2.687" transform="translate(16.842 72.576)" fill="#2cbf8c"/>
        <path id="Fill_70-4" data-name="Fill 70" d="M4.944,2.687A2.3,2.3,0,0,1,2.59,5.139,2.681,2.681,0,0,1,.079,2.53,2.3,2.3,0,0,1,2.432.079,2.682,2.682,0,0,1,4.944,2.687" transform="translate(30.22 73.009)" fill="#2cbf8c"/>
        <path id="Fill_72-4" data-name="Fill 72" d="M4.944,2.687A2.3,2.3,0,0,1,2.589,5.139,2.681,2.681,0,0,1,.079,2.53,2.3,2.3,0,0,1,2.431.079,2.682,2.682,0,0,1,4.944,2.687" transform="translate(44.815 73.48)" fill="#2cbf8c"/>
        <path id="Fill_74-4" data-name="Fill 74" d="M4.944,2.687A2.3,2.3,0,0,1,2.59,5.139,2.681,2.681,0,0,1,.079,2.53,2.3,2.3,0,0,1,2.432.079,2.681,2.681,0,0,1,4.944,2.687" transform="translate(58.194 73.913)" fill="#2cbf8c"/>
        <path id="Fill_9_Copy-4" data-name="Fill 9 Copy" d="M4.944,2.687A2.3,2.3,0,0,1,2.59,5.139,2.681,2.681,0,0,1,.079,2.53,2.3,2.3,0,0,1,2.432.079,2.681,2.681,0,0,1,4.944,2.687" transform="translate(70.542 2.28)" fill="#2cbf8c"/>
        <path id="Fill_22_Copy-4" data-name="Fill 22 Copy" d="M4.944,2.687A2.3,2.3,0,0,1,2.59,5.139,2.681,2.681,0,0,1,.079,2.53,2.3,2.3,0,0,1,2.432.079,2.682,2.682,0,0,1,4.944,2.687" transform="translate(70.976 16.195)" fill="#2cbf8c"/>
        <path id="Fill_35_Copy-4" data-name="Fill 35 Copy" d="M4.964,3.32c.054,1.746-.99,3.127-2.334,3.083S.153,4.909.1,3.163,1.089.035,2.432.079,4.909,1.573,4.964,3.32" transform="translate(71.449 31.375)" fill="#2cbf8c"/>
        <path id="Fill_48_Copy-4" data-name="Fill 48 Copy" d="M4.964,3.319c.054,1.747-.99,3.128-2.334,3.084S.153,4.909.1,3.162,1.089.035,2.432.079,4.909,1.573,4.964,3.319" transform="translate(71.882 45.29)" fill="#2cbf8c"/>
        <path id="Fill_61_Copy-4" data-name="Fill 61 Copy" d="M4.944,2.687A2.3,2.3,0,0,1,2.59,5.139,2.682,2.682,0,0,1,.079,2.53,2.3,2.3,0,0,1,2.432.079,2.681,2.681,0,0,1,4.944,2.687" transform="translate(72.355 60.47)" fill="#2cbf8c"/>
        <path id="Fill_74_Copy-4" data-name="Fill 74 Copy" d="M4.944,2.687A2.3,2.3,0,0,1,2.59,5.139,2.681,2.681,0,0,1,.079,2.53,2.3,2.3,0,0,1,2.432.079,2.681,2.681,0,0,1,4.944,2.687" transform="translate(72.789 74.385)" fill="#2cbf8c"/>
      </g>
    </g>
  </g>
</svg>
