<svg xmlns="http://www.w3.org/2000/svg" width="82.226" height="88.6" viewBox="0 0 82.226 88.6">
  <g id="Group_383" data-name="Group 383" transform="translate(-153.865 -151.069)">
    <path id="Path_201" data-name="Path 201" d="M252.179,198.883a8.7,8.7,0,0,1-12.466-10.33H239.7a14.247,14.247,0,0,0-1.049-12.322,15.829,15.829,0,0,0-7.974-7.335,15.829,15.829,0,0,0-7.974,7.335,14.246,14.246,0,0,0-1.049,12.322h-.015a8.717,8.717,0,1,1-10.84-5.617,10.248,10.248,0,0,0,.152-1.794,10.358,10.358,0,0,0-3.383-8.042.01.01,0,0,0,0-.015,5.868,5.868,0,1,1,8.1.023v.015a10.354,10.354,0,0,0-3.413,8.027,11.654,11.654,0,0,0,.083,1.391,14.686,14.686,0,0,0,8.681-7.229,15.38,15.38,0,0,0,1.315-12.9s.015-.008.015-.015a8.683,8.683,0,0,1,7.358-11.273c.16-.015.312-.03.471-.038a7.353,7.353,0,0,1,1,0c.152.008.3.023.456.038h.008a7.225,7.225,0,0,1,.813.137c.152.03.3.068.456.106.167.046.327.091.486.144a8.549,8.549,0,0,1,4.956,4.082,8.637,8.637,0,0,1,.654,6.8c0,.008.015.015.015.015a15.38,15.38,0,0,0,1.315,12.9,14.239,14.239,0,0,0,9.828,7.495l-.008.015a8.7,8.7,0,0,1,2.022,16.062Z" transform="translate(-36.644 0)" fill="#052e6d"/>
    <g id="Group_380" data-name="Group 380" transform="translate(153.865 211.848)">
      <path id="Path_202" data-name="Path 202" d="M159.041,371.91a2.456,2.456,0,0,1-.2,1,2.559,2.559,0,0,1-.557.811,2.693,2.693,0,0,1-.825.55,2.588,2.588,0,0,1-2.016,0,2.6,2.6,0,0,1-.818-.55,2.623,2.623,0,0,1-.551-.811,2.538,2.538,0,0,1,0-2,2.568,2.568,0,0,1,1.369-1.368,2.585,2.585,0,0,1,2.016,0,2.7,2.7,0,0,1,.825.55,2.546,2.546,0,0,1,.557.818A2.471,2.471,0,0,1,159.041,371.91Zm-.663,19.21H154.5V376.014h3.879Z" transform="translate(-153.865 -369.343)" fill="#393838"/>
      <path id="Path_203" data-name="Path 203" d="M197.444,395.14H193.4v-4.048h-8.1v4.048h-4.034v-12.13a7.883,7.883,0,0,1,.635-3.152,8.23,8.23,0,0,1,1.728-2.574,8.079,8.079,0,0,1,2.567-1.735,8.145,8.145,0,0,1,6.3,0,8.116,8.116,0,0,1,4.309,4.309,7.888,7.888,0,0,1,.635,3.152Zm-4.048-8.082v-4.048a3.963,3.963,0,0,0-.317-1.572,4.043,4.043,0,0,0-2.159-2.158,4.053,4.053,0,0,0-3.145,0,4.041,4.041,0,0,0-2.159,2.158,3.963,3.963,0,0,0-.317,1.572v4.048Z" transform="translate(-173.637 -373.363)" fill="#393838"/>
      <path id="Path_204" data-name="Path 204" d="M254.386,412.736h-3.879v-20.86h.931s6.323-.55,6.812-.55a7.869,7.869,0,0,1,3,.571,7.392,7.392,0,0,1,2.454,1.615,7.552,7.552,0,0,1,1.658,2.518,8.514,8.514,0,0,1,.607,3.265,8.817,8.817,0,0,1-.607,3.35,7.438,7.438,0,0,1-1.658,2.524,7.176,7.176,0,0,1-2.454,1.587,8.136,8.136,0,0,1-3,.55,4.6,4.6,0,0,1-1.009-.113,6.927,6.927,0,0,1-.987-.3q-.485-.19-.959-.43t-.909-.494Zm7.715-13.441a4.625,4.625,0,0,0-.3-1.721,3.841,3.841,0,0,0-.825-1.291,3.568,3.568,0,0,0-1.227-.811,3.992,3.992,0,0,0-1.5-.282,3.939,3.939,0,0,0-1.488.282,3.582,3.582,0,0,0-1.22.811,3.818,3.818,0,0,0-.825,1.291,4.609,4.609,0,0,0-.3,1.721,4.489,4.489,0,0,0,.3,1.679,3.893,3.893,0,0,0,.825,1.3,3.7,3.7,0,0,0,1.22.832,3.774,3.774,0,0,0,1.488.3,3.825,3.825,0,0,0,1.5-.3,3.684,3.684,0,0,0,1.227-.832,3.917,3.917,0,0,0,.825-1.3A4.506,4.506,0,0,0,262.1,399.295Z" transform="translate(-223.596 -385.205)" fill="#393838"/>
      <path id="Path_205" data-name="Path 205" d="M317.547,413.774h-3.879v-20.86h.931s6.323-.55,6.812-.55a7.874,7.874,0,0,1,3,.571,7.4,7.4,0,0,1,2.454,1.615,7.555,7.555,0,0,1,1.658,2.518,8.514,8.514,0,0,1,.607,3.265,8.814,8.814,0,0,1-.607,3.35,7.443,7.443,0,0,1-1.658,2.525,7.186,7.186,0,0,1-2.454,1.587,8.137,8.137,0,0,1-3,.55,4.6,4.6,0,0,1-1.009-.113,6.9,6.9,0,0,1-.987-.3q-.485-.19-.959-.43t-.909-.494Zm7.715-13.441a4.627,4.627,0,0,0-.3-1.721,3.842,3.842,0,0,0-.826-1.29,3.567,3.567,0,0,0-1.227-.811,4,4,0,0,0-1.495-.282,3.944,3.944,0,0,0-1.488.282,3.577,3.577,0,0,0-1.22.811,3.819,3.819,0,0,0-.825,1.29,4.608,4.608,0,0,0-.3,1.721,4.486,4.486,0,0,0,.3,1.678,3.9,3.9,0,0,0,.825,1.3,3.7,3.7,0,0,0,1.22.832,3.773,3.773,0,0,0,1.488.3,3.824,3.824,0,0,0,1.495-.3,3.688,3.688,0,0,0,1.227-.832,3.92,3.92,0,0,0,.826-1.3A4.5,4.5,0,0,0,325.262,400.333Z" transform="translate(-269.17 -385.954)" fill="#393838"/>
      <path id="Path_206" data-name="Path 206" d="M380.709,392.838H376.83V371.724h3.879Z" transform="translate(-314.744 -371.061)" fill="#393838"/>
      <path id="Path_207" data-name="Path 207" d="M404.421,414.161v-3.879l2.144.028a3.256,3.256,0,0,0,1.086-.184,3.723,3.723,0,0,0,.966-.508,3.774,3.774,0,0,0,.783-.769,4.167,4.167,0,0,0,.55-.966q-.634.268-1.29.536a3.465,3.465,0,0,1-1.319.268,6.969,6.969,0,0,1-2.623-.494,6.381,6.381,0,0,1-3.6-3.618,7.745,7.745,0,0,1-.529-2.927V393.3h3.836v8.35a3.849,3.849,0,0,0,.233,1.4,2.892,2.892,0,0,0,.627,1,2.5,2.5,0,0,0,.924.6,3.211,3.211,0,0,0,1.135.2,2.4,2.4,0,0,0,1.122-.275,3.15,3.15,0,0,0,.923-.726,3.5,3.5,0,0,0,.621-1.023,3.188,3.188,0,0,0,.226-1.178V393.3h3.879v13.2a7.606,7.606,0,0,1-.62,2.99,7.765,7.765,0,0,1-1.658,2.44,7.912,7.912,0,0,1-2.447,1.65,7.429,7.429,0,0,1-2.99.606Z" transform="translate(-331.884 -386.63)" fill="#393838"/>
    </g>
    <g id="Group_382" data-name="Group 382" transform="translate(187.506 152.653)">
      <path id="Path_208" data-name="Path 208" d="M312.518,159.237a.213.213,0,1,1-.213-.213A.213.213,0,0,1,312.518,159.237Z" transform="translate(-301.673 -158.393)" fill="#fff"/>
      <circle id="Ellipse_6" data-name="Ellipse 6" cx="0.213" cy="0.213" r="0.213" transform="translate(12.147 2.701)" fill="#fff"/>
      <circle id="Ellipse_7" data-name="Ellipse 7" cx="0.213" cy="0.213" r="0.213" transform="translate(10.171 2.737)" fill="#fff"/>
      <circle id="Ellipse_8" data-name="Ellipse 8" cx="0.213" cy="0.213" r="0.213" transform="translate(12.681 5.455)" fill="#fff"/>
      <circle id="Ellipse_9" data-name="Ellipse 9" cx="0.213" cy="0.213" r="0.213" transform="translate(10.838 7.45)" fill="#fff"/>
      <circle id="Ellipse_10" data-name="Ellipse 10" cx="0.213" cy="0.213" r="0.213" transform="translate(10.738 9.875)" fill="#fff"/>
      <path id="Path_209" data-name="Path 209" d="M303.792,183.144a.213.213,0,1,1-.213-.213A.213.213,0,0,1,303.792,183.144Z" transform="translate(-295.377 -175.643)" fill="#fff"/>
      <circle id="Ellipse_11" data-name="Ellipse 11" cx="0.213" cy="0.213" r="0.213" transform="translate(5.739 8.347)" fill="#fff"/>
      <circle id="Ellipse_12" data-name="Ellipse 12" cx="0.213" cy="0.213" r="0.213" transform="translate(3.985 7.38)" fill="#fff"/>
      <circle id="Ellipse_13" data-name="Ellipse 13" cx="0.213" cy="0.213" r="0.213" transform="translate(2.327 7.394)" fill="#fff"/>
      <path id="Path_210" data-name="Path 210" d="M275.1,180.7a.213.213,0,1,1-.213-.213A.213.213,0,0,1,275.1,180.7Z" transform="translate(-274.678 -173.882)" fill="#fff"/>
      <path id="Path_211" data-name="Path 211" d="M285.521,174.722a.213.213,0,1,1-.213-.213A.213.213,0,0,1,285.521,174.722Z" transform="translate(-282.194 -169.566)" fill="#fff"/>
      <circle id="Ellipse_14" data-name="Ellipse 14" cx="0.213" cy="0.213" r="0.213" transform="translate(0.196 4.248) rotate(-85.269)" fill="#fff"/>
      <path id="Path_212" data-name="Path 212" d="M281.644,163.67a.213.213,0,1,1-.213-.213A.213.213,0,0,1,281.644,163.67Z" transform="translate(-279.396 -161.591)" fill="#fff"/>
      <path id="Path_213" data-name="Path 213" d="M290.184,167.26a.213.213,0,1,1-.213-.213A.213.213,0,0,1,290.184,167.26Z" transform="translate(-285.558 -164.182)" fill="#fff"/>
      <circle id="Ellipse_15" data-name="Ellipse 15" cx="0.213" cy="0.213" r="0.213" transform="translate(3.898 0.962)" fill="#fff"/>
      <circle id="Ellipse_16" data-name="Ellipse 16" cx="0.213" cy="0.213" r="0.213" transform="translate(5.754 0.425) rotate(-85.008)" fill="#fff"/>
      <path id="Path_214" data-name="Path 214" d="M304.648,157.321a.213.213,0,1,1-.213-.213A.213.213,0,0,1,304.648,157.321Z" transform="translate(-295.995 -157.01)" fill="#fff"/>
      <path id="Path_215" data-name="Path 215" d="M303.792,163.67a.213.213,0,1,1-.213-.213A.213.213,0,0,1,303.792,163.67Z" transform="translate(-295.377 -161.591)" fill="#fff"/>
      <circle id="Ellipse_17" data-name="Ellipse 17" cx="0.213" cy="0.213" r="0.213" transform="translate(6.5 3.33)" fill="#fff"/>
      <circle id="Ellipse_18" data-name="Ellipse 18" cx="0.213" cy="0.213" r="0.213" transform="matrix(0.082, -0.997, 0.997, 0.082, 5.182, 5.926)" fill="#fff"/>
      <path id="Path_216" data-name="Path 216" d="M309.49,172.978a.213.213,0,1,1-.213-.213A.213.213,0,0,1,309.49,172.978Z" transform="translate(-299.489 -168.307)" fill="#fff"/>
      <g id="Group_381" data-name="Group 381" transform="translate(0.198 0.217)">
        <path id="Path_217" data-name="Path 217" d="M281.128,165.895l-1.729-.969-1.673.014h0l-2.335-.789.215-2.775,0,0,1.61-2h0l2.1-.893,1.819-.945,2.493.08,2.247.535,0,0,1.675,2.073v0l.54,2.761L286.248,165h-.007l-2.852-.17Zm-1.721-1,0,0,1.719.963,2.255-1.065h0l2.849.169,1.834-1.985-.537-2.743-1.668-2.063-2.236-.532-2.481-.08-1.813.942-2.1.893-1.6,1.987-.212,2.744,2.311.78Z" transform="translate(-275.389 -157.535)" fill="#fff" stroke="#fff" stroke-miterlimit="10" stroke-width="0.2"/>
        <path id="Path_218" data-name="Path 218" d="M282.438,167.364l-.028-.007.576-2.452L281.9,161.8l2.384,1-.274-1.883,4.084.908-.006.028-4.044-.9.276,1.892-2.372-.991,1.07,3.056v0Z" transform="translate(-280.085 -159.971)" fill="#fff" stroke="#fff" stroke-miterlimit="10" stroke-width="0.2"/>
        <path id="Path_219" data-name="Path 219" d="M275.432,164.392l-.014-.025,2.9-1.669,1.3-2.091h.006l3.78-.981.237-1.758.028,0-.24,1.778-.009,0-3.784.982-1.3,2.087,0,0Z" transform="translate(-275.41 -157.774)" fill="#fff" stroke="#fff" stroke-miterlimit="10" stroke-width="0.2"/>
        <path id="Path_220" data-name="Path 220" d="M298.993,164.563l-3.068-.986v0l-.038-.014-.028-.009h0l-3.049-1.118-2.3-.481.006-.028,2.3.481h0l3.038,1.114-1.574-2.57.014-.007L296.8,159.7l-.3,2.081h2l-2.58,1.766,3.077.989Zm-4.668-3.6,1.572,2.566,2.515-1.722h-1.941l.3-2.059Z" transform="translate(-286.301 -159.097)" fill="#fff" stroke="#fff" stroke-miterlimit="10" stroke-width="0.2"/>
        <rect id="Rectangle_24" data-name="Rectangle 24" width="2.088" height="0.029" transform="matrix(0.713, -0.701, 0.701, 0.713, 6.505, 3.316)" fill="#fff" stroke="#fff" stroke-miterlimit="10" stroke-width="0.2"/>
        <path id="Path_221" data-name="Path 221" d="M288.6,165.89l-.536-2.812-1.178,1.873-1.121-2.493,2.3.566.014-.022,0,.021,4.372-1.036.589-1.736-2.173-.831-2.25-1.85.018-.022,2.246,1.846,2.194.84-.6,1.777-.008,0-4.381,1.038.54,2.834ZM285.82,162.5l1.075,2.391,1.158-1.841Z" transform="translate(-282.879 -157.544)" fill="#fff" stroke="#fff" stroke-miterlimit="10" stroke-width="0.2"/>
        <path id="Path_222" data-name="Path 222" d="M286.746,175.975l-2.791-2.615-2.811-1.789,1.3-2.142-3.563,1.592-.006,0-2.687-1.089.011-.026,2.681,1.087,3.636-1.625-1.335,2.2,2.776,1.766,1.6-2.835,1.274,3.022v0Zm-2.764-2.629,2.738,2.566.086-2.391-1.249-2.963Z" transform="translate(-275.967 -166.072)" fill="#fff" stroke="#fff" stroke-miterlimit="10" stroke-width="0.2"/>
      </g>
    </g>
  </g>
</svg>
