<svg xmlns="http://www.w3.org/2000/svg" width="46.186" height="41.2" viewBox="0 0 46.186 41.2">
  <g id="Product" transform="translate(-24.667 -62.823)">
    <path id="Path_153" data-name="Path 153" d="M60.712,97.262l-1.211.124.343,3.352a1.875,1.875,0,0,1-1.866,2.066h-.51L53.723,99.3a4.653,4.653,0,0,0-3.192-1.262h-15.3A4.653,4.653,0,0,0,32.038,99.3L28.294,102.8H27.76a1.875,1.875,0,0,1-1.866-2.066l2.741-26.755A1.87,1.87,0,0,1,30.5,72.3h6.011V75a2.182,2.182,0,1,0,1.218,0V72.3H48.008V75a2.182,2.182,0,1,0,1.218,0V72.3h6.011A1.871,1.871,0,0,1,57.1,73.987l.174,1.6,1.211-.132-.174-1.593a3.085,3.085,0,0,0-3.077-2.778H49.226v-1.9a6.357,6.357,0,1,0-12.714,0v1.9H30.5a3.085,3.085,0,0,0-3.077,2.778l-2.741,26.755a3.093,3.093,0,0,0,3.077,3.408H57.978a3.093,3.093,0,0,0,3.077-3.408ZM38.085,77.091a.964.964,0,1,1-.964-.964A.964.964,0,0,1,38.085,77.091Zm11.5,0a.964.964,0,1,1-.964-.964A.964.964,0,0,1,49.581,77.091ZM37.73,69.18a5.139,5.139,0,1,1,10.278,0v1.9H37.73Z" transform="translate(0 0)" fill="#353535"/>
    <path id="Path_154" data-name="Path 154" d="M299.622,229.913l-5.07-5.07a8.735,8.735,0,1,0-1.163,1.094l5.08,5.08Zm-16.713-5.76a7.21,7.21,0,1,1,5.1,2.112,7.21,7.21,0,0,1-5.1-2.112Z" transform="translate(-228.769 -132.527)" fill="#353535"/>
    <path id="Path_155" data-name="Path 155" d="M327.9,262.676c-1.381-1.705-2.84-2.556-4.339-2.538-.846.012-2.511.354-4.159,2.51a1.73,1.73,0,0,0,.035,2.145c1.364,1.685,2.806,2.538,4.285,2.538h.054c.846-.012,2.511-.354,4.159-2.51A1.73,1.73,0,0,0,327.9,262.676Zm-4.232,2.714a1.7,1.7,0,1,1,1.7-1.7A1.7,1.7,0,0,1,323.665,265.39Z" transform="translate(-264.5 -177.29)" fill="#2f5bea"/>
  </g>
</svg>
