<svg id="realtime" xmlns="http://www.w3.org/2000/svg" xmlns:xlink="http://www.w3.org/1999/xlink" width="197.427" height="105" viewBox="0 0 197.427 105">
  <defs>
    <clipPath id="clip-path">
      <path id="Clip_90" data-name="Clip 90" d="M0,0H197.427V.525H0Z" fill="none"/>
    </clipPath>
  </defs>
  <path id="Fill_1" data-name="Fill 1" d="M14.793,104.714S-12.192,76.036,6.73,49.285C13.791,39.3,31.816,33.7,48.386,38.245c9.787,2.686,24.631,2.29,39.134-21.386C107.3-15.429,189.4-.748,173.378,55.822c-6.751,23.828,18.411,24.913,5.947,48.943Z" transform="translate(8.022)" fill="#ebf3fa"/>
  <path id="Fill_3" data-name="Fill 3" d="M156.667,13.33,97.889,62.5,66.964,36.158c-5.788,5.1-14.728,12.964-23.721,20.859C37.1,62.413,32.122,66.772,28.089,70.3L0,70.268c7.789-6.632,39.152-34.192,60.281-52.817l6.461-5.695L98,38.388,143.889,0Z" transform="translate(12.238 33.934)" fill="#d5e5fb"/>
  <path id="Fill_5" data-name="Fill 5" d="M0,4,27.994,32.077,35.9,0Z" transform="translate(148.687 23.89)" fill="#d5e5fb"/>
  <path id="Fill_7" data-name="Fill 7" d="M5.766,11.376a51.911,51.911,0,0,0-.6-6.367c-.43-2.486-.817-3.917-.822-3.932C4.288.858,3.47-.027,1.651,0S0,1.188,0,1.188a.373.373,0,0,0,.013.1A55.7,55.7,0,0,1,1.633,15.224c0,.11-.013.3-.006.426,0,0,4.216.109,4.217,0a21.012,21.012,0,0,0-.078-4.274" transform="translate(51.151 75.676)" fill="#b7d3f3"/>
  <path id="Fill_9" data-name="Fill 9" d="M5.826,15.185c0,.109-.059.2-.129.2h0c-.07,0-.126-.089-.127-.2H1.956c0,.109-.059.2-.129.2h0c-.071,0-.128-.092-.127-.2a54.572,54.572,0,0,0-.3-6.172A48.5,48.5,0,0,0,.017,1.291.383.383,0,0,1,0,1.188S-.168.028,1.651,0,4.289.858,4.345,1.077c0,.011.223.821.514,2.278.1.482.2,1.036.308,1.654a51.976,51.976,0,0,1,.6,6.367,16.422,16.422,0,0,1,.06,3.81" transform="translate(51.622 75.676)" fill="#d2e3fc"/>
  <path id="Fill_11" data-name="Fill 11" d="M0,1.156H14.165S13.835-.179,5.632.02C-.173.161,0,1.156,0,1.156" transform="translate(53.052 89.901)" fill="#c5dcf8"/>
  <path id="Fill_13" data-name="Fill 13" d="M0,13.736A53.812,53.812,0,0,0,1.218.256c0-.128.232-.244.359-.248s.7-.038.761.072A36.811,36.811,0,0,1,.307,13.736Z" transform="translate(51.9 91.264)" fill="#b7d3f3"/>
  <path id="Fill_15" data-name="Fill 15" d="M2.4,13.736A53.812,53.812,0,0,1,1.183.256C1.187.128.952.011.825.007S.129-.031.064.079A36.809,36.809,0,0,0,2.095,13.736Z" transform="translate(62.724 91.264)" fill="#b7d3f3"/>
  <path id="Fill_17" data-name="Fill 17" d="M2.4,13.736A53.807,53.807,0,0,1,1.183.256C1.187.128.951.011.825.007S.129-.031.064.079A36.809,36.809,0,0,0,2.095,13.736Z" transform="translate(65.345 91.264)" fill="#b7d3f3"/>
  <path id="Fill_19" data-name="Fill 19" d="M0,13.736A53.807,53.807,0,0,0,1.218.256c0-.128.232-.244.359-.248s.7-.038.761.072A36.809,36.809,0,0,1,.307,13.736Z" transform="translate(54.538 91.264)" fill="#b7d3f3"/>
  <path id="Fill_21" data-name="Fill 21" d="M14.455.771H.29A.291.291,0,0,1,0,.481V.29A.291.291,0,0,1,.29,0H14.455a.291.291,0,0,1,.29.29V.481a.291.291,0,0,1-.29.29" transform="translate(52.771 90.712)" fill="#b7d3f3"/>
  <path id="Fill_23" data-name="Fill 23" d="M.814,1.02,5.522,0,5.8.676S.6,3.767.117,3.616s.7-2.6.7-2.6" transform="translate(65.914 77.672)" fill="#ffb27d"/>
  <path id="Fill_25" data-name="Fill 25" d="M.108,3.753A.418.418,0,0,0,.033,4.2v0a2.78,2.78,0,0,0,.879.964c.053.043.1.082.141.118l.032.028.024.022c.386.356.241.438.935,1.16.791.823,1.336.838,1.491.763.131-.064-.135-.5-.43-.991L3.062,6.2,2.945,6C2.6,5.408,2.688,5.13,2.77,4.252,2.837,3.537,3.881.261,3.881.261L2.365,0s-.457,2.609-.96,3.01c-.269.214-.57.217-.829.376L.523,3.42a1.992,1.992,0,0,0-.415.333" transform="translate(62.339 96.232)" fill="#ffb27d"/>
  <path id="Fill_27" data-name="Fill 27" d="M.108.367A.418.418,0,0,0,.033.815v0a3.221,3.221,0,0,0,.88.961c.052.044.1.083.14.121l.032.028.024.022c.386.356.241.438.935,1.16.791.823,1.336.838,1.491.763.131-.064-.135-.5-.43-.991A3.371,3.371,0,0,1,1.7,1.842C1.219,1.234.9.453.576,0L.523.034A1.992,1.992,0,0,0,.108.367" transform="translate(62.339 99.618)" fill="#1c468a"/>
  <path id="Fill_29" data-name="Fill 29" d="M1.213,3.268c.094.468.761.39,1.506.208s.568.034,1.629-.083S5.73,2.88,5.762,2.722c.029-.14-.5-.189-1.057-.254l-.213-.025a4.59,4.59,0,0,1-1.676-.826A6.736,6.736,0,0,1,1.455,0L0,.115S.763,1.275,1.059,1.779A1.757,1.757,0,0,1,1.2,2.77a1.866,1.866,0,0,0,.011.5" transform="translate(73.461 95.771)" fill="#ffb27d"/>
  <path id="Fill_31" data-name="Fill 31" d="M1.528,1.008c.745-.182.568.034,1.629-.083S4.54.412,4.572.254C4.6.114,4.077.065,3.515,0L3.509.011A2.99,2.99,0,0,1,1.99.483C1.27.5.508.294.011.3A1.866,1.866,0,0,0,.022.8c.094.468.761.39,1.506.208" transform="translate(74.651 98.239)" fill="#1c468a"/>
  <path id="Fill_33" data-name="Fill 33" d="M0,1.008S.347.158.728.124,2.322-.1,2.409.072a1.2,1.2,0,0,1-.26,1.022,9.27,9.27,0,0,1-1.872.589Z" transform="translate(71.436 76.664)" fill="#ffb27d"/>
  <path id="Fill_35" data-name="Fill 35" d="M4.991,2.332,1.855,10.77a2.87,2.87,0,0,1-.943-.086A4.063,4.063,0,0,1,0,10.24S.778,2.138,2.2.452s2.787,1.88,2.787,1.88" transform="translate(64.108 87.404)" fill="#163560"/>
  <path id="Fill_37" data-name="Fill 37" d="M1.735,2.489S10.744-.558,12.754.09,20.8,12.741,20.8,12.741a1.166,1.166,0,0,1-.508.321,4.794,4.794,0,0,1-1.182.121s-5.444-4.667-6.093-6.028S12.106,4.5,11.457,4.627,3.1,7.8,1.346,5.989A5.052,5.052,0,0,1,.054,1.816Z" transform="translate(54.962 83.834)" fill="#1c468a"/>
  <path id="Fill_39" data-name="Fill 39" d="M7.478.353A2.185,2.185,0,0,0,6.3.127.553.553,0,0,1,6.545.009,1.833,1.833,0,0,0,5.891.18C3.075-.905,2.633,3.24,2.692,4.2a2.755,2.755,0,0,1-1.34,2.936C-1.413,8.839.92,11.806.92,11.806c.022.013,1.287,2.158,1.287,2.158-.071-.778,3.52-4.886,5.394-6.116A5.417,5.417,0,0,0,8.231,5.9a5.121,5.121,0,0,1-.383,1.765C9.434,6.2,8.51.94,7.478.353" transform="translate(54.355 64.489)" fill="#b5453c"/>
  <path id="Fill_41" data-name="Fill 41" d="M2.653,2.774a2.6,2.6,0,0,1-1.592.291A2.066,2.066,0,0,1,0,2.048C.274,1.994.353,1.617.347,0L.471.024,2.553.437s-.047.655-.049,1.272c0,.518.03,1.01.149,1.065" transform="translate(59.192 69.624)" fill="#ffb27d"/>
  <path id="Fill_43" data-name="Fill 43" d="M2.082.412s-.047.655-.049,1.272A2.47,2.47,0,0,1,0,0Z" transform="translate(59.663 69.649)" fill="#ed975d"/>
  <path id="Fill_45" data-name="Fill 45" d="M.775,4.277A6.121,6.121,0,0,1,.018,2.488,2.1,2.1,0,0,1,2.407.031,2.98,2.98,0,0,1,3.643.5c.476.322,1.164,1.016.4,2.921l-.2.643Z" transform="translate(58.673 65.145)" fill="#b5453c"/>
  <path id="Fill_47" data-name="Fill 47" d="M2.789,4.651S.033,4.7.031,2.979-.328.112,1.432.011s2.1.553,2.242,1.126-.168,3.458-.885,3.514" transform="translate(59.345 65.995)" fill="#ffb27d"/>
  <path id="Fill_49" data-name="Fill 49" d="M3.573.349S2.819,2.363,1.66,2.661A2.28,2.28,0,0,1,0,2.649,3.279,3.279,0,0,0,1.073.711S3-.61,3.573.349" transform="translate(58.459 65.614)" fill="#b5453c"/>
  <path id="Fill_51" data-name="Fill 51" d="M0,.328a2.433,2.433,0,0,1,.7.887c.137.437.2,1.337.461,1.307,0,0,.569-1.369-.07-2.144C.415-.443,0,.328,0,.328" transform="translate(61.845 65.798)" fill="#b5453c"/>
  <path id="Fill_53" data-name="Fill 53" d="M1.183,8.142C.911,7,1.836,4.79,2.8,2.959A14.325,14.325,0,0,1,4.668,0c2.31,1.371,2.519.231,2.519.231h0s2.1.279,2.693,1.3C10.617,2.8,11.413,6.349,12.2,7.02a1.489,1.489,0,0,0,.059,1.03q.041.148.092.281a5.422,5.422,0,0,0,.4.815c-.4.244-1.178.709-1.75.375-.872-.51-1.552-2.064-1.935-2.683l0-.007c-.832,4.711.3,5.784-.273,6.281-.605.525-1.469-.25-3.371.574a18.174,18.174,0,0,1-4.143,1.459C.664,15.218.208,15.112.06,14.7-.372,13.5,1.7,10.315,1.183,8.142" transform="translate(54.524 71.671)" fill="#1c468a"/>
  <path id="Fill_55" data-name="Fill 55" d="M0,.139S.051.358.594.324c0,0,.456-.028.442-.268A1.466,1.466,0,0,0,0,.139" transform="translate(61.521 69.465)" fill="#fff"/>
  <path id="Fill_57" data-name="Fill 57" d="M.06,9.615c.149.413.6.519,1.216.447.806-.351,4.29-1.7,4.251-2.615-.058-1.354-.67-1.4-.238-3.068C5.635,3.037,2.417.542,1.9,0,.938,1.831.911,1.918,1.183,3.058,1.7,5.231-.372,8.416.06,9.615" transform="translate(54.524 76.756)" fill="#163560"/>
  <path id="Fill_59" data-name="Fill 59" d="M.278,9.815A5.105,5.105,0,0,1,1.962,8.259c-.1-.251,2.6-3.556,2.6-4.068S5.28,0,5.28,0,3.034.139,2.256,1.223C1.283,2.58-.737,7.8.278,9.815" transform="translate(53.912 71.672)" fill="#1c468a"/>
  <path id="Fill_61" data-name="Fill 61" d="M1.714,0,6.2,1.171l-.421.756S.318,1.889.029,1.557,1.714,0,1.714,0" transform="translate(54.161 79.931)" fill="#ffb27d"/>
  <path id="Fill_63" data-name="Fill 63" d="M0,0C.383.619,1.063,2.172,1.935,2.683c.572.334,1.348-.131,1.75-.375a5.415,5.415,0,0,1-.4-.815c-.321.073-.712.167-.965.243C1.832,1.885,0,0,0,0" transform="translate(63.59 78.51)" fill="#163560"/>
  <path id="Fill_65" data-name="Fill 65" d="M.421.32A6.893,6.893,0,0,1,2.167.014C2.5.107,3.653.869,3.491,1.076S2.316.952,1.85,1.015s-.827.293-1.163.243A3.9,3.9,0,0,1,0,1.076Z" transform="translate(59.942 80.782)" fill="#ffb27d"/>
  <path id="Fill_67" data-name="Fill 67" d="M0,.572A5.286,5.286,0,0,0,.886.016a.055.055,0,0,1,.086.01c.053.083.1.243-.14.4A1.3,1.3,0,0,1,0,.572" transform="translate(60.363 80.53)" fill="#ffb27d"/>
  <path id="Fill_69" data-name="Fill 69" d="M6.576.524H0A.524.524,0,0,1,.524,0H6.576Z" transform="translate(60.301 82.561)" fill="#ed7d2b"/>
  <path id="Fill_71" data-name="Fill 71" d="M2.5,0H12.672L10.234,7.162H0Z" transform="translate(64.354 75.923)" fill="#ed7d2b"/>
  <path id="Fill_73" data-name="Fill 73" d="M12.672,0,10.233,7.162H0L2.5,0Z" transform="translate(64.504 75.923)" fill="#f99746"/>
  <path id="Fill_75" data-name="Fill 75" d="M1,.5a.661.661,0,0,1-.61.5A.382.382,0,0,1,.013.5.661.661,0,0,1,.623,0,.382.382,0,0,1,1,.5" transform="translate(70.69 78.942)" fill="#f9ddbf"/>
  <path id="Fill_77" data-name="Fill 77" d="M9.216,0,6.777,7.162H0C4.489,5.63,5.684.958,5.885,0Z" transform="translate(67.96 75.923)" fill="#ed893e"/>
  <path id="Fill_79" data-name="Fill 79" d="M.188,20.811A.263.263,0,0,0,.448,20.6l1.277-7.238L3.562,2.948,4.076.037,2.767,0,2.54,1.69.947,13.565,0,20.6a.184.184,0,0,0,.186.206" transform="translate(47.471 84.189)" fill="#95c0f4"/>
  <path id="Fill_81" data-name="Fill 81" d="M0,1.69A1.877,1.877,0,0,1,1.022,2.948L1.535.037.227,0Z" transform="translate(50.011 84.189)" fill="#78acea"/>
  <path id="Fill_83" data-name="Fill 83" d="M3.888,20.811a.263.263,0,0,1-.261-.214L2.351,13.359.514,2.948,0,.037,1.308,0l.227,1.69L3.129,13.565,4.074,20.6a.184.184,0,0,1-.186.206" transform="translate(76.312 84.189)" fill="#95c0f4"/>
  <path id="Fill_85" data-name="Fill 85" d="M1.535,1.69A1.877,1.877,0,0,0,.514,2.948L0,.037,1.308,0Z" transform="translate(76.312 84.189)" fill="#78acea"/>
  <path id="Fill_87" data-name="Fill 87" d="M.8,2.286H34.3a.8.8,0,0,0,.8-.8V.8a.8.8,0,0,0-.8-.8H.8A.8.8,0,0,0,0,.8v.69a.8.8,0,0,0,.8.8" transform="translate(45.987 83.084)" fill="#78acea"/>
  <g id="Group_91" data-name="Group 91" transform="translate(0 104.407)">
    <path id="Clip_90-2" data-name="Clip 90" d="M0,0H197.427V.525H0Z" fill="none"/>
    <g id="Group_91-2" data-name="Group 91" clip-path="url(#clip-path)">
      <path id="Fill_89" data-name="Fill 89" d="M197.2.525H.224A.225.225,0,0,1,0,.3V.224A.225.225,0,0,1,.224,0H197.2a.225.225,0,0,1,.224.224V.3a.225.225,0,0,1-.224.224" transform="translate(0)" fill="#2e3552"/>
    </g>
  </g>
  <path id="Fill_92" data-name="Fill 92" d="M.65,0s-.869,1.078-.6,1.225.99.422,1.159.249A5.022,5.022,0,0,0,1.434.03Z" transform="translate(129.354 81.866)" fill="#ffb27d"/>
  <path id="Fill_94" data-name="Fill 94" d="M.88,0a1.277,1.277,0,0,0-.5.308C.245.493-.064.775.012.853S.531.586.531.586Z" transform="translate(129.159 81.884)" fill="#ffb27d"/>
  <path id="Fill_96" data-name="Fill 96" d="M3.3,0s-.98,9.119-1.067,9.379c-.019.056-.1.345-.2.76-.154.593-.372,1.446-.579,2.256-.312,1.224-.6,2.354-.6,2.354L0,14.47A52.374,52.374,0,0,1,.178,9.018C.4,8,1.1,1.727,1.45.883S3.3,0,3.3,0" transform="translate(129.988 67.472)" fill="#aec3ff"/>
  <path id="Fill_98" data-name="Fill 98" d="M6.318,6.288.975,4.886a1.311,1.311,0,0,1-.933-1.6L.65.975a1.311,1.311,0,0,1,1.6-.933l5.343,1.4a1.311,1.311,0,0,1,.933,1.6L7.914,5.355a1.311,1.311,0,0,1-1.6.933" transform="translate(124.934 83.053)" fill="#a02e2e"/>
  <path id="Fill_100" data-name="Fill 100" d="M6.644,6.865a1.3,1.3,0,0,1-.331-.043L.979,5.424a1.3,1.3,0,0,1-.266-.1,1.281,1.281,0,0,1-.352-.265A1.307,1.307,0,0,1,.042,3.822L.657,1.48A1.314,1.314,0,0,1,.989.9,1.331,1.331,0,0,1,1.929.5a1.3,1.3,0,0,1,.2.016c.043.007.085.016.128.027L3.322.823l.131-.5A.435.435,0,0,1,3.872,0a.425.425,0,0,1,.11.015L4.26.087,5.377.38l.2.053a.434.434,0,0,1,.309.528l-.131.5,1.836.482a1.315,1.315,0,0,1,.937,1.6L7.914,5.886A1.312,1.312,0,0,1,6.644,6.865ZM3.873.271a.162.162,0,0,0-.156.12l-.131.5,1.909.5.13-.5A.163.163,0,0,0,5.553.715a.177.177,0,0,0-.044-.02L5.271.633,4.392.4,3.913.276A.162.162,0,0,0,3.873.271Z" transform="translate(125.632 82.731)" fill="#bc3f3f"/>
  <path id="Fill_102" data-name="Fill 102" d="M1.089.688s.237-.4.148-.539S.828.563.828.563,1.047.088.965.01.548.478.548.478.757.016.684,0,.362.389.362.389.491.043.373.059,0,.392,0,.392Z" transform="translate(129.423 82.675)" fill="#ffb27d"/>
  <path id="Fill_104" data-name="Fill 104" d="M1.028,4.257C.873,4.85.656,5.7.449,6.513A8.766,8.766,0,0,1,.039,4.724,21.784,21.784,0,0,1,.448,0Z" transform="translate(130.991 73.354)" fill="#9db0f4"/>
  <path id="Fill_106" data-name="Fill 106" d="M.559,0A7.544,7.544,0,0,1,1.623,1.01a5.172,5.172,0,0,1,.4,1.417c-.016.287-.726-.656-.934-.733s.218.387.17.487S.762,1.956.593,1.85.3,1.024.051.632.559,0,.559,0" transform="translate(142.666 81.491)" fill="#ffb27d"/>
  <path id="Fill_108" data-name="Fill 108" d="M0,2.593H4.722C5.061,2.364,4.631.12,4.631.12S3.342-.369,3.12.626,1.478,1.935.727,2.057A.808.808,0,0,0,0,2.593" transform="translate(130.796 101.936)" fill="#233862"/>
  <path id="Fill_110" data-name="Fill 110" d="M0,2.593H4.722C5.061,2.364,4.631.12,4.631.12S3.342-.369,3.12.626,1.478,1.935.727,2.057A.808.808,0,0,0,0,2.593" transform="translate(137.8 101.936)" fill="#233862"/>
  <path id="Fill_112" data-name="Fill 112" d="M0,.367S.212,3.015.462,6.2C.8,10.523,1.715,21.244,1.715,21.244a2.3,2.3,0,0,0,1.928.232,41.982,41.982,0,0,0,1.469-7.92l.016-.209C5.442,9.05,5.931,0,5.931,0Z" transform="translate(132.067 81.277)" fill="#2b478b"/>
  <path id="Fill_114" data-name="Fill 114" d="M0,0S.285,3.563.534,6.747L5.184,14.1c.005-.069.011-.139.016-.209C5.514,9.6,6,.548,6,.548Z" transform="translate(131.994 80.729)" fill="#233862"/>
  <path id="Fill_116" data-name="Fill 116" d="M0,1.622S3.372,10.016,4.45,13.2c.768,2.267,2.934,10.218,2.934,10.218a2.176,2.176,0,0,0,1.733-.267s.806-8.124-.822-10.414C7.432,11.519,8.081.1,4.58,0S0,1.622,0,1.622" transform="translate(133.35 79.107)" fill="#2b478b"/>
  <path id="Fill_118" data-name="Fill 118" d="M8.338,14.134c-1.406.793-7.43.776-7.709.153C.006,12.9-.151,5.831.143,3.664.143,3.664.3.333.629.48,2.854-.542,6.456.386,6.456.386c.971.286.888,2.505,1.159,5.621.035.4.073.82.117,1.253.192,1.925.47,4.135.894,6.467.028.153-.079.289-.287.407" transform="translate(131.438 67.357)" fill="#aec3ff"/>
  <path id="Fill_120" data-name="Fill 120" d="M2.4,2.456c-.037.6-.814.528-1.749.315s-.6-.764-.6-.764.014-.423.073-.93C.154.893.181.7.216.506.233.413.251.321.272.233.394-.292,2.138.214,2.126.355c-.034.38.241,1.633.278,2.1" transform="translate(133.826 64.912)" fill="#ffb27d"/>
  <path id="Fill_122" data-name="Fill 122" d="M.074.823,0,0,1.034.2.636.93Z" transform="translate(134.153 67.585)" fill="#233862"/>
  <path id="Fill_124" data-name="Fill 124" d="M.618,0,0,.94a1.367,1.367,0,0,0,.536,1l.845-.787A1.519,1.519,0,0,1,.618,0" transform="translate(133.289 66.532)" fill="#9db0f4"/>
  <path id="Fill_126" data-name="Fill 126" d="M0,1a2.211,2.211,0,0,0,.513.917S1.833,1.563,2.147.887L1.46,0S1.427.671,0,1" transform="translate(134.671 66.681)" fill="#9db0f4"/>
  <path id="Fill_128" data-name="Fill 128" d="M2,.236A3.237,3.237,0,0,1,0,.661C.022.477.049.281.084.091.314.035.506,0,.506,0Z" transform="translate(133.958 65.328)" fill="#e2915a"/>
  <path id="Fill_130" data-name="Fill 130" d="M3.081,3.239c-.41,1.13-1.908.841-2.546.66-.18-.051-.291-.093-.291-.093-.2-.089-.258-.433-.241-.868A6.718,6.718,0,0,1,.571.572c.293-.44.782-.888,2.235-.264s.8,1.485.274,2.932" transform="translate(133.414 61.689)" fill="#ffb27d"/>
  <path id="Fill_132" data-name="Fill 132" d="M4.012,3.465c-.459.374-1.444,1.066-1.444,1.066a1.786,1.786,0,0,0,.244-.5.5.5,0,0,0,.018-.17.939.939,0,0,1,.135-.522c.06-.1.082-.2.006-.27-.125-.118-.337-.01-.476.086a.282.282,0,0,1-.307.008h0c-.392-.245.041-.678-.277-1.037S.21,1.714.265,1.489C-.205,1.223.091.242.1.19A5.084,5.084,0,0,0,1.618.039,2.246,2.246,0,0,1,3.3.488.384.384,0,0,0,3.258.321a.355.355,0,0,1,.1.222c.01.01.015.018.012.02a.454.454,0,0,1,.216.05S3.529.594,3.5.628A.041.041,0,0,1,3.49.638a2.457,2.457,0,0,1,.522,2.827" transform="translate(133.605 60.884)" fill="#233862"/>
  <path id="Fill_134" data-name="Fill 134" d="M.709.241S.636.383.265.265c0,0-.311-.1-.26-.263a1.048,1.048,0,0,1,.7.238" transform="translate(133.619 64.525)" fill="#fff"/>
  <path id="Fill_136" data-name="Fill 136" d="M.814,0S-.012,10.427,0,11.3a3.276,3.276,0,0,0,.914,1.787,3.822,3.822,0,0,0,.86-1.619c.14-.831-.4-11.357-.4-11.357Z" transform="translate(133.414 68.408)" fill="#2a4e96"/>
  <path id="Fill_138" data-name="Fill 138" d="M0,0A4.238,4.238,0,0,1,2.385,2.342c1.053,2.023,1.885,6.1,2.388,7.18a22.716,22.716,0,0,1,.847,4.468l-.8.391A36.106,36.106,0,0,1,2.618,9.764c-.154-.617-2.5-5.553-2.5-5.553Z" transform="translate(137.894 67.743)" fill="#aec3ff"/>
  <path id="Fill_140" data-name="Fill 140" d="M1.841,8.695h0C-.668,8.334.05.033.247,0s.918,1.484.918,1.484l.069.337c.192,1.925.47,4.135.894,6.467.028.153-.079.289-.287.407" transform="translate(137.936 72.796)" fill="#9db0f4"/>
  <path id="Fill_142" data-name="Fill 142" d="M3.783.451s1.044.953.841,1.63S3.477,3.21,3.35,4.038s-.637,1.279-1.1,1.279H.069s-.337-.582.478-.758S1.669,3.411,1.618,2.508A15.908,15.908,0,0,1,1.695.4L3.426,0Z" transform="translate(167.284 99.172)" fill="#233862"/>
  <path id="Fill_144" data-name="Fill 144" d="M6.138.839s.187,2.169-.271,2.394L0,3.222s0-.677.942-.828,2.6-.7,2.878-1.931S6.138.839,6.138.839" transform="translate(152.118 101.248)" fill="#233862"/>
  <path id="Fill_146" data-name="Fill 146" d="M0,.527S.309,4.328.673,8.9c.494,6.208,1.089,13.833,1.148,15.277.1,2.508.51,6.521.51,6.521a3.238,3.238,0,0,0,2.9.551A64.756,64.756,0,0,0,7.452,19.46l.023-.3C7.933,12.991,8.646,0,8.646,0Z" transform="translate(153.303 70.925)" fill="#2a4e96"/>
  <path id="Fill_148" data-name="Fill 148" d="M0,.527S.309,4.328.673,8.9L7.452,19.46l.023-.3C7.933,12.991,8.646,0,8.646,0Z" transform="translate(153.303 70.925)" fill="#233862"/>
  <path id="Fill_150" data-name="Fill 150" d="M0,2.483S5.578,16.251,9.245,22.721,14.059,31,14.059,31s2.1-.828,2.292-1.392c0,0-1.4-12.491-3.859-15.536A14.633,14.633,0,0,1,9.968,6.725,23.357,23.357,0,0,0,8.9,0Z" transform="translate(154.716 69.421)" fill="#2a4e96"/>
  <path id="Fill_152" data-name="Fill 152" d="M1.222,0A10.84,10.84,0,0,0,.1,1.787,7.427,7.427,0,0,0,.062,3.9C.186,4.293.836,2.726,1.1,2.546s-.164.617-.062.738.6-.49.8-.7.1-1.252.316-1.888S1.222,0,1.222,0" transform="translate(149.04 72.106)" fill="#ffb27d"/>
  <path id="Fill_154" data-name="Fill 154" d="M4.852,0S3.445,13.1,3.32,13.474c-.027.081-.138.5-.293,1.093-.222.852-.534,2.077-.831,3.241-.448,1.759-.932,3.28-.932,3.28a1.234,1.234,0,0,1-.725.094A.766.766,0,0,1,0,20.853s.052-6.432.365-7.9S1.685,2.481,2.193,1.269,4.852,0,4.852,0" transform="translate(150.003 51.613)" fill="#fff"/>
  <path id="Fill_156" data-name="Fill 156" d="M1.476,6.116C1.255,6.968.942,8.193.645,9.357a12.6,12.6,0,0,1-.588-2.57C-.226,4.619.643,0,.643,0Z" transform="translate(151.553 60.064)" fill="#dceaff"/>
  <path id="Fill_158" data-name="Fill 158" d="M11.979,20.305C9.959,21.445,1.3,21.42.9,20.525c-.9-2-1.12-12.148-.7-15.262,0,0,.219-4.785.7-4.574C4.1-.779,9.274.555,9.274.555c1.4.411,1.275,3.6,1.665,8.076.05.577.106,1.178.168,1.8.275,2.765.676,5.941,1.285,9.291.041.221-.113.416-.413.584" transform="translate(152.195 51.447)" fill="#fff"/>
  <path id="Fill_160" data-name="Fill 160" d="M3.454,3.529c-.054.856-1.17.759-2.512.453s-.856-1.1-.856-1.1.02-.608.1-1.337C.221,1.282.26,1,.311.727.334.593.361.461.391.334.566-.419,3.072.308,3.054.51c-.049.547.347,2.346.4,3.018" transform="translate(155.625 47.935)" fill="#ffb27d"/>
  <path id="Fill_162" data-name="Fill 162" d="M.106,1.182,0,0,1.486.28.914,1.336Z" transform="translate(156.096 51.775)" fill="#233862"/>
  <path id="Fill_164" data-name="Fill 164" d="M.888,0,0,1.35A1.965,1.965,0,0,0,.77,2.783l1.214-1.13A2.182,2.182,0,0,1,.888,0" transform="translate(154.855 50.263)" fill="#dceaff"/>
  <path id="Fill_166" data-name="Fill 166" d="M0,1.438A3.176,3.176,0,0,0,.738,2.755s1.9-.51,2.347-1.481L2.1,0S2.05.964,0,1.438" transform="translate(156.839 50.478)" fill="#dceaff"/>
  <path id="Fill_168" data-name="Fill 168" d="M2.878.338A4.65,4.65,0,0,1,0,.95C.031.685.07.4.121.13.451.05.727,0,.727,0Z" transform="translate(155.816 48.532)" fill="#e2915a"/>
  <path id="Fill_170" data-name="Fill 170" d="M4.426,4.654C3.836,6.277,1.684,5.862.768,5.6.51,5.529.35,5.468.35,5.468.067,5.339-.021,4.845,0,4.221A9.653,9.653,0,0,1,.821.821C1.242.189,1.944-.454,4.032.441s1.15,2.133.394,4.212" transform="translate(155.034 43.306)" fill="#ffb27d"/>
  <path id="Fill_172" data-name="Fill 172" d="M5.763,4.978C5.1,5.515,3.689,6.51,3.689,6.51a2.567,2.567,0,0,0,.35-.723.713.713,0,0,0,.026-.245,1.349,1.349,0,0,1,.193-.75c.086-.14.117-.285.008-.388-.179-.169-.484-.014-.684.123a.4.4,0,0,1-.441.011l0,0c-.563-.353.058-.974-.4-1.489S.3,2.462.381,2.139C-.295,1.757.131.348.144.273A7.3,7.3,0,0,0,2.325.056,3.227,3.227,0,0,1,4.735.7a.552.552,0,0,0-.055-.24.51.51,0,0,1,.146.319c.015.015.022.025.017.028a.653.653,0,0,1,.31.072S5.07.853,5.03.9a.061.061,0,0,1-.017.013c1.316.929,1.3,3.615.75,4.062" transform="translate(155.308 42.148)" fill="#bc3f3f"/>
  <path id="Fill_174" data-name="Fill 174" d="M1.019.346S.913.55.381.381C.381.381-.066.238.008,0A1.506,1.506,0,0,1,1.019.346" transform="translate(155.328 47.379)" fill="#fff"/>
  <path id="Fill_176" data-name="Fill 176" d="M1.169,0S-.016,14.979,0,16.227A4.707,4.707,0,0,0,1.313,18.8,5.49,5.49,0,0,0,2.549,16.47C2.75,15.276,1.977.154,1.977.154Z" transform="translate(155.033 52.958)" fill="#2a4e96"/>
  <path id="Fill_178" data-name="Fill 178" d="M2.644,12.491h0C-.96,11.972.072.048.355,0S1.673,2.132,1.673,2.132l.1.484c.275,2.765.676,5.941,1.285,9.291.041.221-.113.416-.413.584" transform="translate(161.53 59.262)" fill="#dceaff"/>
  <path id="Fill_180" data-name="Fill 180" d="M10.982,6.982,3.363,9.2A1.883,1.883,0,0,1,1.035,7.921l-.961-3.3A1.883,1.883,0,0,1,1.353,2.292L8.972.075A1.883,1.883,0,0,1,11.3,1.353l.961,3.3a1.883,1.883,0,0,1-1.278,2.328" transform="translate(163.784 73.653)" fill="#a02e2e"/>
  <path id="Fill_182" data-name="Fill 182" d="M2.857,9.646A1.894,1.894,0,0,1,1.047,8.288L.075,4.948A1.89,1.89,0,0,1,1.181,2.673a1.769,1.769,0,0,1,.176-.061l1.517-.441-.207-.713A.623.623,0,0,1,3.091.687l.4-.115L5.08.108,5.367.024a.622.622,0,0,1,.77.424l.208.713L8.963.4A1.873,1.873,0,0,1,9.487.324,1.9,1.9,0,0,1,11.3,1.681l.972,3.341a1.887,1.887,0,0,1-1.283,2.336L3.383,9.571a1.811,1.811,0,0,1-.4.071C2.939,9.644,2.9,9.646,2.857,9.646ZM5.544.39A.267.267,0,0,0,5.475.4L5.137.5,3.883.862l-.684.2a.233.233,0,0,0-.158.288l.207.712,2.722-.792L5.763.557A.234.234,0,0,0,5.544.39Z" transform="translate(164.787 73.03)" fill="#bc3f3f"/>
  <path id="Fill_184" data-name="Fill 184" d="M.063.561S-.173,2.537.27,2.508s1.527-.241,1.6-.581A7.217,7.217,0,0,0,1.04,0Z" transform="translate(168.412 71.606)" fill="#ffb27d"/>
  <path id="Fill_186" data-name="Fill 186" d="M.471,0A1.835,1.835,0,0,0,.1.753c-.029.332-.191.911-.039.948S.493.979.493.979Z" transform="translate(168.061 72.162)" fill="#ffb27d"/>
  <path id="Fill_188" data-name="Fill 188" d="M0,0S1.914.458,3.426,3.364s2.708,8.767,3.43,10.314,1.272,6.189,1.272,6.189a.71.71,0,0,1-.5.315,2.372,2.372,0,0,1-.612.04s-2.845-4.557-3.253-6.194C3.54,13.142.164,6.05.164,6.05Z" transform="translate(161.47 52.003)" fill="#fff"/>
  <path id="Fill_190" data-name="Fill 190" d="M.287,3.071,0,1.006,1.2,0l.379,2.734Z" transform="translate(35.16 99.526)" fill="#ffb27d"/>
  <path id="Fill_192" data-name="Fill 192" d="M4.937,2.614H.027A2.7,2.7,0,0,1,.166,1.3C.412.754.794.417.829,0A1.475,1.475,0,0,0,2.235.432a5.387,5.387,0,0,0,.852,1.1c.321.231,1.752.148,1.85,1.078" transform="translate(34.51 101.827)" fill="#233862"/>
  <path id="Fill_194" data-name="Fill 194" d="M6.087,2.69c-.321,2.583-.584,5.018-.8,7.288a173.626,173.626,0,0,0-.919,19.484s-.083.219-.791.222a4.058,4.058,0,0,1-.793-.085S.229,21.7.426,17.209a6.894,6.894,0,0,1,.2-1.455c.614-2.3-2.271-11.092.865-14.367s4.744.117,4.6,1.3" transform="translate(32.373 72.023)" fill="#f99746"/>
  <path id="Fill_196" data-name="Fill 196" d="M6.087,2.69c-.321,2.583-.584,5.018-.8,7.288L.426,17.209a6.894,6.894,0,0,1,.2-1.455c.614-2.3-2.271-11.092.865-14.367s4.744.117,4.6,1.3" transform="translate(32.373 72.023)" fill="#ed7d2b"/>
  <path id="Fill_198" data-name="Fill 198" d="M.257,2.729s-.118-.59-.252-1.04A3.24,3.24,0,0,1,.642.019c.284-.161,1.025.72.816,1.4C1.35,1.764,1.173,2.9,1.173,2.9Z" transform="translate(42.067 47.345)" fill="#ffb27d"/>
  <path id="Fill_200" data-name="Fill 200" d="M.686,1.288S.531.946.392.891.1.276,0,.054C0,.054.1-.091.272.1.378.209.613.543.613.543Z" transform="translate(41.638 48.786)" fill="#ffb27d"/>
  <path id="Fill_202" data-name="Fill 202" d="M1.735,1.22c-.03.062-.072.173-.109.278q0-.043,0-.084A3.24,3.24,0,0,0,.528,0C.208-.067-.242.992.157,1.578c.2.3.705,1.331.705,1.331l.827-.427s.048-.372.165-.466.1-.673.13-.915c0,0-.137-.11-.248.119" transform="translate(20.32 50.839)" fill="#ffb27d"/>
  <path id="Fill_204" data-name="Fill 204" d="M.087,2.718C.017,2.056,0,.314,0,.314S1.774-.253,1.709.137A12.534,12.534,0,0,0,1.475,3l-.718.429Z" transform="translate(27.126 99.26)" fill="#ffb27d"/>
  <path id="Fill_206" data-name="Fill 206" d="M10.254.365S3.4,19.155,2.05,27.306a1.366,1.366,0,0,1-.9.144,1,1,0,0,1-.843-.54S-.927,17.14,1.535,13.749C3.226,11.418.805,1.185,4.744.365s5.51,0,5.51,0" transform="translate(26.724 74.225)" fill="#f99746"/>
  <path id="Fill_208" data-name="Fill 208" d="M11.192,3.705h0a.156.156,0,0,0-.006-.024c-.04-.165-.084-.328-.131-.49h0a11.023,11.023,0,0,0-.5-1.38c-.106-.238-.216-.459-.328-.655l-.05-.088h0A1.971,1.971,0,0,0,9.395.218,2.351,2.351,0,0,0,8.1.165.594.594,0,0,1,8.351,0a1.96,1.96,0,0,0-.667.284C4.527-.422,4.711,4.044,4.926,5.056s-.8,1.5-2.236,2.54C-.046,9.573,0,11.667,0,11.667c.025.01.052.022.08.036.11-.271.344-.784.588-.893a10.621,10.621,0,0,0-.262,1.061c.417.23.993.585,1.62.987h0c.838.536,1.763,1.153,2.5,1.654a1.7,1.7,0,0,1-.018-.659l.236.731.031.1c.473.321.846.577,1.036.708l.052.036.085.059A3.99,3.99,0,0,1,6.627,13.7c.032-.059.065-.12.1-.181.15-.269.317-.551.5-.843.065-.105.13-.211.2-.318h0c.054-.087.109-.172.166-.26h0c.134-.207.273-.416.415-.625.367-.542.756-1.08,1.14-1.574a13.8,13.8,0,0,1,1.563-1.752c.015-.031.029-.062.042-.094a3.136,3.136,0,0,0,.169-.54c.013-.057.025-.114.035-.17A7.4,7.4,0,0,0,11.068,6a7.582,7.582,0,0,1-.017,1.35c-.009.073-.018.14-.029.2h0a2.772,2.772,0,0,1-.083.355,1.85,1.85,0,0,0,.2-.307,2.162,2.162,0,0,0,.1-.229,6.65,6.65,0,0,0-.05-3.67" transform="translate(24.569 52.809)" fill="#163560"/>
  <path id="Fill_210" data-name="Fill 210" d="M2.928,2.578a2.782,2.782,0,0,1-1.643.56A2.215,2.215,0,0,1,0,2.227C.282,2.126.306,1.714.045,0L.18.006,2.453.115s.053.7.149,1.357c.08.55.191,1.066.326,1.106" transform="translate(32.24 58.461)" fill="#ffb27d"/>
  <path id="Fill_212" data-name="Fill 212" d="M2.273.109s.053.7.149,1.357A2.648,2.648,0,0,1,0,0Z" transform="translate(32.42 58.467)" fill="#ed975d"/>
  <path id="Fill_214" data-name="Fill 214" d="M1.17,4.762A6.565,6.565,0,0,1,.085,2.984C-.118,2.376-.145.014,2.231,0A3.2,3.2,0,0,1,3.615.3c.556.266,1.394.894.88,3.035l-.11.714Z" transform="translate(30.986 53.499)" fill="#163560"/>
  <path id="Fill_216" data-name="Fill 216" d="M9.728,13.917a9.626,9.626,0,0,1-6.671.854C3.014,14.76,0,14.279,0,14.279c.052-.142.441-2.47.492-2.6C1.151,9.979,2.355.753,3.361.3A2.278,2.278,0,0,0,4.98.713C5.7.649,5.946.336,5.886,0,6.686.379,7.3.73,7.3.73c.732,1.1,2.427,13.186,2.427,13.186" transform="translate(29.018 60.312)" fill="#fff"/>
  <path id="Fill_218" data-name="Fill 218" d="M3.486,4.824S.57,5.307.3,3.487-.536.5,1.314.117,3.631.372,3.87.958s.367,3.694-.384,3.867" transform="translate(31.712 54.31)" fill="#ffb27d"/>
  <path id="Fill_220" data-name="Fill 220" d="M3.427.276S2.944,2.531,1.763,3.03A2.445,2.445,0,0,1,0,3.278,3.517,3.517,0,0,0,.832,1.054S2.672-.651,3.427.276" transform="translate(30.924 53.909)" fill="#163560"/>
  <path id="Fill_222" data-name="Fill 222" d="M0,.431a2.609,2.609,0,0,1,.883.83c.215.442.422,1.387.7,1.313,0,0,.387-1.542-.413-2.262C.318-.453,0,.431,0,.431" transform="translate(34.178 53.957)" fill="#163560"/>
  <path id="Fill_224" data-name="Fill 224" d="M8.356.164A1.864,1.864,0,0,0,7.835,0a1.621,1.621,0,0,0-.458.048s-.823,5.114-.884,5.385S2.965,9.613,2.03,9.6A4.235,4.235,0,0,0,0,10.36,44.837,44.837,0,0,1,2.064,15.3c.107.85,1.124,13.935,1.124,13.935s-.061.609,1.077.281a3.884,3.884,0,0,0,1.422-.6s-1.045-10.3-1.264-13.5a6.133,6.133,0,0,0-.2-1.2,1.211,1.211,0,0,1,.2-1.029c1.438-1.974,3.709-5.172,3.835-5.852.186-1,.1-7.171.1-7.171" transform="translate(34.904 49.952)" fill="#2b478b"/>
  <path id="Fill_226" data-name="Fill 226" d="M4.937,2.614H.027A2.7,2.7,0,0,1,.166,1.3C.411.754.794.417.829,0A1.475,1.475,0,0,0,2.235.432a5.384,5.384,0,0,0,.852,1.1c.321.231,1.752.148,1.85,1.078" transform="translate(26.367 101.827)" fill="#233862"/>
  <path id="Fill_228" data-name="Fill 228" d="M13.5,12.489a38.861,38.861,0,0,0-2.278-5.107A4.349,4.349,0,0,0,9,7.3c-.879.318-5.427-2.25-5.573-2.486S.847.04.847.04A.565.565,0,0,0,.322.091.592.592,0,0,0,0,.584S1.88,6.3,2.38,7.183a33.287,33.287,0,0,0,4.8,3.779,1.234,1.234,0,0,1,.511,1.173c-.264,1.954-.332,3.055-.636,6.409-.252,2.782-.349,8.168-.349,8.168a18.185,18.185,0,0,0,3.719.862,1.843,1.843,0,0,0,1.849-1.5S13.665,13.536,13.5,12.489" transform="translate(21.181 53.164)" fill="#2b478b"/>
  <path id="Fill_230" data-name="Fill 230" d="M0,.265A1.3,1.3,0,0,0,.773.41c.287-.043.352-.383.352-.383a1.129,1.129,0,0,0-.517,0A2.2,2.2,0,0,0,0,.265" transform="translate(34.242 57.969)" fill="#fff"/>
  <path id="Fill_232" data-name="Fill 232" d="M.606,3.129S-.758.7.606.211,2.588.172,2.653.725a15.11,15.11,0,0,1-.52,2.729Z" transform="translate(126.768 20.402)" fill="#ffb27d"/>
  <path id="Fill_234" data-name="Fill 234" d="M19.539,16.121a44.111,44.111,0,0,1-6.839.7,38.128,38.128,0,0,1-5.257-.237q-.62-.071-1.192-.159A23.663,23.663,0,0,1,0,14.734s3.68-7.7,6.653-7.408c3.488.348,9.4,3.477,9.985,2.6.661-.989,1.215-9.47,1.215-9.47a1.762,1.762,0,0,1,2.47.057s3.021,14.921-.783,15.607" transform="translate(108.929 22.917)" fill="#f99746"/>
  <path id="Fill_236" data-name="Fill 236" d="M13.013,4.233a44.111,44.111,0,0,1-6.839.7A38.127,38.127,0,0,1,.917,4.7C-.01,1.748-.678-1.266,1.188.551,4.48,3.756,13.013,4.233,13.013,4.233" transform="translate(115.455 34.805)" fill="#ed7d2b"/>
  <path id="Fill_238" data-name="Fill 238" d="M.054,1.185S-.211,4.247.436,4.566l8.284-.017s0-.956-1.331-1.169S3.722,2.389,3.326.654.054,1.185.054,1.185" transform="translate(108.596 100.049)" fill="#233862"/>
  <path id="Fill_240" data-name="Fill 240" d="M10.533,9.593c-.041,2-.137,4.068-.325,5.924C9.313,24.325,9,34.968,8.87,37.02c-.223,3.562-.927,9.252-.927,9.252a4.549,4.549,0,0,1-4.116.693A92.614,92.614,0,0,1,1.07,30.139c-.008-.142-.016-.284-.023-.426-.059-1.141-.12-2.446-.182-3.852C.45,16.438,0,2.441,0,2.441L10.4,0s.239,4.6.137,9.593" transform="translate(104.199 54.578)" fill="#2a4e96"/>
  <path id="Fill_242" data-name="Fill 242" d="M10.533,9.593C7.9,14.138,2.876,22.513.865,25.861.45,16.438,0,2.441,0,2.441L10.4,0s.239,4.6.137,9.593" transform="translate(104.199 54.578)" fill="#233862"/>
  <path id="Fill_244" data-name="Fill 244" d="M2.163,0A16.135,16.135,0,0,0,.32,2.541,11.061,11.061,0,0,0,.041,5.677c.145.6,1.27-1.665,1.679-1.907s-.307.9-.167,1.09S2.5,4.194,2.816,3.9s.284-1.85.662-2.773S2.163,0,2.163,0" transform="translate(86.246 55.366)" fill="#ffb27d"/>
  <path id="Fill_246" data-name="Fill 246" d="M1.224.637S-.25,1.983.037,2.939,1.656,4.533,1.835,5.7s.9,1.806,1.546,1.806H6.468s.477-.822-.674-1.07-1.585-1.621-1.513-2.9A22.459,22.459,0,0,0,4.173.567L1.728,0Z" transform="translate(86.788 97.117)" fill="#233862"/>
  <path id="Fill_248" data-name="Fill 248" d="M24.944,3.164s-9.732,20.822-14.91,29.958-6.8,11.686-6.8,11.686S.27,43.639,0,42.842c0,0,1.98-17.637,5.448-21.937,1.96-2.429,4.262-9.72,4.369-12.27S12.2,0,12.2,0Z" transform="translate(88.012 54.069)" fill="#2a4e96"/>
  <path id="Fill_250" data-name="Fill 250" d="M17.371,30.2A16.864,16.864,0,0,1,8.024,32.55c-2.4-.105-7.172-.787-7.941-2.7a3.01,3.01,0,0,1,.223-1.893c.7-2.272,2.343-6.6,1.848-16.193a15.747,15.747,0,0,1,.064-2.518C2.734,4.522,5.442,1.724,8.06.809c6.384-2.231,8.512.86,8.512.86a10.272,10.272,0,0,1,3.247,6.9C20.669,17.9,17.371,30.2,17.371,30.2" transform="translate(98.43 28.012)" fill="#f99746"/>
  <path id="Fill_252" data-name="Fill 252" d="M0,5.914A10.137,10.137,0,0,0,6.106,7.192s.628-.16.319-.9a9.415,9.415,0,0,0,.282-.984,14.822,14.822,0,0,0,.364-1.6l-1.8-1.9L3.561,0A7.575,7.575,0,0,1,0,5.914" transform="translate(108.36 22.371)" fill="#ffb27d"/>
  <path id="Fill_254" data-name="Fill 254" d="M0,0A7.062,7.062,0,0,0,3.42,3.669c.279-1.018.46-2.082.46-2.082L1.981.169Z" transform="translate(111.647 24.012)" fill="#ed985f"/>
  <path id="Fill_256" data-name="Fill 256" d="M6.412,9.141S.821,9.84.428,6.4-.95.745,2.6.153,7,.8,7.415,1.912s.441,6.959-1,7.229" transform="translate(111.042 16.844)" fill="#ffb27d"/>
  <path id="Fill_258" data-name="Fill 258" d="M.421,1.722C.373,1.662.258,1.611,0,1.587a1.051,1.051,0,0,1,.489-.118A1.3,1.3,0,0,1,1.4.35.777.777,0,0,0,1,.9C1.746.186,3.3-.293,7.55.2c5.6.655,3.61,4.179,2.867,4.58S7.89,3.942,6.532,4,4.843,6,4.373,6.252s-.271-.217-.882-.521-.709.723-.555,1.4S2.2,8.657,2.2,8.657L1.377,7.7C.549,6.733-.115,2.767.309,1.943l.113-.221" transform="translate(109.284 14.716)" fill="#2c3a64"/>
  <path id="Fill_260" data-name="Fill 260" d="M9.557,2.077.065,2.161,0,.733,9.462,0Z" transform="translate(117.224 19.846)" fill="#2a4e96"/>
  <path id="Fill_262" data-name="Fill 262" d="M10.452,3.245.118,3.395,0,.8,10.305,0Z" transform="translate(123.494 18.916)" fill="#2a4e96"/>
  <path id="Fill_264" data-name="Fill 264" d="M8.874,4.284.159,4.295,0,.79,8.68,0Z" transform="translate(132.041 18.081)" fill="#233862"/>
  <path id="Fill_266" data-name="Fill 266" d="M.714,5.476h0a.487.487,0,0,0,.465-.509l-.2-4.5A.487.487,0,1,0,0,.509l.2,4.5a.487.487,0,0,0,.509.465" transform="translate(140.326 17.48)" fill="#233862"/>
  <path id="Fill_268" data-name="Fill 268" d="M.506,2.034h0a.433.433,0,0,1-.452-.413L0,.453A.433.433,0,0,1,.866.413L.919,1.582a.433.433,0,0,1-.413.452" transform="translate(116.754 20.278)" fill="#2a4e96"/>
  <path id="Fill_270" data-name="Fill 270" d="M0,18.721c.7-2.272,2.343-6.6,1.848-16.193A15.747,15.747,0,0,1,1.912.01h0C4.014-.17,7.225,2.1,7.225,2.1S5.248,14.159,0,18.721" transform="translate(98.736 37.249)" fill="#ed7d2b"/>
  <path id="Fill_272" data-name="Fill 272" d="M20.63,0s-5.387.926-8.2,4.356-7.329,8.267-8.4,9.96S0,27.536,0,27.536s.2.371,1.014.586a1.929,1.929,0,0,0,1.351-.114S6.3,21.282,7.774,17.922c.615-1.4,11.243-6.925,15.239-6.352C24.583,11.795,20.63,0,20.63,0" transform="translate(87.731 28.285)" fill="#f99746"/>
  <path id="Fill_274" data-name="Fill 274" d="M0,.381S1.159,1.09,1.852.79s.632-.574.632-.574S.39-.366,0,.381" transform="translate(126.725 19.056)" fill="#ffb27d"/>
  <path id="Fill_276" data-name="Fill 276" d="M20.965.264S18.6,15.19,1.827,19.535L0,23.14l3.21.543S22.306,18.151,22.049,0Z" transform="translate(92.623 31.778)" fill="#bc3f3f"/>
  <path id="Fill_278" data-name="Fill 278" d="M.774,0,0,.076V1.2L1.141,2.382l1.085-.264V.563L1.446,0Z" transform="translate(112.447 29.66)" fill="#a02e2e"/>
  <path id="Fill_280" data-name="Fill 280" d="M2.463,0A7.454,7.454,0,0,0,0,1.593S1.7,5.21,5.3,5.643a12.021,12.021,0,0,1,.2-2.675S2.652,1.948,2.463,0" transform="translate(107.72 26.692)" fill="#ed7d2b"/>
  <path id="Fill_282" data-name="Fill 282" d="M0,.995s1.754.931,1.884,2.382a2.928,2.928,0,0,0,.476-1.8A5.993,5.993,0,0,0,1.565,0S1.624.886,0,.995" transform="translate(113.221 28.665)" fill="#ed7d2b"/>
</svg>
