<svg xmlns="http://www.w3.org/2000/svg" width="68.544" height="61.2" viewBox="0 0 68.544 61.2"><defs><style>.a{fill:#3ea864;}</style></defs><g transform="translate(-2 -4)"><path class="a" d="M33.584,16A19.642,19.642,0,0,0,14,35.584a20.943,20.943,0,0,0,3.427,11.261,2.226,2.226,0,0,0,1.958.979,3.022,3.022,0,0,0,1.958-.979,14.215,14.215,0,0,1,7.1-5.386L38.97,26.771a2.448,2.448,0,1,1,3.917,2.938L35.053,40.48A15.169,15.169,0,0,1,45.579,46.6a2.226,2.226,0,0,0,1.958.979A3.022,3.022,0,0,0,49.5,46.6a19.743,19.743,0,0,0,3.427-11.261C53.168,24.813,44.355,16,33.584,16Z" transform="translate(17.376 17.376)"/><g transform="translate(2 4)"><path class="a" d="M26.48,52.96A24.48,24.48,0,0,1,70.544,38.272V11.344A7.213,7.213,0,0,0,63.2,4H9.344A7.213,7.213,0,0,0,2,11.344V55.408a7.213,7.213,0,0,0,7.344,7.344H28.438A26.863,26.863,0,0,1,26.48,52.96Zm.245-40.147c.245-.245.245-.49.49-.734a2.366,2.366,0,0,1,3.427,0c.245.245.49.49.49.734a1.472,1.472,0,0,1,.245.979,1.472,1.472,0,0,1-.245.979c-.245.245-.245.49-.49.734a2.222,2.222,0,0,1-1.714.734A1.472,1.472,0,0,1,27.949,16c-.245-.245-.49-.245-.734-.49s-.49-.49-.49-.734a1.472,1.472,0,0,1-.245-.979A1.472,1.472,0,0,1,26.725,12.813Zm-7.344,0c.245-.245.245-.49.49-.734s.49-.49.734-.49a2.235,2.235,0,0,1,2.693.49c.245.245.49.49.49.734a1.472,1.472,0,0,1,.245.979,2.222,2.222,0,0,1-.734,1.714,2.366,2.366,0,0,1-3.427,0,2.222,2.222,0,0,1-.734-1.714A1.472,1.472,0,0,1,19.381,12.813Zm-6.854-.734.245-.245c.245,0,.245-.245.49-.245.245-.245.245-.245.49-.245h.979c.245,0,.245,0,.49.245.245,0,.245.245.49.245l.245.245c.245.245.49.49.49.734a1.472,1.472,0,0,1,.245.979,1.472,1.472,0,0,1-.245.979c0,.245-.245.49-.49.734a2.366,2.366,0,0,1-3.427,0,2.366,2.366,0,0,1,0-3.427Zm1.714,16.4H26.48a2.448,2.448,0,1,1,0,4.9H14.24a2.448,2.448,0,1,1,0-4.9Zm4.9,12.24h-4.9a2.448,2.448,0,0,1,0-4.9h4.9a2.448,2.448,0,0,1,0,4.9Z" transform="translate(-2 -4)"/></g></g></svg>