<svg xmlns="http://www.w3.org/2000/svg" width="38.29" height="41.2" viewBox="0 0 38.29 41.2">
  <g id="serve" transform="translate(-14.9 -6.4)">
    <path id="Path_149" data-name="Path 149" d="M159.093,168.095l-4.167,3.947-1.711-1.779a.851.851,0,1,0-1.22,1.186l2.287,2.389a.86.86,0,0,0,.61.254.91.91,0,0,0,.593-.237l4.777-4.54a.854.854,0,0,0,.034-1.2A.839.839,0,0,0,159.093,168.095Z" transform="translate(-113.666 -134.098)" fill="#2f5bea"/>
    <path id="Path_150" data-name="Path 150" d="M135.795,132.041l-.119-.712h-1.8a8.057,8.057,0,0,0-.813-1.931c.254-.254.491-.508.745-.745l.525-.508-.424-.593a11.416,11.416,0,0,0-2.473-2.473l-.593-.424-.508.525-.474.474-.271.271a8.884,8.884,0,0,0-1.948-.8v-1.8l-.712-.119a10.543,10.543,0,0,0-3.422,0l-.745.136.034.762v1.016a9.237,9.237,0,0,0-1.948.8l-.288-.288c-.152-.152-.322-.3-.474-.474l-.508-.525-.593.424a10.09,10.09,0,0,0-2.473,2.473l-.424.593.525.508c.254.254.508.491.745.745a10.147,10.147,0,0,0-.813,1.931h-1.8l-.119.712a10.094,10.094,0,0,0-.136,1.745,12.1,12.1,0,0,0,.136,1.745l.1.644.762.068h1.05a9.071,9.071,0,0,0,.813,1.965l-.339.339-.3.3-.136.136-.474.508.407.559a10.494,10.494,0,0,0,2.456,2.439l.542.39.508-.44.085-.085c.186-.2.373-.39.576-.576l.152-.152a9.236,9.236,0,0,0,1.948.8v1.05l.051.762.678.1a10.868,10.868,0,0,0,3.422,0l.728-.152-.017-.745v-1.016a8.883,8.883,0,0,0,1.948-.8l.136.136.576.576.576.542.559-.407a10.829,10.829,0,0,0,2.456-2.439l.407-.576-.474-.508-.136-.136-.3-.3-.339-.339a8.6,8.6,0,0,0,.813-1.965h.983l.83-.068.1-.644a9.966,9.966,0,0,0,.136-1.745A8.394,8.394,0,0,0,135.795,132.041Zm-1.592,2.49h-.932l-.779.085-.119.61a7.055,7.055,0,0,1-1.1,2.626l-.322.491.339.474a2.146,2.146,0,0,0,.186.22l.61.61a10.247,10.247,0,0,1-1.05,1.05l-.085-.085-.525-.525a1.278,1.278,0,0,0-.237-.186l-.474-.3-.474.3a7.313,7.313,0,0,1-2.626,1.084l-.525.1-.136.525a1.329,1.329,0,0,0-.034.373v.83a10.21,10.21,0,0,1-1.44,0v-.83a2.537,2.537,0,0,0-.034-.373l-.136-.525-.525-.1a7.261,7.261,0,0,1-2.626-1.084l-.474-.3-.474.3a1.166,1.166,0,0,0-.22.186c-.169.186-.356.356-.525.542l-.085.085a8.788,8.788,0,0,1-1.05-1.05l.61-.61a1.074,1.074,0,0,0,.186-.22l.322-.474-.322-.474a7.174,7.174,0,0,1-1.1-2.626l-.119-.61-.728-.085h-.983c-.017-.254-.034-.491-.034-.745s.017-.508.034-.762c.271,0,.542,0,.8.017a3.29,3.29,0,0,0,.407-.034l.508-.136.1-.525a6.987,6.987,0,0,1,1.084-2.592l.3-.457-.288-.474a1.444,1.444,0,0,0-.288-.339l-.22-.22-.3-.3a7.941,7.941,0,0,1,1.067-1.067c.186.186.39.373.576.576a1.593,1.593,0,0,0,.407.3l.424.186.39-.254a7.327,7.327,0,0,1,2.609-1.067l.525-.1.136-.508a1.269,1.269,0,0,0,.034-.356v-.847a10.212,10.212,0,0,1,1.44,0v.847a2.306,2.306,0,0,0,.034.356l.136.508.525.1a7.327,7.327,0,0,1,2.609,1.067l.39.254.424-.186a1.4,1.4,0,0,0,.407-.288c.186-.186.373-.39.576-.576a7.943,7.943,0,0,1,1.067,1.067l-.339.339-.186.186a2.552,2.552,0,0,0-.288.339l-.3.474.3.457a7.28,7.28,0,0,1,1.084,2.592l.1.525.525.136a1.045,1.045,0,0,0,.407.034c.271-.017.542-.017.8-.017.017.254.034.508.034.762A3.168,3.168,0,0,1,134.2,134.531Z" transform="translate(-82.727 -96.909)" fill="#353535"/>
    <path id="Path_151" data-name="Path 151" d="M39.379,16.141A4.87,4.87,0,1,0,34.5,11.262,4.88,4.88,0,0,0,39.379,16.141Zm0-8.047a3.168,3.168,0,1,1-3.168,3.168A3.174,3.174,0,0,1,39.379,8.094Z" transform="translate(-16.28)" fill="#353535"/>
    <path id="Path_152" data-name="Path 152" d="M28.961,80.363a.855.855,0,0,0-.915.8L27.3,92.069a.734.734,0,0,1-.017.085l-.695,10.6a.851.851,0,0,1-.847.8H20.474a.84.84,0,0,1-.847-.8l-.695-10.6a.852.852,0,0,0-.61-.762c-.983-.3-.983-.3-1.067-1.389l-.627-11.249v-.085c.932-.271,2.49-.779,3.27-1.016l2.626,2.456a.861.861,0,0,0,1.169,0l2.66-2.49,7.793,1.762a.635.635,0,0,0,.356,0l7.352-1.508a.847.847,0,0,0-.339-1.66l-7.166,1.474-8.064-1.83a.884.884,0,0,0-.779.2L23.1,78.313,20.694,76.06a.816.816,0,0,0-.847-.186s-2.49.8-3.761,1.169A1.58,1.58,0,0,0,14.9,78.635v.2l.627,11.1.017.186c.119,1.694.407,2.236,1.711,2.711l.661,10.029a2.585,2.585,0,0,0,2.558,2.406h5.269A2.573,2.573,0,0,0,28.3,102.86l.695-10.52a.153.153,0,0,1,.017-.085l.762-10.995A.876.876,0,0,0,28.961,80.363Z" transform="translate(0 -57.666)" fill="#353535"/>
  </g>
</svg>
