<svg xmlns="http://www.w3.org/2000/svg" width="33.715" height="33.716" viewBox="0 0 33.715 33.716">
  <g id="started" transform="translate(-5.434 -5.458)">
    <path id="Path_136" data-name="Path 136" d="M49.024,103.142a.286.286,0,0,0-.4,0l-4.969,4.966a.286.286,0,1,0,.406.4l4.966-4.966A.286.286,0,0,0,49.024,103.142Z" transform="translate(-27.119 -69.573)" fill="#353535" stroke="#353535" stroke-width="0.3"/>
    <path id="Path_137" data-name="Path 137" d="M57.978,109.747a.286.286,0,0,0,.2-.083l2.082-2.082a.286.286,0,0,0-.4-.4l-2.068,2.08a.286.286,0,0,0,.2.489Z" transform="translate(-37.211 -72.465)" fill="#353535" stroke="#353535" stroke-width="0.3"/>
    <path id="Path_138" data-name="Path 138" d="M52.963,117.179l-.8.8a.285.285,0,1,0,.4.4l.807-.8a.286.286,0,1,0-.406-.4Z" transform="translate(-33.191 -79.593)" fill="#353535" stroke="#353535" stroke-width="0.3"/>
    <path id="Path_139" data-name="Path 139" d="M5.669,70.483a.287.287,0,0,0,.4,0l4.966-4.969a.286.286,0,1,0-.4-.4L5.669,70.076a.286.286,0,0,0,0,.406Z" transform="translate(0 -42.408)" fill="#353535" stroke="#353535" stroke-width="0.3"/>
    <path id="Path_140" data-name="Path 140" d="M12.191,63.6l2.08-2.082a.286.286,0,1,0-.4-.4L11.8,63.193a.282.282,0,1,0,.395.4Z" transform="translate(-4.376 -39.553)" fill="#353535" stroke="#353535" stroke-width="0.3"/>
    <path id="Path_141" data-name="Path 141" d="M6.579,72.4l.8-.8a.286.286,0,0,0-.4-.406L6.172,72a.286.286,0,0,0,.406.4Z" transform="translate(-0.361 -46.763)" fill="#353535" stroke="#353535" stroke-width="0.3"/>
    <path id="Path_142" data-name="Path 142" d="M33.562,13.614,21.868,15.462a.286.286,0,0,0-.157.08L19.849,17.4a.286.286,0,0,0,0,.406l4.763,4.763-1.347,1.35a.286.286,0,0,0,0,.406l3.278,3.278-1.3,1.3a.285.285,0,0,0,.4.4l1.3-1.3,3.47,3.453a.286.286,0,0,0,.406,0l1.35-1.35,4.763,4.763a.286.286,0,0,0,.406,0l1.716-1.716h0l.154-.154a.286.286,0,0,0,.08-.157l1.825-11.682,5.8-5.807A6.508,6.508,0,0,0,48.614,12.4a.175.175,0,0,0,0-.037,6.294,6.294,0,0,0,.177-.981l.318-3.224a2.323,2.323,0,0,0-2.54-2.54l-3.215.309a6.5,6.5,0,0,0-.975.174h-.043a6.508,6.508,0,0,0-2.958,1.7Zm-6.837,6.848-4.482-4.48L32.884,14.3ZM20.455,17.6l1.3-1.3,4.577,4.56-1.316,1.3ZM37.124,34.27l-4.577-4.563,1.3-1.3,4.577,4.577Zm1.625-1.791-4.48-4.474,6.159-6.159ZM43.411,6.494l3.221-.318a1.756,1.756,0,0,1,1.917,1.917l-.318,3.221a2.56,2.56,0,0,1-.054.386L43.028,6.551c.126-.017.26-.04.383-.051Zm-1.047.2,5.667,5.667a5.984,5.984,0,0,1-1.513,2.574L30.6,30.86l-3.252-3.252,8.23-8.23a.286.286,0,1,0-.406-.4l-8.23,8.23-3.075-3.078,3.055-3.058h0L39.781,8.213A6.007,6.007,0,0,1,42.364,6.7Z" transform="translate(-10.124)" fill="#353535" stroke="#353535" stroke-width="0.3"/>
    <path id="Path_143" data-name="Path 143" d="M8.535,98.446a.936.936,0,0,0,.406-.092l5.584-2.6a3.2,3.2,0,1,0-4.245-4.245l-2.6,5.584a.953.953,0,0,0,.858,1.356Zm-.34-1.113h0l2.595-5.587a2.609,2.609,0,0,1,1.928-1.482,2.922,2.922,0,0,1,.472-.04,2.632,2.632,0,0,1,1.1,5.017L8.7,97.836a.378.378,0,0,1-.5-.5Z" transform="translate(-1.43 -59.994)" fill="#353535" stroke="#353535" stroke-width="0.3"/>
    <path id="Path_144" data-name="Path 144" d="M88.714,27.333a2.992,2.992,0,1,0-2.114-.875,2.992,2.992,0,0,0,2.114.875ZM87,22.634a1.009,1.009,0,1,0,.009,0Z" transform="translate(-57.214 -11.236)" fill="#2f5bea" stroke="#2f5bea" stroke-width="0.3"/>
  </g>
</svg>
