<svg id="noun_Lock_4254770" xmlns="http://www.w3.org/2000/svg" width="21.465" height="28.318" viewBox="0 0 21.465 28.318">
  <path id="Path_3081" data-name="Path 3081" d="M24.469,14.743h-.906V10.411A8.5,8.5,0,0,0,15.153,2a8.5,8.5,0,0,0-8.411,8.411v4.333H5.836A1.416,1.416,0,0,0,4.42,16.159V28.9a1.416,1.416,0,0,0,1.416,1.416H24.469A1.416,1.416,0,0,0,25.885,28.9V16.159A1.416,1.416,0,0,0,24.469,14.743Zm-14.9-4.333a5.579,5.579,0,0,1,5.579-5.579,5.664,5.664,0,0,1,5.579,5.579v4.333H9.574Zm13.48,17.076H7.252V17.575h15.8Z" transform="translate(-4.42 -2)" fill="#d5d8d8"/>
  <path id="Path_3082" data-name="Path 3082" d="M12.416,20.548a1.416,1.416,0,0,0,1.416-1.416V15.706a1.416,1.416,0,0,0-2.832,0v3.427A1.416,1.416,0,0,0,12.416,20.548Z" transform="translate(-1.683 3.112)" fill="#d5d8d8"/>
</svg>
