<svg id="user" xmlns="http://www.w3.org/2000/svg" width="35" height="35" viewBox="0 0 35 35">
  <circle id="Ellipse_2" data-name="Ellipse 2" cx="16.5" cy="16.5" r="16.5" transform="translate(1 1)" fill="none" stroke="#353535" stroke-linecap="round" stroke-miterlimit="10" stroke-width="1"/>
  <rect id="Rectangle_2" data-name="Rectangle 2" width="35" height="35" fill="none"/>
  <path id="Path_157" data-name="Path 157" d="M23.547,27.087a28.935,28.935,0,0,1-.063-2.947,5.768,5.768,0,0,0,1.581-3.422c.4-.033,1.035-.425,1.221-1.973a1.445,1.445,0,0,0-.54-1.445c.654-1.966,2.012-8.049-2.512-8.678-.466-.818-1.658-1.231-3.207-1.231-6.2.114-6.945,4.68-5.587,9.909a1.447,1.447,0,0,0-.54,1.445c.186,1.548.819,1.94,1.221,1.973a5.755,5.755,0,0,0,1.618,3.422,28.942,28.942,0,0,1-.064,2.947c-.883,2.373-5.416,2.558-8.031,4.847a17.115,17.115,0,0,0,11.841,4.722c4.676,0,10.172-3.692,11.087-4.7C28.975,29.648,24.432,29.468,23.547,27.087Z" transform="translate(-2.61 -4.523)" fill="none" stroke="#2f5bea" stroke-linecap="round" stroke-miterlimit="10" stroke-width="1"/>
</svg>
