<svg id="userdashbaord" xmlns="http://www.w3.org/2000/svg" xmlns:xlink="http://www.w3.org/1999/xlink" width="196.087" height="105" viewBox="0 0 196.087 105">
  <defs>
    <clipPath id="clip-path">
      <path id="Clip_2" data-name="Clip 2" d="M0,0H187.795V100.62H0Z" fill="none"/>
    </clipPath>
    <clipPath id="clip-path-2">
      <path id="Clip_5" data-name="Clip 5" d="M0,105H196.087V0H0Z" fill="none"/>
    </clipPath>
  </defs>
  <g id="Group_3" data-name="Group 3" transform="translate(8.292 4.38)">
    <path id="Clip_2-2" data-name="Clip 2" d="M0,0H187.795V100.62H0Z" fill="none"/>
    <g id="Group_3-2" data-name="Group 3" clip-path="url(#clip-path)">
      <path id="Fill_1" data-name="Fill 1" d="M166.624,31.49c-7.711-6.578-17.007-46.245-48.853-25.585-16.453,10.674-44.2-9.164-67.16-2.312C29.522,9.886,27.489,30.619,29.529,37.375c4.122,13.646-8.705,15.677-20.6,21.54-18.665,9.2-4.94,41.519,12.693,41.674s124.458-.308,124.458-.308,25.616.065,36.268-14.073c11.463-15.214,4.2-37.728-15.721-54.717" fill="#d9e9fe"/>
    </g>
  </g>
  <path id="Clip_5-2" data-name="Clip 5" d="M0,105H196.087V0H0Z" fill="none"/>
  <g id="Mask_Group_2" data-name="Mask Group 2" clip-path="url(#clip-path-2)">
    <path id="Fill_4" data-name="Fill 4" d="M0,73.759H43.9V0H0Z" transform="translate(142.421 11.465)" fill="#aed3ff"/>
    <path id="Fill_6" data-name="Fill 6" d="M0,73.759H43.9V0H0Z" transform="translate(141.045 11.465)" fill="#739af0"/>
    <path id="Fill_7" data-name="Fill 7" d="M0,25.692H38.025V0H0Z" transform="translate(144.035 15.585)" fill="#f3f9ff"/>
    <path id="Fill_8" data-name="Fill 8" d="M0,13.717H20.408V0H0Z" transform="translate(160.996 65.386)" fill="#f3f9ff"/>
    <path id="Fill_9" data-name="Fill 9" d="M0,.076S6.492-.733,10.46,2.922s11.358.324,14.334,0c5.174-.563,9.23,1.13,10.433,2.99v5.582H0Z" transform="translate(145.603 28.622)" fill="#fb7369"/>
    <path id="Fill_10" data-name="Fill 10" d="M0,8.716H.272V0H0Z" transform="translate(150.635 19.715)" fill="#a6c7f9"/>
    <path id="Fill_11" data-name="Fill 11" d="M0,8.716H.272V0H0Z" transform="translate(161.312 23.455)" fill="#a6c7f9"/>
    <path id="Fill_12" data-name="Fill 12" d="M0,8.716H.272V0H0Z" transform="translate(172.328 21.483)" fill="#a6c7f9"/>
    <path id="Fill_13" data-name="Fill 13" d="M2.312.453H.227A.227.227,0,1,1,.227,0H2.312a.227.227,0,1,1,0,.453" transform="translate(151.632 20.599)" fill="#a6c7f9"/>
    <path id="Fill_14" data-name="Fill 14" d="M2.312.453H.227A.227.227,0,1,1,.227,0H2.312a.227.227,0,1,1,0,.453" transform="translate(151.632 21.415)" fill="#a6c7f9"/>
    <path id="Fill_15" data-name="Fill 15" d="M2.312.453H.227A.227.227,0,0,1,.227,0H2.312a.227.227,0,1,1,0,.453" transform="translate(162.15 25.042)" fill="#a6c7f9"/>
    <path id="Fill_16" data-name="Fill 16" d="M2.312.453H.227A.227.227,0,0,1,.227,0H2.312a.227.227,0,1,1,0,.453" transform="translate(162.15 25.841)" fill="#a6c7f9"/>
    <path id="Fill_17" data-name="Fill 17" d="M2.312.453H.227A.227.227,0,0,1,.227,0H2.312a.227.227,0,1,1,0,.453" transform="translate(173.348 21.755)" fill="#a6c7f9"/>
    <path id="Fill_18" data-name="Fill 18" d="M2.312.453H.227A.227.227,0,0,1,.227,0H2.312a.227.227,0,1,1,0,.453" transform="translate(173.348 22.554)" fill="#a6c7f9"/>
    <path id="Fill_19" data-name="Fill 19" d="M0,3.755A3.755,3.755,0,1,1,3.755,7.509,3.755,3.755,0,0,1,0,3.755" transform="translate(174.551 44.094)" fill="#f3f9ff"/>
    <path id="Fill_20" data-name="Fill 20" d="M5.759,3.436A3.436,3.436,0,0,1,0,5.968L2.323,3.436V0A3.436,3.436,0,0,1,5.759,3.436" transform="translate(175.983 44.413)" fill="#fb7369"/>
    <path id="Fill_21" data-name="Fill 21" d="M1.337.207H.1A.1.1,0,1,1,.1,0H1.337a.1.1,0,0,1,0,.207" transform="translate(175.659 47.037)" fill="#a6c7f9"/>
    <path id="Fill_22" data-name="Fill 22" d="M0,3.755A3.755,3.755,0,1,1,3.755,7.509,3.755,3.755,0,0,1,0,3.755" transform="translate(165.229 44.094)" fill="#f3f9ff"/>
    <path id="Fill_23" data-name="Fill 23" d="M3.437,3.436,5.548,6.147a3.436,3.436,0,1,1,1.31-3.025Z" transform="translate(165.547 44.413)" fill="#e57970"/>
    <path id="Fill_24" data-name="Fill 24" d="M.962.207H.1A.1.1,0,0,1,.1,0H.962a.1.1,0,0,1,0,.207" transform="translate(170.668 48.492)" fill="#a6c7f9"/>
    <path id="Fill_25" data-name="Fill 25" d="M0,3.754A3.755,3.755,0,1,1,3.755,7.509,3.755,3.755,0,0,1,0,3.754" transform="translate(174.551 54.435)" fill="#f3f9ff"/>
    <path id="Fill_26" data-name="Fill 26" d="M5.759,3.436A3.436,3.436,0,0,1,0,5.968L2.323,3.436V0A3.436,3.436,0,0,1,5.759,3.436" transform="translate(175.983 54.753)" fill="#fb7369"/>
    <path id="Fill_27" data-name="Fill 27" d="M1.337.207H.1A.1.1,0,1,1,.1,0H1.337a.1.1,0,0,1,0,.207" transform="translate(175.659 57.378)" fill="#a6c7f9"/>
    <path id="Fill_28" data-name="Fill 28" d="M0,3.754A3.755,3.755,0,1,1,3.755,7.509,3.755,3.755,0,0,1,0,3.754" transform="translate(165.229 54.435)" fill="#f3f9ff"/>
    <path id="Fill_29" data-name="Fill 29" d="M6.859,3.122a3.436,3.436,0,1,0-1.31,3.025L3.437,3.436Z" transform="translate(165.547 54.753)" fill="#fb7369"/>
    <path id="Fill_30" data-name="Fill 30" d="M.962.207H.1A.1.1,0,1,1,.1,0H.962a.1.1,0,0,1,0,.207" transform="translate(170.668 58.833)" fill="#a6c7f9"/>
    <path id="Fill_31" data-name="Fill 31" d="M18.732,11.068H0V0H.233V10.835h18.5Z" transform="translate(161.792 67.077)" fill="#a6c7f9"/>
    <path id="Fill_32" data-name="Fill 32" d="M4.732,4.946A3.985,3.985,0,0,0,0,4.946V8.067H17.143V0C12.484.118,7.025,6.771,4.732,4.946" transform="translate(162.917 69.197)" fill="#a6c7f9"/>
    <path id="Fill_33" data-name="Fill 33" d="M.2.393H8.184a.2.2,0,0,0,0-.393H.2A.2.2,0,0,0,.2.393" transform="translate(162.917 67.528)" fill="#a6c7f9"/>
    <path id="Fill_34" data-name="Fill 34" d="M.2.393H8.184a.2.2,0,0,0,0-.393H.2A.2.2,0,0,0,.2.393" transform="translate(162.917 68.487)" fill="#a6c7f9"/>
    <path id="Fill_35" data-name="Fill 35" d="M.161.393H5.45A.161.161,0,0,0,5.61.232V.161A.161.161,0,0,0,5.45,0H.161A.161.161,0,0,0,0,.161V.232A.161.161,0,0,0,.161.393" transform="translate(162.917 69.393)" fill="#a6c7f9"/>
    <path id="Fill_36" data-name="Fill 36" d="M0,90.588H60.067V0H0Z" transform="translate(73.715)" fill="#739af0"/>
    <path id="Fill_37" data-name="Fill 37" d="M0,53.9H48.361V0H0Z" transform="translate(79.518 5.067)" fill="#f3f9ff"/>
    <path id="Fill_38" data-name="Fill 38" d="M0,8.7a8.7,8.7,0,1,1,8.7,8.7A8.7,8.7,0,0,1,0,8.7" transform="translate(80.546 67.495)" fill="#f3f9ff"/>
    <path id="Fill_39" data-name="Fill 39" d="M14.7,7.352A7.352,7.352,0,1,0,11.811,13.2L7.352,7.352l6.87,2.622A7.342,7.342,0,0,0,14.7,7.352" transform="translate(81.892 68.841)" fill="#fb7369"/>
    <path id="Fill_40" data-name="Fill 40" d="M0,8.7a8.7,8.7,0,1,1,8.7,8.7A8.7,8.7,0,0,1,0,8.7" transform="translate(110.18 67.495)" fill="#f3f9ff"/>
    <path id="Fill_41" data-name="Fill 41" d="M7.352,0a7.352,7.352,0,0,0-5.24,12.509l5.24-5.157,6.87,2.622A7.357,7.357,0,0,0,7.352,0" transform="translate(111.525 68.841)" fill="#fb7369"/>
    <path id="Fill_42" data-name="Fill 42" d="M3.353,0H.224a.224.224,0,1,0,0,.447H3.353a.224.224,0,1,0,0-.447" transform="translate(114.45 72.461)" fill="#a6c7f9"/>
    <path id="Fill_43" data-name="Fill 43" d="M3.353,0H.224a.224.224,0,1,0,0,.447H3.353a.224.224,0,1,0,0-.447" transform="translate(114.45 73.168)" fill="#a6c7f9"/>
    <path id="Fill_44" data-name="Fill 44" d="M1.516,0H.224a.224.224,0,1,0,0,.447H1.516a.224.224,0,0,0,0-.447" transform="translate(114.45 73.876)" fill="#a6c7f9"/>
    <path id="Fill_45" data-name="Fill 45" d="M3.353,0H.224a.224.224,0,0,0,0,.447h3.13a.224.224,0,1,0,0-.447" transform="translate(84.756 72.461)" fill="#a6c7f9"/>
    <path id="Fill_46" data-name="Fill 46" d="M3.353,0H.224a.224.224,0,1,0,0,.447h3.13a.224.224,0,1,0,0-.447" transform="translate(84.756 73.168)" fill="#a6c7f9"/>
    <path id="Fill_47" data-name="Fill 47" d="M1.516,0H.223a.224.224,0,0,0,0,.447H1.516a.224.224,0,1,0,0-.447" transform="translate(84.756 73.876)" fill="#a6c7f9"/>
    <path id="Fill_48" data-name="Fill 48" d="M0,31.79H5.1V0H0Z" transform="translate(83.825 24.331)" fill="#a6c7f9"/>
    <path id="Fill_49" data-name="Fill 49" d="M0,40.651H5.1V0H0Z" transform="translate(92.185 15.47)" fill="#a6c7f9"/>
    <path id="Fill_50" data-name="Fill 50" d="M0,24.1H5.1V0H0Z" transform="translate(101.308 32.019)" fill="#a6c7f9"/>
    <path id="Fill_51" data-name="Fill 51" d="M0,35.224H5.1V0H0Z" transform="translate(110.185 20.897)" fill="#a6c7f9"/>
    <path id="Fill_52" data-name="Fill 52" d="M0,19.385H5.1V0H0Z" transform="translate(119.108 36.736)" fill="#a6c7f9"/>
    <path id="Fill_53" data-name="Fill 53" d="M4.769,0H.447a.447.447,0,0,0,0,.894H4.769a.447.447,0,1,0,0-.894" transform="translate(110.277 16.315)" fill="#a6c7f9"/>
    <path id="Fill_54" data-name="Fill 54" d="M1.431,0H.447a.447.447,0,0,0,0,.894h.984a.447.447,0,1,0,0-.894" transform="translate(110.277 17.941)" fill="#a6c7f9"/>
    <path id="Fill_55" data-name="Fill 55" d="M4.769,0H.447a.447.447,0,0,0,0,.894H4.769a.447.447,0,0,0,0-.894" transform="translate(92.468 9.391)" fill="#a6c7f9"/>
    <path id="Fill_56" data-name="Fill 56" d="M1.431,0H.447a.447.447,0,0,0,0,.894h.984a.447.447,0,1,0,0-.894" transform="translate(92.468 11.018)" fill="#a6c7f9"/>
    <path id="Fill_57" data-name="Fill 57" d="M4.769,0H.447a.447.447,0,1,0,0,.894H4.769a.447.447,0,1,0,0-.894" transform="translate(101.251 27.274)" fill="#a6c7f9"/>
    <path id="Fill_58" data-name="Fill 58" d="M1.431,0H.447a.447.447,0,1,0,0,.894h.984a.447.447,0,1,0,0-.894" transform="translate(101.252 28.901)" fill="#a6c7f9"/>
    <path id="Fill_59" data-name="Fill 59" d="M4.769,0H.447a.447.447,0,0,0,0,.894H4.769a.447.447,0,0,0,0-.894" transform="translate(119.051 32.019)" fill="#a6c7f9"/>
    <path id="Fill_60" data-name="Fill 60" d="M1.431,0H.447a.447.447,0,0,0,0,.894h.984a.447.447,0,1,0,0-.894" transform="translate(119.052 33.646)" fill="#a6c7f9"/>
    <path id="Fill_61" data-name="Fill 61" d="M0,24.715H43.9V0H0Z" transform="translate(21.709 34.338)" fill="#aed3ff"/>
    <path id="Fill_62" data-name="Fill 62" d="M0,24.715H43.9V0H0Z" transform="translate(23.136 34.338)" fill="#739af0"/>
    <path id="Fill_63" data-name="Fill 63" d="M7.938,0a7.938,7.938,0,1,0,7.938,7.938A7.938,7.938,0,0,0,7.938,0" transform="translate(27.205 38.199)" fill="#f3f9ff"/>
    <path id="Fill_64" data-name="Fill 64" d="M14.016,0H.866a.866.866,0,1,0,0,1.733h13.15a.866.866,0,1,0,0-1.733" transform="translate(48.085 41.703)" fill="#f3f9ff"/>
    <path id="Fill_65" data-name="Fill 65" d="M14.016,0H.866a.866.866,0,1,0,0,1.733h13.15a.866.866,0,1,0,0-1.733" transform="translate(48.085 45.27)" fill="#f3f9ff"/>
    <path id="Fill_66" data-name="Fill 66" d="M14.016,0H.866a.866.866,0,1,0,0,1.733h13.15a.866.866,0,1,0,0-1.733" transform="translate(48.085 48.838)" fill="#f3f9ff"/>
    <path id="Fill_67" data-name="Fill 67" d="M0,7.268H7.268V0A7.268,7.268,0,0,0,0,7.268" transform="translate(27.875 38.754)" fill="#3a4ace"/>
    <path id="Fill_68" data-name="Fill 68" d="M14.535,0H0A7.268,7.268,0,0,0,7.267,7.268h0A7.268,7.268,0,0,0,14.535,0" transform="translate(27.875 46.255)" fill="#3a4ace"/>
    <path id="Fill_69" data-name="Fill 69" d="M4.352,0H.408a.408.408,0,0,0,0,.816H4.352a.408.408,0,1,0,0-.816" transform="translate(29.535 42.285)" fill="#6d89d0"/>
    <path id="Fill_70" data-name="Fill 70" d="M1.306,0h-.9a.408.408,0,0,0,0,.816h.9a.408.408,0,0,0,0-.816" transform="translate(29.535 43.77)" fill="#6d89d0"/>
    <path id="Fill_71" data-name="Fill 71" d="M4.352,0H.408a.408.408,0,0,0,0,.816H4.352a.408.408,0,1,0,0-.816" transform="translate(35.391 48.032)" fill="#a6c7f9"/>
    <path id="Fill_72" data-name="Fill 72" d="M1.306,0h-.9a.408.408,0,0,0,0,.816h.9a.408.408,0,0,0,0-.816" transform="translate(35.391 49.517)" fill="#a6c7f9"/>
    <path id="Fill_73" data-name="Fill 73" d="M0,25.275H43.9V0H0Z" transform="translate(18.617 63.478)" fill="#aed3ff"/>
    <path id="Fill_74" data-name="Fill 74" d="M0,25.275H43.9V0H0Z" transform="translate(20.044 63.478)" fill="#739af0"/>
    <path id="Fill_75" data-name="Fill 75" d="M0,7.938a7.938,7.938,0,1,1,7.938,7.938A7.938,7.938,0,0,1,0,7.938" transform="translate(24.112 67.398)" fill="#f3f9ff"/>
    <path id="Fill_76" data-name="Fill 76" d="M.866,1.733h13.15a.867.867,0,0,0,0-1.733H.866a.867.867,0,0,0,0,1.733" transform="translate(44.993 70.901)" fill="#f3f9ff"/>
    <path id="Fill_77" data-name="Fill 77" d="M14.016,0H.866a.866.866,0,1,0,0,1.733h13.15a.866.866,0,1,0,0-1.733" transform="translate(44.993 74.469)" fill="#f3f9ff"/>
    <path id="Fill_78" data-name="Fill 78" d="M14.016,0H.866a.866.866,0,0,0,0,1.733h13.15a.866.866,0,0,0,0-1.733" transform="translate(44.993 78.037)" fill="#f3f9ff"/>
    <path id="Fill_79" data-name="Fill 79" d="M7.268.092,0,0C0,.031,0,.062,0,.092A7.268,7.268,0,0,0,7.268,7.36a7.231,7.231,0,0,0,3.9-1.134Z" transform="translate(24.783 75.372)" fill="#3a4ace"/>
    <path id="Fill_80" data-name="Fill 80" d="M4.352,0H.408A.409.409,0,0,0,0,.408H0A.409.409,0,0,0,.408.816H4.352A.409.409,0,0,0,4.76.408h0A.409.409,0,0,0,4.352,0" transform="translate(27.965 77.753)" fill="#a6c7f9"/>
    <path id="Fill_81" data-name="Fill 81" d="M1.306,0h-.9a.408.408,0,0,0,0,.816h.9a.408.408,0,0,0,0-.816" transform="translate(27.965 79.238)" fill="#a6c7f9"/>
    <path id="Fill_82" data-name="Fill 82" d="M0,22.9H43.9V0H0Z" transform="translate(18.617 7.384)" fill="#aed3ff"/>
    <path id="Fill_83" data-name="Fill 83" d="M0,22.9H43.9V0H0Z" transform="translate(20.044 7.384)" fill="#739af0"/>
    <path id="Fill_84" data-name="Fill 84" d="M0,7.938a7.938,7.938,0,1,1,7.938,7.938A7.938,7.938,0,0,1,0,7.938" transform="translate(24.112 11.235)" fill="#f3f9ff"/>
    <path id="Fill_85" data-name="Fill 85" d="M7.268,0A7.268,7.268,0,0,0,3.78,13.644c1.164-2.156,3.488-6.377,3.488-6.377l3.441,6.4A7.268,7.268,0,0,0,7.268,0" transform="translate(24.783 11.905)" fill="#3a4ace"/>
    <path id="Fill_86" data-name="Fill 86" d="M14.016,0H.866A.869.869,0,0,0,0,.866H0a.869.869,0,0,0,.866.866h13.15a.869.869,0,0,0,.866-.866h0A.869.869,0,0,0,14.016,0" transform="translate(44.993 14.738)" fill="#f3f9ff"/>
    <path id="Fill_87" data-name="Fill 87" d="M14.016,0H.866a.866.866,0,0,0,0,1.733h13.15a.866.866,0,1,0,0-1.733" transform="translate(44.993 18.306)" fill="#f3f9ff"/>
    <path id="Fill_88" data-name="Fill 88" d="M14.016,0H.866a.866.866,0,0,0,0,1.733h13.15a.866.866,0,0,0,0-1.733" transform="translate(44.993 21.874)" fill="#f3f9ff"/>
    <path id="Fill_89" data-name="Fill 89" d="M4.352,0H.408a.408.408,0,0,0,0,.816H4.352a.408.408,0,1,0,0-.816" transform="translate(27.966 15.701)" fill="#6d89d0"/>
    <path id="Fill_90" data-name="Fill 90" d="M1.306,0h-.9a.408.408,0,0,0,0,.816h.9a.408.408,0,0,0,0-.816" transform="translate(27.966 17.186)" fill="#6d89d0"/>
    <path id="Fill_91" data-name="Fill 91" d="M0,0S5.121,5.286,5.367,7.28,2.93,12.391,2.93,12.391Z" transform="translate(74.127 46.939)" fill="#f2564b"/>
    <path id="Fill_92" data-name="Fill 92" d="M6.9.9s-.174,2.81-.718,2.851c-.072.005-2.758.005-2.758.005L0,3.74a1.112,1.112,0,0,1,1.025-1A4.647,4.647,0,0,0,4.311.536C4.949-.857,6.9.9,6.9.9" transform="translate(65.034 100.875)" fill="#163560"/>
    <path id="Fill_93" data-name="Fill 93" d="M6.914.9S6.74,3.714,6.2,3.755c-.072.005-2.758.005-2.758.005L0,3.748A1.134,1.134,0,0,1,1.035,2.74,4.647,4.647,0,0,0,4.321.536C4.96-.857,6.914.9,6.914.9" transform="translate(72.659 100.875)" fill="#163560"/>
    <path id="Fill_94" data-name="Fill 94" d="M0,4.3A113.16,113.16,0,0,0,4.241,20.21C7.586,30.389,8.041,34.8,8.041,34.8a14.724,14.724,0,0,0,1.86.131,11.782,11.782,0,0,0,1.728-.232s.031-11.124-1.511-16.243S9.786,0,9.786,0Z" transform="translate(68.141 67.345)" fill="#163560"/>
    <path id="Fill_95" data-name="Fill 95" d="M0,0A139.169,139.169,0,0,0,1.371,19.25c1.5,10.609.988,15.113.988,15.113s1.231.22,1.663.235c.463.015,1.917-.116,1.917-.116S8.08,23.869,7.466,18.559,10.4.337,10.4.337Z" transform="translate(66.393 67.659)" fill="#1c468a"/>
    <path id="Fill_96" data-name="Fill 96" d="M4.13,4.272,2.441,5.523,0,5.009c.034-.223.195-1.145.342-1.981.009-.049.018-.1.026-.147C.493,2.171.6,1.56.6,1.56L2.882.424,3.732,0c0,.015-.066.789-.075.9a7.3,7.3,0,0,0,.473,3.37" transform="translate(69.197 43.166)" fill="#fc9490"/>
    <path id="Fill_97" data-name="Fill 97" d="M1.1.879A23.143,23.143,0,0,1,4.778.01c.355.117.565.8.565.8L0,2.022A2.654,2.654,0,0,1,1.1.879" transform="translate(68.265 45.928)" fill="#f2564b"/>
    <path id="Fill_98" data-name="Fill 98" d="M12.385,22.013c-.554,2.526-9.769,2.826-12.145.533-.27-.261-.283-1.477-.182-3.117.2-3.2.839-8.022.864-10.483a19.5,19.5,0,0,1,.393-3.509,28.5,28.5,0,0,1,1.169-4.2S6.986-.219,7.828.028c4.058,1.192,5.11,19.458,4.557,21.984" transform="translate(65.78 46.713)" fill="#fb7369"/>
    <path id="Fill_99" data-name="Fill 99" d="M0,14.47c.2-3.2.839-8.022.864-10.483A19.489,19.489,0,0,1,1.257.478L3.965,0S6.613,10.813,0,14.47" transform="translate(65.838 51.671)" fill="#f2564b"/>
    <path id="Fill_100" data-name="Fill 100" d="M.771.421a.637.637,0,0,1-.2.737,1.236,1.236,0,0,0-.55,1.127c.089.351.939.923,1.234.831s.895-.554.83-.739S2.485.753,1.766.2a.58.58,0,0,0-1,.221" transform="translate(66.534 61.256)" fill="#fc9490"/>
    <path id="Fill_101" data-name="Fill 101" d="M7.911,0A8.2,8.2,0,0,0,3.166,3.595C1.062,6.7-.323,9,.065,10.119s3.921,4.994,4.53,4.994a1.633,1.633,0,0,0,1.647-1.44s-2.487-3.728-2-4.287C4.454,9.148,7.474,6.7,7.905,7.8c.713,1.832.005-7.8.005-7.8" transform="translate(62.422 47.301)" fill="#fb7369"/>
    <path id="Fill_102" data-name="Fill 102" d="M3.144.514C2.643,1.472.778,2.3,0,2.605c.009-.049.018-.1.026-.147C.152,1.747.26,1.137.26,1.137L2.54,0c.5-.008.811.12.6.514" transform="translate(69.539 43.589)" fill="#fca56b"/>
    <path id="Fill_103" data-name="Fill 103" d="M.422,5.554S3.8,6.607,4.42,4.5,5.9,1.1,3.77.336.983.256.6.91-.44,5.226.422,5.554" transform="translate(68.643 39.224)" fill="#fc9490"/>
    <path id="Fill_104" data-name="Fill 104" d="M.317,1.86s.215,2.457.723,2.351.969-.186.895.555-.779,1.6.787,1.727S6.54,2.585,6.11,1.82C4.868-.386-1.477-.832.317,1.86" transform="translate(69.062 38.071)" fill="#163560"/>
    <path id="Fill_105" data-name="Fill 105" d="M0,0,1.027,4.327l1.539-.009L2.623,0Z" transform="translate(8.622 97.032)" fill="#fc9490"/>
    <path id="Fill_106" data-name="Fill 106" d="M0,.57,2.923,4.712,4.063,3.249,2.3,0Z" transform="translate(21.566 96.646)" fill="#fc9490"/>
    <path id="Fill_107" data-name="Fill 107" d="M13.966.482A2.98,2.98,0,0,0,12.353.174a.754.754,0,0,1,.34-.161A2.5,2.5,0,0,0,11.8.245C7.96-1.235,7.356,4.42,7.437,5.734S6.146,7.477,4.148,8.512C.335,10.488,0,13.133,0,13.133c.03.017.061.037.094.06.189-.32.579-.922.907-1.013a13.6,13.6,0,0,0-.528,1.287c1.125.856,3.229,2.752,4.7,4.1a2.155,2.155,0,0,1,.1-.833l.181,1.091c.785.721,1.326,1.229,1.326,1.229-.1-1.062,4.8-6.665,7.358-8.343a7.388,7.388,0,0,0,.86-2.662,6.987,6.987,0,0,1-.523,2.408c2.164-1.992.9-9.171-.5-9.971" transform="translate(0 39.689)" fill="#163560"/>
    <path id="Fill_108" data-name="Fill 108" d="M3.619,3.784a3.541,3.541,0,0,1-2.172.4A2.819,2.819,0,0,1,0,2.794C.374,2.72.482,2.206.474,0L.642.033,3.482.6s-.065.894-.066,1.736c0,.707.041,1.377.2,1.453" transform="translate(10.363 46.695)" fill="#fc9490"/>
    <path id="Fill_109" data-name="Fill 109" d="M0,.686A2.27,2.27,0,0,1,3.16.61,12.311,12.311,0,0,0,0,.686" transform="translate(10.77 40.411)" fill="#e37970"/>
    <path id="Fill_110" data-name="Fill 110" d="M2.84.562s-.065.894-.067,1.736A3.369,3.369,0,0,1,0,0Z" transform="translate(11.006 46.728)" fill="#ff8585"/>
    <path id="Fill_111" data-name="Fill 111" d="M1.057,5.835A8.35,8.35,0,0,1,.024,3.394C-.118,2.591.291-.387,3.283.042A4.065,4.065,0,0,1,4.969.679c.65.439,1.587,1.386.539,3.984l-.272.878Z" transform="translate(9.655 40.584)" fill="#163560"/>
    <path id="Fill_112" data-name="Fill 112" d="M16.12,32.573l-1.505.046-1.629.05A32.164,32.164,0,0,1,7.11,21.761q-.074-.234-.156-.474C5.8,17.918,3.4,13.689,2.141,9.861c-.2-.61-.381-1.184-.543-1.727-.052-.174-.1-.345-.15-.513A40.6,40.6,0,0,1,0,0L9.115.073a169.9,169.9,0,0,0,7.005,32.5" transform="translate(9.045 66.187)" fill="#fb7369"/>
    <path id="Fill_113" data-name="Fill 113" d="M11.745,11.816a20.448,20.448,0,0,0,.636,6.2,12.247,12.247,0,0,1-8.541.523C3.786,18.52,0,17.656,0,17.656c.078-.175.768-3.1.844-3.26.979-2.1,1.723-3.025,1.839-3.672A13.751,13.751,0,0,0,2.8,7.091,29.158,29.158,0,0,0,1.671,1.384,29.921,29.921,0,0,0,5.466.112a2.846,2.846,0,0,0,2,.74C8.387.831,8.676.44,8.642,0c.985.548,1.767,1.069,1.767,1.069.837,1.454,2.534,2.865,2.657,5.095.03.548-1.32,5.531-1.321,5.652" transform="translate(5.138 49.207)" fill="#e7f1fd"/>
    <path id="Fill_114" data-name="Fill 114" d="M3.063,7.538C2.664,8.1,1.9,11.529,0,11.96.979,9.517,1.723,8.446,1.839,7.7a18.523,18.523,0,0,0,.113-4.221c.636-1.115,1.111-1.879,1.111-1.879.05-.18,1.011-3.152,1.319-.5A12.274,12.274,0,0,1,3.063,7.538" transform="translate(5.982 53.969)" fill="#f2564b"/>
    <path id="Fill_115" data-name="Fill 115" d="M3.8,6.344S.045,6.407.042,4.064-.447.153,1.953.014,4.821.769,5.012,1.55,4.783,6.268,3.8,6.344" transform="translate(10.572 41.743)" fill="#fc9490"/>
    <path id="Fill_116" data-name="Fill 116" d="M6.109.767C5.529.064,5.09.217,4.844.428,4.031-.786,1.463.97,1.463.97A4.474,4.474,0,0,1,0,3.613a3.111,3.111,0,0,0,2.265.017C3.509,3.31,4.411,1.54,4.739.8a2.983,2.983,0,0,1,.837,1.108c.187.6.272,1.824.63,1.782,0,0,.776-1.868-.1-2.924" transform="translate(9.363 41.225)" fill="#163560"/>
    <path id="Fill_117" data-name="Fill 117" d="M.22,0a4.168,4.168,0,0,1-.2,1.774S-.228,2.922.9,2.943s1.407-.085,1.28-.789S1.81.233,1.81.233Z" transform="translate(9.378 101.117)" fill="#fc9490"/>
    <path id="Fill_118" data-name="Fill 118" d="M2.387,1.762l0,0H.045l0,0A6.029,6.029,0,0,1,.123.031C1.4,1.254,2.2,0,2.2,0a6.532,6.532,0,0,1,.184,1.762" transform="translate(9.279 102.861)" fill="#c45446"/>
    <path id="Fill_119" data-name="Fill 119" d="M4.273,3.543A30.187,30.187,0,0,1,1.549,0L0,.794,3.464,4.047l.81-.107Z" transform="translate(24.079 99.896)" fill="#fc9490"/>
    <path id="Fill_120" data-name="Fill 120" d="M5.96,3.937H3.069a4.715,4.715,0,0,1-.795-1.3A1.4,1.4,0,0,0,1.33,2V3.937h-.6L.178,1.872A1.962,1.962,0,0,1,.346,0c.3,0,1.178.217,2.717,1.986a2,2,0,0,0,1.619.771l.023.012A2.146,2.146,0,0,1,5.96,3.937" transform="translate(23.67 100.682)" fill="#c45446"/>
    <path id="Fill_121" data-name="Fill 121" d="M15.713,2.768s-2.468,1.38-3.35,1.778c-.314.141-.882.406-1.462.677L9.89,5.7a1.272,1.272,0,0,1-1.507-.325C7.046,3.812,3.587.429.015.005L0,0,0,0H0L.02.042c.2.5,2.159,5.392,2.22,6.423C2.3,7.553,2.5,24.251,2.5,24.251s-.128.768,1.343.448a4.943,4.943,0,0,0,1.855-.64S4.287,13.759,4.67,10.176a7.968,7.968,0,0,0-.15-2.309,18.348,18.348,0,0,0,4.74,1.9A21.57,21.57,0,0,0,11.7,8.432a15.342,15.342,0,0,0,2.06-1.658A30.27,30.27,0,0,0,16.105,4.08Z" transform="translate(13.777 49.207)" fill="#e37970"/>
    <path id="Fill_122" data-name="Fill 122" d="M13.167,26.016l-1.629.05A32.164,32.164,0,0,1,5.663,15.158q-.074-.234-.156-.474C4.351,11.315,1.956,7.086.694,3.258.493,2.649.312,2.075.15,1.532.1,1.358.048,1.187,0,1.019L1.342,0S5.372,6.526,6.62,12.667C7.7,18,12.044,24.42,13.167,26.016" transform="translate(10.492 72.79)" fill="#f2564b"/>
    <path id="Fill_123" data-name="Fill 123" d="M6.981,14.97c.023,2.986-.128,9.852-.517,12.695H5.02c-.8,0-1.2-.012-1.2-.012-.976-4.942-1.67-9.032-2.175-12.555C1.235,12.207.866,9.728.583,7.593S.1,3.647.028,2.128C.018,1.889.009,1.656,0,1.43S0,.982,0,.768L7.876,0c-.1,5.233-.908,13.235-.9,14.97" transform="translate(4.994 71.059)" fill="#fb7369"/>
    <path id="Fill_124" data-name="Fill 124" d="M4.992,25.537c-.8,0-1.2-.011-1.2-.011-.976-4.942-1.67-9.032-2.175-12.556C1.207,10.079.838,7.6.555,5.466S.071,1.519,0,0L2.89,1.7s-1.844.651-1.141,5.577S4.013,24.84,4.992,25.537" transform="translate(5.023 73.186)" fill="#f2564b"/>
    <path id="Fill_125" data-name="Fill 125" d="M7.122,23.819a2.345,2.345,0,0,1-2.474,1.748A23.133,23.133,0,0,1,0,24.16s.82-2.592,1.84-6C3.075,14.042,4.6,8.728,5.324,5.376a20.725,20.725,0,0,0,.391-2.285L7.34,0S9.682,5.33,9.81,6.673,7.122,23.819,7.122,23.819" transform="translate(3.264 49.319)" fill="#e37970"/>
    <path id="Fill_126" data-name="Fill 126" d="M6.9.083A1.425,1.425,0,0,0,5.507,1.358a2.813,2.813,0,0,1-.4.96c-.92.049-3.111.169-4.953.285L0,5.018a27.566,27.566,0,0,0,5.51-1.3,1.44,1.44,0,0,0,.627-.341A6.893,6.893,0,0,0,8.217.209c0-.26-.395-.247-1.318-.126" transform="translate(10.343 57.408)" fill="#fc9490"/>
    <path id="Fill_127" data-name="Fill 127" d="M5.2,4.112c-.086,2.175-.6,6.4-5.161,8.658L0,12.788C1.235,8.666,2.763,3.352,3.484,0,4.322,1.253,5.244,2.915,5.2,4.112" transform="translate(5.104 54.695)" fill="#c45446"/>
    <path id="Fill_128" data-name="Fill 128" d="M5.668,0S1.764.277.826,2.367-.411,11.409.783,13.456a10.874,10.874,0,0,0,4.552-.076l.107-.02s.928-2.271.1-2.719c0,0-2.452.128-2.2-.682S5.668,0,5.668,0" transform="translate(4.936 49.319)" fill="#e37970"/>
    <path id="Fill_129" data-name="Fill 129" d="M2.63.026A2.347,2.347,0,0,0,0,1.667L.392,2.979a1.663,1.663,0,0,0,1.736-.826c.522-.747.666-.46,1-1.016C3.576.382,2.871.1,2.63.026" transform="translate(29.506 50.309)" fill="#fc9490"/>
    <path id="Fill_130" data-name="Fill 130" d="M1.462,1.778C1.148,1.919.58,2.184,0,2.455a7.462,7.462,0,0,1,.8,3.21A13.4,13.4,0,0,0,2.924,3.956,28.132,28.132,0,0,0,5.2,1.312L4.812,0S2.343,1.38,1.462,1.778" transform="translate(24.679 51.975)" fill="#fc9490"/>
    <path id="Fill_131" data-name="Fill 131" d="M5.433,0A5.717,5.717,0,0,1,2.99.1,3.808,3.808,0,0,0,.144.627c-.263.346-.167.484.3.6s2.133.829,3.226.418a8.712,8.712,0,0,1,2.519-.426Z" transform="translate(132.115 68.97)" fill="#fc9490"/>
    <path id="Fill_132" data-name="Fill 132" d="M14.025,1.665S12.347,13.588,9.569,14.656A61.245,61.245,0,0,1,.349,16.5s-.439-.356-.332-1.806c0,0,6.347-2.33,7.248-3.6,1.342-1.886-.833-7.7.851-9.476s4.52-2.532,5.909.045" transform="translate(136.43 54.333)" fill="#1c468a"/>
    <path id="Fill_133" data-name="Fill 133" d="M8.319,18.971v-2.6h4.093a.2.2,0,0,0,.2-.2v-.417a.2.2,0,0,0-.2-.2H8.319V.755A.757.757,0,0,0,7.564,0h-.81A.757.757,0,0,0,6,.755v14.8H1.907a.2.2,0,0,0-.2.2v.417a.2.2,0,0,0,.2.2H6v2.6c-2.961.224-5.334,1.29-6,2.667H14.319c-.666-1.377-3.038-2.444-6-2.667" transform="translate(141.921 82.968)" fill="#3a4ace"/>
    <path id="Fill_134" data-name="Fill 134" d="M16.876,7a20.893,20.893,0,0,1-1.639,2.345c-1.8,2.276-3.766,4.153-4.108,5.927a8.026,8.026,0,0,1-.317,1.135c-.143.406-.319.834-.523,1.275A39.273,39.273,0,0,1,7.238,22.9c-1.975,2.926-3.832,5.368-3.832,5.368L0,28.124c.136-.341,1.622-4.382,3.609-9.32L6.1,12.611l.33-.819c.253-.629.5-1.249.745-1.852l3.352-8.329S17.986-1.213,18.76.617C19.4,2.126,18.879,3.605,16.876,7" transform="translate(133.013 74.116)" fill="#163560"/>
    <path id="Fill_135" data-name="Fill 135" d="M6.9.9s-.174,2.81-.718,2.851c-.072.005-2.758.005-2.758.005L0,3.74a1.113,1.113,0,0,1,1.025-1A4.647,4.647,0,0,0,4.311.536C4.949-.857,6.9.9,6.9.9" transform="translate(129.409 100.862)" fill="#163560"/>
    <path id="Fill_136" data-name="Fill 136" d="M1.783,0S4.152,1.522,3.922,2.016c-.031.066-1.34,2.41-1.34,2.41L.894,7.41A1.112,1.112,0,0,1,.52,6.028,4.647,4.647,0,0,0,.2,2.085C-.707.848,1.783,0,1.783,0" transform="translate(142.416 93.738)" fill="#163560"/>
    <path id="Fill_137" data-name="Fill 137" d="M10.463,0S1.1,5.831.058,9.749,12.509,22.026,12.509,22.026a6.874,6.874,0,0,0,1.741-2.264s-6.1-7.309-7.424-8.947C6.014,9.809,18.844,7.332,20.411,4.894A5.964,5.964,0,0,0,21.417.4Z" transform="translate(130.531 74.387)" fill="#1c468a"/>
    <path id="Fill_138" data-name="Fill 138" d="M19.854,0H.7A.7.7,0,0,0,0,.7V4.528a.7.7,0,0,0,.7.7H19.854a.7.7,0,0,0,.7-.7V.7a.7.7,0,0,0-.7-.7" transform="translate(138.805 81.874)" fill="#fb7369"/>
    <path id="Fill_139" data-name="Fill 139" d="M1.426,4.8A5.282,5.282,0,0,0,0,6.1c2.242.58,5.96-1.5,5.96-1.5A5.5,5.5,0,0,1,3.982,1.5q-.041-.161-.073-.331A6.739,6.739,0,0,1,3.787,0L2.757.923,1.044,2.457A14.708,14.708,0,0,0,1.3,4.189q.056.287.129.615" transform="translate(143.896 49.149)" fill="#fc9490"/>
    <path id="Fill_140" data-name="Fill 140" d="M11.532,11.681c-.321,4.32.219,10.888-.145,12.026-.314.982-4.015.4-5.445.073-.529-.121-1.171-.295-1.833-.5-1.847-.572-3.86-1.389-4.076-2a.494.494,0,0,1-.02-.07.555.555,0,0,1,0-.254A4.32,4.32,0,0,0,.4,19.552c.037-.854.031-1.86.063-2.942,0-.122,0-.255.017-.376V16.19l0-.069c.031-1.206.094-2.475.167-3.733.047-.79.1-1.573.162-2.322a31.052,31.052,0,0,1,.666-4.744A7.619,7.619,0,0,1,3.923,1.543L4.605.958A3.942,3.942,0,0,0,7.078.629c.88-.418,1.184-.718,1.338-.6,2.033,1.569,3.5,6.375,3.116,11.657" transform="translate(140.688 52.851)" fill="#3a4ace"/>
    <path id="Fill_141" data-name="Fill 141" d="M4.1,10.324C2.249,9.752.236,8.935.02,8.329A.517.517,0,0,1,0,8.259c0-.085,0-.169,0-.254A4.324,4.324,0,0,0,.386,6.6c.037-.854.031-1.861.063-2.942,0-.122,0-.255.017-.376V3.234c0-.023,0-.046,0-.069L7.445,0A16.272,16.272,0,0,1,4.1,10.324" transform="translate(140.711 65.816)" fill="#1c468a"/>
    <path id="Fill_142" data-name="Fill 142" d="M0,1.535A14.708,14.708,0,0,0,.253,3.267,4.543,4.543,0,0,0,2.938.575c.072-.181.1-.293.1-.293L2.865.244,1.713,0Z" transform="translate(144.94 50.072)" fill="#ff8585"/>
    <path id="Fill_143" data-name="Fill 143" d="M.868,6.11s3.675.414,3.9-1.878S5.613.449,3.276.087.4.556.138,1.3-.082,5.943.868,6.11" transform="translate(143.394 45.48)" fill="#fc9490"/>
    <path id="Fill_144" data-name="Fill 144" d="M4.923,5.86A3.776,3.776,0,0,0,1.345,2.5C-.947,2.286.331.315.575,0c0,0,1.755.241,3.555.538,3.777.624,1.164,4.849.793,5.322" transform="translate(143.222 44.01)" fill="#3a4ace"/>
    <path id="Fill_145" data-name="Fill 145" d="M3.058,8.423l-.322.1L0,.1.322,0Z" transform="translate(127.299 63.535)" fill="#4a75cb"/>
    <path id="Fill_146" data-name="Fill 146" d="M9.291,0,0,.2.012.754,9.3.556Z" transform="translate(130.023 71.308)" fill="#4a75cb"/>
    <path id="Fill_147" data-name="Fill 147" d="M5.3,0A5.718,5.718,0,0,1,2.881.366a3.808,3.808,0,0,0-2.771.841c-.223.373-.112.5.368.566s2.211.589,3.253.06a8.712,8.712,0,0,1,2.457-.7Z" transform="translate(133.018 70.803)" fill="#fc9490"/>
    <path id="Fill_148" data-name="Fill 148" d="M12.486,1.388s-.353,12.036-3,13.4A61.238,61.238,0,0,1,.529,17.639S.053,17.333,0,15.881c0,0,6.051-3.016,6.808-4.374,1.126-2.022-1.677-7.565-.2-9.512s4.213-3.015,5.878-.606" transform="translate(137.228 55.098)" fill="#3a4ace"/>
    <path id="Fill_149" data-name="Fill 149" d="M188.582.368H.184A.184.184,0,1,1,.184,0h188.4a.184.184,0,1,1,0,.368" transform="translate(1.796 104.622)" fill="#202f4e"/>
  </g>
</svg>
