<svg xmlns="http://www.w3.org/2000/svg" width="23.061" height="23.103" viewBox="0 0 23.061 23.103">
  <path id="Icon_feather-phone-call" data-name="Icon feather-phone-call" d="M16.473,5.614a5.142,5.142,0,0,1,4.062,4.062M16.473,1.5a9.256,9.256,0,0,1,8.176,8.166m-1.028,8.207v3.085a2.057,2.057,0,0,1-2.242,2.057A20.352,20.352,0,0,1,12.5,19.857a20.054,20.054,0,0,1-6.17-6.17A20.352,20.352,0,0,1,3.176,4.77,2.057,2.057,0,0,1,5.223,2.528H8.308A2.057,2.057,0,0,1,10.365,4.3a13.2,13.2,0,0,0,.72,2.89,2.057,2.057,0,0,1-.463,2.17L9.316,10.663a16.454,16.454,0,0,0,6.17,6.17l1.306-1.306a2.057,2.057,0,0,1,2.17-.463,13.2,13.2,0,0,0,2.89.72A2.057,2.057,0,0,1,23.621,17.872Z" transform="translate(-2.417 -0.672)" fill="none" stroke="#d1d5d6" stroke-linecap="round" stroke-linejoin="round" stroke-width="1.5"/>
</svg>
