<svg xmlns="http://www.w3.org/2000/svg" width="25.038" height="25.039" viewBox="0 0 25.038 25.039">
  <g id="noun_User_4186462" transform="translate(-82 -26.999)">
    <g id="Group_15925" data-name="Group 15925" transform="translate(82 26.999)">
      <path id="Path_55" data-name="Path 55" d="M13.519,12.684a5.008,5.008,0,1,1,5.008-5.008A5.008,5.008,0,0,1,13.519,12.684Zm0,1.669h0A10.85,10.85,0,0,1,24.337,24.369H2.7A10.85,10.85,0,0,1,13.519,14.354ZM9.826,13.239A12.523,12.523,0,0,0,1,25.2a.835.835,0,0,0,.835.835H25.2a.835.835,0,0,0,.835-.835,12.523,12.523,0,0,0-8.826-11.965,6.677,6.677,0,1,0-7.386,0Z" transform="translate(-1 -0.999)" fill="#d1d5d6"/>
    </g>
  </g>
</svg>
