<svg id="wordwide" xmlns="http://www.w3.org/2000/svg" xmlns:xlink="http://www.w3.org/1999/xlink" width="165.361" height="105" viewBox="0 0 165.361 105">
  <defs>
    <clipPath id="clip-path">
      <path id="Clip_2" data-name="Clip 2" d="M0,0H165.361V104.811H0Z" transform="translate(0)" fill="none"/>
    </clipPath>
    <clipPath id="clip-path-2">
      <path id="Clip_15" data-name="Clip 15" d="M0,105H165.361V0H0Z" fill="none"/>
    </clipPath>
  </defs>
  <g id="Group_3" data-name="Group 3" transform="translate(0)">
    <path id="Clip_2-2" data-name="Clip 2" d="M0,0H165.361V104.811H0Z" transform="translate(0)" fill="none"/>
    <g id="Group_3-2" data-name="Group 3" clip-path="url(#clip-path)">
      <path id="Fill_1" data-name="Fill 1" d="M11.856,104.811S-8.742,85.473,4.362,62.72s30.7-11.311,29.852-37.793S74.69-3.831,87.845,3.848s13.076,16.927,40.233,13.867,32.345,22.448,25.28,35.447c-10.024,18.445,27.821,15.4,3.974,51.649Z" transform="translate(0 0)" fill="#ebf3fa"/>
    </g>
  </g>
  <g id="Group_22" data-name="Group 22">
    <path id="Fill_4" data-name="Fill 4" d="M3.958.442.032,47.122s-.411,2.83,1.693,2.835c3.461.008,17.225,0,17.225,0s-2.6-.589-2.573-1.914C16.415,46.48,20.966,0,20.966,0Z" transform="translate(86.316 54.575)" fill="#759be0"/>
    <path id="Fill_6" data-name="Fill 6" d="M18.936,49.957c-.681,0-13.827.043-17.2,0C.27,49.938.013,48.651,0,47.817a4.176,4.176,0,0,1,.045-.695l.1-1.213.26-3.092.23-2.732.3-3.511.249-2.963L3.971.441,20.979,0s-1.917,19.452-3.273,33.611c-.151,1.578-.3,3.09-.429,4.5q-.065.676-.125,1.321c-.126,1.34-.241,2.57-.341,3.656-.053.572-.1,1.1-.145,1.592-.173,1.91-.274,3.129-.276,3.361a1.966,1.966,0,0,0,.033.378c.279,1.488,2.257,1.536,2.512,1.536" transform="translate(87.447 53.728)" fill="#aec3ff"/>
    <path id="Fill_8" data-name="Fill 8" d="M0,0,9.563,38.412l1.309,5.261,4.454,17.891H98.073L81.656,0Z" transform="translate(48.969 29.615)" fill="#aec3ff"/>
    <path id="Fill_10" data-name="Fill 10" d="M1.325,0,0,.442,14.89,62.9l1.762-1.336Z" transform="translate(47.643 29.615)" fill="#759be0"/>
    <path id="Fill_12" data-name="Fill 12" d="M0,1.336H82.237L84.508,0H1.762Z" transform="translate(62.533 91.179)" fill="#759be0"/>
    <path id="Clip_15-2" data-name="Clip 15" d="M0,105H165.361V0H0Z" fill="none"/>
    <g id="Group_22-2" data-name="Group 22" clip-path="url(#clip-path-2)">
      <path id="Fill_14" data-name="Fill 14" d="M0,.846H17.806V0H0Z" transform="translate(91.412 103.703)" fill="#aec3ff"/>
      <path id="Fill_16" data-name="Fill 16" d="M16.837,0l-.092.647L0,4.03.23,1.3.339,0Z" transform="translate(87.854 92.515)" fill="#759be0"/>
      <path id="Fill_17" data-name="Fill 17" d="M18.936,5.275c-.681,0-13.827.043-17.2,0C.27,5.257.012,3.969,0,3.136L16.666,0c-.173,1.91-.274,3.129-.276,3.361a1.966,1.966,0,0,0,.033.378c.279,1.488,2.257,1.536,2.512,1.536" transform="translate(87.448 98.409)" fill="#94b0ed"/>
      <path id="Fill_18" data-name="Fill 18" d="M40.8,5.428,4.454,17.891,0,0Z" transform="translate(59.841 73.288)" fill="#94b0ed"/>
      <path id="Fill_19" data-name="Fill 19" d="M0,0H81.656L94.8,49.478H12.322Z" transform="translate(48.969 29.615)" fill="#d2e0ff"/>
      <path id="Fill_20" data-name="Fill 20" d="M94.85,49.549h-.684l-5.6-21.358L81.373.734H1.016L13.188,49.549l-.869.009L0,.071,81.939,0l.072.273,7.193,27.6Z" transform="translate(48.969 29.544)" fill="#94b0ed"/>
      <path id="Fill_21" data-name="Fill 21" d="M6.406,22.148l-.66.088L0,.313.635,0Z" transform="translate(137.538 57.421)" fill="#aec3ff"/>
    </g>
  </g>
  <path id="Fill_23" data-name="Fill 23" d="M3.9,8.793c-.136-.41,1.857.534,4.231-.261,2.046-.686.2-2.022.723-3.716C9.227,3.608,9.11.366,5.947.236a2.341,2.341,0,0,0-1.859-.1C1.589.97-3.607,9.384,3.9,8.793" transform="translate(24.885 50.911)" fill="#163560"/>
  <path id="Fill_25" data-name="Fill 25" d="M0,6.721A8.285,8.285,0,0,0,.846,8c.657.823,4.106-1.13,3.809-1.279S2.624,1.58,2.212.953.393,0,.393,0Z" transform="translate(32.254 60.098)" fill="#f78248"/>
  <path id="Fill_27" data-name="Fill 27" d="M.79.411S-.162,1.28.024,1.9,1.069,2.926,1.185,3.68s.58,1.166,1,1.166H4.175s.308-.531-.435-.691S2.717,3.109,2.763,2.286a14.51,14.51,0,0,0-.07-1.92L1.115,0Z" transform="translate(19.826 100.078)" fill="#1f447f"/>
  <path id="Fill_29" data-name="Fill 29" d="M.132,0S-.21,3.68.208,3.885l5.348-.011s0-.617-.859-.754S2.328,2.48,2.073,1.36.132,0,.132,0" transform="translate(28.54 100.858)" fill="#1c3154"/>
  <path id="Fill_31" data-name="Fill 31" d="M.035,4.53A21.3,21.3,0,0,0,.035,7,7.158,7.158,0,0,0,1.121,9.389c.322.743.685.864.685.864l2.808.688.987.242,3.113-.93s1.418-3.958.849-6.186A17.122,17.122,0,0,0,8.123.291,22.218,22.218,0,0,0,2.275.08Z" transform="translate(24.523 59.807)" fill="#f78248"/>
  <path id="Fill_33" data-name="Fill 33" d="M0,2.421c.053.894,1.225,2.059,1.353,2.355.322.743.685.864.685.864l2.808.688.507-1.453S1.25,3.8,1.91,0Z" transform="translate(24.291 64.42)" fill="#dd6c3a"/>
  <path id="Fill_35" data-name="Fill 35" d="M5.166,0A46.212,46.212,0,0,1,6.806,6.433c.1,1.634-2.947,23.211-3.07,23.964-.115.71-1,1.162-1,1.162a1.334,1.334,0,0,1-.984.076,2.433,2.433,0,0,1-1.056-.5S-.5,15.748.242,10.251A87.054,87.054,0,0,0,.994,0Z" transform="translate(27.873 70.66)" fill="#233862"/>
  <path id="Fill_37" data-name="Fill 37" d="M5.565,0S3.214,3.156,2.994,5.289s-.344,9.626-.811,11.705S0,23.075,0,29.561a1.3,1.3,0,0,0,.729.57,6.029,6.029,0,0,0,.641.177A1.008,1.008,0,0,0,2.5,29.773c1.16-2.336,4.856-9.871,5.046-11.435.134-1.107,1.3-8.432,3.847-12.73C12,4.576,11.015.472,11.015.472Z" transform="translate(20.941 70.517)" fill="#2a4e96"/>
  <path id="Fill_39" data-name="Fill 39" d="M7.112,0A3.232,3.232,0,0,1,5.263.514C3.795.544.155.14.155.14A3.007,3.007,0,0,0,0,1.069s4.445,1.121,7.02.164A1.628,1.628,0,0,0,7.112,0" transform="translate(26.173 69.919)" fill="#233862"/>
  <path id="Fill_41" data-name="Fill 41" d="M.671,1.517A.72.72,0,0,1,0,.759.72.72,0,0,1,.671,0a.719.719,0,0,1,.67.759A.719.719,0,0,1,.671,1.517Zm0-1.3A.5.5,0,0,0,.222.759.5.5,0,0,0,.671,1.3.5.5,0,0,0,1.118.759.5.5,0,0,0,.671.222Z" transform="translate(31.119 70.182)" fill="#fff"/>
  <path id="Fill_43" data-name="Fill 43" d="M0,7.725l6.68.063L9.968.062,3.287,0Z" transform="translate(28.578 65.353)" fill="#6980e2"/>
  <path id="Fill_45" data-name="Fill 45" d="M0,1.223l.49-.6A1.72,1.72,0,0,1,1.062.275c.241-.05.748-.343.8-.261s-.39.671-.39.671l-.022,0c.5.379,1.778.044,1.935.2.191.188-.262.593-.505.821A1.783,1.783,0,0,1,1.4,2.148C1,2.024.379,1.9.379,1.9Z" transform="translate(29.452 68.365)" fill="#ffb27d"/>
  <path id="Fill_47" data-name="Fill 47" d="M.785.31S.365-.167.1.062.168,1.417.422,1.3.931.45.785.31" transform="translate(37.258 66.465)" fill="#ffb27d"/>
  <path id="Fill_49" data-name="Fill 49" d="M5.673,0A4.788,4.788,0,0,0,2.388,2.7C1.305,4.671-.545,8.3.153,9.32c.307.45,3.244,2.049,8.911,1.135a1.714,1.714,0,0,0-.546-1.047S3.749,7.876,3.757,7.572C3.773,7,4.4,6.5,7.065,3.833,7.79,3.109,5.673,0,5.673,0" transform="translate(21.125 59.887)" fill="#f78248"/>
  <path id="Fill_51" data-name="Fill 51" d="M.023,2.924c-.066-.088.019-.369.124-.892A9.784,9.784,0,0,0,.4,0L.541.024l2.37.4s-.054.634-.056,1.231v.015c0,.519.14,1.3-.035,1.4a3.013,3.013,0,0,1-2.8-.148" transform="translate(28.247 57.064)" fill="#ffb27d"/>
  <path id="Fill_53" data-name="Fill 53" d="M2.37.4s-.047.894-.049,1.491C1,1.858.287.57,0,0Z" transform="translate(28.788 57.088)" fill="#e8945b"/>
  <path id="Fill_55" data-name="Fill 55" d="M2.823,5.48S-.284,5.038.021,3.107.131-.181,2.128.02s2.265,1,2.32,1.668S3.639,5.546,2.823,5.48" transform="translate(28.478 53.072)" fill="#ffb27d"/>
  <path id="Fill_57" data-name="Fill 57" d="M4.43.535S3.22,2.665,1.865,2.792A2.6,2.6,0,0,1,0,2.481,3.735,3.735,0,0,0,1.553.494S3.961-.645,4.43.535" transform="translate(27.595 52.734)" fill="#163560"/>
  <path id="Fill_59" data-name="Fill 59" d="M0,.288a1.946,1.946,0,0,1,.778.836A3.159,3.159,0,0,1,.914,2.963S1.8,1.525,1.219.54C.6-.5,0,.288,0,.288" transform="translate(31.785 53.131)" fill="#163560"/>
  <path id="Fill_61" data-name="Fill 61" d="M5,16.406a.36.36,0,0,1-.159-.037l-1.454-.72a.365.365,0,0,1-.18-.463l.647-1.653a.371.371,0,0,0-.092-.409,6.213,6.213,0,0,1-.668-.746c-.111-.144-.217-.294-.314-.445a.377.377,0,0,0-.316-.172l-.038,0-1.688.191-.043,0a.383.383,0,0,1-.373-.3L.014,10.118l-.006-.037A.373.373,0,0,1,.26,9.653l1.246-.394a.425.425,0,0,0,.059-.023.369.369,0,0,0,.2-.353,6.5,6.5,0,0,1,.331-2.558.414.414,0,0,0,.019-.1.382.382,0,0,0-.172-.331l-.921-.585a.38.38,0,0,1-.17-.355.416.416,0,0,1,.036-.126l.708-1.434a.383.383,0,0,1,.342-.211.378.378,0,0,1,.14.027l1.352.531a.369.369,0,0,0,.388-.076c.168-.154.323-.285.474-.4a6.536,6.536,0,0,1,.974-.618.377.377,0,0,0,.2-.379L5.3.8,5.3.724a.366.366,0,0,1,.293-.4L7.16.007A.389.389,0,0,1,7.234,0,.382.382,0,0,1,7.6.267l.438,1.388a.37.37,0,0,0,.35.261,6.519,6.519,0,0,1,1.986.357.376.376,0,0,0,.436-.155l.7-1.09A.381.381,0,0,1,12,.893l1.439.71a.368.368,0,0,1,.178.46l-.622,1.589a.378.378,0,0,0,.072.4c.116.128.232.267.346.414a6.7,6.7,0,0,1,.552.843.364.364,0,0,0,.32.193l.043,0,1.76-.2.039,0a.378.378,0,0,1,.369.3l.316,1.575a.377.377,0,0,1-.2.408l-.007,0a.2.2,0,0,1-.043.017l-1.54.488a.369.369,0,0,0-.261.317.2.2,0,0,0,0,.04v.017a.854.854,0,0,1,0,.1,6.523,6.523,0,0,1-.175,1.382.358.358,0,0,0,.162.394l1.15.735a.378.378,0,0,1,.136.49l-.158.32-.551,1.111a.371.371,0,0,1-.336.209.381.381,0,0,1-.137-.026l-1.331-.523a.355.355,0,0,0-.132-.025.369.369,0,0,0-.272.123,6.548,6.548,0,0,1-1.664,1.338l.034.307.141,1.261a.365.365,0,0,1-.2.37.307.307,0,0,1-.091.031l-1.58.319a.376.376,0,0,1-.429-.255l-.3-.949a.374.374,0,0,0-.353-.26H8.645c-.128.007-.258.011-.386.011a6.553,6.553,0,0,1-1.673-.216.382.382,0,0,0-.1-.013.356.356,0,0,0-.307.17L5.3,16.241A.36.36,0,0,1,5,16.406ZM8.249,4.912A3.508,3.508,0,0,0,5.81,5.9,4.028,4.028,0,0,0,5,7.009a2.234,2.234,0,0,0-.129.319,3.519,3.519,0,0,0-.127,1.615,3.57,3.57,0,0,0,3.505,2.986,3.612,3.612,0,0,0,3.188-1.982c.027-.051.053-.1.078-.154a3.415,3.415,0,0,0,.245-1.853,4.411,4.411,0,0,0-.229-.779A3.5,3.5,0,0,0,8.249,4.912Z" transform="translate(3.857 69.301)" fill="#d5dffc"/>
  <path id="Fill_63" data-name="Fill 63" d="M4.206,13.809a.3.3,0,0,1-.134-.031l-1.224-.607a.308.308,0,0,1-.151-.389l.545-1.391a.311.311,0,0,0-.077-.344,5.337,5.337,0,0,1-.562-.628c-.094-.122-.183-.248-.265-.375A.316.316,0,0,0,2.072,9.9l-.031,0-1.421.16-.036,0A.322.322,0,0,1,.27,9.808L.012,8.516.005,8.485a.315.315,0,0,1,.213-.36l1.049-.331a.361.361,0,0,0,.049-.021.305.305,0,0,0,.166-.3,5.471,5.471,0,0,1,.28-2.153.371.371,0,0,0,.015-.087.318.318,0,0,0-.145-.278L.859,4.467a.321.321,0,0,1-.143-.3.364.364,0,0,1,.031-.106l.6-1.206a.322.322,0,0,1,.287-.178.317.317,0,0,1,.118.023l1.138.446a.308.308,0,0,0,.327-.064c.137-.126.267-.236.4-.338a5.557,5.557,0,0,1,.82-.521A.317.317,0,0,0,4.6,1.9L4.465.671,4.459.609A.309.309,0,0,1,4.705.27L6.026.006A.327.327,0,0,1,6.089,0,.322.322,0,0,1,6.4.225l.369,1.168a.311.311,0,0,0,.3.22,5.475,5.475,0,0,1,1.671.3.315.315,0,0,0,.366-.13L9.685.866A.32.32,0,0,1,10.1.752l1.212.6a.309.309,0,0,1,.149.387l-.524,1.337A.319.319,0,0,0,11,3.407c.1.107.2.225.291.348a5.677,5.677,0,0,1,.464.71.3.3,0,0,0,.268.163l.038,0,1.481-.167.034,0a.313.313,0,0,1,.31.253l.266,1.326a.315.315,0,0,1-.171.343l-.007,0a.176.176,0,0,1-.035.014l-1.3.41a.311.311,0,0,0-.22.266v.009a.132.132,0,0,0,0,.024c0,.033,0,.065,0,.1a5.462,5.462,0,0,1-.149,1.163A.306.306,0,0,0,12.4,8.7l.969.619a.319.319,0,0,1,.113.412L13.355,10l-.464.936a.313.313,0,0,1-.284.176.323.323,0,0,1-.115-.021l-1.121-.44a.291.291,0,0,0-.111-.022.311.311,0,0,0-.229.1,5.622,5.622,0,0,1-.756.7,5.534,5.534,0,0,1-.644.426l.029.258.119,1.062a.3.3,0,0,1-.17.311.279.279,0,0,1-.077.026L8.2,13.783a.317.317,0,0,1-.361-.215l-.251-.8a.315.315,0,0,0-.3-.219H7.276c-.109.007-.22.01-.33.01a5.5,5.5,0,0,1-1.4-.182.32.32,0,0,0-.083-.011.3.3,0,0,0-.258.143l-.74,1.16A.3.3,0,0,1,4.206,13.809ZM6.943,4.134a2.953,2.953,0,0,0-2.054.832,3.4,3.4,0,0,0-.679.933,1.956,1.956,0,0,0-.109.268A2.963,2.963,0,0,0,4,7.528a3.005,3.005,0,0,0,2.95,2.513A3.041,3.041,0,0,0,9.63,8.372c.023-.042.044-.085.066-.13A2.869,2.869,0,0,0,9.9,6.683a3.7,3.7,0,0,0-.193-.657A2.949,2.949,0,0,0,6.943,4.134Z" transform="translate(42.206 10.912)" fill="#d5dffc"/>
  <path id="Fill_65" data-name="Fill 65" d="M86.581,3.025V48.732a2.946,2.946,0,0,1-2.86,3.025H2.86A2.946,2.946,0,0,1,0,48.732V3.025A2.946,2.946,0,0,1,2.86,0H83.721a2.946,2.946,0,0,1,2.86,3.025" transform="translate(43.255 33.67)" fill="#8c9df4"/>
  <path id="Fill_67" data-name="Fill 67" d="M86.581,2.86V4.954H0V2.86A2.86,2.86,0,0,1,2.86,0H83.721a2.86,2.86,0,0,1,2.86,2.86" transform="translate(43.255 33.67)" fill="#6980e2"/>
  <path id="Fill_69" data-name="Fill 69" d="M3.807,18.223c1.351,1.731-.266,4.394.666,6.374.178.379.445.715.593,1.106a14.752,14.752,0,0,1,.3,2.042c.152.673.763,1.366,1.44,1.186.586-.156.822-.86.805-1.457a5.578,5.578,0,0,1-.01-1.78,1.9,1.9,0,0,1,1.659-1.241,2.875,2.875,0,0,1,2.034.7c.621.511,1.3,1.278,2.06,1.007.729-.26.789-1.3.432-1.972a17.763,17.763,0,0,1-1.244-1.925,3.083,3.083,0,0,1,.514-2.725,15.812,15.812,0,0,1,1.975-2.115,1.522,1.522,0,0,0,.509-.826c.04-.326-.22-.7-.551-.659-.223.029-.378.223-.55.365a1.862,1.862,0,0,1-2.542-.524,3.98,3.98,0,0,1-.516-2.762c1.163.271,2.217-1.332,3.34-.929.7.253.9,1.115,1.084,1.828a30.4,30.4,0,0,1,1.132,3.766c.315,2.481-1.076,5.206.165,7.388a5.3,5.3,0,0,0,2.074,1.886,7.2,7.2,0,0,0,6.526.557,14.52,14.52,0,0,0,4.6-3.969c.231-1.994-.068-3.2.292-3.822,1.355-2.325,5.39-.607,7.336-.491,5.372.321,5.063-3.148,5.045-4.752-.043-3.878-.795-4.587-4.7-5.071-2.047-.253-4.156.16-6.17-.279-1.764-.385-3.314-1.392-5-2.031a12.628,12.628,0,0,0-9.682.357,7.86,7.86,0,0,1-1.989.781,1.884,1.884,0,0,1-1.9-.679A2.2,2.2,0,0,1,13.9,5.215a6.119,6.119,0,0,0,1.275-2.154A2.654,2.654,0,0,0,13.486.292a4.943,4.943,0,0,0-3.468.051A14.111,14.111,0,0,0,4.776,4C2.98,5.8,1.26,7.909,1.009,10.417A11.915,11.915,0,0,1,.7,13.376c-.258.711-.893,1.246-.645,2.037.475,1.515,2.837,1.641,3.751,2.81" transform="translate(73.46 43.195)" fill="#c0d4ff"/>
  <path id="Fill_71" data-name="Fill 71" d="M1.157,3.37l1.065.83a1.94,1.94,0,0,0,.765.434c.563.1,1.081-.577,1.051-1.383s-.6-1.563-1.157-1.539c-.346.015-.694.276-1.019.048C1.184,1.283.725-1.027.131.534A2.574,2.574,0,0,0,1.157,3.37" transform="translate(107.603 45.838)" fill="#c0d4ff"/>
  <path id="Fill_73" data-name="Fill 73" d="M13.548,2.531,15.78,3.949c.413.262.885.683.713,1.136-.215.564-1.049.392-1.656.472a1.545,1.545,0,0,0-1.26,1.816c.147.6.637,1.3.191,1.724-.4.388-1.114.024-1.633.242-.307.129-.5.447-.808.575-.263.11-.578.067-.828.2-.31.17-.419.559-.678.8-.784.727-2.195-.327-3.113.228-.7.423-.583,1.521-.036,2.125a8.925,8.925,0,0,0,2.051,1.325,2.089,2.089,0,0,1,1.185,1.961c-.156.822-1.12,1.539-.775,2.3a2.779,2.779,0,0,0,.489.6,2.011,2.011,0,0,1,.352,1.884,2.529,2.529,0,0,1-1.3,1.463c-.384.19-.808.294-1.193.483A5.688,5.688,0,0,0,5.26,25.872a12.664,12.664,0,0,0-1.592,3.954c-.076.466-.148,1.014-.567,1.244-.492.27-1.122-.127-1.36-.629a8.46,8.46,0,0,1-.364-1.617c-.254-1.012-1-1.85-1.267-2.86-.629-2.416,1.679-4.816,1.239-7.272-.092-.513-.3-1-.382-1.515a3.147,3.147,0,0,1,1.019-2.8c.842-.741,2.142-1.119,2.48-2.18.373-1.171-.711-2.378-.521-3.59.061-.388.25-.749.3-1.137A3.181,3.181,0,0,0,4.065,6.14c-.362-1.22-.8-2.583-.193-3.7A3.747,3.747,0,0,1,5.631.974a10.27,10.27,0,0,1,5.26-.939c.756.061,1.457-.152,1.559.69a1.958,1.958,0,0,0,1.1,1.806" transform="translate(53.322 49.936)" fill="#c0d4ff"/>
  <path id="Fill_75" data-name="Fill 75" d="M4.376,4.141a14.012,14.012,0,0,1,1.307-.66,1.507,1.507,0,0,0,.865-1.1,1.253,1.253,0,0,0-.457-.993A3.325,3.325,0,0,0,5.1.835,17.382,17.382,0,0,0,2.965.128,2.181,2.181,0,0,0,1.74.065,2.118,2.118,0,0,0,.88.728,3.4,3.4,0,0,0,.078,2a3.185,3.185,0,0,0,.3,2.1c.236.547,1.7,3.459,2.456,3.133.3-.128.4-1.389.523-1.691a2.991,2.991,0,0,1,1.019-1.4" transform="translate(67.761 42.045)" fill="#c0d4ff"/>
  <path id="Fill_77" data-name="Fill 77" d="M6.808,6.442A21.8,21.8,0,0,1,8.841,5.415a2.344,2.344,0,0,0,1.346-1.706,1.949,1.949,0,0,0-.711-1.545A5.173,5.173,0,0,0,7.932,1.3,27.022,27.022,0,0,0,4.612.2,3.391,3.391,0,0,0,2.707.1a3.3,3.3,0,0,0-1.338,1.03A5.3,5.3,0,0,0,.121,3.112,4.954,4.954,0,0,0,.588,6.381c.368.851,2.649,5.381,3.821,4.874.46-.2.628-2.16.814-2.63A4.652,4.652,0,0,1,6.808,6.442" transform="translate(108.166 66.508)" fill="#c0d4ff"/>
  <path id="Fill_79" data-name="Fill 79" d="M0,.568a.568.568,0,1,1,.568.568A.568.568,0,0,1,0,.568" transform="translate(46.644 35.849)" fill="#ebf3fa"/>
  <path id="Fill_81" data-name="Fill 81" d="M0,.568a.568.568,0,1,1,.568.568A.568.568,0,0,1,0,.568" transform="translate(49.699 35.849)" fill="#ebf3fa"/>
  <path id="Fill_83" data-name="Fill 83" d="M0,.568a.568.568,0,1,1,.568.568A.568.568,0,0,1,0,.568" transform="translate(52.754 35.849)" fill="#ebf3fa"/>
  <path id="Fill_85" data-name="Fill 85" d="M3.3,8.635h0C3.264,8.6,0,5.469,0,3.546A3.432,3.432,0,0,1,3.3,0,3.432,3.432,0,0,1,6.6,3.546C6.6,5.469,3.331,8.6,3.3,8.634Zm0-7.24A1.943,1.943,0,1,0,5.241,3.338,1.945,1.945,0,0,0,3.3,1.395Z" transform="translate(72.482 47.11)" fill="#f78248"/>
  <path id="Fill_87" data-name="Fill 87" d="M0,1.943A1.943,1.943,0,1,1,1.943,3.886,1.943,1.943,0,0,1,0,1.943" transform="translate(73.837 48.505)" fill="#ebf3fa"/>
  <path id="Fill_89" data-name="Fill 89" d="M2.349,6.152h0C2.325,6.129,0,3.9,0,2.526A2.445,2.445,0,0,1,2.349,0,2.446,2.446,0,0,1,4.7,2.526c0,1.369-2.326,3.6-2.349,3.625Zm0-5.159A1.385,1.385,0,1,0,3.734,2.379,1.386,1.386,0,0,0,2.349.994Z" transform="translate(55.916 66.465)" fill="#f78248"/>
  <path id="Fill_91" data-name="Fill 91" d="M0,1.384A1.384,1.384,0,1,1,1.384,2.769,1.384,1.384,0,0,1,0,1.384" transform="translate(56.881 67.459)" fill="#ebf3fa"/>
  <path id="Fill_93" data-name="Fill 93" d="M16.819,19.405H2.112A2.118,2.118,0,0,1,0,17.293V2.112A2.118,2.118,0,0,1,2.112,0H16.819A2.118,2.118,0,0,1,18.93,2.112V17.293a2.118,2.118,0,0,1-2.112,2.112" transform="translate(36.445 43.195)" fill="#d5dffc"/>
  <path id="Fill_95" data-name="Fill 95" d="M11.433,5.717A5.714,5.714,0,1,1,6.768.1C6.054,2.7,5.107,6.141,5.044,6.356c.118-.186,3.594-1.744,5.968-2.794a5.682,5.682,0,0,1,.421,2.155" transform="translate(40.194 46.55)" fill="#2a4e96"/>
  <path id="Fill_97" data-name="Fill 97" d="M5.681,3.39C3.584,4.313.111,5.861,0,6.037c.06-.2,1.021-3.7,1.664-6.037A6.28,6.28,0,0,1,5.681,3.39" transform="translate(45.843 46.098)" fill="#f78248"/>
  <path id="Fill_99" data-name="Fill 99" d="M21.97,22.672H2.6a2.608,2.608,0,0,1-2.6-2.6V2.6A2.608,2.608,0,0,1,2.6,0H21.97a2.608,2.608,0,0,1,2.6,2.6V20.071a2.608,2.608,0,0,1-2.6,2.6" transform="translate(60.242 13.746)" fill="#d5dffc"/>
  <path id="Clip_102-2" data-name="Clip 102" d="M0,105H165.361V0H0Z" fill="none"/>
  <g id="Mask_Group_1" data-name="Mask Group 1" clip-path="url(#clip-path-2)">
    <path id="Fill_101" data-name="Fill 101" d="M19.013,6.05H0V0H19.013V6.049ZM.233.233V5.817H18.778V.233Z" transform="translate(62.986 26.62)" fill="#8c9df4"/>
    <path id="Fill_103" data-name="Fill 103" d="M0,.479H7.354V0H0Z" transform="translate(64.364 28.245)" fill="#8c9df4"/>
    <path id="Fill_104" data-name="Fill 104" d="M0,.479H5.218V0H0Z" transform="translate(72.492 28.245)" fill="#8c9df4"/>
    <path id="Fill_105" data-name="Fill 105" d="M0,.479H4.059V0H0Z" transform="translate(64.364 29.615)" fill="#8c9df4"/>
    <path id="Fill_106" data-name="Fill 106" d="M0,.479H5.218V0H0Z" transform="translate(69.109 29.615)" fill="#8c9df4"/>
    <path id="Fill_107" data-name="Fill 107" d="M0,.479H5.218V0H0Z" transform="translate(74.867 29.615)" fill="#8c9df4"/>
    <path id="Fill_108" data-name="Fill 108" d="M0,2.757H1.983V0H0Z" transform="translate(63.103 22.016)" fill="#2a4e96"/>
    <path id="Fill_109" data-name="Fill 109" d="M0,4.584H1.983V0H0Z" transform="translate(66.499 20.189)" fill="#2a4e96"/>
    <path id="Fill_110" data-name="Fill 110" d="M0,6.081H1.983V0H0Z" transform="translate(69.896 18.691)" fill="#f78248"/>
    <path id="Fill_111" data-name="Fill 111" d="M0,4.866H1.983V0H0Z" transform="translate(73.292 19.906)" fill="#2a4e96"/>
    <path id="Fill_112" data-name="Fill 112" d="M0,7.456H1.983V0H0Z" transform="translate(76.689 17.317)" fill="#2a4e96"/>
    <path id="Fill_113" data-name="Fill 113" d="M0,8.786H1.983V0H0Z" transform="translate(80.086 15.986)" fill="#f78248"/>
    <path id="Fill_114" data-name="Fill 114" d="M27.618,17.812H2.554A2.562,2.562,0,0,1,0,15.257V2.554A2.562,2.562,0,0,1,2.554,0H27.618a2.562,2.562,0,0,1,2.554,2.554v12.7a2.562,2.562,0,0,1-2.554,2.554" transform="translate(118.474 46.455)" fill="#2a4e96"/>
    <path id="Fill_115" data-name="Fill 115" d="M11.156,3.55H0V0H11.156V3.549ZM.137.137V3.413H11.019V.137Z" transform="translate(120.984 57.57)" fill="#c0d4ff"/>
    <path id="Fill_116" data-name="Fill 116" d="M0,.281H4.315V0H0Z" transform="translate(121.792 58.524)" fill="#c0d4ff"/>
    <path id="Fill_117" data-name="Fill 117" d="M0,.281H3.062V0H0Z" transform="translate(126.562 58.524)" fill="#c0d4ff"/>
    <path id="Fill_118" data-name="Fill 118" d="M0,.281H2.382V0H0Z" transform="translate(121.792 59.328)" fill="#c0d4ff"/>
    <path id="Fill_119" data-name="Fill 119" d="M0,.281H3.062V0H0Z" transform="translate(124.577 59.328)" fill="#c0d4ff"/>
    <path id="Fill_120" data-name="Fill 120" d="M0,.281H3.062V0H0Z" transform="translate(127.956 59.328)" fill="#c0d4ff"/>
    <path id="Fill_121" data-name="Fill 121" d="M11.156,3.55H0V0H11.156V3.549ZM.137.137V3.413H11.019V.137Z" transform="translate(134.287 57.57)" fill="#c0d4ff"/>
    <path id="Fill_122" data-name="Fill 122" d="M0,.281H4.315V0H0Z" transform="translate(135.095 58.524)" fill="#c0d4ff"/>
    <path id="Fill_123" data-name="Fill 123" d="M0,.281H3.062V0H0Z" transform="translate(139.865 58.524)" fill="#c0d4ff"/>
    <path id="Fill_124" data-name="Fill 124" d="M0,.281H2.382V0H0Z" transform="translate(135.095 59.328)" fill="#c0d4ff"/>
    <path id="Fill_125" data-name="Fill 125" d="M0,.281H3.062V0H0Z" transform="translate(137.879 59.328)" fill="#c0d4ff"/>
    <path id="Fill_126" data-name="Fill 126" d="M0,.281H3.062V0H0Z" transform="translate(141.258 59.328)" fill="#c0d4ff"/>
    <path id="Fill_127" data-name="Fill 127" d="M25.152,2.039H0V0H25.152V2.038ZM.238.238V1.8H24.913V.238Z" transform="translate(120.984 54.122)" fill="#c0d4ff"/>
    <path id="Fill_128" data-name="Fill 128" d="M0,1.8H19.523V0H0Z" transform="translate(121.103 54.242)" fill="#c0d4ff"/>
    <path id="Fill_129" data-name="Fill 129" d="M25.152,2.039H0V0H25.152V2.038ZM.238.238V1.8H24.913V.238Z" transform="translate(120.984 50.067)" fill="#c0d4ff"/>
    <path id="Fill_130" data-name="Fill 130" d="M0,2.04H13.078V0H0Z" transform="translate(120.984 50.067)" fill="#f99746"/>
    <path id="Fill_131" data-name="Fill 131" d="M.1,3.634a.4.4,0,0,0-.072.433v0A2.692,2.692,0,0,0,.884,5c.051.041.1.079.137.114l.031.027.024.021c.374.345.233.424.9,1.123.766.8,1.293.811,1.444.739.127-.062-.131-.485-.417-.96L2.965,6l-.114-.191c-.335-.572-.249-.84-.169-1.691C2.746,3.425,3.758.253,3.758.253L2.29,0S1.847,2.526,1.36,2.915c-.26.207-.552.21-.8.364l-.052.033a1.922,1.922,0,0,0-.4.323" transform="translate(109.345 39.306)" fill="#ffb27d"/>
    <path id="Fill_132" data-name="Fill 132" d="M.1.323A.4.4,0,0,0,.032.756v0a3.117,3.117,0,0,0,.852.93c.051.042.1.081.135.117l.031.027.024.021c.374.345.233.424.9,1.123.766.8,1.293.811,1.444.739.127-.062-.131-.485-.417-.96A3.264,3.264,0,0,1,1.641,1.75C1.2,1.183.895.46.592.016L.506,0A1.92,1.92,0,0,0,.1.323" transform="translate(109.345 42.617)" fill="#233862"/>
    <path id="Fill_133" data-name="Fill 133" d="M1.174,3.164c.091.453.737.378,1.458.2s.55.033,1.577-.081,1.338-.5,1.37-.649c.028-.136-.479-.183-1.024-.246l-.206-.025a4.443,4.443,0,0,1-1.623-.8A6.522,6.522,0,0,1,1.408,0L0,.112S.739,1.234,1.025,1.722a1.7,1.7,0,0,1,.138.96,1.808,1.808,0,0,0,.011.482" transform="translate(120.112 38.859)" fill="#ffb27d"/>
    <path id="Fill_134" data-name="Fill 134" d="M1.48.976C2.2.8,2.03,1.009,3.057.9S4.4.4,4.426.246C4.454.11,3.947.063,3.4,0L3.4.01A2.9,2.9,0,0,1,1.927.468C1.23.485.492.285.011.293A1.811,1.811,0,0,0,.022.774c.091.453.737.378,1.458.2" transform="translate(121.265 41.249)" fill="#233862"/>
    <path id="Fill_135" data-name="Fill 135" d="M4.832,2.258,3.515,5.8,1.8,10.427a2.785,2.785,0,0,1-.913-.083A3.964,3.964,0,0,1,0,9.914,50.264,50.264,0,0,1,1.368,2.1,5.08,5.08,0,0,1,2.134.438c1.38-1.631,2.7,1.82,2.7,1.82" transform="translate(111.057 30.759)" fill="#dd6c3a"/>
    <path id="Fill_136" data-name="Fill 136" d="M12.736.708a14.515,14.515,0,0,0-4.826.38A1.439,1.439,0,0,1,6.424.417L1.086,0S-.676,3.906.289,6.4a.937.937,0,0,0,.933.6h0S4.447,7,5.479,7c2.655,0,5.618-1.825,6-1.9.628-.125.879,1.13,1.506,2.447s5.9,5.836,5.9,5.836a4.639,4.639,0,0,0,1.145-.117,1.127,1.127,0,0,0,.492-.31S14.681,1.335,12.736.708" transform="translate(101.814 26.683)" fill="#f78248"/>
    <path id="Fill_137" data-name="Fill 137" d="M8.691.316A1.893,1.893,0,0,0,7.672.051a2.841,2.841,0,0,1-.492-.03c-2.037-.3-3.264,2.661-3.336,3.555-.132,1.642-1,1.892-2.223,2.92-2.451,2.062-1.732,4.457-.392,5.347a2.969,2.969,0,0,0,2.222,0c.02.014,3.876-2.156,5.777-3.2C12.077,8.235,9.836,1,8.691.316" transform="translate(98.98 11.108)" fill="#152949"/>
    <path id="Fill_138" data-name="Fill 138" d="M2.6,2.989a2.512,2.512,0,0,1-1.566.048A2.791,2.791,0,0,1,0,1.8C.27,1.785.567,1.549.795,0L.91.041l1.933.7s-.14.62-.231,1.211c-.076.5-.117.971-.012,1.041" transform="translate(104.013 15.868)" fill="#ffb27d"/>
    <path id="Fill_139" data-name="Fill 139" d="M1.933.7s-.077.335-.19.96A2.183,2.183,0,0,1,0,0Z" transform="translate(104.923 15.91)" fill="#ed975d"/>
    <path id="Fill_140" data-name="Fill 140" d="M2.415,4.653s-2.645-.355-2.4-2,.071-2.8,1.77-2.64,1.933.833,1.984,1.4S3.109,4.7,2.415,4.653" transform="translate(104.729 12.568)" fill="#ffb27d"/>
    <path id="Fill_141" data-name="Fill 141" d="M4.433.661A7.374,7.374,0,0,1,1.588,2.238,2.208,2.208,0,0,1,0,1.986,4.5,4.5,0,0,0,1.087.512.81.81,0,0,1,1.755.035c.822-.071,2.382-.1,2.678.626" transform="translate(103.97 12.423)" fill="#152949"/>
    <path id="Fill_142" data-name="Fill 142" d="M0,.316a4.17,4.17,0,0,1,.745.954,3.2,3.2,0,0,1,.087,1.7s.883-1.716.383-2.55A.705.705,0,0,0,0,.316" transform="translate(107.344 12.637)" fill="#152949"/>
    <path id="Fill_143" data-name="Fill 143" d="M7.1,5.15c-.08,5.354-.022,4.236-.608,4.744a2.25,2.25,0,0,1-1.06.23C3.789,10.232.9,9.962.793,9.659.414,8.609.681,8.283.365,6.675.332,6.5.292,6.319.244,6.118c-.264-1.1-.52-1.479.415-3.253A13.841,13.841,0,0,1,2.466,0C4.7,1.329,4.882.213,4.882.213S7.137,2.538,7.1,5.15" transform="translate(101.743 17.604)" fill="#8c9df4"/>
    <path id="Fill_144" data-name="Fill 144" d="M3.515,3.706,1.8,8.332a2.785,2.785,0,0,1-.913-.083A3.964,3.964,0,0,1,0,7.819,50.264,50.264,0,0,1,1.368,0Z" transform="translate(111.057 32.854)" fill="#f78248"/>
    <path id="Fill_145" data-name="Fill 145" d="M0,0S2.3.39,2.571,1.381s1.16,7,1.16,7-.649.634-1.189.093S.841,2.852.841,2.852Z" transform="translate(106.625 17.816)" fill="#8c9df4"/>
    <path id="Fill_146" data-name="Fill 146" d="M5.065,5.678C3.423,5.787.537,5.517.427,5.213.049,4.163.316,3.837,0,2.23L.792,0s-.131,2.483.6,3.136,3,1.261,3.354,1.807a2,2,0,0,1,.317.735" transform="translate(102.108 22.049)" fill="#707fe5"/>
    <path id="Fill_147" data-name="Fill 147" d="M0,.251A6.888,6.888,0,0,1,1.881.034a3.807,3.807,0,0,1,.98.849c.08.182-.582-.138-.8-.2a1.912,1.912,0,0,0-.688.151A2.287,2.287,0,0,1,.143.962Z" transform="translate(105.292 26.432)" fill="#ffb27d"/>
    <path id="Fill_148" data-name="Fill 148" d="M5.247,0S3.072.134,2.319,1.184C1.259,2.662-.843,8.962.362,9.8c1.357.946,6.176.248,6.176.248a1.957,1.957,0,0,0-.063-1.112c-.223-.363-3.849-.948-4.016-1.116S4.551,4.559,4.551,4.057,5.247,0,5.247,0" transform="translate(98.96 17.604)" fill="#8c9df4"/>
    <path id="Fill_149" data-name="Fill 149" d="M0,0A3.131,3.131,0,0,0,.451.49.331.331,0,0,0,.634.529L.405.118Z" transform="translate(107.252 26.917)" fill="#ffb27d"/>
    <path id="Fill_150" data-name="Fill 150" d="M0,0,.987.479A.176.176,0,0,1,.823.542,2.352,2.352,0,0,1,.4.425Z" transform="translate(107.173 26.466)" fill="#ffb27d"/>
    <path id="Fill_151" data-name="Fill 151" d="M10.307,0H0V.228H10.216Z" transform="translate(105.292 27.592)" fill="#152949"/>
    <path id="Fill_152" data-name="Fill 152" d="M0,5.839H7.805L10.153,0H2.36Z" transform="translate(107.702 21.981)" fill="#152949"/>
    <path id="Fill_153" data-name="Fill 153" d="M.758.372A.27.27,0,0,0,.493,0,.532.532,0,0,0,.015.372.27.27,0,0,0,.28.743.532.532,0,0,0,.758.372" transform="translate(112.779 24.529)" fill="#ebf3fa"/>
    <path id="Fill_154" data-name="Fill 154" d="M4.883,12.788h0C4.834,12.741,0,8.1,0,5.252A5.084,5.084,0,0,1,4.883,0,5.084,5.084,0,0,1,9.768,5.252c0,2.851-4.835,7.489-4.884,7.535Zm0-10.722A2.878,2.878,0,1,0,7.762,4.944,2.881,2.881,0,0,0,4.883,2.066Z" transform="translate(87.018 41.766)" fill="#f78248"/>
    <path id="Fill_155" data-name="Fill 155" d="M0,2.878A2.878,2.878,0,1,1,2.878,5.756,2.878,2.878,0,0,1,0,2.878" transform="translate(89.024 43.832)" fill="#ebf3fa"/>
    <path id="Fill_156" data-name="Fill 156" d="M2.093,2.562A6.1,6.1,0,0,0,1.627.757,2.458,2.458,0,0,0,.038.01C-.2.237.73,1.04.766,1.335S.3,1.426.539,2a4.5,4.5,0,0,0,.883,1.118Z" transform="translate(91.614 52.744)" fill="#ffb27d"/>
    <path id="Fill_157" data-name="Fill 157" d="M.47.336C.906-.006,1,0,1,0S5.035,3.5,5.428,3.808s6.455,2.069,6.455,2.069l.963,4.928s-8.2-3.962-9.182-4.77C2.044,4.7,0,.96,0,.96A1.546,1.546,0,0,1,.47.336" transform="translate(92.661 54.825)" fill="#dd6c3a"/>
    <path id="Fill_158" data-name="Fill 158" d="M4.892.709A6.125,6.125,0,0,1,4.5,2.8L0,2.829a.7.7,0,0,1,.672-.684A3.018,3.018,0,0,0,2.858.421c.5-1.093,2.034.288,2.034.288" transform="translate(99.781 101.809)" fill="#163560"/>
    <path id="Fill_159" data-name="Fill 159" d="M5.294.684s.314,2.237-.112,2.276c-.057.005-1.813.034-2.574.046C1.714,3.022.244,2.99.244,2.99a.234.234,0,0,1-.212-.352.943.943,0,0,1,.676-.434A3.645,3.645,0,0,0,3.255.432c.482-1.1,2.039.253,2.039.253" transform="translate(108.207 101.592)" fill="#163560"/>
    <path id="Fill_160" data-name="Fill 160" d="M0,4.289A88.745,88.745,0,0,0,4.836,16.267c3.585,7.6,3.74,11.265,3.74,11.265a3.148,3.148,0,0,0,1.263.115,3.4,3.4,0,0,0,1.329-.431s-.232-9.048-1.926-12.883S7.2,0,7.2,0Z" transform="translate(102.334 75.06)" fill="#233862"/>
    <path id="Fill_161" data-name="Fill 161" d="M0,0A109.157,109.157,0,0,0,1.075,15.1c1.173,8.322.624,12.192.624,12.192a2.338,2.338,0,0,0,1.267.223,2.843,2.843,0,0,0,1.693-.467s1.678-8.325,1.2-12.491S8.155.264,8.155.264Z" transform="translate(100.323 75.582)" fill="#2a4e96"/>
    <path id="Fill_162" data-name="Fill 162" d="M3.239,3.351l-1.325.981L0,3.929c.027-.175.153-.9.268-1.554l.02-.115c.1-.558.184-1.037.184-1.037L2.26.332,2.927,0c0,.012-.052.619-.059.708a5.725,5.725,0,0,0,.371,2.643" transform="translate(102.628 56.37)" fill="#ffb27d"/>
    <path id="Fill_163" data-name="Fill 163" d="M9.584,17.267c-.433,1.981-9.7,1.111-9.583-.1,0-.04.029-.6.062-1.354.07-1.632.177-4.182.191-4.381,0,0,0-.007,0-.01C.423,9.74.583,8.092.593,7.017A15.278,15.278,0,0,1,.9,4.264c.158-.8.351-1.525.52-2.09A2.311,2.311,0,0,1,2.776.689,2.03,2.03,0,0,1,3,.611,10.238,10.238,0,0,1,6.01.022C7.118.348,7.941,2.3,8.524,4.786,9.615,9.44,9.867,15.976,9.584,17.267" transform="translate(100.078 59.152)" fill="#f78248"/>
    <path id="Fill_164" data-name="Fill 164" d="M2.466.4A5.442,5.442,0,0,1,0,2.043l.02-.115C.119,1.371.2.892.2.892L1.992,0c.4-.006.636.094.474.4" transform="translate(102.896 56.702)" fill="#fca56b"/>
    <path id="Fill_165" data-name="Fill 165" d="M.4,5.31S3.629,6.316,4.225,4.3,5.639,1.049,3.6.321.94.245.577.87-.421,5,.4,5.31" transform="translate(101.828 52.179)" fill="#ffb27d"/>
    <path id="Fill_166" data-name="Fill 166" d="M.3,1.778S.509,4.127.995,4.025s.926-.178.855.53S1.105,6.081,2.6,6.207,6.252,2.471,5.841,1.74C4.654-.369-1.412-.8.3,1.778" transform="translate(102.229 51.077)" fill="#163560"/>
    <path id="Fill_167" data-name="Fill 167" d="M0,7.666C.07,6.034.177,3.484.191,3.285c0,0,0-.007,0-.01L5.669,0S5.881,7.644,0,7.666" transform="translate(100.141 67.301)" fill="#dd6c3a"/>
    <path id="Fill_168" data-name="Fill 168" d="M2.725.92A14.483,14.483,0,0,0,1.4.1,2.785,2.785,0,0,0,.466.019C.433.074.339.241.46.3S.731.334.686.374.186.2.081.429-.117,1.455.417,1.7a6.122,6.122,0,0,0,1.947.051c.806.234.361-.827.361-.827" transform="translate(93.063 67.194)" fill="#ffb27d"/>
    <path id="Fill_169" data-name="Fill 169" d="M.351,6.784s5.432.924,5.914.689c.768-.374-.3-5.886-.3-5.886A1.585,1.585,0,0,1,7.379.044,3.511,3.511,0,0,1,9.87.738a2.863,2.863,0,0,1,.97,2.1c-.315,2.448-.805,7.426-2.442,8.189C6.287,12.01.177,8.3.177,8.3A1.068,1.068,0,0,1,0,7.585a1.66,1.66,0,0,1,.348-.8" transform="translate(95.427 61.127)" fill="#f78248"/>
    <path id="Fill_170" data-name="Fill 170" d="M.416.911S.068.22.013.09s.08-.1.214-.029S.543.535.749.486C.913.448.416.911.416.911" transform="translate(91.711 53.769)" fill="#ffb27d"/>
    <path id="Fill_171" data-name="Fill 171" d="M0,2.394a2.269,2.269,0,0,0,.018.292,2.392,2.392,0,0,0,2.376,2.1H36.061a2.394,2.394,0,0,0,0-4.788H2.394A2.394,2.394,0,0,0,0,2.394" transform="translate(46.191 99.744)" fill="#2b478b"/>
    <path id="Fill_172" data-name="Fill 172" d="M.367.735H11.911a.367.367,0,1,0,0-.735H.367a.367.367,0,0,0,0,.735" transform="translate(48.391 98.576)" fill="#2b478b"/>
    <path id="Fill_173" data-name="Fill 173" d="M0,.433H1.251V0H0Z" transform="translate(49.396 99.311)" fill="#233862"/>
    <path id="Fill_174" data-name="Fill 174" d="M0,0A2.4,2.4,0,0,0,.41.548a2.388,2.388,0,0,0,1.693.7H9.235V0Z" transform="translate(46.481 103.284)" fill="#233862"/>
    <path id="Fill_175" data-name="Fill 175" d="M38.455,1.693V3.1a1.692,1.692,0,0,1-1.692,1.693H1.692A1.692,1.692,0,0,1,0,3.1v-1.4A1.692,1.692,0,0,1,1.692,0h35.07a1.692,1.692,0,0,1,1.692,1.693" transform="translate(50.648 99.744)" fill="#f99746"/>
    <path id="Fill_176" data-name="Fill 176" d="M38.337,0A1.692,1.692,0,0,1,36.7,1.249H1.633A1.692,1.692,0,0,1,0,0Z" transform="translate(50.707 103.284)" fill="#ef873a"/>
    <path id="Fill_177" data-name="Fill 177" d="M0,2.4A2.661,2.661,0,0,0,.7,4.251l.029.029a1.7,1.7,0,0,0,1.2.525c.71,0,2.47-1.071,3.56-1.782.543-.355.921-.62.921-.62s-.377-.265-.921-.62C4.4,1.071,2.636,0,1.926,0a1.589,1.589,0,0,0-.589.114A1.929,1.929,0,0,0,.525.755,2.643,2.643,0,0,0,.038,1.926a.123.123,0,0,0,0,.016A2.979,2.979,0,0,0,0,2.4" transform="translate(85.619 99.744)" fill="#8c9df4"/>
    <path id="Fill_178" data-name="Fill 178" d="M0,.461A2.661,2.661,0,0,0,.7,2.309L6.094.453.036,0A2.979,2.979,0,0,0,0,.461" transform="translate(85.619 101.686)" fill="#6980e2"/>
    <path id="Fill_179" data-name="Fill 179" d="M0,.641l5.385,1.47L.812,0A1.93,1.93,0,0,0,0,.641" transform="translate(86.145 99.858)" fill="#9fb1ff"/>
    <path id="Fill_180" data-name="Fill 180" d="M0,.62a.665.665,0,0,0,.351.62c.543-.355.921-.62.921-.62S.895.355.351,0A.663.663,0,0,0,0,.62" transform="translate(90.754 101.527)" fill="#182d4c"/>
    <path id="Fill_181" data-name="Fill 181" d="M156.295.451H.185A.185.185,0,0,1,0,.266V.185A.185.185,0,0,1,.185,0h156.11a.185.185,0,0,1,.185.185V.266a.185.185,0,0,1-.185.185" transform="translate(5.587 104.549)" fill="#2e3552"/>
  </g>
</svg>
