<svg id="Group_16176" data-name="Group 16176" xmlns="http://www.w3.org/2000/svg" width="22.92" height="22.687" viewBox="0 0 22.92 22.687">
  <path id="Path_2849" data-name="Path 2849" d="M12.475,9.043a3.6,3.6,0,1,1-3.595,3.6,3.6,3.6,0,0,1,3.595-3.6Zm0-1.53A5.128,5.128,0,1,0,17.6,12.641a5.128,5.128,0,0,0-5.124-5.128Zm.775-4.784.316,1.192a.765.765,0,0,0,.585.554,8.312,8.312,0,0,1,2.289.833.765.765,0,0,0,.8-.047l1.009-.711a9.912,9.912,0,0,1,1.187.994l-.525,1.117a.765.765,0,0,0,.093.8,8.349,8.349,0,0,1,1.218,2.109.765.765,0,0,0,.647.481l1.23.1a9.937,9.937,0,0,1,.269,1.526l-1.12.519a.765.765,0,0,0-.444.672,8.34,8.34,0,0,1-.423,2.4.765.765,0,0,0,.187.783l.875.87a9.93,9.93,0,0,1-.775,1.341l-1.192-.327a.765.765,0,0,0-.772.229,8.336,8.336,0,0,1-1.866,1.566.765.765,0,0,0-.361.72l.112,1.232a9.866,9.866,0,0,1-1.453.53l-.705-1.013a.765.765,0,0,0-.74-.32,8.332,8.332,0,0,1-2.436,0,.765.765,0,0,0-.74.32l-.7,1.013a9.851,9.851,0,0,1-1.453-.53l.111-1.228a.765.765,0,0,0-.361-.72,8.336,8.336,0,0,1-1.866-1.566.765.765,0,0,0-.772-.229l-1.191.323a9.962,9.962,0,0,1-.775-1.342l.875-.87a.765.765,0,0,0,.187-.783,8.34,8.34,0,0,1-.432-2.4A.765.765,0,0,0,3.7,12.2l-1.117-.519a9.942,9.942,0,0,1,.269-1.526l1.23-.1a.765.765,0,0,0,.646-.481A8.349,8.349,0,0,1,5.942,7.464a.765.765,0,0,0,.093-.8L5.51,5.547A9.924,9.924,0,0,1,6.7,4.553l1.009.711a.765.765,0,0,0,.8.047A8.312,8.312,0,0,1,10.8,4.478a.765.765,0,0,0,.586-.554L11.7,2.732a9.887,9.887,0,0,1,1.549,0Zm1.344-.9a.765.765,0,0,0-.641-.563,11.442,11.442,0,0,0-2.955,0,.765.765,0,0,0-.641.563l-.333,1.257a9.82,9.82,0,0,0-1.814.66L7.147,3a.765.765,0,0,0-.853-.019,11.482,11.482,0,0,0-2.264,1.9.765.765,0,0,0-.129.841l.553,1.177a9.892,9.892,0,0,0-.965,1.672l-1.3.109a.765.765,0,0,0-.665.535,11.481,11.481,0,0,0-.513,2.911.765.765,0,0,0,.443.728l1.18.547a9.866,9.866,0,0,0,.335,1.9l-.922.916a.765.765,0,0,0-.167.836,11.487,11.487,0,0,0,1.478,2.56.765.765,0,0,0,.808.273l1.255-.34A9.873,9.873,0,0,0,6.9,20.783l-.117,1.295a.765.765,0,0,0,.41.748,11.476,11.476,0,0,0,2.777,1.011.765.765,0,0,0,.795-.31l.743-1.071a9.806,9.806,0,0,0,1.93,0l.743,1.071a.765.765,0,0,0,.795.31,11.476,11.476,0,0,0,2.775-1.011.765.765,0,0,0,.41-.748l-.117-1.295a9.9,9.9,0,0,0,1.479-1.241l1.255.34a.765.765,0,0,0,.808-.273,11.487,11.487,0,0,0,1.478-2.56.765.765,0,0,0-.167-.836l-.922-.918a9.866,9.866,0,0,0,.335-1.9l1.18-.546a.765.765,0,0,0,.443-.728,11.482,11.482,0,0,0-.513-2.911.765.765,0,0,0-.665-.535l-1.3-.109a9.872,9.872,0,0,0-.965-1.672l.553-1.177a.765.765,0,0,0-.129-.841,11.482,11.482,0,0,0-2.264-1.9.765.765,0,0,0-.853.019l-1.063.75a9.866,9.866,0,0,0-1.815-.659Z" transform="translate(-1.014 -1.169)" fill="#2cbf8c"/>
</svg>
