<svg xmlns="http://www.w3.org/2000/svg" width="65.939" height="67.951" viewBox="0 0 65.939 67.951">
  <g id="noun_Resume_2131753" transform="translate(-1.623 -9.769)">
    <path id="Path_2952" data-name="Path 2952" d="M3.03,68H49.8a1,1,0,0,0,1-1V46.973L67.568,18.995a2.955,2.955,0,0,0-1.08-4.03l-6.224-3.73a2.955,2.955,0,0,0-4.063.948L51.875,19.4h0L50.8,21.2v-5.37a1,1,0,0,0-.219-1.026L38.465,2.32a.989.989,0,0,0-.135-.105.988.988,0,0,0-.145-.1.963.963,0,0,0-.159-.059.986.986,0,0,0-.178-.036A.936.936,0,0,0,37.74,2H3.03a1,1,0,0,0-1,1V67A1,1,0,0,0,3.03,68ZM53.076,21.288l3.11,1.864L42.953,45.23l-3.11-1.864Zm7.935,4.756L47.779,48.122l-3.11-1.864L57.9,24.18Zm-22.1,24.334a6.771,6.771,0,0,1,3.124,1.874L38.561,54.5Zm4.833.765a8.989,8.989,0,0,0-4.661-2.8l.25-2.956,3.449,2.067h0l3.45,2.068ZM57.917,13.21a.953.953,0,0,1,1.319-.26L65.46,16.68a.955.955,0,0,1,.392,1.287L62.04,24.328l-3.967-2.378h0L54.1,19.572ZM38.737,5.472,47.5,14.5H38.737ZM4.03,4H36.737V15.5a1,1,0,0,0,1,1H48.8v8.036L37.614,43.2c-.008.013-.008.028-.015.041a.991.991,0,0,0-.1.283c0,.023-.012.044-.014.067s-.007.026-.008.039l-1,11.829L10.758,55.44h0a1,1,0,0,0,0,2l26.634.014h0a1,1,0,0,0,.345-.07.962.962,0,0,0,.1-.045.98.98,0,0,0,.1-.047l10.73-6.96c.027-.017.047-.041.072-.061s.042-.028.061-.045V66H4.03Z" transform="translate(-0.407 9.72)" fill="#374d96"/>
    <path id="Path_2953" data-name="Path 2953" d="M10.758,36H28.53a1,1,0,0,0,0-2H10.758a1,1,0,0,0,0,2Z" fill="#374d96"/>
    <path id="Path_2954" data-name="Path 2954" d="M9.76,45.72a1,1,0,0,0,1,1H33.592a1,1,0,0,0,0-2H10.76A1,1,0,0,0,9.76,45.72Z" fill="#374d96"/>
    <path id="Path_2955" data-name="Path 2955" d="M11.663,27.731H27.625a1,1,0,0,0,1-1V10.769a1,1,0,0,0-1-1H11.663a1,1,0,0,0-1,1V26.731A1,1,0,0,0,11.663,27.731Zm1-15.962H26.625V25.731H12.663Z" fill="#374d96"/>
  </g>
</svg>
