<svg xmlns="http://www.w3.org/2000/svg" width="38.446" height="38.446" viewBox="0 0 38.446 38.446">
  <g id="noun_dollar_3209327" transform="translate(-5 -5)">
    <path id="Path_2971" data-name="Path 2971" d="M24.223,5A19.223,19.223,0,1,0,43.446,24.223,19.245,19.245,0,0,0,24.223,5Zm0,36.908A17.685,17.685,0,1,1,41.908,24.223,17.7,17.7,0,0,1,24.223,41.908Z" fill="#f35162"/>
    <path id="Path_2972" data-name="Path 2972" d="M28.527,19.537h.08a3.194,3.194,0,0,1,3.19,3.19.769.769,0,1,0,1.538,0,4.731,4.731,0,0,0-3.959-4.659v-1.3a.769.769,0,0,0-1.538,0v1.286A4.73,4.73,0,0,0,23.8,22.727v.08a4.733,4.733,0,0,0,4.728,4.728h.08a3.194,3.194,0,0,1,3.19,3.19v.08a3.194,3.194,0,0,1-3.19,3.19h-.08a3.194,3.194,0,0,1-3.19-3.19.769.769,0,1,0-1.538,0,4.73,4.73,0,0,0,4.038,4.672v1.286a.769.769,0,1,0,1.538,0v-1.3A4.731,4.731,0,0,0,33.335,30.8v-.08A4.733,4.733,0,0,0,28.607,26h-.08a3.194,3.194,0,0,1-3.19-3.19v-.08A3.194,3.194,0,0,1,28.527,19.537Z" transform="translate(-4.344 -2.542)" fill="#f35162"/>
  </g>
</svg>
