<svg xmlns="http://www.w3.org/2000/svg" width="21.172" height="18.821" viewBox="0 0 21.172 18.821">
  <path id="Icon_awesome-file-export" data-name="Icon awesome-file-export" d="M14.116,4.481a.879.879,0,0,0-.257-.621l-3.6-3.6A.882.882,0,0,0,9.635,0H9.411V4.705h4.705Zm6.874,6.841L17.472,7.779a.59.59,0,0,0-1.007.415v2.393H14.112V12.94h2.353v2.4a.59.59,0,0,0,1.007.415L20.99,12.2A.626.626,0,0,0,20.99,11.322ZM7.058,12.352V11.175a.59.59,0,0,1,.588-.588h6.47V5.882h-5A.885.885,0,0,1,8.234,5V0H.882A.88.88,0,0,0,0,.882V17.939a.88.88,0,0,0,.882.882H13.234a.88.88,0,0,0,.882-.882v-5H7.646A.59.59,0,0,1,7.058,12.352Z" fill="#3b5091"/>
</svg>
