<svg xmlns="http://www.w3.org/2000/svg" width="28.412" height="28" viewBox="0 0 28.412 28">
  <g id="home" transform="translate(1.205 1)">
    <path id="Shape" d="M16.264,26a.762.762,0,0,1-.761-.761v-6.12a1.279,1.279,0,0,0-1.278-1.278H11.776A1.279,1.279,0,0,0,10.5,19.119v6.12A.762.762,0,0,1,9.736,26H5.586a2.8,2.8,0,0,1-2.8-2.8v-7.8H2.362a.675.675,0,0,1-.074,0A2.392,2.392,0,0,1,.695,11.312L.706,11.3,11.307.7a2.395,2.395,0,0,1,3.386,0L25.3,11.307l0,0a2.394,2.394,0,0,1-1.694,4.085h-.392v7.8a2.8,2.8,0,0,1-2.8,2.8Z" transform="translate(0)" fill="none" stroke="#2cbf8c" stroke-width="2"/>
  </g>
</svg>
