<svg xmlns="http://www.w3.org/2000/svg" width="42.006" height="37.412" viewBox="0 0 42.006 37.412">
  <g id="Group_16272" data-name="Group 16272" transform="translate(1.995 1.776)">
    <path id="Path_2847" data-name="Path 2847" d="M45.585,17.069a2.255,2.255,0,0,0-2.252-2.252H31.6V11.788a3.114,3.114,0,0,0-3.111-3.111H20.724a3.114,3.114,0,0,0-3.111,3.111v3.029H5.877a2.255,2.255,0,0,0-2.253,2.25L3.6,27.782a.906.906,0,0,0,.51.817c.478.232.97.446,1.464.658v14.58a2.255,2.255,0,0,0,2.252,2.252H41.38a2.255,2.255,0,0,0,2.252-2.252v-14.8c.507-.234,1.005-.476,1.492-.732a.9.9,0,0,0,.483-.8ZM19.424,11.788a1.3,1.3,0,0,1,1.3-1.3h7.761a1.317,1.317,0,0,1,1.3,1.3v3.029H19.424V11.788Zm22.4,32.048a.453.453,0,0,1-.442.442H7.828a.448.448,0,0,1-.442-.442V29.975a45.355,45.355,0,0,0,13.145,2.582v1.256a1.654,1.654,0,0,0,1.652,1.652h4.841a1.654,1.654,0,0,0,1.651-1.652v-1.27a43.1,43.1,0,0,0,13.145-2.734V43.836ZM22.343,33.654v-3h4.523v3Zm6.334-2.931v-.23a1.653,1.653,0,0,0-1.651-1.653H22.184a1.654,1.654,0,0,0-1.652,1.653v.249a41.469,41.469,0,0,1-15.119-3.53l.021-10.142a.448.448,0,0,1,.443-.442H43.333a.448.448,0,0,1,.442.443l.021,9.882A38.9,38.9,0,0,1,28.677,30.722Z" transform="translate(-5.596 -10.453)" fill="#633fe4"/>
  </g>
</svg>
