<svg xmlns="http://www.w3.org/2000/svg" width="25.327" height="22.59" viewBox="0 0 25.327 22.59">
  <g id="Group_16175" data-name="Group 16175" transform="translate(0.15 0.15)">
    <path id="Path_2847" data-name="Path 2847" d="M28.615,13.677a1.343,1.343,0,0,0-1.342-1.342H20.28v-1.8a1.856,1.856,0,0,0-1.853-1.853H13.8a1.856,1.856,0,0,0-1.853,1.853v1.8H4.957a1.343,1.343,0,0,0-1.343,1.341L3.6,20.06a.54.54,0,0,0,.3.487c.285.138.578.266.872.392v8.687a1.344,1.344,0,0,0,1.342,1.342H26.11a1.343,1.343,0,0,0,1.342-1.342V20.808c.3-.139.6-.284.889-.436a.539.539,0,0,0,.288-.478ZM13.028,10.53a.776.776,0,0,1,.775-.775h4.624a.785.785,0,0,1,.775.775v1.8H13.028v-1.8ZM26.373,29.625a.27.27,0,0,1-.263.263H6.12a.267.267,0,0,1-.263-.263V21.366A27.022,27.022,0,0,0,13.689,22.9v.748a.985.985,0,0,0,.984.984h2.884a.985.985,0,0,0,.984-.984V22.9a25.68,25.68,0,0,0,7.832-1.629v8.357ZM14.767,23.558v-1.79h2.695v1.79Zm3.774-1.747v-.137a.985.985,0,0,0-.984-.985H14.673a.986.986,0,0,0-.984.985v.149a24.708,24.708,0,0,1-9.008-2.1l.013-6.043a.267.267,0,0,1,.264-.263H27.274a.267.267,0,0,1,.263.264l.012,5.888A23.179,23.179,0,0,1,18.541,21.812Z" transform="translate(-3.601 -8.677)" fill="#2cbf8c" stroke="#2cbf8c" stroke-width="0.3"/>
  </g>
</svg>
