<svg xmlns="http://www.w3.org/2000/svg" width="26.934" height="20.367" viewBox="0 0 26.934 20.367">
  <path id="Path_2848" data-name="Path 2848" d="M36,20.5H13.939a2.191,2.191,0,0,0-2.189,2.189v15.49a2.191,2.191,0,0,0,2.189,2.189H36a2.191,2.191,0,0,0,2.189-2.189V22.689A2.191,2.191,0,0,0,36,20.5Zm1.179,17.679A1.18,1.18,0,0,1,36,39.357H13.939a1.18,1.18,0,0,1-1.179-1.179v-10.1H37.174Zm0-11.112H12.76V22.689a1.18,1.18,0,0,1,1.179-1.179H36a1.18,1.18,0,0,1,1.179,1.179ZM15.328,33.885h4.167a.505.505,0,1,0,0-1.01H15.328a.505.505,0,1,0,0,1.01Zm6.987,0H31.2a.505.505,0,1,0,0-1.01H22.315a.505.505,0,1,0,0,1.01Z" transform="translate(-11.5 -20.25)" fill="#2cbf8c" stroke="#2cbf8c" stroke-width="0.5"/>
</svg>
