<svg xmlns="http://www.w3.org/2000/svg" width="36.955" height="36.955" viewBox="0 0 36.955 36.955">
  <g id="Group_16278" data-name="Group 16278" transform="translate(-5 -5)">
    <path id="Path_2871" data-name="Path 2871" d="M41.141,17.8a6.241,6.241,0,1,0,6.282,6.241A6.238,6.238,0,0,0,41.141,17.8Zm0,10.224a3.983,3.983,0,1,1,3.983-3.983A3.935,3.935,0,0,1,41.141,28.024Z" transform="translate(-17.623 -7.544)" fill="#2cbf8c"/>
    <path id="Path_2872" data-name="Path 2872" d="M23.477,5A18.477,18.477,0,1,0,41.955,23.477,18.505,18.505,0,0,0,23.477,5ZM14.033,36.617v-.082a9.506,9.506,0,1,1,19.011-.041,16.1,16.1,0,0,1-9.567,3.162A15.637,15.637,0,0,1,14.033,36.617Zm21.105-1.93a11.752,11.752,0,0,0-23.24.123A16.212,16.212,0,1,1,39.7,23.477,16.372,16.372,0,0,1,35.139,34.687Z" fill="#2cbf8c"/>
  </g>
</svg>
