<svg xmlns="http://www.w3.org/2000/svg" width="56.698" height="67.742" viewBox="0 0 56.698 67.742">
  <g id="noun_Resume_2163091" transform="translate(-6.661 1.883)">
    <path id="Path_2956" data-name="Path 2956" d="M26.719,29.956H50.132a1,1,0,0,0,1-1V7.741a1,1,0,0,0-1-1H26.719a1,1,0,0,0-1,1V28.956A1,1,0,0,0,26.719,29.956Zm1-21.216H49.132V27.956H27.719Z" fill="#374d96"/>
    <path id="Path_2957" data-name="Path 2957" d="M42.067,17.442a4.459,4.459,0,1,0-7.283,0,5.5,5.5,0,0,0-4.254,5.488v2.342a1,1,0,0,0,1,1H45.321a1,1,0,0,0,1-1V22.931A5.5,5.5,0,0,0,42.067,17.442Zm-3.642-5.018a2.459,2.459,0,1,1-2.459,2.459A2.462,2.462,0,0,1,38.425,12.425Zm5.9,11.848H32.529V22.931a3.421,3.421,0,0,1,3.217-3.587H41.1a3.421,3.421,0,0,1,3.217,3.587Z" fill="#374d96"/>
    <path id="Path_2958" data-name="Path 2958" d="M22.414,35.63H54.437a1,1,0,0,0,0-2H22.414a1,1,0,1,0,0,2Z" fill="#374d96"/>
    <path id="Path_2959" data-name="Path 2959" d="M22.414,42.819H40.709a1,1,0,0,0,0-2H22.414a1,1,0,1,0,0,2Z" fill="#374d96"/>
    <path id="Path_2960" data-name="Path 2960" d="M22.414,50.009H49.056a1,1,0,0,0,0-2H22.414a1,1,0,1,0,0,2Z" fill="#374d96"/>
    <path id="Path_2961" data-name="Path 2961" d="M22.414,57.2H46.6a1,1,0,0,0,0-2H22.414a1,1,0,1,0,0,2Z" fill="#374d96"/>
    <path id="Path_2962" data-name="Path 2962" d="M63.052,2H15.438a1.026,1.026,0,0,0-1.026,1.026V5.652H8.406A1.026,1.026,0,0,0,7.38,6.678V68.716a1.026,1.026,0,0,0,1.026,1.026H52.95a1.026,1.026,0,0,0,1.026-1.026v-5.2h9.075a1.026,1.026,0,0,0,1.026-1.026V3.026A1.026,1.026,0,0,0,63.052,2ZM51.924,67.689H9.433V7.7h4.979V62.494a1.026,1.026,0,0,0,1.026,1.026H51.924v4.169Zm10.1-6.221H16.464V4.053H62.025Z" transform="translate(-0.719 -3.883)" fill="#374d96"/>
  </g>
</svg>
