<svg xmlns="http://www.w3.org/2000/svg" width="168.11" height="144.393" viewBox="0 0 168.11 144.393">
  <g id="sidebar_footer" transform="translate(-23.18 -30.828)">
    <g id="Group_16811" data-name="Group 16811" transform="translate(51.089 66.393)">
      <g id="Group_16808" data-name="Group 16808" transform="translate(86.816 0.807)">
        <circle id="Ellipse_125" data-name="Ellipse 125" cx="12.82" cy="12.82" r="12.82" fill="#fff"/>
        <path id="Path_3086" data-name="Path 3086" d="M340.6,175.145a16.049,16.049,0,0,0,12.121-12.122,3.422,3.422,0,0,0-1.2-2.725.615.615,0,0,0-.938.095l-2.679,3.962a.613.613,0,0,0,.191.868l.558.338a1.174,1.174,0,0,1,.372,1.459,15.073,15.073,0,0,1-4.425,4.425,1.174,1.174,0,0,1-1.459-.372l-.338-.558a.613.613,0,0,0-.868-.191L337.966,173a.615.615,0,0,0-.095.938A3.423,3.423,0,0,0,340.6,175.145Z" transform="translate(-332.395 -155.139)" fill="#2cbf8c"/>
      </g>
      <g id="Group_16810" data-name="Group 16810">
        <g id="Group_16809" data-name="Group 16809">
          <circle id="Ellipse_126" data-name="Ellipse 126" cx="13.627" cy="13.627" r="13.627" fill="#fff"/>
        </g>
        <path id="Path_3087" data-name="Path 3087" d="M135.717,153.616l.616-.963-.95-.131-3.9-.539,2.641,4.129.934-1.461a9.98,9.98,0,1,1-5.327-1.541v-1.228a11.208,11.208,0,1,0,5.989,1.734Z" transform="translate(-116.566 -149.463)" fill="#2cbf8c"/>
        <path id="Path_3136" data-name="Path 3136" d="M.459-.072H4.788V-.756h-3.1C2.853-1.7,4.6-3.078,4.6-4.7A1.831,1.831,0,0,0,2.583-6.624a1.994,1.994,0,0,0-2.1,2.106h.792a1.286,1.286,0,0,1,1.314-1.4,1.1,1.1,0,0,1,1.2,1.26c0,1.332-1.62,2.628-3.33,4.005ZM8.865,0h.81V-1.449h.9V-2.16h-.9V-6.444H8.694L5.535-2.07v.621h3.33ZM6.48-2.16,8.9-5.589V-2.16Z" transform="translate(8.496 16.228)" fill="#2cbf8c"/>
      </g>
    </g>
    <g id="Group_16818" data-name="Group 16818" transform="translate(65.67 30.828)">
      <g id="Group_16814" data-name="Group 16814">
        <g id="Group_16812" data-name="Group 16812">
          <circle id="Ellipse_127" data-name="Ellipse 127" cx="12.82" cy="12.82" r="12.82" fill="#fff"/>
          <path id="Path_3088" data-name="Path 3088" d="M175.709,80.313c0-3.857-3.891-6.983-8.69-6.983s-8.69,3.126-8.69,6.983,3.89,6.983,8.69,6.983a10.7,10.7,0,0,0,2.217-.238l3.08,1.843-.574-2.732A6.774,6.774,0,0,0,175.709,80.313Z" transform="translate(-154.199 -67.493)" fill="#2cbf8c"/>
        </g>
        <g id="Group_16813" data-name="Group 16813" transform="translate(7.046 11.648)">
          <path id="Path_3089" data-name="Path 3089" d="M167.8,88.7a1.171,1.171,0,1,1-1.171-1.171A1.171,1.171,0,0,1,167.8,88.7Z" transform="translate(-165.454 -87.531)" fill="#fff"/>
          <path id="Path_3090" data-name="Path 3090" d="M179.043,88.7a1.171,1.171,0,1,1-1.171-1.171A1.171,1.171,0,0,1,179.043,88.7Z" transform="translate(-172.098 -87.531)" fill="#fff"/>
          <path id="Path_3091" data-name="Path 3091" d="M190.291,88.7a1.171,1.171,0,1,1-1.171-1.171A1.171,1.171,0,0,1,190.291,88.7Z" transform="translate(-178.742 -87.531)" fill="#fff"/>
        </g>
      </g>
      <g id="Group_16817" data-name="Group 16817" transform="translate(57.654 0)">
        <g id="Group_16815" data-name="Group 16815">
          <circle id="Ellipse_128" data-name="Ellipse 128" cx="12.82" cy="12.82" r="12.82" fill="#fff"/>
        </g>
        <g id="Group_16816" data-name="Group 16816" transform="translate(5.434 7.515)">
          <path id="Path_3092" data-name="Path 3092" d="M311.114,82.306l-6.982-4.874h13.96Z" transform="translate(-303.42 -77.432)" fill="#2cbf8c"/>
          <path id="Path_3093" data-name="Path 3093" d="M317.776,78.656V88.9H302.392V78.652l7.694,5.369Z" transform="translate(-302.392 -78.152)" fill="#2cbf8c"/>
        </g>
      </g>
    </g>
    <g id="Group_16835" data-name="Group 16835" transform="translate(23.18 53.383)">
      <path id="Path_3094" data-name="Path 3094" d="M228.5,264.225c-1.5-14.494-9-20.493-37.04-20.493s-35.544,6-37.04,20.493S153.4,308.5,153.4,308.5h76.127S230,278.719,228.5,264.225Z" transform="translate(-108.753 -190.713)" fill="#313384"/>
      <g id="Group_16828" data-name="Group 16828" transform="translate(40.998)">
        <path id="Path_3095" data-name="Path 3095" d="M320.384,282.542c-.314,11.022-.983,34.433-1.08,36.439a40.015,40.015,0,0,0,7.127-1.8c-1.589-8.2-4.257-16.157-5.089-24.482C320.8,289.176,320.781,285.828,320.384,282.542Z" transform="translate(-247.802 -213.64)" fill="#22a477"/>
        <path id="Path_3096" data-name="Path 3096" d="M322.1,268.68s-.063,2.235-.16,5.673c.4,3.286.415,6.634.958,10.158.832,8.325,3.5,16.283,5.089,24.482a57.747,57.747,0,0,0,7.649-3.61C330.949,288.883,328.671,277.553,322.1,268.68Z" transform="translate(-249.361 -205.451)" fill="#2cbf8c"/>
        <g id="Group_16827" data-name="Group 16827">
          <path id="Path_3097" data-name="Path 3097" d="M159.446,308.48c-.143-.025-.286-.053-.426-.078l-.147-.029-.925-.184a36.579,36.579,0,0,1-11.361-4.33c-.61-.336-1.244-.688-1.919-1.068,4.678-17.32,6.949-29.209,13.509-38.519C158.177,264.272,159.319,305.713,159.446,308.48Z" transform="translate(-144.636 -202.847)" fill="#22a477"/>
          <path id="Path_3098" data-name="Path 3098" d="M224.6,218.143c3.715-2.012,17.778-3.125,19.083,0s.008,7.111-1.283,8.055-8.258,5.213-8.258,5.213-7.971-2.381-8.943-5.947S223.685,219.421,224.6,218.143Z" transform="translate(-191.577 -174.445)" fill="#f9f2f2"/>
          <g id="Group_16820" data-name="Group 16820" transform="translate(9.324 33.998)">
            <path id="Path_3099" data-name="Path 3099" d="M222.848,300.962c-.122.352,9.944,1.306,9.659,1.579-2.047,1.951-3.082-.217-5.665.836-7.814,3.187-14.927-.411-23.219,0-5.067.256-6.218.789-10.773,0-3.716-.633-6.317.486-9.752-.836-2.127-.818,7.332,1.078,5.294,0-.663-.352-11.712,1.532-11.888.836-.222-.868-6.129,0-5.806-.836,3.788-9.84.524-15.037,0-26.227q-.409-8.739-.839-17.788c-.163-3.456-.721-9.328.8-12.654,1.132-2.487,9.928-10.041,17.415-13.04a21.031,21.031,0,0,1,7.306-1.732c1.787-.168,3.548-.26,5.251-.264.47,0,.952.012,1.434.046.591.038,1.187.1,1.791.185.935.126,1.875.315,2.827.537a40.65,40.65,0,0,1,6.031,2c8.808,3.645,16.765,9.94,18.082,12.717a11.14,11.14,0,0,1,.327,3.137c.109,3.649-.075,10.008-.4,17.578-.226,5.18-.532,10.926-.851,16.723-.478,8.661,1.045,11.111,3.691,18.782C233.716,302.994,223.011,300.492,222.848,300.962Z" transform="translate(-167.373 -217.092)" fill="#2cbf8c"/>
            <path id="Path_3100" data-name="Path 3100" d="M202.062,230.881l-2.043,6.447s-13.426,12.369-14.642,20.208c-.952,6.141,6.061,27.014,6.451,43.426-3.716-.633-2.416,3.829-5.851,2.508-2.127-.818-7.713,1.635-9.752.557-.663-.352,3.334-.325,3.158-1.022-.222-.868-6.545.278-6.223-.557,3.788-9.84-1.939-14.944-2.463-26.134q-.409-8.739-.839-17.788c-.163-3.456-.721-9.328.8-12.654,1.132-2.487,9.928-10.041,17.415-13.04a21.031,21.031,0,0,1,7.306-1.732c1.787-.168,3.548-.26,5.251-.264C201.1,230.83,201.579,230.847,202.062,230.881Z" transform="translate(-167.373 -217.092)" fill="#2cbf8c"/>
            <path id="Path_3101" data-name="Path 3101" d="M244.066,212.241a35.151,35.151,0,0,1-9.022,7.982,37.52,37.52,0,0,1-9.383-8.5c.285-.084.558-.159.831-.226l-.189-14.013,16.832-.23.168,12.205.034,2.546C243.579,212.081,243.822,212.157,244.066,212.241Z" transform="translate(-201.806 -197.255)" fill="#fbc"/>
            <path id="Path_3102" data-name="Path 3102" d="M243.248,205.5l-.113-8.247-16.832.23.189,14.013q-.409.1-.831.226a42.032,42.032,0,0,0,5.158,5.4C235.069,213.339,238.745,208.866,243.248,205.5Z" transform="translate(-201.806 -197.255)" fill="#e2a0b8"/>
          </g>
          <g id="Group_16824" data-name="Group 16824" transform="translate(24.885)">
            <g id="Group_16821" data-name="Group 16821" transform="translate(0 23.989)">
              <path id="Path_3103" data-name="Path 3103" d="M209.07,173.732c-3.348-.1-3.92,2.814-3.592,4.416s2.361,4.938,4.781,2.918C210.473,174.334,209.07,173.732,209.07,173.732Z" transform="translate(-205.397 -173.349)" fill="#e2a0b8"/>
              <path id="Path_3104" data-name="Path 3104" d="M280.155,172.808c3.344-.19,3.995,2.707,3.711,4.317s-2.226,5-4.7,3.046C278.769,173.447,280.155,172.808,280.155,172.808Z" transform="translate(-248.933 -172.799)" fill="#fbc"/>
            </g>
            <path id="Path_3105" data-name="Path 3105" d="M241.661,148.162c0,9.848-4.608,19.332-14.085,19.458a12.386,12.386,0,0,1-3.344-.39c-7.285-1.833-11.056-10.073-11.268-18.682-.194-8.029,1.389-13.932,6.32-16.729a15.975,15.975,0,0,1,7.777-1.806C238.2,129.86,241.657,138.8,241.661,148.162Z" transform="translate(-209.859 -123.532)" fill="#fbcfda"/>
            <path id="Path_3106" data-name="Path 3106" d="M239.138,134.22c-.1,1.377-.508,3.17-.65,4.818a8.372,8.372,0,0,0,.066,2.4l-1.878-7.209s-1.784-.905-2.172-2.181c-.805-2.6-1.274-4.048-1.292-4.046-5.764,3.374-18.711.563-18.711.563s-.453,2.962-.817,4.409a3.589,3.589,0,0,1-2.237,2.361l-1.348,6.484s-2.281-11.28-2.259-15.3c.011-1.563.551-3.008,2.206-3.485a.108.108,0,0,1-.022-.035c-.7-1.283.4-2.828,1.544-3.756,4.233-3.453,9.865-4.773,15.329-5.024a11.746,11.746,0,0,1,5.367.691,4.757,4.757,0,0,1,2.979,4.2,4.564,4.564,0,0,1,4.007,3.248C240.447,125.765,239.4,130.649,239.138,134.22Z" transform="translate(-206.84 -114.182)" fill="#35366a"/>
            <g id="Group_16822" data-name="Group 16822" transform="translate(10.434 27.336)">
              <path id="Path_3107" data-name="Path 3107" d="M232.839,182.294c.025.72-.392,1.3-.929,1.29s-.993-.6-1.017-1.317.392-1.3.929-1.29S232.814,181.574,232.839,182.294Z" transform="translate(-230.891 -180.977)" fill="#313384"/>
            </g>
            <g id="Group_16823" data-name="Group 16823" transform="translate(21.784 27.049)">
              <path id="Path_3108" data-name="Path 3108" d="M260.556,181.748c-.091.715-.594,1.219-1.123,1.125a1.244,1.244,0,0,1-.794-1.462c.091-.715.594-1.218,1.123-1.125A1.244,1.244,0,0,1,260.556,181.748Z" transform="translate(-258.624 -180.275)" fill="#313384"/>
            </g>
            <path id="Path_3109" data-name="Path 3109" d="M226.045,169.522a6.28,6.28,0,0,1,3.91-1.258c1.024.092.327-.759-.4-.771a5.147,5.147,0,0,0-3.487,1.306c-.2.182-.4.478-.245.7a.148.148,0,0,0,.09.066A.2.2,0,0,0,226.045,169.522Z" transform="translate(-217.429 -145.675)" fill="#313384"/>
            <path id="Path_3110" data-name="Path 3110" d="M260.148,167.877a6.276,6.276,0,0,0-4.075-.513c-.989.279-.461-.686.253-.832a5.147,5.147,0,0,1,3.669.639c.232.141.482.4.37.643a.15.15,0,0,1-.076.082A.2.2,0,0,1,260.148,167.877Z" transform="translate(-235.013 -145.048)" fill="#313384"/>
          </g>
          <path id="Path_3111" data-name="Path 3111" d="M246.8,190.785a2.244,2.244,0,0,0,1.75-.625c.4-.595-.085-1.819-.244-2.429q-.379-1.452-.9-2.863a1.529,1.529,0,0,0-.261-.5.535.535,0,0,0-.507-.19.717.717,0,0,0-.383.331,5.088,5.088,0,0,0-.453,2.192q-.163,1.337-.283,2.679A1.168,1.168,0,0,0,246.8,190.785Z" transform="translate(-204.213 -155.523)" fill="#e2a0b8"/>
          <g id="Group_16825" data-name="Group 16825" transform="translate(31.117 43.699)">
            <path id="Path_3112" data-name="Path 3112" d="M231.217,230.28l-3.389,8.405s-6.814-8.6-7.122-11.748c-.545-5.587,1.82-5.977,1.82-5.977a5.351,5.351,0,0,0,1.3,3.766,25.781,25.781,0,0,0,5.989,4.84Z" transform="translate(-220.625 -220.96)" fill="#fefefe"/>
            <path id="Path_3113" data-name="Path 3113" d="M246.075,247.679l-1.741-.809.889-3.137Z" transform="translate(-234.631 -234.412)" fill="#fefefe"/>
            <path id="Path_3114" data-name="Path 3114" d="M250.328,246.869l-1.741.809.856-3.947Z" transform="translate(-237.144 -234.412)" fill="#fefefe"/>
          </g>
          <path id="Path_3115" data-name="Path 3115" d="M250.328,246.869l-1.741.809.856-3.947Z" transform="translate(-206.026 -190.713)" fill="#fff"/>
          <path id="Path_3116" data-name="Path 3116" d="M260.883,226.618a4.924,4.924,0,0,1-.193.948c-.935,3.02-6.627,11.119-6.627,11.119l-2.5-5.268-.885-3.137,1.393-.713a25.779,25.779,0,0,0,5.989-4.84,5.351,5.351,0,0,0,1.3-3.766A10.252,10.252,0,0,1,260.883,226.618Z" transform="translate(-207.261 -177.261)" fill="#fefefe"/>
          <path id="Path_3117" data-name="Path 3117" d="M245.506,247.679l-2.135-.764,1.283-3.183Z" transform="translate(-202.945 -190.713)" fill="#fff"/>
          <path id="Path_3118" data-name="Path 3118" d="M247.61,208.623a.419.419,0,0,1,.253-.061.279.279,0,0,1,.177.344.721.721,0,0,1-.254.343,4.1,4.1,0,0,1-5.017.315c-.22-.143-.458-.4-.336-.631a1.672,1.672,0,0,1,1.185.086A5.183,5.183,0,0,0,247.61,208.623Z" transform="translate(-202.371 -169.934)" fill="#313384"/>
          <path id="Path_3119" data-name="Path 3119" d="M173.937,368.5v7.69H150.708c-3.683,0-6.446-2.476-6.086-6.773a42.556,42.556,0,0,1,1.919-8.41,36.579,36.579,0,0,0,11.361,4.33c.3.065.61.127.925.184l.147.029Z" transform="translate(-144.591 -259.99)" fill="#fbcfda"/>
          <path id="Path_3120" data-name="Path 3120" d="M312.022,373.382a5.877,5.877,0,0,1-5.324,2.8H283.468V368.5l14.962-2.951.147-.029c.315-.057,1.285-.5,1.584-.565a32.25,32.25,0,0,0,10.7-3.949,42.553,42.553,0,0,1,1.919,8.41A6.779,6.779,0,0,1,312.022,373.382Z" transform="translate(-226.632 -259.99)" fill="#fbcfda"/>
          <path id="Path_3121" data-name="Path 3121" d="M312.022,391.252a5.877,5.877,0,0,1-5.324,2.8H283.468v-2.746C290.172,391.383,303.431,391.489,312.022,391.252Z" transform="translate(-226.632 -277.86)" fill="#e2a0b8"/>
          <path id="Path_3122" data-name="Path 3122" d="M243.371,251.444v18.129h3.876V251.4l-1.741.809Z" transform="translate(-202.945 -195.242)" fill="#fff"/>
          <circle id="Ellipse_129" data-name="Ellipse 129" cx="0.972" cy="0.972" r="0.972" transform="translate(41.48 59.802)" fill="#1f8b66"/>
          <circle id="Ellipse_130" data-name="Ellipse 130" cx="0.972" cy="0.972" r="0.972" transform="translate(41.48 67.578)" fill="#1f8b66"/>
          <path id="Path_3123" data-name="Path 3123" d="M207.026,183.118c-.913.156-3.618-2.992-3.618-5.967s.462-4.469,1.306-4.747,2.312-.1,2.312,1.391c0,0,1.465,7.248,1.637,7.8S207.938,182.967,207.026,183.118Z" transform="translate(-179.337 -148.512)" fill="#289c74"/>
          <path id="Path_3124" data-name="Path 3124" d="M282.235,181.448a1.626,1.626,0,0,1-.241-.033c-.839-.16-1.641-.81-1.531-1.33.123-.569.909-7.919.909-7.919-.139-1.481,1.305-1.8,2.169-1.6a.961.961,0,0,1,.4.2c.655.507,1.113,1.923,1.342,4.4C285.558,178.133,283.16,181.518,282.235,181.448Z" transform="translate(-224.851 -147.459)" fill="#289c74"/>
          <path id="Path_3125" data-name="Path 3125" d="M208.623,146.347c0-4.618-.783-5.8-.783-9.016s2.6-12.626,16.713-12.062,15.776,8.593,16.006,11.638a61.525,61.525,0,0,1-.576,9.094" transform="translate(-181.955 -120.717)" fill="none" stroke="#f5f5f5" stroke-miterlimit="10" stroke-width="2"/>
          <path id="Path_3126" data-name="Path 3126" d="M208.623,149.131c0-4.189-.783-5.295-.783-8.211s2.6-11.452,16.713-10.941,15.776,7.795,16.006,10.557a50.716,50.716,0,0,1-.576,8.249" transform="translate(-181.955 -123.501)" fill="none" stroke="#f5f5f5" stroke-miterlimit="10" stroke-width="2"/>
          <path id="Path_3127" data-name="Path 3127" d="M284.459,181.814a1.63,1.63,0,0,1-.241-.033,83.855,83.855,0,0,0,1.944-10.649c.655.507,1.113,1.923,1.342,4.4C287.783,178.5,285.384,181.883,284.459,181.814Z" transform="translate(-227.075 -147.825)" fill="#15b77e"/>
          <path id="Path_3128" data-name="Path 3128" d="M207.026,183.276c-.913.156-3.618-2.992-3.618-5.967s.462-4.469,1.306-4.747C204.714,172.562,205.884,180.669,207.026,183.276Z" transform="translate(-179.337 -148.67)" fill="#15b77e"/>
          <g id="Group_16826" data-name="Group 16826" transform="translate(45.682 30.721)">
            <path id="Path_3129" data-name="Path 3129" d="M270.807,189.247l0,.032a24.653,24.653,0,0,1-2.256,6.714,16.359,16.359,0,0,1-3.392,4.6,11.107,11.107,0,0,1-5.5,2.807l.155.8a11.963,11.963,0,0,0,6.043-3.147,19.494,19.494,0,0,0,4.638-7.508,24.1,24.1,0,0,0,1.122-4.177l-.81-.121Z" transform="translate(-258.249 -189.247)" fill="#313384"/>
            <path id="Path_3130" data-name="Path 3130" d="M258.462,223.938l-.99.14a1.1,1.1,0,1,1-.31-2.185l.99-.14a1.1,1.1,0,0,1,.31,2.185Z" transform="translate(-256.213 -208.443)" fill="#313384"/>
          </g>
        </g>
      </g>
      <g id="Group_16829" data-name="Group 16829" transform="translate(90.025 70.266)">
        <rect id="Rectangle_1735" data-name="Rectangle 1735" width="9.313" height="15.123" rx="3.285" transform="translate(0 2.536)" fill="#d1e7ff"/>
        <rect id="Rectangle_1736" data-name="Rectangle 1736" width="1.512" height="5.072" transform="translate(3.9)" fill="#583535"/>
      </g>
      <g id="Group_16830" data-name="Group 16830" transform="translate(52.356 78.679)">
        <path id="Path_3131" data-name="Path 3131" d="M233.564,341.7H174.685l-2.333-31.815a3.217,3.217,0,0,1,3.208-3.452h57.129a3.217,3.217,0,0,1,3.208,3.452Z" transform="translate(-172.344 -306.432)" fill="#fff"/>
        <path id="Rectangle_1737" data-name="Rectangle 1737" d="M0,0H58.8a0,0,0,0,1,0,0V0a2.251,2.251,0,0,1-2.251,2.251H2.251A2.251,2.251,0,0,1,0,0V0A0,0,0,0,1,0,0Z" transform="translate(2.342 35.267)" fill="#cfecff"/>
        <circle id="Ellipse_131" data-name="Ellipse 131" cx="3.738" cy="3.738" r="3.738" transform="matrix(0.924, -0.383, 0.383, 0.924, 26.897, 15.61)" fill="#87d8bc"/>
      </g>
      <g id="Group_16833" data-name="Group 16833" transform="translate(18.192 80.363)">
        <g id="Group_16832" data-name="Group 16832">
          <g id="Group_16831" data-name="Group 16831">
            <path id="Path_3132" data-name="Path 3132" d="M108.77,343.422a40.814,40.814,0,0,0,1.924-19.688,28.762,28.762,0,0,0-5.781,19.179Z" transform="translate(-98.3 -318.337)" fill="#12d490"/>
            <path id="Path_3133" data-name="Path 3133" d="M96.391,337.518a39.064,39.064,0,0,0-6.66-26.972,32.085,32.085,0,0,0,4.042,24.629Z" transform="translate(-88.865 -310.546)" fill="#1ea576"/>
          </g>
          <path id="Path_3134" data-name="Path 3134" d="M104.293,358.763l-1.363,10.279-.724,5.446H93.748L92.1,362.076l-.442-3.319h3.354Z" transform="translate(-90.517 -339.027)" fill="#e2eaf3"/>
          <path id="Path_3135" data-name="Path 3135" d="M109.134,358.763l-1.363,10.279-7.915-10.284Z" transform="translate(-95.358 -339.027)" fill="#cfd3d8"/>
        </g>
      </g>
      <rect id="Rectangle_1738" data-name="Rectangle 1738" width="168.11" height="5.642" transform="translate(0 116.196)" fill="#d9d9d9"/>
    </g>
  </g>
</svg>
