<svg xmlns="http://www.w3.org/2000/svg" width="72.361" height="72.001" viewBox="0 0 72.361 72.001">
  <g id="noun_social_profile_2376275" data-name="noun_social profile_2376275" transform="translate(-7.782 -7.906)">
    <path id="Path_2969" data-name="Path 2969" d="M71.9,46.344A32.351,32.351,0,1,0,46.754,71.928,18.284,18.284,0,1,0,71.9,46.344ZM40.138,71.149A31.081,31.081,0,1,1,70.545,45.523a18.19,18.19,0,0,0-8.692-2.2c-.189,0-.37.023-.558.029V41.266c0-5.489-5.011-6.668-9.036-7.613-3.133-.736-5.063-1.312-5.221-2.784a9.386,9.386,0,0,0,2.8-6.389V21.341a9.675,9.675,0,0,0-.763-3.774.005.005,0,0,1,0,0,9.666,9.666,0,0,0-12.069-5.4.463.463,0,0,0-.063.023,9.735,9.735,0,0,0-5.914,5.845.817.817,0,0,0-.047.126,9.654,9.654,0,0,0-.546,3.178v3.138a9.383,9.383,0,0,0,2.8,6.389c-.16,1.471-2.092,2.046-5.223,2.783-4.025.946-9.036,2.124-9.036,7.613V57.576a4.774,4.774,0,0,0,4.768,4.771H43.6A18.178,18.178,0,0,0,45.936,70.6,31.327,31.327,0,0,1,40.138,71.149ZM43.6,60.882H23.745a3.309,3.309,0,0,1-3.3-3.307V41.264c0-4.33,4.02-5.276,7.907-6.189l.47-.113,3.7,8.169c.007.019.028.026.037.042a.729.729,0,0,0,.086.145.707.707,0,0,0,.108.079.58.58,0,0,0,.086.061.715.715,0,0,0,.348.1h0a.722.722,0,0,0,.275-.06c.007,0,.015,0,.022,0a.9.9,0,0,0,.076-.054.749.749,0,0,0,.113-.069l.991-.893,2.8,2.733-1.9,8.585a.391.391,0,0,0,0,.059.726.726,0,0,0,0,.149.693.693,0,0,0,.019.136.9.9,0,0,0,.05.126.7.7,0,0,0,.076.127.475.475,0,0,0,.031.051l3.409,3.784a.734.734,0,0,0,.545.242c.025,0,.05-.012.073-.013s.05.013.075.013a.736.736,0,0,0,.545-.242L43.8,54.447a.476.476,0,0,0,.031-.051.691.691,0,0,0,.075-.127.724.724,0,0,0,.051-.127.7.7,0,0,0,.019-.135.85.85,0,0,0,0-.149c0-.02,0-.04,0-.06l-1.9-8.584,2.806-2.734.994.894a.69.69,0,0,0,.108.066.642.642,0,0,0,.079.057c.007,0,.015,0,.022,0a.749.749,0,0,0,.28.06.727.727,0,0,0,.348-.1.865.865,0,0,0,.088-.061.707.707,0,0,0,.108-.079.806.806,0,0,0,.086-.145c.01-.018.029-.025.037-.042l3.765-8.33c.379.094.761.184,1.14.274,3.886.913,7.906,1.858,7.906,6.189v2.174A18.3,18.3,0,0,0,43.6,60.882ZM31.9,21.341a8.21,8.21,0,0,1,.328-2.281c2.772-.138,4.564-1.271,5.322-3.412,1.361,1.582,4.34,2.853,10.334,2.925a8.154,8.154,0,0,1,.489,2.768v3.138c0,4.359-4.605,8.238-8.234,8.238h0c-3.63,0-8.237-3.879-8.237-8.238V21.341Zm.924-3.772a8.282,8.282,0,0,1,3.627-3.583A3.682,3.682,0,0,1,32.822,17.569Zm5.218-4.185a8.142,8.142,0,0,1,2.1-.281,8.23,8.23,0,0,1,7.045,4C43.506,16.984,38.58,16.28,38.04,13.384Zm-3.6,18.583a9.577,9.577,0,0,0,5.7,2.215h0a9.564,9.564,0,0,0,5.7-2.215,3.355,3.355,0,0,0,1.177,1.366l-5.085,5.06H37.6l-4.788-4.766A3.671,3.671,0,0,0,34.438,31.966Zm11.656,9.652-2.8-2.521,5.071-5.046q.474.191.992.351ZM39.764,56.731l-2.688-2.982,1.777-8.041h1.817l1.781,8.041Zm1.2-12.488h-2.4L35.752,41.5l1.828-1.647h4.368L43.777,41.5ZM31.37,34.251,36.235,39.1l-2.8,2.521L30.26,34.6C30.642,34.491,31.011,34.376,31.37,34.251ZM61.852,78.443A16.848,16.848,0,0,1,45.021,61.62s0,0,0-.006,0,0,0-.006A16.83,16.83,0,1,1,61.852,78.443Z" transform="translate(0)" fill="#3b5091"/>
    <path id="Path_2970" data-name="Path 2970" d="M54.752,36.453a4.311,4.311,0,0,0-4.305,4.308,4.254,4.254,0,0,0,.326,1.631l-7.066,4.753a4.308,4.308,0,1,0,.1,5.611l4.975,2.569a4.33,4.33,0,1,0,.48-1.4l-4.719-2.436a4.164,4.164,0,0,0-.051-3.112l7.064-4.751a4.3,4.3,0,1,0,3.193-7.173Zm-1.729,16.69a2.843,2.843,0,1,1-2.841,2.841A2.845,2.845,0,0,1,53.023,53.143Zm-12.505-.288a2.841,2.841,0,1,1,2.841-2.841A2.845,2.845,0,0,1,40.518,52.855ZM54.752,43.6a2.843,2.843,0,1,1,2.843-2.841A2.845,2.845,0,0,1,54.752,43.6Z" transform="translate(13.186 13.24)" fill="#3b5091" stroke="#374d96" stroke-width="1"/>
  </g>
</svg>
