<svg xmlns="http://www.w3.org/2000/svg" width="40.428" height="37.258" viewBox="0 0 40.428 37.258">
  <g id="Group_16279" data-name="Group 16279" transform="translate(-75.908 -79.387)">
    <path id="Path_2873" data-name="Path 2873" d="M26.18,34.113H3.617V21.174H6.852V23.6H11.7V21.174H27.878V23.6H32.73V21.174h3.235v5.369l1.617.314v-17H25.452V7.426A2.383,2.383,0,0,0,23.026,5h-6.47A2.383,2.383,0,0,0,14.13,7.426V9.852H2V35.73l24.751.084ZM10.087,21.982H8.47V18.748h1.617Zm21.026,0H29.5V18.748h1.617ZM15.748,7.426a.764.764,0,0,1,.809-.809h6.47a.764.764,0,0,1,.809.809V9.852H15.748ZM35.965,11.47v8.087H32.73V17.13H27.878v2.426H11.7V17.13H6.852v2.426H3.617V11.47Z" transform="translate(73.908 74.387)" fill="#ffa101"/>
    <path id="Path_2875" data-name="Path 2875" d="M113.384,103.277c.147.149.289.3.424.46.061.073.123.147.182.222l.044.055c-.063-.083,0,0,.008.01.032.042.063.083.093.127a7.666,7.666,0,0,1,.622,1.02c.042.083.083.166.121.25.02.042.038.083.057.127.008.018.016.034.022.051l.022.051c-.022-.051-.024-.057-.008-.018.073.178.141.359.2.543a7.972,7.972,0,0,1,.275,1.115c.008.046.014.089.022.135l.012.081c0,.034.024.048,0-.024a1.353,1.353,0,0,1,.034.3c.018.19.028.38.032.57s0,.38-.012.572c-.006.091-.012.18-.02.271a1.14,1.14,0,0,1-.034.3c.036-.089,0-.036,0,0,0,.018-.006.036-.008.053l-.024.149c-.018.1-.036.2-.055.3-.04.188-.085.374-.139.559s-.117.376-.186.561a2.393,2.393,0,0,1-.1.258c0-.008.036-.083.008-.018-.012.026-.022.051-.034.075-.022.051-.046.1-.069.151a7.668,7.668,0,0,1-.578,1.024c-.053.079-.107.156-.162.234-.028.038-.055.077-.085.115,0,0-.059.079-.022.028s-.034.042-.04.05c-.125.158-.258.313-.4.46a7.846,7.846,0,0,1-.9.826c-.016.012-.087.077-.01.008-.014.012-.032.024-.046.034-.038.028-.075.057-.115.085q-.128.092-.256.178c-.164.109-.333.212-.5.307s-.353.188-.533.271l-.127.057-.063.028c-.085.038.061-.024.006,0-.093.038-.188.075-.283.111a7.588,7.588,0,0,1-1.119.319c-.089.018-.178.036-.269.05l-.135.022-.053.008-.053.008c.059-.008.069-.01.024,0-.19.024-.378.042-.57.051a7.866,7.866,0,0,1-1.143-.024c-.091-.008-.18-.022-.271-.03.123.01-.028,0-.057-.008l-.162-.026c-.188-.032-.376-.071-.561-.119s-.37-.1-.553-.16a3.429,3.429,0,0,1-.543-.2c.1.053-.03-.014-.057-.026-.046-.02-.093-.042-.139-.063-.093-.044-.184-.087-.275-.135-.174-.089-.345-.186-.513-.289s-.341-.22-.505-.339l-.115-.085c-.016-.012-.059-.044.012.01-.024-.018-.046-.036-.067-.053q-.125-.1-.244-.2a7.919,7.919,0,0,1-.862-.868c-.061-.073-.123-.147-.182-.222,0,0-.059-.079-.022-.028s-.018-.024-.022-.028c-.034-.046-.067-.091-.1-.139-.115-.16-.224-.327-.327-.5s-.2-.339-.285-.513c-.042-.083-.083-.166-.121-.25-.02-.042-.038-.083-.057-.127-.012-.026-.022-.051-.034-.075-.038-.089.034.081,0-.008a8.165,8.165,0,0,1-.359-1.1c-.048-.19-.087-.382-.119-.574-.008-.046-.014-.089-.022-.135,0-.022-.006-.046-.01-.067-.014-.091.008.071,0,.01-.012-.1-.024-.2-.032-.3a8.052,8.052,0,0,1-.018-1.157c.006-.091.012-.18.022-.271,0-.046.01-.091.014-.135l.006-.053c0-.024.022-.151,0-.03.03-.188.059-.378.1-.565a7.674,7.674,0,0,1,.323-1.105c.032-.085.073-.17.1-.258-.034.107.014-.032.026-.057.022-.052.046-.1.069-.151.083-.176.172-.351.267-.521s.2-.339.309-.5c.053-.079.107-.156.162-.234.03-.042.061-.085.093-.127.014-.018.055-.073,0,0,.018-.024.036-.046.053-.067a7.719,7.719,0,0,1,.842-.9c.153-.141.311-.273.473-.4.016-.012.055-.05-.012.01.022-.018.046-.036.069-.052s.077-.057.115-.083c.085-.061.17-.119.258-.176a7.867,7.867,0,0,1,1.026-.57l.127-.057.063-.028c.055-.024-.091.038-.006,0s.188-.075.283-.111c.18-.065.364-.125.549-.178s.37-.1.559-.137c.089-.018.178-.036.269-.05l.135-.022.081-.012c.1-.014-.093.012,0,0a8.125,8.125,0,0,1,1.141-.059c.2,0,.39.016.584.034l.135.014.067.008c.008,0,.1.01.028,0s.02,0,.028,0l.081.012.149.024a7.892,7.892,0,0,1,1.127.285c.087.03.174.059.259.091.044.016.085.032.129.05l.051.02c.022.008.137.061.034.014.176.081.355.158.527.248a7.371,7.371,0,0,1,1,.622l.115.085c.079.059-.067-.053.01.008l.046.036c.075.059.149.121.222.182.156.139.307.277.45.422a.4.4,0,0,0,.561-.561,8.15,8.15,0,0,0-4.39-2.272,8.3,8.3,0,0,0-4.845.652,8.163,8.163,0,1,0,10.069,2.6,8.532,8.532,0,0,0-.834-.979.4.4,0,0,0-.561,0A.409.409,0,0,0,113.384,103.277Z" fill="#ffa101"/>
    <g id="Group_16282" data-name="Group 16282" transform="translate(103.955 105.598)">
      <g id="Group_16281" data-name="Group 16281" transform="translate(0 0)">
        <path id="Path_2876" data-name="Path 2876" d="M307,366.275l-.515.515-1.228,1.228L303.77,369.5l-1.29,1.29c-.208.208-.428.408-.626.626,0,0-.006.006-.01.01h.561l-.921-.923-1.476-1.48-.337-.339a.4.4,0,0,0-.561.561l.921.923,1.476,1.48.337.339a.4.4,0,0,0,.561,0l.515-.515,1.228-1.228,1.486-1.486,1.29-1.29c.208-.208.424-.412.626-.626,0,0,.006-.006.01-.01a.4.4,0,0,0-.561-.561Z" transform="translate(-298.998 -366.161)" fill="#ffa101" stroke="#ffa101" stroke-width="1"/>
      </g>
    </g>
  </g>
</svg>
