<svg xmlns="http://www.w3.org/2000/svg" width="26.844" height="22.397" viewBox="0 0 26.844 22.397">
  <g id="Icon_feather-users" data-name="Icon feather-users" transform="translate(1 1.07)">
    <path id="Path_2843" data-name="Path 2843" d="M19.569,29.276V27.017A4.517,4.517,0,0,0,15.051,22.5H6.017A4.517,4.517,0,0,0,1.5,27.017v2.259" transform="translate(-1.5 -8.949)" fill="none" stroke="#2cbf8c" stroke-linecap="round" stroke-linejoin="round" stroke-width="2"/>
    <path id="Path_2844" data-name="Path 2844" d="M16.534,9.017A4.517,4.517,0,1,1,12.017,4.5,4.517,4.517,0,0,1,16.534,9.017Z" transform="translate(-2.983 -4.5)" fill="none" stroke="#2cbf8c" stroke-linecap="round" stroke-linejoin="round" stroke-width="2"/>
    <path id="Path_2845" data-name="Path 2845" d="M33.388,29.324V27.065A4.517,4.517,0,0,0,30,22.7" transform="translate(-8.544 -8.997)" fill="none" stroke="#2cbf8c" stroke-linecap="round" stroke-linejoin="round" stroke-width="2"/>
    <path id="Path_2846" data-name="Path 2846" d="M24,4.7a4.517,4.517,0,0,1,0,8.752" transform="translate(-7.061 -4.548)" fill="none" stroke="#2cbf8c" stroke-linecap="round" stroke-linejoin="round" stroke-width="2"/>
  </g>
</svg>
